%TF.GenerationSoftware,KiCad,Pcbnew,10.0.6*%
%TF.CreationDate,2026-09-27T09:25:03-04:00*%
%TF.ProjectId,alps75-zug,616c7073-3735-42d7-9a75-672e6b696361,0.3*%
%TF.SameCoordinates,Original*%
%TF.FileFunction,Drillmap*%
%TF.FilePolarity,Positive*%
%FSLAX45Y45*%
G04 Gerber Fmt 4.5, Leading zero omitted, Abs format (unit mm)*
G04 Created by KiCad (PCBNEW 10.0.6) date 2026-09-27 09:25:03*
%MOMM*%
%LPD*%
G01*
G04 APERTURE LIST*
%ADD10C,0.050000*%
%ADD11C,0.200000*%
%ADD12C,0.100000*%
%ADD13C,0.150000*%
G04 APERTURE END LIST*
D10*
X4324969Y-9284500D02*
G75*
G02*
X4424969Y-9184499I100001J0D01*
G01*
X4324969Y-23801250D02*
X4324969Y-9284500D01*
X4424969Y-9184500D02*
X10407969Y-9184500D01*
X4424969Y-23901250D02*
G75*
G02*
X4324970Y-23801250I1J100000D01*
G01*
X10407969Y-9184500D02*
G75*
G02*
X10507970Y-9284500I1J-100000D01*
G01*
X10507969Y-9284500D02*
X10507969Y-11500000D01*
X10607969Y-11600000D02*
G75*
G02*
X10507970Y-11500000I1J100000D01*
G01*
X10607969Y-11600000D02*
X37021281Y-11600000D01*
X37021281Y-11600000D02*
G75*
G02*
X37121280Y-11700000I-1J-100000D01*
G01*
X37021281Y-23901250D02*
X4424969Y-23901250D01*
X37121281Y-11700000D02*
X37121281Y-23801250D01*
X37121281Y-23801250D02*
G75*
G02*
X37021281Y-23901251I-100001J0D01*
G01*
D11*
D12*
X5259969Y-13929500D02*
X5289969Y-13959500D01*
X5289969Y-13929500D02*
X5259969Y-13959500D01*
X5259969Y-17739500D02*
X5289969Y-17769500D01*
X5289969Y-17739500D02*
X5259969Y-17769500D01*
X5259969Y-19644500D02*
X5289969Y-19674500D01*
X5289969Y-19644500D02*
X5259969Y-19674500D01*
X5259969Y-21549500D02*
X5289969Y-21579500D01*
X5289969Y-21549500D02*
X5259969Y-21579500D01*
X5259969Y-23454500D02*
X5289969Y-23484500D01*
X5289969Y-23454500D02*
X5259969Y-23484500D01*
X5284969Y-9644500D02*
X5314969Y-9674500D01*
X5314969Y-9644500D02*
X5284969Y-9674500D01*
X5309969Y-12024500D02*
X5339969Y-12054500D01*
X5339969Y-12024500D02*
X5309969Y-12054500D01*
X5309969Y-15834500D02*
X5339969Y-15864500D01*
X5339969Y-15834500D02*
X5309969Y-15864500D01*
X7139969Y-9644500D02*
X7169969Y-9674500D01*
X7169969Y-9644500D02*
X7139969Y-9674500D01*
X7139969Y-12024500D02*
X7169969Y-12054500D01*
X7169969Y-12024500D02*
X7139969Y-12054500D01*
X7164969Y-13929500D02*
X7194969Y-13959500D01*
X7194969Y-13929500D02*
X7164969Y-13959500D01*
X7164969Y-15834500D02*
X7194969Y-15864500D01*
X7194969Y-15834500D02*
X7164969Y-15864500D01*
X7164969Y-17739500D02*
X7194969Y-17769500D01*
X7194969Y-17739500D02*
X7164969Y-17769500D01*
X7164969Y-19644500D02*
X7194969Y-19674500D01*
X7194969Y-19644500D02*
X7164969Y-19674500D01*
X7164969Y-21549500D02*
X7194969Y-21579500D01*
X7194969Y-21549500D02*
X7164969Y-21579500D01*
X7164969Y-23454500D02*
X7194969Y-23484500D01*
X7194969Y-23454500D02*
X7164969Y-23484500D01*
X7240969Y-9509500D02*
X7270969Y-9539500D01*
X7270969Y-9509500D02*
X7240969Y-9539500D01*
X7748969Y-9509500D02*
X7778969Y-9539500D01*
X7778969Y-9509500D02*
X7748969Y-9539500D01*
X8002969Y-9509500D02*
X8032969Y-9539500D01*
X8032969Y-9509500D02*
X8002969Y-9539500D01*
X8256969Y-9509500D02*
X8286969Y-9539500D01*
X8286969Y-9509500D02*
X8256969Y-9539500D01*
X8510969Y-9509500D02*
X8540969Y-9539500D01*
X8540969Y-9509500D02*
X8510969Y-9539500D01*
X9018969Y-9509500D02*
X9048969Y-9539500D01*
X9048969Y-9509500D02*
X9018969Y-9539500D01*
X9069969Y-13929500D02*
X9099969Y-13959500D01*
X9099969Y-13929500D02*
X9069969Y-13959500D01*
X9069969Y-15834500D02*
X9099969Y-15864500D01*
X9099969Y-15834500D02*
X9069969Y-15864500D01*
X9069969Y-17739500D02*
X9099969Y-17769500D01*
X9099969Y-17739500D02*
X9069969Y-17769500D01*
X9069969Y-19644500D02*
X9099969Y-19674500D01*
X9099969Y-19644500D02*
X9069969Y-19674500D01*
X9069969Y-21549500D02*
X9099969Y-21579500D01*
X9099969Y-21549500D02*
X9069969Y-21579500D01*
X9069969Y-23454500D02*
X9099969Y-23484500D01*
X9099969Y-23454500D02*
X9069969Y-23484500D01*
X9544969Y-10119500D02*
X9574969Y-10149500D01*
X9574969Y-10119500D02*
X9544969Y-10149500D01*
X9544969Y-11849500D02*
X9574969Y-11879500D01*
X9574969Y-11849500D02*
X9544969Y-11879500D01*
X10974969Y-13929500D02*
X11004969Y-13959500D01*
X11004969Y-13929500D02*
X10974969Y-13959500D01*
X10974969Y-15834500D02*
X11004969Y-15864500D01*
X11004969Y-15834500D02*
X10974969Y-15864500D01*
X10974969Y-17739500D02*
X11004969Y-17769500D01*
X11004969Y-17739500D02*
X10974969Y-17769500D01*
X10974969Y-19644500D02*
X11004969Y-19674500D01*
X11004969Y-19644500D02*
X10974969Y-19674500D01*
X10974969Y-21549500D02*
X11004969Y-21579500D01*
X11004969Y-21549500D02*
X10974969Y-21579500D01*
X10974969Y-23454500D02*
X11004969Y-23484500D01*
X11004969Y-23454500D02*
X10974969Y-23484500D01*
X11024969Y-12574500D02*
X11054969Y-12604500D01*
X11054969Y-12574500D02*
X11024969Y-12604500D01*
X12879969Y-13929500D02*
X12909969Y-13959500D01*
X12909969Y-13929500D02*
X12879969Y-13959500D01*
X12879969Y-15834500D02*
X12909969Y-15864500D01*
X12909969Y-15834500D02*
X12879969Y-15864500D01*
X12879969Y-17739500D02*
X12909969Y-17769500D01*
X12909969Y-17739500D02*
X12879969Y-17769500D01*
X12879969Y-19644500D02*
X12909969Y-19674500D01*
X12909969Y-19644500D02*
X12879969Y-19674500D01*
X12879969Y-21549500D02*
X12909969Y-21579500D01*
X12909969Y-21549500D02*
X12879969Y-21579500D01*
X12879969Y-23454500D02*
X12909969Y-23484500D01*
X12909969Y-23454500D02*
X12879969Y-23484500D01*
X12929969Y-12524500D02*
X12959969Y-12554500D01*
X12959969Y-12524500D02*
X12929969Y-12554500D01*
X14784969Y-13929500D02*
X14814969Y-13959500D01*
X14814969Y-13929500D02*
X14784969Y-13959500D01*
X14784969Y-15834500D02*
X14814969Y-15864500D01*
X14814969Y-15834500D02*
X14784969Y-15864500D01*
X14784969Y-17739500D02*
X14814969Y-17769500D01*
X14814969Y-17739500D02*
X14784969Y-17769500D01*
X14784969Y-19644500D02*
X14814969Y-19674500D01*
X14814969Y-19644500D02*
X14784969Y-19674500D01*
X14784969Y-21549500D02*
X14814969Y-21579500D01*
X14814969Y-21549500D02*
X14784969Y-21579500D01*
X14784969Y-23454500D02*
X14814969Y-23484500D01*
X14814969Y-23454500D02*
X14784969Y-23484500D01*
X14834969Y-12474500D02*
X14864969Y-12504500D01*
X14864969Y-12474500D02*
X14834969Y-12504500D01*
X16689969Y-13929500D02*
X16719969Y-13959500D01*
X16719969Y-13929500D02*
X16689969Y-13959500D01*
X16689969Y-15834500D02*
X16719969Y-15864500D01*
X16719969Y-15834500D02*
X16689969Y-15864500D01*
X16689969Y-17739500D02*
X16719969Y-17769500D01*
X16719969Y-17739500D02*
X16689969Y-17769500D01*
X16689969Y-19644500D02*
X16719969Y-19674500D01*
X16719969Y-19644500D02*
X16689969Y-19674500D01*
X16689969Y-21549500D02*
X16719969Y-21579500D01*
X16719969Y-21549500D02*
X16689969Y-21579500D01*
X16689969Y-23454500D02*
X16719969Y-23484500D01*
X16719969Y-23454500D02*
X16689969Y-23484500D01*
X16739969Y-12474500D02*
X16769969Y-12504500D01*
X16769969Y-12474500D02*
X16739969Y-12504500D01*
X18594969Y-13929500D02*
X18624969Y-13959500D01*
X18624969Y-13929500D02*
X18594969Y-13959500D01*
X18594969Y-15834500D02*
X18624969Y-15864500D01*
X18624969Y-15834500D02*
X18594969Y-15864500D01*
X18594969Y-17739500D02*
X18624969Y-17769500D01*
X18624969Y-17739500D02*
X18594969Y-17769500D01*
X18594969Y-19644500D02*
X18624969Y-19674500D01*
X18624969Y-19644500D02*
X18594969Y-19674500D01*
X18594969Y-21549500D02*
X18624969Y-21579500D01*
X18624969Y-21549500D02*
X18594969Y-21579500D01*
X18594969Y-23454500D02*
X18624969Y-23484500D01*
X18624969Y-23454500D02*
X18594969Y-23484500D01*
X18644969Y-12474500D02*
X18674969Y-12504500D01*
X18674969Y-12474500D02*
X18644969Y-12504500D01*
X20499969Y-13929500D02*
X20529969Y-13959500D01*
X20529969Y-13929500D02*
X20499969Y-13959500D01*
X20499969Y-15834500D02*
X20529969Y-15864500D01*
X20529969Y-15834500D02*
X20499969Y-15864500D01*
X20499969Y-17739500D02*
X20529969Y-17769500D01*
X20529969Y-17739500D02*
X20499969Y-17769500D01*
X20499969Y-19644500D02*
X20529969Y-19674500D01*
X20529969Y-19644500D02*
X20499969Y-19674500D01*
X20499969Y-21549500D02*
X20529969Y-21579500D01*
X20529969Y-21549500D02*
X20499969Y-21579500D01*
X20499969Y-23454500D02*
X20529969Y-23484500D01*
X20529969Y-23454500D02*
X20499969Y-23484500D01*
X20549969Y-12474500D02*
X20579969Y-12504500D01*
X20579969Y-12474500D02*
X20549969Y-12504500D01*
X22404969Y-13929500D02*
X22434969Y-13959500D01*
X22434969Y-13929500D02*
X22404969Y-13959500D01*
X22404969Y-15834500D02*
X22434969Y-15864500D01*
X22434969Y-15834500D02*
X22404969Y-15864500D01*
X22404969Y-17739500D02*
X22434969Y-17769500D01*
X22434969Y-17739500D02*
X22404969Y-17769500D01*
X22404969Y-19644500D02*
X22434969Y-19674500D01*
X22434969Y-19644500D02*
X22404969Y-19674500D01*
X22404969Y-21549500D02*
X22434969Y-21579500D01*
X22434969Y-21549500D02*
X22404969Y-21579500D01*
X22404969Y-23454500D02*
X22434969Y-23484500D01*
X22434969Y-23454500D02*
X22404969Y-23484500D01*
X22454969Y-12274500D02*
X22484969Y-12304500D01*
X22484969Y-12274500D02*
X22454969Y-12304500D01*
X24309969Y-13929500D02*
X24339969Y-13959500D01*
X24339969Y-13929500D02*
X24309969Y-13959500D01*
X24309969Y-15834500D02*
X24339969Y-15864500D01*
X24339969Y-15834500D02*
X24309969Y-15864500D01*
X24309969Y-17739500D02*
X24339969Y-17769500D01*
X24339969Y-17739500D02*
X24309969Y-17769500D01*
X24309969Y-19644500D02*
X24339969Y-19674500D01*
X24339969Y-19644500D02*
X24309969Y-19674500D01*
X24309969Y-21549500D02*
X24339969Y-21579500D01*
X24339969Y-21549500D02*
X24309969Y-21579500D01*
X24309969Y-23454500D02*
X24339969Y-23484500D01*
X24339969Y-23454500D02*
X24309969Y-23484500D01*
X24359969Y-12224500D02*
X24389969Y-12254500D01*
X24389969Y-12224500D02*
X24359969Y-12254500D01*
X26214969Y-13929500D02*
X26244969Y-13959500D01*
X26244969Y-13929500D02*
X26214969Y-13959500D01*
X26214969Y-15834500D02*
X26244969Y-15864500D01*
X26244969Y-15834500D02*
X26214969Y-15864500D01*
X26214969Y-17739500D02*
X26244969Y-17769500D01*
X26244969Y-17739500D02*
X26214969Y-17769500D01*
X26214969Y-19644500D02*
X26244969Y-19674500D01*
X26244969Y-19644500D02*
X26214969Y-19674500D01*
X26214969Y-21549500D02*
X26244969Y-21579500D01*
X26244969Y-21549500D02*
X26214969Y-21579500D01*
X26214969Y-23454500D02*
X26244969Y-23484500D01*
X26244969Y-23454500D02*
X26214969Y-23484500D01*
X26264969Y-12174500D02*
X26294969Y-12204500D01*
X26294969Y-12174500D02*
X26264969Y-12204500D01*
X28119969Y-13929500D02*
X28149969Y-13959500D01*
X28149969Y-13929500D02*
X28119969Y-13959500D01*
X28119969Y-15834500D02*
X28149969Y-15864500D01*
X28149969Y-15834500D02*
X28119969Y-15864500D01*
X28119969Y-17739500D02*
X28149969Y-17769500D01*
X28149969Y-17739500D02*
X28119969Y-17769500D01*
X28119969Y-19644500D02*
X28149969Y-19674500D01*
X28149969Y-19644500D02*
X28119969Y-19674500D01*
X28119969Y-21549500D02*
X28149969Y-21579500D01*
X28149969Y-21549500D02*
X28119969Y-21579500D01*
X28119969Y-23454500D02*
X28149969Y-23484500D01*
X28149969Y-23454500D02*
X28119969Y-23484500D01*
X28169969Y-12124500D02*
X28199969Y-12154500D01*
X28199969Y-12124500D02*
X28169969Y-12154500D01*
X30024969Y-13929500D02*
X30054969Y-13959500D01*
X30054969Y-13929500D02*
X30024969Y-13959500D01*
X30024969Y-15834500D02*
X30054969Y-15864500D01*
X30054969Y-15834500D02*
X30024969Y-15864500D01*
X30024969Y-17739500D02*
X30054969Y-17769500D01*
X30054969Y-17739500D02*
X30024969Y-17769500D01*
X30024969Y-19644500D02*
X30054969Y-19674500D01*
X30054969Y-19644500D02*
X30024969Y-19674500D01*
X30024969Y-21549500D02*
X30054969Y-21579500D01*
X30054969Y-21549500D02*
X30024969Y-21579500D01*
X30024969Y-23454500D02*
X30054969Y-23484500D01*
X30054969Y-23454500D02*
X30024969Y-23484500D01*
X30074969Y-12074500D02*
X30104969Y-12104500D01*
X30104969Y-12074500D02*
X30074969Y-12104500D01*
X31929969Y-13929500D02*
X31959969Y-13959500D01*
X31959969Y-13929500D02*
X31929969Y-13959500D01*
X31929969Y-15834500D02*
X31959969Y-15864500D01*
X31959969Y-15834500D02*
X31929969Y-15864500D01*
X31929969Y-17739500D02*
X31959969Y-17769500D01*
X31959969Y-17739500D02*
X31929969Y-17769500D01*
X31929969Y-19644500D02*
X31959969Y-19674500D01*
X31959969Y-19644500D02*
X31929969Y-19674500D01*
X31929969Y-21549500D02*
X31959969Y-21579500D01*
X31959969Y-21549500D02*
X31929969Y-21579500D01*
X31929969Y-23454500D02*
X31959969Y-23484500D01*
X31959969Y-23454500D02*
X31929969Y-23484500D01*
X31979969Y-12024500D02*
X32009969Y-12054500D01*
X32009969Y-12024500D02*
X31979969Y-12054500D01*
X33834969Y-13929500D02*
X33864969Y-13959500D01*
X33864969Y-13929500D02*
X33834969Y-13959500D01*
X33834969Y-23454500D02*
X33864969Y-23484500D01*
X33864969Y-23454500D02*
X33834969Y-23484500D01*
X33884969Y-12024500D02*
X33914969Y-12054500D01*
X33914969Y-12024500D02*
X33884969Y-12054500D01*
X33884969Y-15834500D02*
X33914969Y-15864500D01*
X33914969Y-15834500D02*
X33884969Y-15864500D01*
X33884969Y-17739500D02*
X33914969Y-17769500D01*
X33914969Y-17739500D02*
X33884969Y-17769500D01*
X33884969Y-19644500D02*
X33914969Y-19674500D01*
X33914969Y-19644500D02*
X33884969Y-19674500D01*
X33884969Y-21549500D02*
X33914969Y-21579500D01*
X33914969Y-21549500D02*
X33884969Y-21579500D01*
X35739969Y-13929500D02*
X35769969Y-13959500D01*
X35769969Y-13929500D02*
X35739969Y-13959500D01*
X35739969Y-23454500D02*
X35769969Y-23484500D01*
X35769969Y-23454500D02*
X35739969Y-23484500D01*
X35789969Y-12024500D02*
X35819969Y-12054500D01*
X35819969Y-12024500D02*
X35789969Y-12054500D01*
X35789969Y-15834500D02*
X35819969Y-15864500D01*
X35819969Y-15834500D02*
X35789969Y-15864500D01*
X35789969Y-17739500D02*
X35819969Y-17769500D01*
X35819969Y-17739500D02*
X35789969Y-17769500D01*
X35789969Y-19644500D02*
X35819969Y-19674500D01*
X35819969Y-19644500D02*
X35789969Y-19674500D01*
X35789969Y-21549500D02*
X35819969Y-21579500D01*
X35819969Y-21549500D02*
X35789969Y-21579500D01*
D13*
X5108125Y-12875000D02*
G75*
G02*
X4958125Y-12875000I-75000J0D01*
G01*
X4958125Y-12875000D02*
G75*
G02*
X5108125Y-12875000I75000J0D01*
G01*
X5158125Y-13375000D02*
G75*
G02*
X5008125Y-13375000I-75000J0D01*
G01*
X5008125Y-13375000D02*
G75*
G02*
X5158125Y-13375000I75000J0D01*
G01*
X5308125Y-14630000D02*
G75*
G02*
X5158125Y-14630000I-75000J0D01*
G01*
X5158125Y-14630000D02*
G75*
G02*
X5308125Y-14630000I75000J0D01*
G01*
X5784375Y-16535000D02*
G75*
G02*
X5634375Y-16535000I-75000J0D01*
G01*
X5634375Y-16535000D02*
G75*
G02*
X5784375Y-16535000I75000J0D01*
G01*
X5784375Y-22250000D02*
G75*
G02*
X5634375Y-22250000I-75000J0D01*
G01*
X5634375Y-22250000D02*
G75*
G02*
X5784375Y-22250000I75000J0D01*
G01*
X5808125Y-14580000D02*
G75*
G02*
X5658125Y-14580000I-75000J0D01*
G01*
X5658125Y-14580000D02*
G75*
G02*
X5808125Y-14580000I75000J0D01*
G01*
X6022500Y-18440000D02*
G75*
G02*
X5872500Y-18440000I-75000J0D01*
G01*
X5872500Y-18440000D02*
G75*
G02*
X6022500Y-18440000I75000J0D01*
G01*
X6284375Y-16485000D02*
G75*
G02*
X6134375Y-16485000I-75000J0D01*
G01*
X6134375Y-16485000D02*
G75*
G02*
X6284375Y-16485000I75000J0D01*
G01*
X6284375Y-22200000D02*
G75*
G02*
X6134375Y-22200000I-75000J0D01*
G01*
X6134375Y-22200000D02*
G75*
G02*
X6284375Y-22200000I75000J0D01*
G01*
X6498750Y-20345000D02*
G75*
G02*
X6348750Y-20345000I-75000J0D01*
G01*
X6348750Y-20345000D02*
G75*
G02*
X6498750Y-20345000I75000J0D01*
G01*
X6522500Y-18390000D02*
G75*
G02*
X6372500Y-18390000I-75000J0D01*
G01*
X6372500Y-18390000D02*
G75*
G02*
X6522500Y-18390000I75000J0D01*
G01*
X6998750Y-20295000D02*
G75*
G02*
X6848750Y-20295000I-75000J0D01*
G01*
X6848750Y-20295000D02*
G75*
G02*
X6998750Y-20295000I75000J0D01*
G01*
X7013125Y-12875000D02*
G75*
G02*
X6863125Y-12875000I-75000J0D01*
G01*
X6863125Y-12875000D02*
G75*
G02*
X7013125Y-12875000I75000J0D01*
G01*
X7063125Y-13375000D02*
G75*
G02*
X6913125Y-13375000I-75000J0D01*
G01*
X6913125Y-13375000D02*
G75*
G02*
X7063125Y-13375000I75000J0D01*
G01*
X7213125Y-14630000D02*
G75*
G02*
X7063125Y-14630000I-75000J0D01*
G01*
X7063125Y-14630000D02*
G75*
G02*
X7213125Y-14630000I75000J0D01*
G01*
X7713125Y-14580000D02*
G75*
G02*
X7563125Y-14580000I-75000J0D01*
G01*
X7563125Y-14580000D02*
G75*
G02*
X7713125Y-14580000I75000J0D01*
G01*
X8165625Y-16535000D02*
G75*
G02*
X8015625Y-16535000I-75000J0D01*
G01*
X8015625Y-16535000D02*
G75*
G02*
X8165625Y-16535000I75000J0D01*
G01*
X8403750Y-22250000D02*
G75*
G02*
X8253750Y-22250000I-75000J0D01*
G01*
X8253750Y-22250000D02*
G75*
G02*
X8403750Y-22250000I75000J0D01*
G01*
X8641875Y-18440000D02*
G75*
G02*
X8491875Y-18440000I-75000J0D01*
G01*
X8491875Y-18440000D02*
G75*
G02*
X8641875Y-18440000I75000J0D01*
G01*
X8665625Y-16485000D02*
G75*
G02*
X8515625Y-16485000I-75000J0D01*
G01*
X8515625Y-16485000D02*
G75*
G02*
X8665625Y-16485000I75000J0D01*
G01*
X8903750Y-22200000D02*
G75*
G02*
X8753750Y-22200000I-75000J0D01*
G01*
X8753750Y-22200000D02*
G75*
G02*
X8903750Y-22200000I75000J0D01*
G01*
X8918125Y-12875000D02*
G75*
G02*
X8768125Y-12875000I-75000J0D01*
G01*
X8768125Y-12875000D02*
G75*
G02*
X8918125Y-12875000I75000J0D01*
G01*
X8968125Y-13375000D02*
G75*
G02*
X8818125Y-13375000I-75000J0D01*
G01*
X8818125Y-13375000D02*
G75*
G02*
X8968125Y-13375000I75000J0D01*
G01*
X9118125Y-14630000D02*
G75*
G02*
X8968125Y-14630000I-75000J0D01*
G01*
X8968125Y-14630000D02*
G75*
G02*
X9118125Y-14630000I75000J0D01*
G01*
X9141875Y-18390000D02*
G75*
G02*
X8991875Y-18390000I-75000J0D01*
G01*
X8991875Y-18390000D02*
G75*
G02*
X9141875Y-18390000I75000J0D01*
G01*
X9594375Y-20345000D02*
G75*
G02*
X9444375Y-20345000I-75000J0D01*
G01*
X9444375Y-20345000D02*
G75*
G02*
X9594375Y-20345000I75000J0D01*
G01*
X9618125Y-14580000D02*
G75*
G02*
X9468125Y-14580000I-75000J0D01*
G01*
X9468125Y-14580000D02*
G75*
G02*
X9618125Y-14580000I75000J0D01*
G01*
X10070625Y-16535000D02*
G75*
G02*
X9920625Y-16535000I-75000J0D01*
G01*
X9920625Y-16535000D02*
G75*
G02*
X10070625Y-16535000I75000J0D01*
G01*
X10094375Y-20295000D02*
G75*
G02*
X9944375Y-20295000I-75000J0D01*
G01*
X9944375Y-20295000D02*
G75*
G02*
X10094375Y-20295000I75000J0D01*
G01*
X10546875Y-18440000D02*
G75*
G02*
X10396875Y-18440000I-75000J0D01*
G01*
X10396875Y-18440000D02*
G75*
G02*
X10546875Y-18440000I75000J0D01*
G01*
X10570625Y-16485000D02*
G75*
G02*
X10420625Y-16485000I-75000J0D01*
G01*
X10420625Y-16485000D02*
G75*
G02*
X10570625Y-16485000I75000J0D01*
G01*
X10823125Y-12875000D02*
G75*
G02*
X10673125Y-12875000I-75000J0D01*
G01*
X10673125Y-12875000D02*
G75*
G02*
X10823125Y-12875000I75000J0D01*
G01*
X10873125Y-13375000D02*
G75*
G02*
X10723125Y-13375000I-75000J0D01*
G01*
X10723125Y-13375000D02*
G75*
G02*
X10873125Y-13375000I75000J0D01*
G01*
X11023125Y-14630000D02*
G75*
G02*
X10873125Y-14630000I-75000J0D01*
G01*
X10873125Y-14630000D02*
G75*
G02*
X11023125Y-14630000I75000J0D01*
G01*
X11023125Y-22250000D02*
G75*
G02*
X10873125Y-22250000I-75000J0D01*
G01*
X10873125Y-22250000D02*
G75*
G02*
X11023125Y-22250000I75000J0D01*
G01*
X11046875Y-18390000D02*
G75*
G02*
X10896875Y-18390000I-75000J0D01*
G01*
X10896875Y-18390000D02*
G75*
G02*
X11046875Y-18390000I75000J0D01*
G01*
X11499375Y-20345000D02*
G75*
G02*
X11349375Y-20345000I-75000J0D01*
G01*
X11349375Y-20345000D02*
G75*
G02*
X11499375Y-20345000I75000J0D01*
G01*
X11523125Y-14580000D02*
G75*
G02*
X11373125Y-14580000I-75000J0D01*
G01*
X11373125Y-14580000D02*
G75*
G02*
X11523125Y-14580000I75000J0D01*
G01*
X11523125Y-22200000D02*
G75*
G02*
X11373125Y-22200000I-75000J0D01*
G01*
X11373125Y-22200000D02*
G75*
G02*
X11523125Y-22200000I75000J0D01*
G01*
X11975625Y-16535000D02*
G75*
G02*
X11825625Y-16535000I-75000J0D01*
G01*
X11825625Y-16535000D02*
G75*
G02*
X11975625Y-16535000I75000J0D01*
G01*
X11999375Y-20295000D02*
G75*
G02*
X11849375Y-20295000I-75000J0D01*
G01*
X11849375Y-20295000D02*
G75*
G02*
X11999375Y-20295000I75000J0D01*
G01*
X12451875Y-18440000D02*
G75*
G02*
X12301875Y-18440000I-75000J0D01*
G01*
X12301875Y-18440000D02*
G75*
G02*
X12451875Y-18440000I75000J0D01*
G01*
X12475625Y-16485000D02*
G75*
G02*
X12325625Y-16485000I-75000J0D01*
G01*
X12325625Y-16485000D02*
G75*
G02*
X12475625Y-16485000I75000J0D01*
G01*
X12728125Y-12875000D02*
G75*
G02*
X12578125Y-12875000I-75000J0D01*
G01*
X12578125Y-12875000D02*
G75*
G02*
X12728125Y-12875000I75000J0D01*
G01*
X12778125Y-13375000D02*
G75*
G02*
X12628125Y-13375000I-75000J0D01*
G01*
X12628125Y-13375000D02*
G75*
G02*
X12778125Y-13375000I75000J0D01*
G01*
X12928125Y-14630000D02*
G75*
G02*
X12778125Y-14630000I-75000J0D01*
G01*
X12778125Y-14630000D02*
G75*
G02*
X12928125Y-14630000I75000J0D01*
G01*
X12951875Y-18390000D02*
G75*
G02*
X12801875Y-18390000I-75000J0D01*
G01*
X12801875Y-18390000D02*
G75*
G02*
X12951875Y-18390000I75000J0D01*
G01*
X13404375Y-20345000D02*
G75*
G02*
X13254375Y-20345000I-75000J0D01*
G01*
X13254375Y-20345000D02*
G75*
G02*
X13404375Y-20345000I75000J0D01*
G01*
X13428125Y-14580000D02*
G75*
G02*
X13278125Y-14580000I-75000J0D01*
G01*
X13278125Y-14580000D02*
G75*
G02*
X13428125Y-14580000I75000J0D01*
G01*
X13880625Y-16535000D02*
G75*
G02*
X13730625Y-16535000I-75000J0D01*
G01*
X13730625Y-16535000D02*
G75*
G02*
X13880625Y-16535000I75000J0D01*
G01*
X13904375Y-20295000D02*
G75*
G02*
X13754375Y-20295000I-75000J0D01*
G01*
X13754375Y-20295000D02*
G75*
G02*
X13904375Y-20295000I75000J0D01*
G01*
X14356875Y-18440000D02*
G75*
G02*
X14206875Y-18440000I-75000J0D01*
G01*
X14206875Y-18440000D02*
G75*
G02*
X14356875Y-18440000I75000J0D01*
G01*
X14380625Y-16485000D02*
G75*
G02*
X14230625Y-16485000I-75000J0D01*
G01*
X14230625Y-16485000D02*
G75*
G02*
X14380625Y-16485000I75000J0D01*
G01*
X14633125Y-12875000D02*
G75*
G02*
X14483125Y-12875000I-75000J0D01*
G01*
X14483125Y-12875000D02*
G75*
G02*
X14633125Y-12875000I75000J0D01*
G01*
X14683125Y-13375000D02*
G75*
G02*
X14533125Y-13375000I-75000J0D01*
G01*
X14533125Y-13375000D02*
G75*
G02*
X14683125Y-13375000I75000J0D01*
G01*
X14833125Y-14630000D02*
G75*
G02*
X14683125Y-14630000I-75000J0D01*
G01*
X14683125Y-14630000D02*
G75*
G02*
X14833125Y-14630000I75000J0D01*
G01*
X14856875Y-18390000D02*
G75*
G02*
X14706875Y-18390000I-75000J0D01*
G01*
X14706875Y-18390000D02*
G75*
G02*
X14856875Y-18390000I75000J0D01*
G01*
X15309375Y-20345000D02*
G75*
G02*
X15159375Y-20345000I-75000J0D01*
G01*
X15159375Y-20345000D02*
G75*
G02*
X15309375Y-20345000I75000J0D01*
G01*
X15333125Y-14580000D02*
G75*
G02*
X15183125Y-14580000I-75000J0D01*
G01*
X15183125Y-14580000D02*
G75*
G02*
X15333125Y-14580000I75000J0D01*
G01*
X15785625Y-16535000D02*
G75*
G02*
X15635625Y-16535000I-75000J0D01*
G01*
X15635625Y-16535000D02*
G75*
G02*
X15785625Y-16535000I75000J0D01*
G01*
X15809375Y-20295000D02*
G75*
G02*
X15659375Y-20295000I-75000J0D01*
G01*
X15659375Y-20295000D02*
G75*
G02*
X15809375Y-20295000I75000J0D01*
G01*
X16261875Y-18440000D02*
G75*
G02*
X16111875Y-18440000I-75000J0D01*
G01*
X16111875Y-18440000D02*
G75*
G02*
X16261875Y-18440000I75000J0D01*
G01*
X16285625Y-16485000D02*
G75*
G02*
X16135625Y-16485000I-75000J0D01*
G01*
X16135625Y-16485000D02*
G75*
G02*
X16285625Y-16485000I75000J0D01*
G01*
X16538125Y-12875000D02*
G75*
G02*
X16388125Y-12875000I-75000J0D01*
G01*
X16388125Y-12875000D02*
G75*
G02*
X16538125Y-12875000I75000J0D01*
G01*
X16588125Y-13375000D02*
G75*
G02*
X16438125Y-13375000I-75000J0D01*
G01*
X16438125Y-13375000D02*
G75*
G02*
X16588125Y-13375000I75000J0D01*
G01*
X16738125Y-14630000D02*
G75*
G02*
X16588125Y-14630000I-75000J0D01*
G01*
X16588125Y-14630000D02*
G75*
G02*
X16738125Y-14630000I75000J0D01*
G01*
X16761875Y-18390000D02*
G75*
G02*
X16611875Y-18390000I-75000J0D01*
G01*
X16611875Y-18390000D02*
G75*
G02*
X16761875Y-18390000I75000J0D01*
G01*
X17214375Y-20345000D02*
G75*
G02*
X17064375Y-20345000I-75000J0D01*
G01*
X17064375Y-20345000D02*
G75*
G02*
X17214375Y-20345000I75000J0D01*
G01*
X17238125Y-14580000D02*
G75*
G02*
X17088125Y-14580000I-75000J0D01*
G01*
X17088125Y-14580000D02*
G75*
G02*
X17238125Y-14580000I75000J0D01*
G01*
X17690625Y-16535000D02*
G75*
G02*
X17540625Y-16535000I-75000J0D01*
G01*
X17540625Y-16535000D02*
G75*
G02*
X17690625Y-16535000I75000J0D01*
G01*
X17714375Y-20295000D02*
G75*
G02*
X17564375Y-20295000I-75000J0D01*
G01*
X17564375Y-20295000D02*
G75*
G02*
X17714375Y-20295000I75000J0D01*
G01*
X18166875Y-18440000D02*
G75*
G02*
X18016875Y-18440000I-75000J0D01*
G01*
X18016875Y-18440000D02*
G75*
G02*
X18166875Y-18440000I75000J0D01*
G01*
X18190625Y-16485000D02*
G75*
G02*
X18040625Y-16485000I-75000J0D01*
G01*
X18040625Y-16485000D02*
G75*
G02*
X18190625Y-16485000I75000J0D01*
G01*
X18443125Y-12875000D02*
G75*
G02*
X18293125Y-12875000I-75000J0D01*
G01*
X18293125Y-12875000D02*
G75*
G02*
X18443125Y-12875000I75000J0D01*
G01*
X18493125Y-13375000D02*
G75*
G02*
X18343125Y-13375000I-75000J0D01*
G01*
X18343125Y-13375000D02*
G75*
G02*
X18493125Y-13375000I75000J0D01*
G01*
X18643125Y-14630000D02*
G75*
G02*
X18493125Y-14630000I-75000J0D01*
G01*
X18493125Y-14630000D02*
G75*
G02*
X18643125Y-14630000I75000J0D01*
G01*
X18643125Y-22250000D02*
G75*
G02*
X18493125Y-22250000I-75000J0D01*
G01*
X18493125Y-22250000D02*
G75*
G02*
X18643125Y-22250000I75000J0D01*
G01*
X18666875Y-18390000D02*
G75*
G02*
X18516875Y-18390000I-75000J0D01*
G01*
X18516875Y-18390000D02*
G75*
G02*
X18666875Y-18390000I75000J0D01*
G01*
X19119375Y-20345000D02*
G75*
G02*
X18969375Y-20345000I-75000J0D01*
G01*
X18969375Y-20345000D02*
G75*
G02*
X19119375Y-20345000I75000J0D01*
G01*
X19143125Y-14580000D02*
G75*
G02*
X18993125Y-14580000I-75000J0D01*
G01*
X18993125Y-14580000D02*
G75*
G02*
X19143125Y-14580000I75000J0D01*
G01*
X19143125Y-22200000D02*
G75*
G02*
X18993125Y-22200000I-75000J0D01*
G01*
X18993125Y-22200000D02*
G75*
G02*
X19143125Y-22200000I75000J0D01*
G01*
X19595625Y-16535000D02*
G75*
G02*
X19445625Y-16535000I-75000J0D01*
G01*
X19445625Y-16535000D02*
G75*
G02*
X19595625Y-16535000I75000J0D01*
G01*
X19619375Y-20295000D02*
G75*
G02*
X19469375Y-20295000I-75000J0D01*
G01*
X19469375Y-20295000D02*
G75*
G02*
X19619375Y-20295000I75000J0D01*
G01*
X20071875Y-18440000D02*
G75*
G02*
X19921875Y-18440000I-75000J0D01*
G01*
X19921875Y-18440000D02*
G75*
G02*
X20071875Y-18440000I75000J0D01*
G01*
X20095625Y-16485000D02*
G75*
G02*
X19945625Y-16485000I-75000J0D01*
G01*
X19945625Y-16485000D02*
G75*
G02*
X20095625Y-16485000I75000J0D01*
G01*
X20348125Y-12875000D02*
G75*
G02*
X20198125Y-12875000I-75000J0D01*
G01*
X20198125Y-12875000D02*
G75*
G02*
X20348125Y-12875000I75000J0D01*
G01*
X20398125Y-13375000D02*
G75*
G02*
X20248125Y-13375000I-75000J0D01*
G01*
X20248125Y-13375000D02*
G75*
G02*
X20398125Y-13375000I75000J0D01*
G01*
X20548125Y-14630000D02*
G75*
G02*
X20398125Y-14630000I-75000J0D01*
G01*
X20398125Y-14630000D02*
G75*
G02*
X20548125Y-14630000I75000J0D01*
G01*
X20571875Y-18390000D02*
G75*
G02*
X20421875Y-18390000I-75000J0D01*
G01*
X20421875Y-18390000D02*
G75*
G02*
X20571875Y-18390000I75000J0D01*
G01*
X21024375Y-20345000D02*
G75*
G02*
X20874375Y-20345000I-75000J0D01*
G01*
X20874375Y-20345000D02*
G75*
G02*
X21024375Y-20345000I75000J0D01*
G01*
X21048125Y-14580000D02*
G75*
G02*
X20898125Y-14580000I-75000J0D01*
G01*
X20898125Y-14580000D02*
G75*
G02*
X21048125Y-14580000I75000J0D01*
G01*
X21500625Y-16535000D02*
G75*
G02*
X21350625Y-16535000I-75000J0D01*
G01*
X21350625Y-16535000D02*
G75*
G02*
X21500625Y-16535000I75000J0D01*
G01*
X21524375Y-20295000D02*
G75*
G02*
X21374375Y-20295000I-75000J0D01*
G01*
X21374375Y-20295000D02*
G75*
G02*
X21524375Y-20295000I75000J0D01*
G01*
X21976875Y-18440000D02*
G75*
G02*
X21826875Y-18440000I-75000J0D01*
G01*
X21826875Y-18440000D02*
G75*
G02*
X21976875Y-18440000I75000J0D01*
G01*
X22000625Y-16485000D02*
G75*
G02*
X21850625Y-16485000I-75000J0D01*
G01*
X21850625Y-16485000D02*
G75*
G02*
X22000625Y-16485000I75000J0D01*
G01*
X22253125Y-12875000D02*
G75*
G02*
X22103125Y-12875000I-75000J0D01*
G01*
X22103125Y-12875000D02*
G75*
G02*
X22253125Y-12875000I75000J0D01*
G01*
X22303125Y-13375000D02*
G75*
G02*
X22153125Y-13375000I-75000J0D01*
G01*
X22153125Y-13375000D02*
G75*
G02*
X22303125Y-13375000I75000J0D01*
G01*
X22453125Y-14630000D02*
G75*
G02*
X22303125Y-14630000I-75000J0D01*
G01*
X22303125Y-14630000D02*
G75*
G02*
X22453125Y-14630000I75000J0D01*
G01*
X22476875Y-18390000D02*
G75*
G02*
X22326875Y-18390000I-75000J0D01*
G01*
X22326875Y-18390000D02*
G75*
G02*
X22476875Y-18390000I75000J0D01*
G01*
X22929375Y-20345000D02*
G75*
G02*
X22779375Y-20345000I-75000J0D01*
G01*
X22779375Y-20345000D02*
G75*
G02*
X22929375Y-20345000I75000J0D01*
G01*
X22953125Y-14580000D02*
G75*
G02*
X22803125Y-14580000I-75000J0D01*
G01*
X22803125Y-14580000D02*
G75*
G02*
X22953125Y-14580000I75000J0D01*
G01*
X23405625Y-16535000D02*
G75*
G02*
X23255625Y-16535000I-75000J0D01*
G01*
X23255625Y-16535000D02*
G75*
G02*
X23405625Y-16535000I75000J0D01*
G01*
X23429375Y-20295000D02*
G75*
G02*
X23279375Y-20295000I-75000J0D01*
G01*
X23279375Y-20295000D02*
G75*
G02*
X23429375Y-20295000I75000J0D01*
G01*
X23881875Y-18440000D02*
G75*
G02*
X23731875Y-18440000I-75000J0D01*
G01*
X23731875Y-18440000D02*
G75*
G02*
X23881875Y-18440000I75000J0D01*
G01*
X23905625Y-16485000D02*
G75*
G02*
X23755625Y-16485000I-75000J0D01*
G01*
X23755625Y-16485000D02*
G75*
G02*
X23905625Y-16485000I75000J0D01*
G01*
X24158125Y-12875000D02*
G75*
G02*
X24008125Y-12875000I-75000J0D01*
G01*
X24008125Y-12875000D02*
G75*
G02*
X24158125Y-12875000I75000J0D01*
G01*
X24208125Y-13375000D02*
G75*
G02*
X24058125Y-13375000I-75000J0D01*
G01*
X24058125Y-13375000D02*
G75*
G02*
X24208125Y-13375000I75000J0D01*
G01*
X24358125Y-14630000D02*
G75*
G02*
X24208125Y-14630000I-75000J0D01*
G01*
X24208125Y-14630000D02*
G75*
G02*
X24358125Y-14630000I75000J0D01*
G01*
X24381875Y-18390000D02*
G75*
G02*
X24231875Y-18390000I-75000J0D01*
G01*
X24231875Y-18390000D02*
G75*
G02*
X24381875Y-18390000I75000J0D01*
G01*
X24834375Y-20345000D02*
G75*
G02*
X24684375Y-20345000I-75000J0D01*
G01*
X24684375Y-20345000D02*
G75*
G02*
X24834375Y-20345000I75000J0D01*
G01*
X24858125Y-14580000D02*
G75*
G02*
X24708125Y-14580000I-75000J0D01*
G01*
X24708125Y-14580000D02*
G75*
G02*
X24858125Y-14580000I75000J0D01*
G01*
X25310625Y-16535000D02*
G75*
G02*
X25160625Y-16535000I-75000J0D01*
G01*
X25160625Y-16535000D02*
G75*
G02*
X25310625Y-16535000I75000J0D01*
G01*
X25334375Y-20295000D02*
G75*
G02*
X25184375Y-20295000I-75000J0D01*
G01*
X25184375Y-20295000D02*
G75*
G02*
X25334375Y-20295000I75000J0D01*
G01*
X25786875Y-18440000D02*
G75*
G02*
X25636875Y-18440000I-75000J0D01*
G01*
X25636875Y-18440000D02*
G75*
G02*
X25786875Y-18440000I75000J0D01*
G01*
X25810625Y-16485000D02*
G75*
G02*
X25660625Y-16485000I-75000J0D01*
G01*
X25660625Y-16485000D02*
G75*
G02*
X25810625Y-16485000I75000J0D01*
G01*
X26025000Y-22250000D02*
G75*
G02*
X25875000Y-22250000I-75000J0D01*
G01*
X25875000Y-22250000D02*
G75*
G02*
X26025000Y-22250000I75000J0D01*
G01*
X26063125Y-12875000D02*
G75*
G02*
X25913125Y-12875000I-75000J0D01*
G01*
X25913125Y-12875000D02*
G75*
G02*
X26063125Y-12875000I75000J0D01*
G01*
X26113125Y-13375000D02*
G75*
G02*
X25963125Y-13375000I-75000J0D01*
G01*
X25963125Y-13375000D02*
G75*
G02*
X26113125Y-13375000I75000J0D01*
G01*
X26263125Y-14630000D02*
G75*
G02*
X26113125Y-14630000I-75000J0D01*
G01*
X26113125Y-14630000D02*
G75*
G02*
X26263125Y-14630000I75000J0D01*
G01*
X26286875Y-18390000D02*
G75*
G02*
X26136875Y-18390000I-75000J0D01*
G01*
X26136875Y-18390000D02*
G75*
G02*
X26286875Y-18390000I75000J0D01*
G01*
X26525000Y-22200000D02*
G75*
G02*
X26375000Y-22200000I-75000J0D01*
G01*
X26375000Y-22200000D02*
G75*
G02*
X26525000Y-22200000I75000J0D01*
G01*
X26739375Y-20345000D02*
G75*
G02*
X26589375Y-20345000I-75000J0D01*
G01*
X26589375Y-20345000D02*
G75*
G02*
X26739375Y-20345000I75000J0D01*
G01*
X26763125Y-14580000D02*
G75*
G02*
X26613125Y-14580000I-75000J0D01*
G01*
X26613125Y-14580000D02*
G75*
G02*
X26763125Y-14580000I75000J0D01*
G01*
X27215625Y-16535000D02*
G75*
G02*
X27065625Y-16535000I-75000J0D01*
G01*
X27065625Y-16535000D02*
G75*
G02*
X27215625Y-16535000I75000J0D01*
G01*
X27239375Y-20295000D02*
G75*
G02*
X27089375Y-20295000I-75000J0D01*
G01*
X27089375Y-20295000D02*
G75*
G02*
X27239375Y-20295000I75000J0D01*
G01*
X27691875Y-18440000D02*
G75*
G02*
X27541875Y-18440000I-75000J0D01*
G01*
X27541875Y-18440000D02*
G75*
G02*
X27691875Y-18440000I75000J0D01*
G01*
X27715625Y-16485000D02*
G75*
G02*
X27565625Y-16485000I-75000J0D01*
G01*
X27565625Y-16485000D02*
G75*
G02*
X27715625Y-16485000I75000J0D01*
G01*
X27968125Y-12875000D02*
G75*
G02*
X27818125Y-12875000I-75000J0D01*
G01*
X27818125Y-12875000D02*
G75*
G02*
X27968125Y-12875000I75000J0D01*
G01*
X28018125Y-13375000D02*
G75*
G02*
X27868125Y-13375000I-75000J0D01*
G01*
X27868125Y-13375000D02*
G75*
G02*
X28018125Y-13375000I75000J0D01*
G01*
X28168125Y-14630000D02*
G75*
G02*
X28018125Y-14630000I-75000J0D01*
G01*
X28018125Y-14630000D02*
G75*
G02*
X28168125Y-14630000I75000J0D01*
G01*
X28168125Y-22250000D02*
G75*
G02*
X28018125Y-22250000I-75000J0D01*
G01*
X28018125Y-22250000D02*
G75*
G02*
X28168125Y-22250000I75000J0D01*
G01*
X28191875Y-18390000D02*
G75*
G02*
X28041875Y-18390000I-75000J0D01*
G01*
X28041875Y-18390000D02*
G75*
G02*
X28191875Y-18390000I75000J0D01*
G01*
X28668125Y-14580000D02*
G75*
G02*
X28518125Y-14580000I-75000J0D01*
G01*
X28518125Y-14580000D02*
G75*
G02*
X28668125Y-14580000I75000J0D01*
G01*
X28668125Y-22200000D02*
G75*
G02*
X28518125Y-22200000I-75000J0D01*
G01*
X28518125Y-22200000D02*
G75*
G02*
X28668125Y-22200000I75000J0D01*
G01*
X29120625Y-16535000D02*
G75*
G02*
X28970625Y-16535000I-75000J0D01*
G01*
X28970625Y-16535000D02*
G75*
G02*
X29120625Y-16535000I75000J0D01*
G01*
X29620625Y-16485000D02*
G75*
G02*
X29470625Y-16485000I-75000J0D01*
G01*
X29470625Y-16485000D02*
G75*
G02*
X29620625Y-16485000I75000J0D01*
G01*
X29873125Y-12875000D02*
G75*
G02*
X29723125Y-12875000I-75000J0D01*
G01*
X29723125Y-12875000D02*
G75*
G02*
X29873125Y-12875000I75000J0D01*
G01*
X29923125Y-13375000D02*
G75*
G02*
X29773125Y-13375000I-75000J0D01*
G01*
X29773125Y-13375000D02*
G75*
G02*
X29923125Y-13375000I75000J0D01*
G01*
X30073125Y-22250000D02*
G75*
G02*
X29923125Y-22250000I-75000J0D01*
G01*
X29923125Y-22250000D02*
G75*
G02*
X30073125Y-22250000I75000J0D01*
G01*
X30311250Y-20345000D02*
G75*
G02*
X30161250Y-20345000I-75000J0D01*
G01*
X30161250Y-20345000D02*
G75*
G02*
X30311250Y-20345000I75000J0D01*
G01*
X30573125Y-22200000D02*
G75*
G02*
X30423125Y-22200000I-75000J0D01*
G01*
X30423125Y-22200000D02*
G75*
G02*
X30573125Y-22200000I75000J0D01*
G01*
X30787500Y-18440000D02*
G75*
G02*
X30637500Y-18440000I-75000J0D01*
G01*
X30637500Y-18440000D02*
G75*
G02*
X30787500Y-18440000I75000J0D01*
G01*
X30811250Y-20295000D02*
G75*
G02*
X30661250Y-20295000I-75000J0D01*
G01*
X30661250Y-20295000D02*
G75*
G02*
X30811250Y-20295000I75000J0D01*
G01*
X31025625Y-14630000D02*
G75*
G02*
X30875625Y-14630000I-75000J0D01*
G01*
X30875625Y-14630000D02*
G75*
G02*
X31025625Y-14630000I75000J0D01*
G01*
X31287500Y-18390000D02*
G75*
G02*
X31137500Y-18390000I-75000J0D01*
G01*
X31137500Y-18390000D02*
G75*
G02*
X31287500Y-18390000I75000J0D01*
G01*
X31501875Y-16535000D02*
G75*
G02*
X31351875Y-16535000I-75000J0D01*
G01*
X31351875Y-16535000D02*
G75*
G02*
X31501875Y-16535000I75000J0D01*
G01*
X31525625Y-14580000D02*
G75*
G02*
X31375625Y-14580000I-75000J0D01*
G01*
X31375625Y-14580000D02*
G75*
G02*
X31525625Y-14580000I75000J0D01*
G01*
X31778125Y-12875000D02*
G75*
G02*
X31628125Y-12875000I-75000J0D01*
G01*
X31628125Y-12875000D02*
G75*
G02*
X31778125Y-12875000I75000J0D01*
G01*
X31828125Y-13375000D02*
G75*
G02*
X31678125Y-13375000I-75000J0D01*
G01*
X31678125Y-13375000D02*
G75*
G02*
X31828125Y-13375000I75000J0D01*
G01*
X31978125Y-22250000D02*
G75*
G02*
X31828125Y-22250000I-75000J0D01*
G01*
X31828125Y-22250000D02*
G75*
G02*
X31978125Y-22250000I75000J0D01*
G01*
X32001875Y-16485000D02*
G75*
G02*
X31851875Y-16485000I-75000J0D01*
G01*
X31851875Y-16485000D02*
G75*
G02*
X32001875Y-16485000I75000J0D01*
G01*
X32478125Y-22200000D02*
G75*
G02*
X32328125Y-22200000I-75000J0D01*
G01*
X32328125Y-22200000D02*
G75*
G02*
X32478125Y-22200000I75000J0D01*
G01*
X33683125Y-12875000D02*
G75*
G02*
X33533125Y-12875000I-75000J0D01*
G01*
X33533125Y-12875000D02*
G75*
G02*
X33683125Y-12875000I75000J0D01*
G01*
X33733125Y-13375000D02*
G75*
G02*
X33583125Y-13375000I-75000J0D01*
G01*
X33583125Y-13375000D02*
G75*
G02*
X33733125Y-13375000I75000J0D01*
G01*
X33883125Y-14630000D02*
G75*
G02*
X33733125Y-14630000I-75000J0D01*
G01*
X33733125Y-14630000D02*
G75*
G02*
X33883125Y-14630000I75000J0D01*
G01*
X33883125Y-16535000D02*
G75*
G02*
X33733125Y-16535000I-75000J0D01*
G01*
X33733125Y-16535000D02*
G75*
G02*
X33883125Y-16535000I75000J0D01*
G01*
X33883125Y-18440000D02*
G75*
G02*
X33733125Y-18440000I-75000J0D01*
G01*
X33733125Y-18440000D02*
G75*
G02*
X33883125Y-18440000I75000J0D01*
G01*
X33883125Y-20345000D02*
G75*
G02*
X33733125Y-20345000I-75000J0D01*
G01*
X33733125Y-20345000D02*
G75*
G02*
X33883125Y-20345000I75000J0D01*
G01*
X33883125Y-22250000D02*
G75*
G02*
X33733125Y-22250000I-75000J0D01*
G01*
X33733125Y-22250000D02*
G75*
G02*
X33883125Y-22250000I75000J0D01*
G01*
X34383125Y-14580000D02*
G75*
G02*
X34233125Y-14580000I-75000J0D01*
G01*
X34233125Y-14580000D02*
G75*
G02*
X34383125Y-14580000I75000J0D01*
G01*
X34383125Y-16485000D02*
G75*
G02*
X34233125Y-16485000I-75000J0D01*
G01*
X34233125Y-16485000D02*
G75*
G02*
X34383125Y-16485000I75000J0D01*
G01*
X34383125Y-18390000D02*
G75*
G02*
X34233125Y-18390000I-75000J0D01*
G01*
X34233125Y-18390000D02*
G75*
G02*
X34383125Y-18390000I75000J0D01*
G01*
X34383125Y-20295000D02*
G75*
G02*
X34233125Y-20295000I-75000J0D01*
G01*
X34233125Y-20295000D02*
G75*
G02*
X34383125Y-20295000I75000J0D01*
G01*
X34383125Y-22200000D02*
G75*
G02*
X34233125Y-22200000I-75000J0D01*
G01*
X34233125Y-22200000D02*
G75*
G02*
X34383125Y-22200000I75000J0D01*
G01*
X35588125Y-12875000D02*
G75*
G02*
X35438125Y-12875000I-75000J0D01*
G01*
X35438125Y-12875000D02*
G75*
G02*
X35588125Y-12875000I75000J0D01*
G01*
X35638125Y-13375000D02*
G75*
G02*
X35488125Y-13375000I-75000J0D01*
G01*
X35488125Y-13375000D02*
G75*
G02*
X35638125Y-13375000I75000J0D01*
G01*
X35788125Y-14630000D02*
G75*
G02*
X35638125Y-14630000I-75000J0D01*
G01*
X35638125Y-14630000D02*
G75*
G02*
X35788125Y-14630000I75000J0D01*
G01*
X35788125Y-16535000D02*
G75*
G02*
X35638125Y-16535000I-75000J0D01*
G01*
X35638125Y-16535000D02*
G75*
G02*
X35788125Y-16535000I75000J0D01*
G01*
X35788125Y-18440000D02*
G75*
G02*
X35638125Y-18440000I-75000J0D01*
G01*
X35638125Y-18440000D02*
G75*
G02*
X35788125Y-18440000I75000J0D01*
G01*
X35788125Y-20345000D02*
G75*
G02*
X35638125Y-20345000I-75000J0D01*
G01*
X35638125Y-20345000D02*
G75*
G02*
X35788125Y-20345000I75000J0D01*
G01*
X35788125Y-22250000D02*
G75*
G02*
X35638125Y-22250000I-75000J0D01*
G01*
X35638125Y-22250000D02*
G75*
G02*
X35788125Y-22250000I75000J0D01*
G01*
X36288125Y-14580000D02*
G75*
G02*
X36138125Y-14580000I-75000J0D01*
G01*
X36138125Y-14580000D02*
G75*
G02*
X36288125Y-14580000I75000J0D01*
G01*
X36288125Y-16485000D02*
G75*
G02*
X36138125Y-16485000I-75000J0D01*
G01*
X36138125Y-16485000D02*
G75*
G02*
X36288125Y-16485000I75000J0D01*
G01*
X36288125Y-18390000D02*
G75*
G02*
X36138125Y-18390000I-75000J0D01*
G01*
X36138125Y-18390000D02*
G75*
G02*
X36288125Y-18390000I75000J0D01*
G01*
X36288125Y-20295000D02*
G75*
G02*
X36138125Y-20295000I-75000J0D01*
G01*
X36138125Y-20295000D02*
G75*
G02*
X36288125Y-20295000I75000J0D01*
G01*
X36288125Y-22200000D02*
G75*
G02*
X36138125Y-22200000I-75000J0D01*
G01*
X36138125Y-22200000D02*
G75*
G02*
X36288125Y-22200000I75000J0D01*
G01*
D11*
X4583246Y-24215234D02*
X4583246Y-24015234D01*
X4583246Y-24015234D02*
X4630865Y-24015234D01*
X4630865Y-24015234D02*
X4659436Y-24024758D01*
X4659436Y-24024758D02*
X4678484Y-24043805D01*
X4678484Y-24043805D02*
X4688007Y-24062853D01*
X4688007Y-24062853D02*
X4697531Y-24100948D01*
X4697531Y-24100948D02*
X4697531Y-24129519D01*
X4697531Y-24129519D02*
X4688007Y-24167615D01*
X4688007Y-24167615D02*
X4678484Y-24186662D01*
X4678484Y-24186662D02*
X4659436Y-24205710D01*
X4659436Y-24205710D02*
X4630865Y-24215234D01*
X4630865Y-24215234D02*
X4583246Y-24215234D01*
X4783246Y-24215234D02*
X4783246Y-24081900D01*
X4783246Y-24119996D02*
X4792769Y-24100948D01*
X4792769Y-24100948D02*
X4802293Y-24091424D01*
X4802293Y-24091424D02*
X4821341Y-24081900D01*
X4821341Y-24081900D02*
X4840388Y-24081900D01*
X4907055Y-24215234D02*
X4907055Y-24081900D01*
X4907055Y-24015234D02*
X4897531Y-24024758D01*
X4897531Y-24024758D02*
X4907055Y-24034281D01*
X4907055Y-24034281D02*
X4916579Y-24024758D01*
X4916579Y-24024758D02*
X4907055Y-24015234D01*
X4907055Y-24015234D02*
X4907055Y-24034281D01*
X5030865Y-24215234D02*
X5011817Y-24205710D01*
X5011817Y-24205710D02*
X5002293Y-24186662D01*
X5002293Y-24186662D02*
X5002293Y-24015234D01*
X5135626Y-24215234D02*
X5116579Y-24205710D01*
X5116579Y-24205710D02*
X5107055Y-24186662D01*
X5107055Y-24186662D02*
X5107055Y-24015234D01*
X5364198Y-24215234D02*
X5364198Y-24015234D01*
X5364198Y-24015234D02*
X5430865Y-24158091D01*
X5430865Y-24158091D02*
X5497531Y-24015234D01*
X5497531Y-24015234D02*
X5497531Y-24215234D01*
X5678484Y-24215234D02*
X5678484Y-24110472D01*
X5678484Y-24110472D02*
X5668960Y-24091424D01*
X5668960Y-24091424D02*
X5649912Y-24081900D01*
X5649912Y-24081900D02*
X5611817Y-24081900D01*
X5611817Y-24081900D02*
X5592769Y-24091424D01*
X5678484Y-24205710D02*
X5659436Y-24215234D01*
X5659436Y-24215234D02*
X5611817Y-24215234D01*
X5611817Y-24215234D02*
X5592769Y-24205710D01*
X5592769Y-24205710D02*
X5583246Y-24186662D01*
X5583246Y-24186662D02*
X5583246Y-24167615D01*
X5583246Y-24167615D02*
X5592769Y-24148567D01*
X5592769Y-24148567D02*
X5611817Y-24139043D01*
X5611817Y-24139043D02*
X5659436Y-24139043D01*
X5659436Y-24139043D02*
X5678484Y-24129519D01*
X5773722Y-24081900D02*
X5773722Y-24281900D01*
X5773722Y-24091424D02*
X5792769Y-24081900D01*
X5792769Y-24081900D02*
X5830865Y-24081900D01*
X5830865Y-24081900D02*
X5849912Y-24091424D01*
X5849912Y-24091424D02*
X5859436Y-24100948D01*
X5859436Y-24100948D02*
X5868960Y-24119996D01*
X5868960Y-24119996D02*
X5868960Y-24177138D01*
X5868960Y-24177138D02*
X5859436Y-24196186D01*
X5859436Y-24196186D02*
X5849912Y-24205710D01*
X5849912Y-24205710D02*
X5830865Y-24215234D01*
X5830865Y-24215234D02*
X5792769Y-24215234D01*
X5792769Y-24215234D02*
X5773722Y-24205710D01*
X5954674Y-24196186D02*
X5964198Y-24205710D01*
X5964198Y-24205710D02*
X5954674Y-24215234D01*
X5954674Y-24215234D02*
X5945150Y-24205710D01*
X5945150Y-24205710D02*
X5954674Y-24196186D01*
X5954674Y-24196186D02*
X5954674Y-24215234D01*
X5954674Y-24091424D02*
X5964198Y-24100948D01*
X5964198Y-24100948D02*
X5954674Y-24110472D01*
X5954674Y-24110472D02*
X5945150Y-24100948D01*
X5945150Y-24100948D02*
X5954674Y-24091424D01*
X5954674Y-24091424D02*
X5954674Y-24110472D01*
D12*
X4292469Y-24528750D02*
X4322469Y-24558750D01*
X4322469Y-24528750D02*
X4292469Y-24558750D01*
D11*
X4621341Y-24435234D02*
X4640388Y-24435234D01*
X4640388Y-24435234D02*
X4659436Y-24444758D01*
X4659436Y-24444758D02*
X4668960Y-24454281D01*
X4668960Y-24454281D02*
X4678484Y-24473329D01*
X4678484Y-24473329D02*
X4688007Y-24511424D01*
X4688007Y-24511424D02*
X4688007Y-24559043D01*
X4688007Y-24559043D02*
X4678484Y-24597138D01*
X4678484Y-24597138D02*
X4668960Y-24616186D01*
X4668960Y-24616186D02*
X4659436Y-24625710D01*
X4659436Y-24625710D02*
X4640388Y-24635234D01*
X4640388Y-24635234D02*
X4621341Y-24635234D01*
X4621341Y-24635234D02*
X4602293Y-24625710D01*
X4602293Y-24625710D02*
X4592769Y-24616186D01*
X4592769Y-24616186D02*
X4583246Y-24597138D01*
X4583246Y-24597138D02*
X4573722Y-24559043D01*
X4573722Y-24559043D02*
X4573722Y-24511424D01*
X4573722Y-24511424D02*
X4583246Y-24473329D01*
X4583246Y-24473329D02*
X4592769Y-24454281D01*
X4592769Y-24454281D02*
X4602293Y-24444758D01*
X4602293Y-24444758D02*
X4621341Y-24435234D01*
X4773722Y-24616186D02*
X4783246Y-24625710D01*
X4783246Y-24625710D02*
X4773722Y-24635234D01*
X4773722Y-24635234D02*
X4764198Y-24625710D01*
X4764198Y-24625710D02*
X4773722Y-24616186D01*
X4773722Y-24616186D02*
X4773722Y-24635234D01*
X4849912Y-24435234D02*
X4973722Y-24435234D01*
X4973722Y-24435234D02*
X4907055Y-24511424D01*
X4907055Y-24511424D02*
X4935627Y-24511424D01*
X4935627Y-24511424D02*
X4954674Y-24520948D01*
X4954674Y-24520948D02*
X4964198Y-24530472D01*
X4964198Y-24530472D02*
X4973722Y-24549519D01*
X4973722Y-24549519D02*
X4973722Y-24597138D01*
X4973722Y-24597138D02*
X4964198Y-24616186D01*
X4964198Y-24616186D02*
X4954674Y-24625710D01*
X4954674Y-24625710D02*
X4935627Y-24635234D01*
X4935627Y-24635234D02*
X4878484Y-24635234D01*
X4878484Y-24635234D02*
X4859436Y-24625710D01*
X4859436Y-24625710D02*
X4849912Y-24616186D01*
X5097531Y-24435234D02*
X5116579Y-24435234D01*
X5116579Y-24435234D02*
X5135627Y-24444758D01*
X5135627Y-24444758D02*
X5145150Y-24454281D01*
X5145150Y-24454281D02*
X5154674Y-24473329D01*
X5154674Y-24473329D02*
X5164198Y-24511424D01*
X5164198Y-24511424D02*
X5164198Y-24559043D01*
X5164198Y-24559043D02*
X5154674Y-24597138D01*
X5154674Y-24597138D02*
X5145150Y-24616186D01*
X5145150Y-24616186D02*
X5135627Y-24625710D01*
X5135627Y-24625710D02*
X5116579Y-24635234D01*
X5116579Y-24635234D02*
X5097531Y-24635234D01*
X5097531Y-24635234D02*
X5078484Y-24625710D01*
X5078484Y-24625710D02*
X5068960Y-24616186D01*
X5068960Y-24616186D02*
X5059436Y-24597138D01*
X5059436Y-24597138D02*
X5049912Y-24559043D01*
X5049912Y-24559043D02*
X5049912Y-24511424D01*
X5049912Y-24511424D02*
X5059436Y-24473329D01*
X5059436Y-24473329D02*
X5068960Y-24454281D01*
X5068960Y-24454281D02*
X5078484Y-24444758D01*
X5078484Y-24444758D02*
X5097531Y-24435234D01*
X5288007Y-24435234D02*
X5307055Y-24435234D01*
X5307055Y-24435234D02*
X5326103Y-24444758D01*
X5326103Y-24444758D02*
X5335627Y-24454281D01*
X5335627Y-24454281D02*
X5345150Y-24473329D01*
X5345150Y-24473329D02*
X5354674Y-24511424D01*
X5354674Y-24511424D02*
X5354674Y-24559043D01*
X5354674Y-24559043D02*
X5345150Y-24597138D01*
X5345150Y-24597138D02*
X5335627Y-24616186D01*
X5335627Y-24616186D02*
X5326103Y-24625710D01*
X5326103Y-24625710D02*
X5307055Y-24635234D01*
X5307055Y-24635234D02*
X5288007Y-24635234D01*
X5288007Y-24635234D02*
X5268960Y-24625710D01*
X5268960Y-24625710D02*
X5259436Y-24616186D01*
X5259436Y-24616186D02*
X5249912Y-24597138D01*
X5249912Y-24597138D02*
X5240388Y-24559043D01*
X5240388Y-24559043D02*
X5240388Y-24511424D01*
X5240388Y-24511424D02*
X5249912Y-24473329D01*
X5249912Y-24473329D02*
X5259436Y-24454281D01*
X5259436Y-24454281D02*
X5268960Y-24444758D01*
X5268960Y-24444758D02*
X5288007Y-24435234D01*
X5440388Y-24635234D02*
X5440388Y-24501900D01*
X5440388Y-24520948D02*
X5449912Y-24511424D01*
X5449912Y-24511424D02*
X5468960Y-24501900D01*
X5468960Y-24501900D02*
X5497531Y-24501900D01*
X5497531Y-24501900D02*
X5516579Y-24511424D01*
X5516579Y-24511424D02*
X5526103Y-24530472D01*
X5526103Y-24530472D02*
X5526103Y-24635234D01*
X5526103Y-24530472D02*
X5535627Y-24511424D01*
X5535627Y-24511424D02*
X5554674Y-24501900D01*
X5554674Y-24501900D02*
X5583246Y-24501900D01*
X5583246Y-24501900D02*
X5602293Y-24511424D01*
X5602293Y-24511424D02*
X5611817Y-24530472D01*
X5611817Y-24530472D02*
X5611817Y-24635234D01*
X5707055Y-24635234D02*
X5707055Y-24501900D01*
X5707055Y-24520948D02*
X5716579Y-24511424D01*
X5716579Y-24511424D02*
X5735626Y-24501900D01*
X5735626Y-24501900D02*
X5764198Y-24501900D01*
X5764198Y-24501900D02*
X5783246Y-24511424D01*
X5783246Y-24511424D02*
X5792769Y-24530472D01*
X5792769Y-24530472D02*
X5792769Y-24635234D01*
X5792769Y-24530472D02*
X5802293Y-24511424D01*
X5802293Y-24511424D02*
X5821341Y-24501900D01*
X5821341Y-24501900D02*
X5849912Y-24501900D01*
X5849912Y-24501900D02*
X5868960Y-24511424D01*
X5868960Y-24511424D02*
X5878484Y-24530472D01*
X5878484Y-24530472D02*
X5878484Y-24635234D01*
X6268960Y-24425710D02*
X6097531Y-24682853D01*
X6526103Y-24435234D02*
X6545150Y-24435234D01*
X6545150Y-24435234D02*
X6564198Y-24444758D01*
X6564198Y-24444758D02*
X6573722Y-24454281D01*
X6573722Y-24454281D02*
X6583246Y-24473329D01*
X6583246Y-24473329D02*
X6592769Y-24511424D01*
X6592769Y-24511424D02*
X6592769Y-24559043D01*
X6592769Y-24559043D02*
X6583246Y-24597138D01*
X6583246Y-24597138D02*
X6573722Y-24616186D01*
X6573722Y-24616186D02*
X6564198Y-24625710D01*
X6564198Y-24625710D02*
X6545150Y-24635234D01*
X6545150Y-24635234D02*
X6526103Y-24635234D01*
X6526103Y-24635234D02*
X6507055Y-24625710D01*
X6507055Y-24625710D02*
X6497531Y-24616186D01*
X6497531Y-24616186D02*
X6488008Y-24597138D01*
X6488008Y-24597138D02*
X6478484Y-24559043D01*
X6478484Y-24559043D02*
X6478484Y-24511424D01*
X6478484Y-24511424D02*
X6488008Y-24473329D01*
X6488008Y-24473329D02*
X6497531Y-24454281D01*
X6497531Y-24454281D02*
X6507055Y-24444758D01*
X6507055Y-24444758D02*
X6526103Y-24435234D01*
X6678484Y-24616186D02*
X6688008Y-24625710D01*
X6688008Y-24625710D02*
X6678484Y-24635234D01*
X6678484Y-24635234D02*
X6668960Y-24625710D01*
X6668960Y-24625710D02*
X6678484Y-24616186D01*
X6678484Y-24616186D02*
X6678484Y-24635234D01*
X6811817Y-24435234D02*
X6830865Y-24435234D01*
X6830865Y-24435234D02*
X6849912Y-24444758D01*
X6849912Y-24444758D02*
X6859436Y-24454281D01*
X6859436Y-24454281D02*
X6868960Y-24473329D01*
X6868960Y-24473329D02*
X6878484Y-24511424D01*
X6878484Y-24511424D02*
X6878484Y-24559043D01*
X6878484Y-24559043D02*
X6868960Y-24597138D01*
X6868960Y-24597138D02*
X6859436Y-24616186D01*
X6859436Y-24616186D02*
X6849912Y-24625710D01*
X6849912Y-24625710D02*
X6830865Y-24635234D01*
X6830865Y-24635234D02*
X6811817Y-24635234D01*
X6811817Y-24635234D02*
X6792769Y-24625710D01*
X6792769Y-24625710D02*
X6783246Y-24616186D01*
X6783246Y-24616186D02*
X6773722Y-24597138D01*
X6773722Y-24597138D02*
X6764198Y-24559043D01*
X6764198Y-24559043D02*
X6764198Y-24511424D01*
X6764198Y-24511424D02*
X6773722Y-24473329D01*
X6773722Y-24473329D02*
X6783246Y-24454281D01*
X6783246Y-24454281D02*
X6792769Y-24444758D01*
X6792769Y-24444758D02*
X6811817Y-24435234D01*
X7068960Y-24635234D02*
X6954674Y-24635234D01*
X7011817Y-24635234D02*
X7011817Y-24435234D01*
X7011817Y-24435234D02*
X6992769Y-24463805D01*
X6992769Y-24463805D02*
X6973722Y-24482853D01*
X6973722Y-24482853D02*
X6954674Y-24492377D01*
X7259436Y-24635234D02*
X7145150Y-24635234D01*
X7202293Y-24635234D02*
X7202293Y-24435234D01*
X7202293Y-24435234D02*
X7183246Y-24463805D01*
X7183246Y-24463805D02*
X7164198Y-24482853D01*
X7164198Y-24482853D02*
X7145150Y-24492377D01*
X7373722Y-24520948D02*
X7354674Y-24511424D01*
X7354674Y-24511424D02*
X7345150Y-24501900D01*
X7345150Y-24501900D02*
X7335627Y-24482853D01*
X7335627Y-24482853D02*
X7335627Y-24473329D01*
X7335627Y-24473329D02*
X7345150Y-24454281D01*
X7345150Y-24454281D02*
X7354674Y-24444758D01*
X7354674Y-24444758D02*
X7373722Y-24435234D01*
X7373722Y-24435234D02*
X7411817Y-24435234D01*
X7411817Y-24435234D02*
X7430865Y-24444758D01*
X7430865Y-24444758D02*
X7440389Y-24454281D01*
X7440389Y-24454281D02*
X7449912Y-24473329D01*
X7449912Y-24473329D02*
X7449912Y-24482853D01*
X7449912Y-24482853D02*
X7440389Y-24501900D01*
X7440389Y-24501900D02*
X7430865Y-24511424D01*
X7430865Y-24511424D02*
X7411817Y-24520948D01*
X7411817Y-24520948D02*
X7373722Y-24520948D01*
X7373722Y-24520948D02*
X7354674Y-24530472D01*
X7354674Y-24530472D02*
X7345150Y-24539996D01*
X7345150Y-24539996D02*
X7335627Y-24559043D01*
X7335627Y-24559043D02*
X7335627Y-24597138D01*
X7335627Y-24597138D02*
X7345150Y-24616186D01*
X7345150Y-24616186D02*
X7354674Y-24625710D01*
X7354674Y-24625710D02*
X7373722Y-24635234D01*
X7373722Y-24635234D02*
X7411817Y-24635234D01*
X7411817Y-24635234D02*
X7430865Y-24625710D01*
X7430865Y-24625710D02*
X7440389Y-24616186D01*
X7440389Y-24616186D02*
X7449912Y-24597138D01*
X7449912Y-24597138D02*
X7449912Y-24559043D01*
X7449912Y-24559043D02*
X7440389Y-24539996D01*
X7440389Y-24539996D02*
X7430865Y-24530472D01*
X7430865Y-24530472D02*
X7411817Y-24520948D01*
X7526103Y-24435234D02*
X7526103Y-24473329D01*
X7602293Y-24435234D02*
X7602293Y-24473329D01*
X7897532Y-24711424D02*
X7888008Y-24701900D01*
X7888008Y-24701900D02*
X7868960Y-24673329D01*
X7868960Y-24673329D02*
X7859436Y-24654281D01*
X7859436Y-24654281D02*
X7849912Y-24625710D01*
X7849912Y-24625710D02*
X7840389Y-24578091D01*
X7840389Y-24578091D02*
X7840389Y-24539996D01*
X7840389Y-24539996D02*
X7849912Y-24492377D01*
X7849912Y-24492377D02*
X7859436Y-24463805D01*
X7859436Y-24463805D02*
X7868960Y-24444758D01*
X7868960Y-24444758D02*
X7888008Y-24416186D01*
X7888008Y-24416186D02*
X7897532Y-24406662D01*
X8078484Y-24635234D02*
X7964198Y-24635234D01*
X8021341Y-24635234D02*
X8021341Y-24435234D01*
X8021341Y-24435234D02*
X8002293Y-24463805D01*
X8002293Y-24463805D02*
X7983246Y-24482853D01*
X7983246Y-24482853D02*
X7964198Y-24492377D01*
X8154674Y-24454281D02*
X8164198Y-24444758D01*
X8164198Y-24444758D02*
X8183246Y-24435234D01*
X8183246Y-24435234D02*
X8230865Y-24435234D01*
X8230865Y-24435234D02*
X8249912Y-24444758D01*
X8249912Y-24444758D02*
X8259436Y-24454281D01*
X8259436Y-24454281D02*
X8268960Y-24473329D01*
X8268960Y-24473329D02*
X8268960Y-24492377D01*
X8268960Y-24492377D02*
X8259436Y-24520948D01*
X8259436Y-24520948D02*
X8145151Y-24635234D01*
X8145151Y-24635234D02*
X8268960Y-24635234D01*
X8383246Y-24520948D02*
X8364198Y-24511424D01*
X8364198Y-24511424D02*
X8354674Y-24501900D01*
X8354674Y-24501900D02*
X8345151Y-24482853D01*
X8345151Y-24482853D02*
X8345151Y-24473329D01*
X8345151Y-24473329D02*
X8354674Y-24454281D01*
X8354674Y-24454281D02*
X8364198Y-24444758D01*
X8364198Y-24444758D02*
X8383246Y-24435234D01*
X8383246Y-24435234D02*
X8421341Y-24435234D01*
X8421341Y-24435234D02*
X8440389Y-24444758D01*
X8440389Y-24444758D02*
X8449913Y-24454281D01*
X8449913Y-24454281D02*
X8459436Y-24473329D01*
X8459436Y-24473329D02*
X8459436Y-24482853D01*
X8459436Y-24482853D02*
X8449913Y-24501900D01*
X8449913Y-24501900D02*
X8440389Y-24511424D01*
X8440389Y-24511424D02*
X8421341Y-24520948D01*
X8421341Y-24520948D02*
X8383246Y-24520948D01*
X8383246Y-24520948D02*
X8364198Y-24530472D01*
X8364198Y-24530472D02*
X8354674Y-24539996D01*
X8354674Y-24539996D02*
X8345151Y-24559043D01*
X8345151Y-24559043D02*
X8345151Y-24597138D01*
X8345151Y-24597138D02*
X8354674Y-24616186D01*
X8354674Y-24616186D02*
X8364198Y-24625710D01*
X8364198Y-24625710D02*
X8383246Y-24635234D01*
X8383246Y-24635234D02*
X8421341Y-24635234D01*
X8421341Y-24635234D02*
X8440389Y-24625710D01*
X8440389Y-24625710D02*
X8449913Y-24616186D01*
X8449913Y-24616186D02*
X8459436Y-24597138D01*
X8459436Y-24597138D02*
X8459436Y-24559043D01*
X8459436Y-24559043D02*
X8449913Y-24539996D01*
X8449913Y-24539996D02*
X8440389Y-24530472D01*
X8440389Y-24530472D02*
X8421341Y-24520948D01*
X8697532Y-24635234D02*
X8697532Y-24435234D01*
X8783246Y-24635234D02*
X8783246Y-24530472D01*
X8783246Y-24530472D02*
X8773722Y-24511424D01*
X8773722Y-24511424D02*
X8754675Y-24501900D01*
X8754675Y-24501900D02*
X8726103Y-24501900D01*
X8726103Y-24501900D02*
X8707055Y-24511424D01*
X8707055Y-24511424D02*
X8697532Y-24520948D01*
X8907055Y-24635234D02*
X8888008Y-24625710D01*
X8888008Y-24625710D02*
X8878484Y-24616186D01*
X8878484Y-24616186D02*
X8868960Y-24597138D01*
X8868960Y-24597138D02*
X8868960Y-24539996D01*
X8868960Y-24539996D02*
X8878484Y-24520948D01*
X8878484Y-24520948D02*
X8888008Y-24511424D01*
X8888008Y-24511424D02*
X8907055Y-24501900D01*
X8907055Y-24501900D02*
X8935627Y-24501900D01*
X8935627Y-24501900D02*
X8954675Y-24511424D01*
X8954675Y-24511424D02*
X8964198Y-24520948D01*
X8964198Y-24520948D02*
X8973722Y-24539996D01*
X8973722Y-24539996D02*
X8973722Y-24597138D01*
X8973722Y-24597138D02*
X8964198Y-24616186D01*
X8964198Y-24616186D02*
X8954675Y-24625710D01*
X8954675Y-24625710D02*
X8935627Y-24635234D01*
X8935627Y-24635234D02*
X8907055Y-24635234D01*
X9088008Y-24635234D02*
X9068960Y-24625710D01*
X9068960Y-24625710D02*
X9059436Y-24606662D01*
X9059436Y-24606662D02*
X9059436Y-24435234D01*
X9240389Y-24625710D02*
X9221341Y-24635234D01*
X9221341Y-24635234D02*
X9183246Y-24635234D01*
X9183246Y-24635234D02*
X9164198Y-24625710D01*
X9164198Y-24625710D02*
X9154675Y-24606662D01*
X9154675Y-24606662D02*
X9154675Y-24530472D01*
X9154675Y-24530472D02*
X9164198Y-24511424D01*
X9164198Y-24511424D02*
X9183246Y-24501900D01*
X9183246Y-24501900D02*
X9221341Y-24501900D01*
X9221341Y-24501900D02*
X9240389Y-24511424D01*
X9240389Y-24511424D02*
X9249913Y-24530472D01*
X9249913Y-24530472D02*
X9249913Y-24549519D01*
X9249913Y-24549519D02*
X9154675Y-24568567D01*
X9326103Y-24625710D02*
X9345151Y-24635234D01*
X9345151Y-24635234D02*
X9383246Y-24635234D01*
X9383246Y-24635234D02*
X9402294Y-24625710D01*
X9402294Y-24625710D02*
X9411817Y-24606662D01*
X9411817Y-24606662D02*
X9411817Y-24597138D01*
X9411817Y-24597138D02*
X9402294Y-24578091D01*
X9402294Y-24578091D02*
X9383246Y-24568567D01*
X9383246Y-24568567D02*
X9354675Y-24568567D01*
X9354675Y-24568567D02*
X9335627Y-24559043D01*
X9335627Y-24559043D02*
X9326103Y-24539996D01*
X9326103Y-24539996D02*
X9326103Y-24530472D01*
X9326103Y-24530472D02*
X9335627Y-24511424D01*
X9335627Y-24511424D02*
X9354675Y-24501900D01*
X9354675Y-24501900D02*
X9383246Y-24501900D01*
X9383246Y-24501900D02*
X9402294Y-24511424D01*
X9478484Y-24711424D02*
X9488008Y-24701900D01*
X9488008Y-24701900D02*
X9507056Y-24673329D01*
X9507056Y-24673329D02*
X9516579Y-24654281D01*
X9516579Y-24654281D02*
X9526103Y-24625710D01*
X9526103Y-24625710D02*
X9535627Y-24578091D01*
X9535627Y-24578091D02*
X9535627Y-24539996D01*
X9535627Y-24539996D02*
X9526103Y-24492377D01*
X9526103Y-24492377D02*
X9516579Y-24463805D01*
X9516579Y-24463805D02*
X9507056Y-24444758D01*
X9507056Y-24444758D02*
X9488008Y-24416186D01*
X9488008Y-24416186D02*
X9478484Y-24406662D01*
D13*
X4322469Y-24807750D02*
G75*
G02*
X4172469Y-24807750I-75000J0D01*
G01*
X4172469Y-24807750D02*
G75*
G02*
X4322469Y-24807750I75000J0D01*
G01*
D11*
X4688007Y-24899234D02*
X4573722Y-24899234D01*
X4630865Y-24899234D02*
X4630865Y-24699234D01*
X4630865Y-24699234D02*
X4611817Y-24727805D01*
X4611817Y-24727805D02*
X4592769Y-24746853D01*
X4592769Y-24746853D02*
X4573722Y-24756377D01*
X4773722Y-24880186D02*
X4783246Y-24889710D01*
X4783246Y-24889710D02*
X4773722Y-24899234D01*
X4773722Y-24899234D02*
X4764198Y-24889710D01*
X4764198Y-24889710D02*
X4773722Y-24880186D01*
X4773722Y-24880186D02*
X4773722Y-24899234D01*
X4964198Y-24699234D02*
X4868960Y-24699234D01*
X4868960Y-24699234D02*
X4859436Y-24794472D01*
X4859436Y-24794472D02*
X4868960Y-24784948D01*
X4868960Y-24784948D02*
X4888007Y-24775424D01*
X4888007Y-24775424D02*
X4935627Y-24775424D01*
X4935627Y-24775424D02*
X4954674Y-24784948D01*
X4954674Y-24784948D02*
X4964198Y-24794472D01*
X4964198Y-24794472D02*
X4973722Y-24813519D01*
X4973722Y-24813519D02*
X4973722Y-24861138D01*
X4973722Y-24861138D02*
X4964198Y-24880186D01*
X4964198Y-24880186D02*
X4954674Y-24889710D01*
X4954674Y-24889710D02*
X4935627Y-24899234D01*
X4935627Y-24899234D02*
X4888007Y-24899234D01*
X4888007Y-24899234D02*
X4868960Y-24889710D01*
X4868960Y-24889710D02*
X4859436Y-24880186D01*
X5097531Y-24699234D02*
X5116579Y-24699234D01*
X5116579Y-24699234D02*
X5135627Y-24708758D01*
X5135627Y-24708758D02*
X5145150Y-24718281D01*
X5145150Y-24718281D02*
X5154674Y-24737329D01*
X5154674Y-24737329D02*
X5164198Y-24775424D01*
X5164198Y-24775424D02*
X5164198Y-24823043D01*
X5164198Y-24823043D02*
X5154674Y-24861138D01*
X5154674Y-24861138D02*
X5145150Y-24880186D01*
X5145150Y-24880186D02*
X5135627Y-24889710D01*
X5135627Y-24889710D02*
X5116579Y-24899234D01*
X5116579Y-24899234D02*
X5097531Y-24899234D01*
X5097531Y-24899234D02*
X5078484Y-24889710D01*
X5078484Y-24889710D02*
X5068960Y-24880186D01*
X5068960Y-24880186D02*
X5059436Y-24861138D01*
X5059436Y-24861138D02*
X5049912Y-24823043D01*
X5049912Y-24823043D02*
X5049912Y-24775424D01*
X5049912Y-24775424D02*
X5059436Y-24737329D01*
X5059436Y-24737329D02*
X5068960Y-24718281D01*
X5068960Y-24718281D02*
X5078484Y-24708758D01*
X5078484Y-24708758D02*
X5097531Y-24699234D01*
X5288007Y-24699234D02*
X5307055Y-24699234D01*
X5307055Y-24699234D02*
X5326103Y-24708758D01*
X5326103Y-24708758D02*
X5335627Y-24718281D01*
X5335627Y-24718281D02*
X5345150Y-24737329D01*
X5345150Y-24737329D02*
X5354674Y-24775424D01*
X5354674Y-24775424D02*
X5354674Y-24823043D01*
X5354674Y-24823043D02*
X5345150Y-24861138D01*
X5345150Y-24861138D02*
X5335627Y-24880186D01*
X5335627Y-24880186D02*
X5326103Y-24889710D01*
X5326103Y-24889710D02*
X5307055Y-24899234D01*
X5307055Y-24899234D02*
X5288007Y-24899234D01*
X5288007Y-24899234D02*
X5268960Y-24889710D01*
X5268960Y-24889710D02*
X5259436Y-24880186D01*
X5259436Y-24880186D02*
X5249912Y-24861138D01*
X5249912Y-24861138D02*
X5240388Y-24823043D01*
X5240388Y-24823043D02*
X5240388Y-24775424D01*
X5240388Y-24775424D02*
X5249912Y-24737329D01*
X5249912Y-24737329D02*
X5259436Y-24718281D01*
X5259436Y-24718281D02*
X5268960Y-24708758D01*
X5268960Y-24708758D02*
X5288007Y-24699234D01*
X5440388Y-24899234D02*
X5440388Y-24765900D01*
X5440388Y-24784948D02*
X5449912Y-24775424D01*
X5449912Y-24775424D02*
X5468960Y-24765900D01*
X5468960Y-24765900D02*
X5497531Y-24765900D01*
X5497531Y-24765900D02*
X5516579Y-24775424D01*
X5516579Y-24775424D02*
X5526103Y-24794472D01*
X5526103Y-24794472D02*
X5526103Y-24899234D01*
X5526103Y-24794472D02*
X5535627Y-24775424D01*
X5535627Y-24775424D02*
X5554674Y-24765900D01*
X5554674Y-24765900D02*
X5583246Y-24765900D01*
X5583246Y-24765900D02*
X5602293Y-24775424D01*
X5602293Y-24775424D02*
X5611817Y-24794472D01*
X5611817Y-24794472D02*
X5611817Y-24899234D01*
X5707055Y-24899234D02*
X5707055Y-24765900D01*
X5707055Y-24784948D02*
X5716579Y-24775424D01*
X5716579Y-24775424D02*
X5735626Y-24765900D01*
X5735626Y-24765900D02*
X5764198Y-24765900D01*
X5764198Y-24765900D02*
X5783246Y-24775424D01*
X5783246Y-24775424D02*
X5792769Y-24794472D01*
X5792769Y-24794472D02*
X5792769Y-24899234D01*
X5792769Y-24794472D02*
X5802293Y-24775424D01*
X5802293Y-24775424D02*
X5821341Y-24765900D01*
X5821341Y-24765900D02*
X5849912Y-24765900D01*
X5849912Y-24765900D02*
X5868960Y-24775424D01*
X5868960Y-24775424D02*
X5878484Y-24794472D01*
X5878484Y-24794472D02*
X5878484Y-24899234D01*
X6268960Y-24689710D02*
X6097531Y-24946853D01*
X6526103Y-24699234D02*
X6545150Y-24699234D01*
X6545150Y-24699234D02*
X6564198Y-24708758D01*
X6564198Y-24708758D02*
X6573722Y-24718281D01*
X6573722Y-24718281D02*
X6583246Y-24737329D01*
X6583246Y-24737329D02*
X6592769Y-24775424D01*
X6592769Y-24775424D02*
X6592769Y-24823043D01*
X6592769Y-24823043D02*
X6583246Y-24861138D01*
X6583246Y-24861138D02*
X6573722Y-24880186D01*
X6573722Y-24880186D02*
X6564198Y-24889710D01*
X6564198Y-24889710D02*
X6545150Y-24899234D01*
X6545150Y-24899234D02*
X6526103Y-24899234D01*
X6526103Y-24899234D02*
X6507055Y-24889710D01*
X6507055Y-24889710D02*
X6497531Y-24880186D01*
X6497531Y-24880186D02*
X6488008Y-24861138D01*
X6488008Y-24861138D02*
X6478484Y-24823043D01*
X6478484Y-24823043D02*
X6478484Y-24775424D01*
X6478484Y-24775424D02*
X6488008Y-24737329D01*
X6488008Y-24737329D02*
X6497531Y-24718281D01*
X6497531Y-24718281D02*
X6507055Y-24708758D01*
X6507055Y-24708758D02*
X6526103Y-24699234D01*
X6678484Y-24880186D02*
X6688008Y-24889710D01*
X6688008Y-24889710D02*
X6678484Y-24899234D01*
X6678484Y-24899234D02*
X6668960Y-24889710D01*
X6668960Y-24889710D02*
X6678484Y-24880186D01*
X6678484Y-24880186D02*
X6678484Y-24899234D01*
X6811817Y-24699234D02*
X6830865Y-24699234D01*
X6830865Y-24699234D02*
X6849912Y-24708758D01*
X6849912Y-24708758D02*
X6859436Y-24718281D01*
X6859436Y-24718281D02*
X6868960Y-24737329D01*
X6868960Y-24737329D02*
X6878484Y-24775424D01*
X6878484Y-24775424D02*
X6878484Y-24823043D01*
X6878484Y-24823043D02*
X6868960Y-24861138D01*
X6868960Y-24861138D02*
X6859436Y-24880186D01*
X6859436Y-24880186D02*
X6849912Y-24889710D01*
X6849912Y-24889710D02*
X6830865Y-24899234D01*
X6830865Y-24899234D02*
X6811817Y-24899234D01*
X6811817Y-24899234D02*
X6792769Y-24889710D01*
X6792769Y-24889710D02*
X6783246Y-24880186D01*
X6783246Y-24880186D02*
X6773722Y-24861138D01*
X6773722Y-24861138D02*
X6764198Y-24823043D01*
X6764198Y-24823043D02*
X6764198Y-24775424D01*
X6764198Y-24775424D02*
X6773722Y-24737329D01*
X6773722Y-24737329D02*
X6783246Y-24718281D01*
X6783246Y-24718281D02*
X6792769Y-24708758D01*
X6792769Y-24708758D02*
X6811817Y-24699234D01*
X7059436Y-24699234D02*
X6964198Y-24699234D01*
X6964198Y-24699234D02*
X6954674Y-24794472D01*
X6954674Y-24794472D02*
X6964198Y-24784948D01*
X6964198Y-24784948D02*
X6983246Y-24775424D01*
X6983246Y-24775424D02*
X7030865Y-24775424D01*
X7030865Y-24775424D02*
X7049912Y-24784948D01*
X7049912Y-24784948D02*
X7059436Y-24794472D01*
X7059436Y-24794472D02*
X7068960Y-24813519D01*
X7068960Y-24813519D02*
X7068960Y-24861138D01*
X7068960Y-24861138D02*
X7059436Y-24880186D01*
X7059436Y-24880186D02*
X7049912Y-24889710D01*
X7049912Y-24889710D02*
X7030865Y-24899234D01*
X7030865Y-24899234D02*
X6983246Y-24899234D01*
X6983246Y-24899234D02*
X6964198Y-24889710D01*
X6964198Y-24889710D02*
X6954674Y-24880186D01*
X7164198Y-24899234D02*
X7202293Y-24899234D01*
X7202293Y-24899234D02*
X7221341Y-24889710D01*
X7221341Y-24889710D02*
X7230865Y-24880186D01*
X7230865Y-24880186D02*
X7249912Y-24851615D01*
X7249912Y-24851615D02*
X7259436Y-24813519D01*
X7259436Y-24813519D02*
X7259436Y-24737329D01*
X7259436Y-24737329D02*
X7249912Y-24718281D01*
X7249912Y-24718281D02*
X7240389Y-24708758D01*
X7240389Y-24708758D02*
X7221341Y-24699234D01*
X7221341Y-24699234D02*
X7183246Y-24699234D01*
X7183246Y-24699234D02*
X7164198Y-24708758D01*
X7164198Y-24708758D02*
X7154674Y-24718281D01*
X7154674Y-24718281D02*
X7145150Y-24737329D01*
X7145150Y-24737329D02*
X7145150Y-24784948D01*
X7145150Y-24784948D02*
X7154674Y-24803996D01*
X7154674Y-24803996D02*
X7164198Y-24813519D01*
X7164198Y-24813519D02*
X7183246Y-24823043D01*
X7183246Y-24823043D02*
X7221341Y-24823043D01*
X7221341Y-24823043D02*
X7240389Y-24813519D01*
X7240389Y-24813519D02*
X7249912Y-24803996D01*
X7249912Y-24803996D02*
X7259436Y-24784948D01*
X7449912Y-24899234D02*
X7335627Y-24899234D01*
X7392769Y-24899234D02*
X7392769Y-24699234D01*
X7392769Y-24699234D02*
X7373722Y-24727805D01*
X7373722Y-24727805D02*
X7354674Y-24746853D01*
X7354674Y-24746853D02*
X7335627Y-24756377D01*
X7526103Y-24699234D02*
X7526103Y-24737329D01*
X7602293Y-24699234D02*
X7602293Y-24737329D01*
X7897532Y-24975424D02*
X7888008Y-24965900D01*
X7888008Y-24965900D02*
X7868960Y-24937329D01*
X7868960Y-24937329D02*
X7859436Y-24918281D01*
X7859436Y-24918281D02*
X7849912Y-24889710D01*
X7849912Y-24889710D02*
X7840389Y-24842091D01*
X7840389Y-24842091D02*
X7840389Y-24803996D01*
X7840389Y-24803996D02*
X7849912Y-24756377D01*
X7849912Y-24756377D02*
X7859436Y-24727805D01*
X7859436Y-24727805D02*
X7868960Y-24708758D01*
X7868960Y-24708758D02*
X7888008Y-24680186D01*
X7888008Y-24680186D02*
X7897532Y-24670662D01*
X8078484Y-24899234D02*
X7964198Y-24899234D01*
X8021341Y-24899234D02*
X8021341Y-24699234D01*
X8021341Y-24699234D02*
X8002293Y-24727805D01*
X8002293Y-24727805D02*
X7983246Y-24746853D01*
X7983246Y-24746853D02*
X7964198Y-24756377D01*
X8145151Y-24699234D02*
X8278484Y-24699234D01*
X8278484Y-24699234D02*
X8192770Y-24899234D01*
X8440389Y-24699234D02*
X8402293Y-24699234D01*
X8402293Y-24699234D02*
X8383246Y-24708758D01*
X8383246Y-24708758D02*
X8373722Y-24718281D01*
X8373722Y-24718281D02*
X8354674Y-24746853D01*
X8354674Y-24746853D02*
X8345151Y-24784948D01*
X8345151Y-24784948D02*
X8345151Y-24861138D01*
X8345151Y-24861138D02*
X8354674Y-24880186D01*
X8354674Y-24880186D02*
X8364198Y-24889710D01*
X8364198Y-24889710D02*
X8383246Y-24899234D01*
X8383246Y-24899234D02*
X8421341Y-24899234D01*
X8421341Y-24899234D02*
X8440389Y-24889710D01*
X8440389Y-24889710D02*
X8449913Y-24880186D01*
X8449913Y-24880186D02*
X8459436Y-24861138D01*
X8459436Y-24861138D02*
X8459436Y-24813519D01*
X8459436Y-24813519D02*
X8449913Y-24794472D01*
X8449913Y-24794472D02*
X8440389Y-24784948D01*
X8440389Y-24784948D02*
X8421341Y-24775424D01*
X8421341Y-24775424D02*
X8383246Y-24775424D01*
X8383246Y-24775424D02*
X8364198Y-24784948D01*
X8364198Y-24784948D02*
X8354674Y-24794472D01*
X8354674Y-24794472D02*
X8345151Y-24813519D01*
X8697532Y-24899234D02*
X8697532Y-24699234D01*
X8783246Y-24899234D02*
X8783246Y-24794472D01*
X8783246Y-24794472D02*
X8773722Y-24775424D01*
X8773722Y-24775424D02*
X8754675Y-24765900D01*
X8754675Y-24765900D02*
X8726103Y-24765900D01*
X8726103Y-24765900D02*
X8707055Y-24775424D01*
X8707055Y-24775424D02*
X8697532Y-24784948D01*
X8907055Y-24899234D02*
X8888008Y-24889710D01*
X8888008Y-24889710D02*
X8878484Y-24880186D01*
X8878484Y-24880186D02*
X8868960Y-24861138D01*
X8868960Y-24861138D02*
X8868960Y-24803996D01*
X8868960Y-24803996D02*
X8878484Y-24784948D01*
X8878484Y-24784948D02*
X8888008Y-24775424D01*
X8888008Y-24775424D02*
X8907055Y-24765900D01*
X8907055Y-24765900D02*
X8935627Y-24765900D01*
X8935627Y-24765900D02*
X8954675Y-24775424D01*
X8954675Y-24775424D02*
X8964198Y-24784948D01*
X8964198Y-24784948D02*
X8973722Y-24803996D01*
X8973722Y-24803996D02*
X8973722Y-24861138D01*
X8973722Y-24861138D02*
X8964198Y-24880186D01*
X8964198Y-24880186D02*
X8954675Y-24889710D01*
X8954675Y-24889710D02*
X8935627Y-24899234D01*
X8935627Y-24899234D02*
X8907055Y-24899234D01*
X9088008Y-24899234D02*
X9068960Y-24889710D01*
X9068960Y-24889710D02*
X9059436Y-24870662D01*
X9059436Y-24870662D02*
X9059436Y-24699234D01*
X9240389Y-24889710D02*
X9221341Y-24899234D01*
X9221341Y-24899234D02*
X9183246Y-24899234D01*
X9183246Y-24899234D02*
X9164198Y-24889710D01*
X9164198Y-24889710D02*
X9154675Y-24870662D01*
X9154675Y-24870662D02*
X9154675Y-24794472D01*
X9154675Y-24794472D02*
X9164198Y-24775424D01*
X9164198Y-24775424D02*
X9183246Y-24765900D01*
X9183246Y-24765900D02*
X9221341Y-24765900D01*
X9221341Y-24765900D02*
X9240389Y-24775424D01*
X9240389Y-24775424D02*
X9249913Y-24794472D01*
X9249913Y-24794472D02*
X9249913Y-24813519D01*
X9249913Y-24813519D02*
X9154675Y-24832567D01*
X9326103Y-24889710D02*
X9345151Y-24899234D01*
X9345151Y-24899234D02*
X9383246Y-24899234D01*
X9383246Y-24899234D02*
X9402294Y-24889710D01*
X9402294Y-24889710D02*
X9411817Y-24870662D01*
X9411817Y-24870662D02*
X9411817Y-24861138D01*
X9411817Y-24861138D02*
X9402294Y-24842091D01*
X9402294Y-24842091D02*
X9383246Y-24832567D01*
X9383246Y-24832567D02*
X9354675Y-24832567D01*
X9354675Y-24832567D02*
X9335627Y-24823043D01*
X9335627Y-24823043D02*
X9326103Y-24803996D01*
X9326103Y-24803996D02*
X9326103Y-24794472D01*
X9326103Y-24794472D02*
X9335627Y-24775424D01*
X9335627Y-24775424D02*
X9354675Y-24765900D01*
X9354675Y-24765900D02*
X9383246Y-24765900D01*
X9383246Y-24765900D02*
X9402294Y-24775424D01*
X9478484Y-24975424D02*
X9488008Y-24965900D01*
X9488008Y-24965900D02*
X9507056Y-24937329D01*
X9507056Y-24937329D02*
X9516579Y-24918281D01*
X9516579Y-24918281D02*
X9526103Y-24889710D01*
X9526103Y-24889710D02*
X9535627Y-24842091D01*
X9535627Y-24842091D02*
X9535627Y-24803996D01*
X9535627Y-24803996D02*
X9526103Y-24756377D01*
X9526103Y-24756377D02*
X9516579Y-24727805D01*
X9516579Y-24727805D02*
X9507056Y-24708758D01*
X9507056Y-24708758D02*
X9488008Y-24680186D01*
X9488008Y-24680186D02*
X9478484Y-24670662D01*
M02*
