%TF.GenerationSoftware,KiCad,Pcbnew,10.0.6*%
%TF.CreationDate,2026-09-26T15:48:02-04:00*%
%TF.ProjectId,alps75-zug,616c7073-3735-42d7-9a75-672e6b696361,rev?*%
%TF.SameCoordinates,Original*%
%TF.FileFunction,Drillmap*%
%TF.FilePolarity,Positive*%
%FSLAX45Y45*%
G04 Gerber Fmt 4.5, Leading zero omitted, Abs format (unit mm)*
G04 Created by KiCad (PCBNEW 10.0.6) date 2026-09-26 15:48:02*
%MOMM*%
%LPD*%
G01*
G04 APERTURE LIST*
%ADD10C,0.050000*%
%ADD11C,0.200000*%
%ADD12C,0.185000*%
%ADD13C,0.220000*%
G04 APERTURE END LIST*
D10*
X4324969Y-9284500D02*
G75*
G02*
X4424969Y-9184499I100001J0D01*
G01*
X4324969Y-23801250D02*
X4324969Y-9284500D01*
X4424969Y-9184500D02*
X10407969Y-9184500D01*
X4424969Y-23901250D02*
G75*
G02*
X4324970Y-23801250I1J100000D01*
G01*
X10407969Y-9184500D02*
G75*
G02*
X10507970Y-9284500I1J-100000D01*
G01*
X10507969Y-9284500D02*
X10507969Y-11500000D01*
X10607969Y-11600000D02*
G75*
G02*
X10507970Y-11500000I1J100000D01*
G01*
X10607969Y-11600000D02*
X37021281Y-11600000D01*
X37021281Y-11600000D02*
G75*
G02*
X37121280Y-11700000I-1J-100000D01*
G01*
X37021281Y-23901250D02*
X4424969Y-23901250D01*
X37121281Y-11700000D02*
X37121281Y-23801250D01*
X37121281Y-23801250D02*
G75*
G02*
X37021281Y-23901251I-100001J0D01*
G01*
D11*
D12*
X4685469Y-10505000D02*
X4870469Y-10690000D01*
X4870469Y-10505000D02*
X4685469Y-10690000D01*
X4685469Y-10990000D02*
X4870469Y-11175000D01*
X4870469Y-10990000D02*
X4685469Y-11175000D01*
D13*
X4584969Y-10567500D02*
G75*
G02*
X4364969Y-10567500I-110000J0D01*
G01*
X4364969Y-10567500D02*
G75*
G02*
X4584969Y-10567500I110000J0D01*
G01*
X4584969Y-11112500D02*
G75*
G02*
X4364969Y-11112500I-110000J0D01*
G01*
X4364969Y-11112500D02*
G75*
G02*
X4584969Y-11112500I110000J0D01*
G01*
D11*
X4583246Y-24215234D02*
X4583246Y-24015234D01*
X4583246Y-24015234D02*
X4630865Y-24015234D01*
X4630865Y-24015234D02*
X4659436Y-24024758D01*
X4659436Y-24024758D02*
X4678484Y-24043805D01*
X4678484Y-24043805D02*
X4688007Y-24062853D01*
X4688007Y-24062853D02*
X4697531Y-24100948D01*
X4697531Y-24100948D02*
X4697531Y-24129519D01*
X4697531Y-24129519D02*
X4688007Y-24167615D01*
X4688007Y-24167615D02*
X4678484Y-24186662D01*
X4678484Y-24186662D02*
X4659436Y-24205710D01*
X4659436Y-24205710D02*
X4630865Y-24215234D01*
X4630865Y-24215234D02*
X4583246Y-24215234D01*
X4783246Y-24215234D02*
X4783246Y-24081900D01*
X4783246Y-24119996D02*
X4792769Y-24100948D01*
X4792769Y-24100948D02*
X4802293Y-24091424D01*
X4802293Y-24091424D02*
X4821341Y-24081900D01*
X4821341Y-24081900D02*
X4840388Y-24081900D01*
X4907055Y-24215234D02*
X4907055Y-24081900D01*
X4907055Y-24015234D02*
X4897531Y-24024758D01*
X4897531Y-24024758D02*
X4907055Y-24034281D01*
X4907055Y-24034281D02*
X4916579Y-24024758D01*
X4916579Y-24024758D02*
X4907055Y-24015234D01*
X4907055Y-24015234D02*
X4907055Y-24034281D01*
X5030865Y-24215234D02*
X5011817Y-24205710D01*
X5011817Y-24205710D02*
X5002293Y-24186662D01*
X5002293Y-24186662D02*
X5002293Y-24015234D01*
X5135626Y-24215234D02*
X5116579Y-24205710D01*
X5116579Y-24205710D02*
X5107055Y-24186662D01*
X5107055Y-24186662D02*
X5107055Y-24015234D01*
X5364198Y-24215234D02*
X5364198Y-24015234D01*
X5364198Y-24015234D02*
X5430865Y-24158091D01*
X5430865Y-24158091D02*
X5497531Y-24015234D01*
X5497531Y-24015234D02*
X5497531Y-24215234D01*
X5678484Y-24215234D02*
X5678484Y-24110472D01*
X5678484Y-24110472D02*
X5668960Y-24091424D01*
X5668960Y-24091424D02*
X5649912Y-24081900D01*
X5649912Y-24081900D02*
X5611817Y-24081900D01*
X5611817Y-24081900D02*
X5592769Y-24091424D01*
X5678484Y-24205710D02*
X5659436Y-24215234D01*
X5659436Y-24215234D02*
X5611817Y-24215234D01*
X5611817Y-24215234D02*
X5592769Y-24205710D01*
X5592769Y-24205710D02*
X5583246Y-24186662D01*
X5583246Y-24186662D02*
X5583246Y-24167615D01*
X5583246Y-24167615D02*
X5592769Y-24148567D01*
X5592769Y-24148567D02*
X5611817Y-24139043D01*
X5611817Y-24139043D02*
X5659436Y-24139043D01*
X5659436Y-24139043D02*
X5678484Y-24129519D01*
X5773722Y-24081900D02*
X5773722Y-24281900D01*
X5773722Y-24091424D02*
X5792769Y-24081900D01*
X5792769Y-24081900D02*
X5830865Y-24081900D01*
X5830865Y-24081900D02*
X5849912Y-24091424D01*
X5849912Y-24091424D02*
X5859436Y-24100948D01*
X5859436Y-24100948D02*
X5868960Y-24119996D01*
X5868960Y-24119996D02*
X5868960Y-24177138D01*
X5868960Y-24177138D02*
X5859436Y-24196186D01*
X5859436Y-24196186D02*
X5849912Y-24205710D01*
X5849912Y-24205710D02*
X5830865Y-24215234D01*
X5830865Y-24215234D02*
X5792769Y-24215234D01*
X5792769Y-24215234D02*
X5773722Y-24205710D01*
X5954674Y-24196186D02*
X5964198Y-24205710D01*
X5964198Y-24205710D02*
X5954674Y-24215234D01*
X5954674Y-24215234D02*
X5945150Y-24205710D01*
X5945150Y-24205710D02*
X5954674Y-24196186D01*
X5954674Y-24196186D02*
X5954674Y-24215234D01*
X5954674Y-24091424D02*
X5964198Y-24100948D01*
X5964198Y-24100948D02*
X5954674Y-24110472D01*
X5954674Y-24110472D02*
X5945150Y-24100948D01*
X5945150Y-24100948D02*
X5954674Y-24091424D01*
X5954674Y-24091424D02*
X5954674Y-24110472D01*
D12*
X4137469Y-24451250D02*
X4322469Y-24636250D01*
X4322469Y-24451250D02*
X4137469Y-24636250D01*
D11*
X4688007Y-24635234D02*
X4573722Y-24635234D01*
X4630865Y-24635234D02*
X4630865Y-24435234D01*
X4630865Y-24435234D02*
X4611817Y-24463805D01*
X4611817Y-24463805D02*
X4592769Y-24482853D01*
X4592769Y-24482853D02*
X4573722Y-24492377D01*
X4773722Y-24616186D02*
X4783246Y-24625710D01*
X4783246Y-24625710D02*
X4773722Y-24635234D01*
X4773722Y-24635234D02*
X4764198Y-24625710D01*
X4764198Y-24625710D02*
X4773722Y-24616186D01*
X4773722Y-24616186D02*
X4773722Y-24635234D01*
X4897531Y-24520948D02*
X4878484Y-24511424D01*
X4878484Y-24511424D02*
X4868960Y-24501900D01*
X4868960Y-24501900D02*
X4859436Y-24482853D01*
X4859436Y-24482853D02*
X4859436Y-24473329D01*
X4859436Y-24473329D02*
X4868960Y-24454281D01*
X4868960Y-24454281D02*
X4878484Y-24444758D01*
X4878484Y-24444758D02*
X4897531Y-24435234D01*
X4897531Y-24435234D02*
X4935627Y-24435234D01*
X4935627Y-24435234D02*
X4954674Y-24444758D01*
X4954674Y-24444758D02*
X4964198Y-24454281D01*
X4964198Y-24454281D02*
X4973722Y-24473329D01*
X4973722Y-24473329D02*
X4973722Y-24482853D01*
X4973722Y-24482853D02*
X4964198Y-24501900D01*
X4964198Y-24501900D02*
X4954674Y-24511424D01*
X4954674Y-24511424D02*
X4935627Y-24520948D01*
X4935627Y-24520948D02*
X4897531Y-24520948D01*
X4897531Y-24520948D02*
X4878484Y-24530472D01*
X4878484Y-24530472D02*
X4868960Y-24539996D01*
X4868960Y-24539996D02*
X4859436Y-24559043D01*
X4859436Y-24559043D02*
X4859436Y-24597138D01*
X4859436Y-24597138D02*
X4868960Y-24616186D01*
X4868960Y-24616186D02*
X4878484Y-24625710D01*
X4878484Y-24625710D02*
X4897531Y-24635234D01*
X4897531Y-24635234D02*
X4935627Y-24635234D01*
X4935627Y-24635234D02*
X4954674Y-24625710D01*
X4954674Y-24625710D02*
X4964198Y-24616186D01*
X4964198Y-24616186D02*
X4973722Y-24597138D01*
X4973722Y-24597138D02*
X4973722Y-24559043D01*
X4973722Y-24559043D02*
X4964198Y-24539996D01*
X4964198Y-24539996D02*
X4954674Y-24530472D01*
X4954674Y-24530472D02*
X4935627Y-24520948D01*
X5154674Y-24435234D02*
X5059436Y-24435234D01*
X5059436Y-24435234D02*
X5049912Y-24530472D01*
X5049912Y-24530472D02*
X5059436Y-24520948D01*
X5059436Y-24520948D02*
X5078484Y-24511424D01*
X5078484Y-24511424D02*
X5126103Y-24511424D01*
X5126103Y-24511424D02*
X5145150Y-24520948D01*
X5145150Y-24520948D02*
X5154674Y-24530472D01*
X5154674Y-24530472D02*
X5164198Y-24549519D01*
X5164198Y-24549519D02*
X5164198Y-24597138D01*
X5164198Y-24597138D02*
X5154674Y-24616186D01*
X5154674Y-24616186D02*
X5145150Y-24625710D01*
X5145150Y-24625710D02*
X5126103Y-24635234D01*
X5126103Y-24635234D02*
X5078484Y-24635234D01*
X5078484Y-24635234D02*
X5059436Y-24625710D01*
X5059436Y-24625710D02*
X5049912Y-24616186D01*
X5288007Y-24435234D02*
X5307055Y-24435234D01*
X5307055Y-24435234D02*
X5326103Y-24444758D01*
X5326103Y-24444758D02*
X5335627Y-24454281D01*
X5335627Y-24454281D02*
X5345150Y-24473329D01*
X5345150Y-24473329D02*
X5354674Y-24511424D01*
X5354674Y-24511424D02*
X5354674Y-24559043D01*
X5354674Y-24559043D02*
X5345150Y-24597138D01*
X5345150Y-24597138D02*
X5335627Y-24616186D01*
X5335627Y-24616186D02*
X5326103Y-24625710D01*
X5326103Y-24625710D02*
X5307055Y-24635234D01*
X5307055Y-24635234D02*
X5288007Y-24635234D01*
X5288007Y-24635234D02*
X5268960Y-24625710D01*
X5268960Y-24625710D02*
X5259436Y-24616186D01*
X5259436Y-24616186D02*
X5249912Y-24597138D01*
X5249912Y-24597138D02*
X5240388Y-24559043D01*
X5240388Y-24559043D02*
X5240388Y-24511424D01*
X5240388Y-24511424D02*
X5249912Y-24473329D01*
X5249912Y-24473329D02*
X5259436Y-24454281D01*
X5259436Y-24454281D02*
X5268960Y-24444758D01*
X5268960Y-24444758D02*
X5288007Y-24435234D01*
X5440388Y-24635234D02*
X5440388Y-24501900D01*
X5440388Y-24520948D02*
X5449912Y-24511424D01*
X5449912Y-24511424D02*
X5468960Y-24501900D01*
X5468960Y-24501900D02*
X5497531Y-24501900D01*
X5497531Y-24501900D02*
X5516579Y-24511424D01*
X5516579Y-24511424D02*
X5526103Y-24530472D01*
X5526103Y-24530472D02*
X5526103Y-24635234D01*
X5526103Y-24530472D02*
X5535627Y-24511424D01*
X5535627Y-24511424D02*
X5554674Y-24501900D01*
X5554674Y-24501900D02*
X5583246Y-24501900D01*
X5583246Y-24501900D02*
X5602293Y-24511424D01*
X5602293Y-24511424D02*
X5611817Y-24530472D01*
X5611817Y-24530472D02*
X5611817Y-24635234D01*
X5707055Y-24635234D02*
X5707055Y-24501900D01*
X5707055Y-24520948D02*
X5716579Y-24511424D01*
X5716579Y-24511424D02*
X5735626Y-24501900D01*
X5735626Y-24501900D02*
X5764198Y-24501900D01*
X5764198Y-24501900D02*
X5783246Y-24511424D01*
X5783246Y-24511424D02*
X5792769Y-24530472D01*
X5792769Y-24530472D02*
X5792769Y-24635234D01*
X5792769Y-24530472D02*
X5802293Y-24511424D01*
X5802293Y-24511424D02*
X5821341Y-24501900D01*
X5821341Y-24501900D02*
X5849912Y-24501900D01*
X5849912Y-24501900D02*
X5868960Y-24511424D01*
X5868960Y-24511424D02*
X5878484Y-24530472D01*
X5878484Y-24530472D02*
X5878484Y-24635234D01*
X6268960Y-24425710D02*
X6097531Y-24682853D01*
X6526103Y-24435234D02*
X6545150Y-24435234D01*
X6545150Y-24435234D02*
X6564198Y-24444758D01*
X6564198Y-24444758D02*
X6573722Y-24454281D01*
X6573722Y-24454281D02*
X6583246Y-24473329D01*
X6583246Y-24473329D02*
X6592769Y-24511424D01*
X6592769Y-24511424D02*
X6592769Y-24559043D01*
X6592769Y-24559043D02*
X6583246Y-24597138D01*
X6583246Y-24597138D02*
X6573722Y-24616186D01*
X6573722Y-24616186D02*
X6564198Y-24625710D01*
X6564198Y-24625710D02*
X6545150Y-24635234D01*
X6545150Y-24635234D02*
X6526103Y-24635234D01*
X6526103Y-24635234D02*
X6507055Y-24625710D01*
X6507055Y-24625710D02*
X6497531Y-24616186D01*
X6497531Y-24616186D02*
X6488008Y-24597138D01*
X6488008Y-24597138D02*
X6478484Y-24559043D01*
X6478484Y-24559043D02*
X6478484Y-24511424D01*
X6478484Y-24511424D02*
X6488008Y-24473329D01*
X6488008Y-24473329D02*
X6497531Y-24454281D01*
X6497531Y-24454281D02*
X6507055Y-24444758D01*
X6507055Y-24444758D02*
X6526103Y-24435234D01*
X6678484Y-24616186D02*
X6688008Y-24625710D01*
X6688008Y-24625710D02*
X6678484Y-24635234D01*
X6678484Y-24635234D02*
X6668960Y-24625710D01*
X6668960Y-24625710D02*
X6678484Y-24616186D01*
X6678484Y-24616186D02*
X6678484Y-24635234D01*
X6811817Y-24435234D02*
X6830865Y-24435234D01*
X6830865Y-24435234D02*
X6849912Y-24444758D01*
X6849912Y-24444758D02*
X6859436Y-24454281D01*
X6859436Y-24454281D02*
X6868960Y-24473329D01*
X6868960Y-24473329D02*
X6878484Y-24511424D01*
X6878484Y-24511424D02*
X6878484Y-24559043D01*
X6878484Y-24559043D02*
X6868960Y-24597138D01*
X6868960Y-24597138D02*
X6859436Y-24616186D01*
X6859436Y-24616186D02*
X6849912Y-24625710D01*
X6849912Y-24625710D02*
X6830865Y-24635234D01*
X6830865Y-24635234D02*
X6811817Y-24635234D01*
X6811817Y-24635234D02*
X6792769Y-24625710D01*
X6792769Y-24625710D02*
X6783246Y-24616186D01*
X6783246Y-24616186D02*
X6773722Y-24597138D01*
X6773722Y-24597138D02*
X6764198Y-24559043D01*
X6764198Y-24559043D02*
X6764198Y-24511424D01*
X6764198Y-24511424D02*
X6773722Y-24473329D01*
X6773722Y-24473329D02*
X6783246Y-24454281D01*
X6783246Y-24454281D02*
X6792769Y-24444758D01*
X6792769Y-24444758D02*
X6811817Y-24435234D01*
X6945150Y-24435234D02*
X7078484Y-24435234D01*
X7078484Y-24435234D02*
X6992769Y-24635234D01*
X7145150Y-24454281D02*
X7154674Y-24444758D01*
X7154674Y-24444758D02*
X7173722Y-24435234D01*
X7173722Y-24435234D02*
X7221341Y-24435234D01*
X7221341Y-24435234D02*
X7240389Y-24444758D01*
X7240389Y-24444758D02*
X7249912Y-24454281D01*
X7249912Y-24454281D02*
X7259436Y-24473329D01*
X7259436Y-24473329D02*
X7259436Y-24492377D01*
X7259436Y-24492377D02*
X7249912Y-24520948D01*
X7249912Y-24520948D02*
X7135627Y-24635234D01*
X7135627Y-24635234D02*
X7259436Y-24635234D01*
X7373722Y-24520948D02*
X7354674Y-24511424D01*
X7354674Y-24511424D02*
X7345150Y-24501900D01*
X7345150Y-24501900D02*
X7335627Y-24482853D01*
X7335627Y-24482853D02*
X7335627Y-24473329D01*
X7335627Y-24473329D02*
X7345150Y-24454281D01*
X7345150Y-24454281D02*
X7354674Y-24444758D01*
X7354674Y-24444758D02*
X7373722Y-24435234D01*
X7373722Y-24435234D02*
X7411817Y-24435234D01*
X7411817Y-24435234D02*
X7430865Y-24444758D01*
X7430865Y-24444758D02*
X7440389Y-24454281D01*
X7440389Y-24454281D02*
X7449912Y-24473329D01*
X7449912Y-24473329D02*
X7449912Y-24482853D01*
X7449912Y-24482853D02*
X7440389Y-24501900D01*
X7440389Y-24501900D02*
X7430865Y-24511424D01*
X7430865Y-24511424D02*
X7411817Y-24520948D01*
X7411817Y-24520948D02*
X7373722Y-24520948D01*
X7373722Y-24520948D02*
X7354674Y-24530472D01*
X7354674Y-24530472D02*
X7345150Y-24539996D01*
X7345150Y-24539996D02*
X7335627Y-24559043D01*
X7335627Y-24559043D02*
X7335627Y-24597138D01*
X7335627Y-24597138D02*
X7345150Y-24616186D01*
X7345150Y-24616186D02*
X7354674Y-24625710D01*
X7354674Y-24625710D02*
X7373722Y-24635234D01*
X7373722Y-24635234D02*
X7411817Y-24635234D01*
X7411817Y-24635234D02*
X7430865Y-24625710D01*
X7430865Y-24625710D02*
X7440389Y-24616186D01*
X7440389Y-24616186D02*
X7449912Y-24597138D01*
X7449912Y-24597138D02*
X7449912Y-24559043D01*
X7449912Y-24559043D02*
X7440389Y-24539996D01*
X7440389Y-24539996D02*
X7430865Y-24530472D01*
X7430865Y-24530472D02*
X7411817Y-24520948D01*
X7526103Y-24435234D02*
X7526103Y-24473329D01*
X7602293Y-24435234D02*
X7602293Y-24473329D01*
X7897532Y-24711424D02*
X7888008Y-24701900D01*
X7888008Y-24701900D02*
X7868960Y-24673329D01*
X7868960Y-24673329D02*
X7859436Y-24654281D01*
X7859436Y-24654281D02*
X7849912Y-24625710D01*
X7849912Y-24625710D02*
X7840389Y-24578091D01*
X7840389Y-24578091D02*
X7840389Y-24539996D01*
X7840389Y-24539996D02*
X7849912Y-24492377D01*
X7849912Y-24492377D02*
X7859436Y-24463805D01*
X7859436Y-24463805D02*
X7868960Y-24444758D01*
X7868960Y-24444758D02*
X7888008Y-24416186D01*
X7888008Y-24416186D02*
X7897532Y-24406662D01*
X7964198Y-24454281D02*
X7973722Y-24444758D01*
X7973722Y-24444758D02*
X7992770Y-24435234D01*
X7992770Y-24435234D02*
X8040389Y-24435234D01*
X8040389Y-24435234D02*
X8059436Y-24444758D01*
X8059436Y-24444758D02*
X8068960Y-24454281D01*
X8068960Y-24454281D02*
X8078484Y-24473329D01*
X8078484Y-24473329D02*
X8078484Y-24492377D01*
X8078484Y-24492377D02*
X8068960Y-24520948D01*
X8068960Y-24520948D02*
X7954674Y-24635234D01*
X7954674Y-24635234D02*
X8078484Y-24635234D01*
X8316579Y-24635234D02*
X8316579Y-24435234D01*
X8402294Y-24635234D02*
X8402294Y-24530472D01*
X8402294Y-24530472D02*
X8392770Y-24511424D01*
X8392770Y-24511424D02*
X8373722Y-24501900D01*
X8373722Y-24501900D02*
X8345151Y-24501900D01*
X8345151Y-24501900D02*
X8326103Y-24511424D01*
X8326103Y-24511424D02*
X8316579Y-24520948D01*
X8526103Y-24635234D02*
X8507055Y-24625710D01*
X8507055Y-24625710D02*
X8497532Y-24616186D01*
X8497532Y-24616186D02*
X8488008Y-24597138D01*
X8488008Y-24597138D02*
X8488008Y-24539996D01*
X8488008Y-24539996D02*
X8497532Y-24520948D01*
X8497532Y-24520948D02*
X8507055Y-24511424D01*
X8507055Y-24511424D02*
X8526103Y-24501900D01*
X8526103Y-24501900D02*
X8554675Y-24501900D01*
X8554675Y-24501900D02*
X8573722Y-24511424D01*
X8573722Y-24511424D02*
X8583246Y-24520948D01*
X8583246Y-24520948D02*
X8592770Y-24539996D01*
X8592770Y-24539996D02*
X8592770Y-24597138D01*
X8592770Y-24597138D02*
X8583246Y-24616186D01*
X8583246Y-24616186D02*
X8573722Y-24625710D01*
X8573722Y-24625710D02*
X8554675Y-24635234D01*
X8554675Y-24635234D02*
X8526103Y-24635234D01*
X8707055Y-24635234D02*
X8688008Y-24625710D01*
X8688008Y-24625710D02*
X8678484Y-24606662D01*
X8678484Y-24606662D02*
X8678484Y-24435234D01*
X8859436Y-24625710D02*
X8840389Y-24635234D01*
X8840389Y-24635234D02*
X8802294Y-24635234D01*
X8802294Y-24635234D02*
X8783246Y-24625710D01*
X8783246Y-24625710D02*
X8773722Y-24606662D01*
X8773722Y-24606662D02*
X8773722Y-24530472D01*
X8773722Y-24530472D02*
X8783246Y-24511424D01*
X8783246Y-24511424D02*
X8802294Y-24501900D01*
X8802294Y-24501900D02*
X8840389Y-24501900D01*
X8840389Y-24501900D02*
X8859436Y-24511424D01*
X8859436Y-24511424D02*
X8868960Y-24530472D01*
X8868960Y-24530472D02*
X8868960Y-24549519D01*
X8868960Y-24549519D02*
X8773722Y-24568567D01*
X8945151Y-24625710D02*
X8964198Y-24635234D01*
X8964198Y-24635234D02*
X9002294Y-24635234D01*
X9002294Y-24635234D02*
X9021341Y-24625710D01*
X9021341Y-24625710D02*
X9030865Y-24606662D01*
X9030865Y-24606662D02*
X9030865Y-24597138D01*
X9030865Y-24597138D02*
X9021341Y-24578091D01*
X9021341Y-24578091D02*
X9002294Y-24568567D01*
X9002294Y-24568567D02*
X8973722Y-24568567D01*
X8973722Y-24568567D02*
X8954675Y-24559043D01*
X8954675Y-24559043D02*
X8945151Y-24539996D01*
X8945151Y-24539996D02*
X8945151Y-24530472D01*
X8945151Y-24530472D02*
X8954675Y-24511424D01*
X8954675Y-24511424D02*
X8973722Y-24501900D01*
X8973722Y-24501900D02*
X9002294Y-24501900D01*
X9002294Y-24501900D02*
X9021341Y-24511424D01*
X9097532Y-24711424D02*
X9107056Y-24701900D01*
X9107056Y-24701900D02*
X9126103Y-24673329D01*
X9126103Y-24673329D02*
X9135627Y-24654281D01*
X9135627Y-24654281D02*
X9145151Y-24625710D01*
X9145151Y-24625710D02*
X9154675Y-24578091D01*
X9154675Y-24578091D02*
X9154675Y-24539996D01*
X9154675Y-24539996D02*
X9145151Y-24492377D01*
X9145151Y-24492377D02*
X9135627Y-24463805D01*
X9135627Y-24463805D02*
X9126103Y-24444758D01*
X9126103Y-24444758D02*
X9107056Y-24416186D01*
X9107056Y-24416186D02*
X9097532Y-24406662D01*
X9459437Y-24711424D02*
X9449913Y-24701900D01*
X9449913Y-24701900D02*
X9430865Y-24673329D01*
X9430865Y-24673329D02*
X9421341Y-24654281D01*
X9421341Y-24654281D02*
X9411817Y-24625710D01*
X9411817Y-24625710D02*
X9402294Y-24578091D01*
X9402294Y-24578091D02*
X9402294Y-24539996D01*
X9402294Y-24539996D02*
X9411817Y-24492377D01*
X9411817Y-24492377D02*
X9421341Y-24463805D01*
X9421341Y-24463805D02*
X9430865Y-24444758D01*
X9430865Y-24444758D02*
X9449913Y-24416186D01*
X9449913Y-24416186D02*
X9459437Y-24406662D01*
X9535627Y-24501900D02*
X9535627Y-24635234D01*
X9535627Y-24520948D02*
X9545151Y-24511424D01*
X9545151Y-24511424D02*
X9564198Y-24501900D01*
X9564198Y-24501900D02*
X9592770Y-24501900D01*
X9592770Y-24501900D02*
X9611817Y-24511424D01*
X9611817Y-24511424D02*
X9621341Y-24530472D01*
X9621341Y-24530472D02*
X9621341Y-24635234D01*
X9745151Y-24635234D02*
X9726103Y-24625710D01*
X9726103Y-24625710D02*
X9716579Y-24616186D01*
X9716579Y-24616186D02*
X9707056Y-24597138D01*
X9707056Y-24597138D02*
X9707056Y-24539996D01*
X9707056Y-24539996D02*
X9716579Y-24520948D01*
X9716579Y-24520948D02*
X9726103Y-24511424D01*
X9726103Y-24511424D02*
X9745151Y-24501900D01*
X9745151Y-24501900D02*
X9773722Y-24501900D01*
X9773722Y-24501900D02*
X9792770Y-24511424D01*
X9792770Y-24511424D02*
X9802294Y-24520948D01*
X9802294Y-24520948D02*
X9811817Y-24539996D01*
X9811817Y-24539996D02*
X9811817Y-24597138D01*
X9811817Y-24597138D02*
X9802294Y-24616186D01*
X9802294Y-24616186D02*
X9792770Y-24625710D01*
X9792770Y-24625710D02*
X9773722Y-24635234D01*
X9773722Y-24635234D02*
X9745151Y-24635234D01*
X9868960Y-24501900D02*
X9945151Y-24501900D01*
X9897532Y-24435234D02*
X9897532Y-24606662D01*
X9897532Y-24606662D02*
X9907056Y-24625710D01*
X9907056Y-24625710D02*
X9926103Y-24635234D01*
X9926103Y-24635234D02*
X9945151Y-24635234D01*
X10164198Y-24501900D02*
X10164198Y-24701900D01*
X10164198Y-24511424D02*
X10183246Y-24501900D01*
X10183246Y-24501900D02*
X10221341Y-24501900D01*
X10221341Y-24501900D02*
X10240389Y-24511424D01*
X10240389Y-24511424D02*
X10249913Y-24520948D01*
X10249913Y-24520948D02*
X10259437Y-24539996D01*
X10259437Y-24539996D02*
X10259437Y-24597138D01*
X10259437Y-24597138D02*
X10249913Y-24616186D01*
X10249913Y-24616186D02*
X10240389Y-24625710D01*
X10240389Y-24625710D02*
X10221341Y-24635234D01*
X10221341Y-24635234D02*
X10183246Y-24635234D01*
X10183246Y-24635234D02*
X10164198Y-24625710D01*
X10373722Y-24635234D02*
X10354675Y-24625710D01*
X10354675Y-24625710D02*
X10345151Y-24606662D01*
X10345151Y-24606662D02*
X10345151Y-24435234D01*
X10535627Y-24635234D02*
X10535627Y-24530472D01*
X10535627Y-24530472D02*
X10526103Y-24511424D01*
X10526103Y-24511424D02*
X10507056Y-24501900D01*
X10507056Y-24501900D02*
X10468960Y-24501900D01*
X10468960Y-24501900D02*
X10449913Y-24511424D01*
X10535627Y-24625710D02*
X10516579Y-24635234D01*
X10516579Y-24635234D02*
X10468960Y-24635234D01*
X10468960Y-24635234D02*
X10449913Y-24625710D01*
X10449913Y-24625710D02*
X10440389Y-24606662D01*
X10440389Y-24606662D02*
X10440389Y-24587615D01*
X10440389Y-24587615D02*
X10449913Y-24568567D01*
X10449913Y-24568567D02*
X10468960Y-24559043D01*
X10468960Y-24559043D02*
X10516579Y-24559043D01*
X10516579Y-24559043D02*
X10535627Y-24549519D01*
X10602294Y-24501900D02*
X10678484Y-24501900D01*
X10630865Y-24435234D02*
X10630865Y-24606662D01*
X10630865Y-24606662D02*
X10640389Y-24625710D01*
X10640389Y-24625710D02*
X10659437Y-24635234D01*
X10659437Y-24635234D02*
X10678484Y-24635234D01*
X10821341Y-24625710D02*
X10802294Y-24635234D01*
X10802294Y-24635234D02*
X10764198Y-24635234D01*
X10764198Y-24635234D02*
X10745151Y-24625710D01*
X10745151Y-24625710D02*
X10735627Y-24606662D01*
X10735627Y-24606662D02*
X10735627Y-24530472D01*
X10735627Y-24530472D02*
X10745151Y-24511424D01*
X10745151Y-24511424D02*
X10764198Y-24501900D01*
X10764198Y-24501900D02*
X10802294Y-24501900D01*
X10802294Y-24501900D02*
X10821341Y-24511424D01*
X10821341Y-24511424D02*
X10830865Y-24530472D01*
X10830865Y-24530472D02*
X10830865Y-24549519D01*
X10830865Y-24549519D02*
X10735627Y-24568567D01*
X11002294Y-24635234D02*
X11002294Y-24435234D01*
X11002294Y-24625710D02*
X10983246Y-24635234D01*
X10983246Y-24635234D02*
X10945151Y-24635234D01*
X10945151Y-24635234D02*
X10926103Y-24625710D01*
X10926103Y-24625710D02*
X10916579Y-24616186D01*
X10916579Y-24616186D02*
X10907056Y-24597138D01*
X10907056Y-24597138D02*
X10907056Y-24539996D01*
X10907056Y-24539996D02*
X10916579Y-24520948D01*
X10916579Y-24520948D02*
X10926103Y-24511424D01*
X10926103Y-24511424D02*
X10945151Y-24501900D01*
X10945151Y-24501900D02*
X10983246Y-24501900D01*
X10983246Y-24501900D02*
X11002294Y-24511424D01*
X11078484Y-24711424D02*
X11088008Y-24701900D01*
X11088008Y-24701900D02*
X11107056Y-24673329D01*
X11107056Y-24673329D02*
X11116579Y-24654281D01*
X11116579Y-24654281D02*
X11126103Y-24625710D01*
X11126103Y-24625710D02*
X11135627Y-24578091D01*
X11135627Y-24578091D02*
X11135627Y-24539996D01*
X11135627Y-24539996D02*
X11126103Y-24492377D01*
X11126103Y-24492377D02*
X11116579Y-24463805D01*
X11116579Y-24463805D02*
X11107056Y-24444758D01*
X11107056Y-24444758D02*
X11088008Y-24416186D01*
X11088008Y-24416186D02*
X11078484Y-24406662D01*
X4322469Y-24848750D02*
G75*
G02*
X4122469Y-24848750I-100000J0D01*
G01*
X4122469Y-24848750D02*
G75*
G02*
X4322469Y-24848750I100000J0D01*
G01*
X4573722Y-24759281D02*
X4583246Y-24749758D01*
X4583246Y-24749758D02*
X4602293Y-24740234D01*
X4602293Y-24740234D02*
X4649912Y-24740234D01*
X4649912Y-24740234D02*
X4668960Y-24749758D01*
X4668960Y-24749758D02*
X4678484Y-24759281D01*
X4678484Y-24759281D02*
X4688007Y-24778329D01*
X4688007Y-24778329D02*
X4688007Y-24797377D01*
X4688007Y-24797377D02*
X4678484Y-24825948D01*
X4678484Y-24825948D02*
X4564198Y-24940234D01*
X4564198Y-24940234D02*
X4688007Y-24940234D01*
X4773722Y-24921186D02*
X4783246Y-24930710D01*
X4783246Y-24930710D02*
X4773722Y-24940234D01*
X4773722Y-24940234D02*
X4764198Y-24930710D01*
X4764198Y-24930710D02*
X4773722Y-24921186D01*
X4773722Y-24921186D02*
X4773722Y-24940234D01*
X4859436Y-24759281D02*
X4868960Y-24749758D01*
X4868960Y-24749758D02*
X4888007Y-24740234D01*
X4888007Y-24740234D02*
X4935627Y-24740234D01*
X4935627Y-24740234D02*
X4954674Y-24749758D01*
X4954674Y-24749758D02*
X4964198Y-24759281D01*
X4964198Y-24759281D02*
X4973722Y-24778329D01*
X4973722Y-24778329D02*
X4973722Y-24797377D01*
X4973722Y-24797377D02*
X4964198Y-24825948D01*
X4964198Y-24825948D02*
X4849912Y-24940234D01*
X4849912Y-24940234D02*
X4973722Y-24940234D01*
X5097531Y-24740234D02*
X5116579Y-24740234D01*
X5116579Y-24740234D02*
X5135627Y-24749758D01*
X5135627Y-24749758D02*
X5145150Y-24759281D01*
X5145150Y-24759281D02*
X5154674Y-24778329D01*
X5154674Y-24778329D02*
X5164198Y-24816424D01*
X5164198Y-24816424D02*
X5164198Y-24864043D01*
X5164198Y-24864043D02*
X5154674Y-24902138D01*
X5154674Y-24902138D02*
X5145150Y-24921186D01*
X5145150Y-24921186D02*
X5135627Y-24930710D01*
X5135627Y-24930710D02*
X5116579Y-24940234D01*
X5116579Y-24940234D02*
X5097531Y-24940234D01*
X5097531Y-24940234D02*
X5078484Y-24930710D01*
X5078484Y-24930710D02*
X5068960Y-24921186D01*
X5068960Y-24921186D02*
X5059436Y-24902138D01*
X5059436Y-24902138D02*
X5049912Y-24864043D01*
X5049912Y-24864043D02*
X5049912Y-24816424D01*
X5049912Y-24816424D02*
X5059436Y-24778329D01*
X5059436Y-24778329D02*
X5068960Y-24759281D01*
X5068960Y-24759281D02*
X5078484Y-24749758D01*
X5078484Y-24749758D02*
X5097531Y-24740234D01*
X5288007Y-24740234D02*
X5307055Y-24740234D01*
X5307055Y-24740234D02*
X5326103Y-24749758D01*
X5326103Y-24749758D02*
X5335627Y-24759281D01*
X5335627Y-24759281D02*
X5345150Y-24778329D01*
X5345150Y-24778329D02*
X5354674Y-24816424D01*
X5354674Y-24816424D02*
X5354674Y-24864043D01*
X5354674Y-24864043D02*
X5345150Y-24902138D01*
X5345150Y-24902138D02*
X5335627Y-24921186D01*
X5335627Y-24921186D02*
X5326103Y-24930710D01*
X5326103Y-24930710D02*
X5307055Y-24940234D01*
X5307055Y-24940234D02*
X5288007Y-24940234D01*
X5288007Y-24940234D02*
X5268960Y-24930710D01*
X5268960Y-24930710D02*
X5259436Y-24921186D01*
X5259436Y-24921186D02*
X5249912Y-24902138D01*
X5249912Y-24902138D02*
X5240388Y-24864043D01*
X5240388Y-24864043D02*
X5240388Y-24816424D01*
X5240388Y-24816424D02*
X5249912Y-24778329D01*
X5249912Y-24778329D02*
X5259436Y-24759281D01*
X5259436Y-24759281D02*
X5268960Y-24749758D01*
X5268960Y-24749758D02*
X5288007Y-24740234D01*
X5440388Y-24940234D02*
X5440388Y-24806900D01*
X5440388Y-24825948D02*
X5449912Y-24816424D01*
X5449912Y-24816424D02*
X5468960Y-24806900D01*
X5468960Y-24806900D02*
X5497531Y-24806900D01*
X5497531Y-24806900D02*
X5516579Y-24816424D01*
X5516579Y-24816424D02*
X5526103Y-24835472D01*
X5526103Y-24835472D02*
X5526103Y-24940234D01*
X5526103Y-24835472D02*
X5535627Y-24816424D01*
X5535627Y-24816424D02*
X5554674Y-24806900D01*
X5554674Y-24806900D02*
X5583246Y-24806900D01*
X5583246Y-24806900D02*
X5602293Y-24816424D01*
X5602293Y-24816424D02*
X5611817Y-24835472D01*
X5611817Y-24835472D02*
X5611817Y-24940234D01*
X5707055Y-24940234D02*
X5707055Y-24806900D01*
X5707055Y-24825948D02*
X5716579Y-24816424D01*
X5716579Y-24816424D02*
X5735626Y-24806900D01*
X5735626Y-24806900D02*
X5764198Y-24806900D01*
X5764198Y-24806900D02*
X5783246Y-24816424D01*
X5783246Y-24816424D02*
X5792769Y-24835472D01*
X5792769Y-24835472D02*
X5792769Y-24940234D01*
X5792769Y-24835472D02*
X5802293Y-24816424D01*
X5802293Y-24816424D02*
X5821341Y-24806900D01*
X5821341Y-24806900D02*
X5849912Y-24806900D01*
X5849912Y-24806900D02*
X5868960Y-24816424D01*
X5868960Y-24816424D02*
X5878484Y-24835472D01*
X5878484Y-24835472D02*
X5878484Y-24940234D01*
X6268960Y-24730710D02*
X6097531Y-24987853D01*
X6526103Y-24740234D02*
X6545150Y-24740234D01*
X6545150Y-24740234D02*
X6564198Y-24749758D01*
X6564198Y-24749758D02*
X6573722Y-24759281D01*
X6573722Y-24759281D02*
X6583246Y-24778329D01*
X6583246Y-24778329D02*
X6592769Y-24816424D01*
X6592769Y-24816424D02*
X6592769Y-24864043D01*
X6592769Y-24864043D02*
X6583246Y-24902138D01*
X6583246Y-24902138D02*
X6573722Y-24921186D01*
X6573722Y-24921186D02*
X6564198Y-24930710D01*
X6564198Y-24930710D02*
X6545150Y-24940234D01*
X6545150Y-24940234D02*
X6526103Y-24940234D01*
X6526103Y-24940234D02*
X6507055Y-24930710D01*
X6507055Y-24930710D02*
X6497531Y-24921186D01*
X6497531Y-24921186D02*
X6488008Y-24902138D01*
X6488008Y-24902138D02*
X6478484Y-24864043D01*
X6478484Y-24864043D02*
X6478484Y-24816424D01*
X6478484Y-24816424D02*
X6488008Y-24778329D01*
X6488008Y-24778329D02*
X6497531Y-24759281D01*
X6497531Y-24759281D02*
X6507055Y-24749758D01*
X6507055Y-24749758D02*
X6526103Y-24740234D01*
X6678484Y-24921186D02*
X6688008Y-24930710D01*
X6688008Y-24930710D02*
X6678484Y-24940234D01*
X6678484Y-24940234D02*
X6668960Y-24930710D01*
X6668960Y-24930710D02*
X6678484Y-24921186D01*
X6678484Y-24921186D02*
X6678484Y-24940234D01*
X6811817Y-24740234D02*
X6830865Y-24740234D01*
X6830865Y-24740234D02*
X6849912Y-24749758D01*
X6849912Y-24749758D02*
X6859436Y-24759281D01*
X6859436Y-24759281D02*
X6868960Y-24778329D01*
X6868960Y-24778329D02*
X6878484Y-24816424D01*
X6878484Y-24816424D02*
X6878484Y-24864043D01*
X6878484Y-24864043D02*
X6868960Y-24902138D01*
X6868960Y-24902138D02*
X6859436Y-24921186D01*
X6859436Y-24921186D02*
X6849912Y-24930710D01*
X6849912Y-24930710D02*
X6830865Y-24940234D01*
X6830865Y-24940234D02*
X6811817Y-24940234D01*
X6811817Y-24940234D02*
X6792769Y-24930710D01*
X6792769Y-24930710D02*
X6783246Y-24921186D01*
X6783246Y-24921186D02*
X6773722Y-24902138D01*
X6773722Y-24902138D02*
X6764198Y-24864043D01*
X6764198Y-24864043D02*
X6764198Y-24816424D01*
X6764198Y-24816424D02*
X6773722Y-24778329D01*
X6773722Y-24778329D02*
X6783246Y-24759281D01*
X6783246Y-24759281D02*
X6792769Y-24749758D01*
X6792769Y-24749758D02*
X6811817Y-24740234D01*
X6992769Y-24825948D02*
X6973722Y-24816424D01*
X6973722Y-24816424D02*
X6964198Y-24806900D01*
X6964198Y-24806900D02*
X6954674Y-24787853D01*
X6954674Y-24787853D02*
X6954674Y-24778329D01*
X6954674Y-24778329D02*
X6964198Y-24759281D01*
X6964198Y-24759281D02*
X6973722Y-24749758D01*
X6973722Y-24749758D02*
X6992769Y-24740234D01*
X6992769Y-24740234D02*
X7030865Y-24740234D01*
X7030865Y-24740234D02*
X7049912Y-24749758D01*
X7049912Y-24749758D02*
X7059436Y-24759281D01*
X7059436Y-24759281D02*
X7068960Y-24778329D01*
X7068960Y-24778329D02*
X7068960Y-24787853D01*
X7068960Y-24787853D02*
X7059436Y-24806900D01*
X7059436Y-24806900D02*
X7049912Y-24816424D01*
X7049912Y-24816424D02*
X7030865Y-24825948D01*
X7030865Y-24825948D02*
X6992769Y-24825948D01*
X6992769Y-24825948D02*
X6973722Y-24835472D01*
X6973722Y-24835472D02*
X6964198Y-24844996D01*
X6964198Y-24844996D02*
X6954674Y-24864043D01*
X6954674Y-24864043D02*
X6954674Y-24902138D01*
X6954674Y-24902138D02*
X6964198Y-24921186D01*
X6964198Y-24921186D02*
X6973722Y-24930710D01*
X6973722Y-24930710D02*
X6992769Y-24940234D01*
X6992769Y-24940234D02*
X7030865Y-24940234D01*
X7030865Y-24940234D02*
X7049912Y-24930710D01*
X7049912Y-24930710D02*
X7059436Y-24921186D01*
X7059436Y-24921186D02*
X7068960Y-24902138D01*
X7068960Y-24902138D02*
X7068960Y-24864043D01*
X7068960Y-24864043D02*
X7059436Y-24844996D01*
X7059436Y-24844996D02*
X7049912Y-24835472D01*
X7049912Y-24835472D02*
X7030865Y-24825948D01*
X7240389Y-24740234D02*
X7202293Y-24740234D01*
X7202293Y-24740234D02*
X7183246Y-24749758D01*
X7183246Y-24749758D02*
X7173722Y-24759281D01*
X7173722Y-24759281D02*
X7154674Y-24787853D01*
X7154674Y-24787853D02*
X7145150Y-24825948D01*
X7145150Y-24825948D02*
X7145150Y-24902138D01*
X7145150Y-24902138D02*
X7154674Y-24921186D01*
X7154674Y-24921186D02*
X7164198Y-24930710D01*
X7164198Y-24930710D02*
X7183246Y-24940234D01*
X7183246Y-24940234D02*
X7221341Y-24940234D01*
X7221341Y-24940234D02*
X7240389Y-24930710D01*
X7240389Y-24930710D02*
X7249912Y-24921186D01*
X7249912Y-24921186D02*
X7259436Y-24902138D01*
X7259436Y-24902138D02*
X7259436Y-24854519D01*
X7259436Y-24854519D02*
X7249912Y-24835472D01*
X7249912Y-24835472D02*
X7240389Y-24825948D01*
X7240389Y-24825948D02*
X7221341Y-24816424D01*
X7221341Y-24816424D02*
X7183246Y-24816424D01*
X7183246Y-24816424D02*
X7164198Y-24825948D01*
X7164198Y-24825948D02*
X7154674Y-24835472D01*
X7154674Y-24835472D02*
X7145150Y-24854519D01*
X7430865Y-24740234D02*
X7392769Y-24740234D01*
X7392769Y-24740234D02*
X7373722Y-24749758D01*
X7373722Y-24749758D02*
X7364198Y-24759281D01*
X7364198Y-24759281D02*
X7345150Y-24787853D01*
X7345150Y-24787853D02*
X7335627Y-24825948D01*
X7335627Y-24825948D02*
X7335627Y-24902138D01*
X7335627Y-24902138D02*
X7345150Y-24921186D01*
X7345150Y-24921186D02*
X7354674Y-24930710D01*
X7354674Y-24930710D02*
X7373722Y-24940234D01*
X7373722Y-24940234D02*
X7411817Y-24940234D01*
X7411817Y-24940234D02*
X7430865Y-24930710D01*
X7430865Y-24930710D02*
X7440389Y-24921186D01*
X7440389Y-24921186D02*
X7449912Y-24902138D01*
X7449912Y-24902138D02*
X7449912Y-24854519D01*
X7449912Y-24854519D02*
X7440389Y-24835472D01*
X7440389Y-24835472D02*
X7430865Y-24825948D01*
X7430865Y-24825948D02*
X7411817Y-24816424D01*
X7411817Y-24816424D02*
X7373722Y-24816424D01*
X7373722Y-24816424D02*
X7354674Y-24825948D01*
X7354674Y-24825948D02*
X7345150Y-24835472D01*
X7345150Y-24835472D02*
X7335627Y-24854519D01*
X7526103Y-24740234D02*
X7526103Y-24778329D01*
X7602293Y-24740234D02*
X7602293Y-24778329D01*
X7897532Y-25016424D02*
X7888008Y-25006900D01*
X7888008Y-25006900D02*
X7868960Y-24978329D01*
X7868960Y-24978329D02*
X7859436Y-24959281D01*
X7859436Y-24959281D02*
X7849912Y-24930710D01*
X7849912Y-24930710D02*
X7840389Y-24883091D01*
X7840389Y-24883091D02*
X7840389Y-24844996D01*
X7840389Y-24844996D02*
X7849912Y-24797377D01*
X7849912Y-24797377D02*
X7859436Y-24768805D01*
X7859436Y-24768805D02*
X7868960Y-24749758D01*
X7868960Y-24749758D02*
X7888008Y-24721186D01*
X7888008Y-24721186D02*
X7897532Y-24711662D01*
X7964198Y-24759281D02*
X7973722Y-24749758D01*
X7973722Y-24749758D02*
X7992770Y-24740234D01*
X7992770Y-24740234D02*
X8040389Y-24740234D01*
X8040389Y-24740234D02*
X8059436Y-24749758D01*
X8059436Y-24749758D02*
X8068960Y-24759281D01*
X8068960Y-24759281D02*
X8078484Y-24778329D01*
X8078484Y-24778329D02*
X8078484Y-24797377D01*
X8078484Y-24797377D02*
X8068960Y-24825948D01*
X8068960Y-24825948D02*
X7954674Y-24940234D01*
X7954674Y-24940234D02*
X8078484Y-24940234D01*
X8316579Y-24940234D02*
X8316579Y-24740234D01*
X8402294Y-24940234D02*
X8402294Y-24835472D01*
X8402294Y-24835472D02*
X8392770Y-24816424D01*
X8392770Y-24816424D02*
X8373722Y-24806900D01*
X8373722Y-24806900D02*
X8345151Y-24806900D01*
X8345151Y-24806900D02*
X8326103Y-24816424D01*
X8326103Y-24816424D02*
X8316579Y-24825948D01*
X8526103Y-24940234D02*
X8507055Y-24930710D01*
X8507055Y-24930710D02*
X8497532Y-24921186D01*
X8497532Y-24921186D02*
X8488008Y-24902138D01*
X8488008Y-24902138D02*
X8488008Y-24844996D01*
X8488008Y-24844996D02*
X8497532Y-24825948D01*
X8497532Y-24825948D02*
X8507055Y-24816424D01*
X8507055Y-24816424D02*
X8526103Y-24806900D01*
X8526103Y-24806900D02*
X8554675Y-24806900D01*
X8554675Y-24806900D02*
X8573722Y-24816424D01*
X8573722Y-24816424D02*
X8583246Y-24825948D01*
X8583246Y-24825948D02*
X8592770Y-24844996D01*
X8592770Y-24844996D02*
X8592770Y-24902138D01*
X8592770Y-24902138D02*
X8583246Y-24921186D01*
X8583246Y-24921186D02*
X8573722Y-24930710D01*
X8573722Y-24930710D02*
X8554675Y-24940234D01*
X8554675Y-24940234D02*
X8526103Y-24940234D01*
X8707055Y-24940234D02*
X8688008Y-24930710D01*
X8688008Y-24930710D02*
X8678484Y-24911662D01*
X8678484Y-24911662D02*
X8678484Y-24740234D01*
X8859436Y-24930710D02*
X8840389Y-24940234D01*
X8840389Y-24940234D02*
X8802294Y-24940234D01*
X8802294Y-24940234D02*
X8783246Y-24930710D01*
X8783246Y-24930710D02*
X8773722Y-24911662D01*
X8773722Y-24911662D02*
X8773722Y-24835472D01*
X8773722Y-24835472D02*
X8783246Y-24816424D01*
X8783246Y-24816424D02*
X8802294Y-24806900D01*
X8802294Y-24806900D02*
X8840389Y-24806900D01*
X8840389Y-24806900D02*
X8859436Y-24816424D01*
X8859436Y-24816424D02*
X8868960Y-24835472D01*
X8868960Y-24835472D02*
X8868960Y-24854519D01*
X8868960Y-24854519D02*
X8773722Y-24873567D01*
X8945151Y-24930710D02*
X8964198Y-24940234D01*
X8964198Y-24940234D02*
X9002294Y-24940234D01*
X9002294Y-24940234D02*
X9021341Y-24930710D01*
X9021341Y-24930710D02*
X9030865Y-24911662D01*
X9030865Y-24911662D02*
X9030865Y-24902138D01*
X9030865Y-24902138D02*
X9021341Y-24883091D01*
X9021341Y-24883091D02*
X9002294Y-24873567D01*
X9002294Y-24873567D02*
X8973722Y-24873567D01*
X8973722Y-24873567D02*
X8954675Y-24864043D01*
X8954675Y-24864043D02*
X8945151Y-24844996D01*
X8945151Y-24844996D02*
X8945151Y-24835472D01*
X8945151Y-24835472D02*
X8954675Y-24816424D01*
X8954675Y-24816424D02*
X8973722Y-24806900D01*
X8973722Y-24806900D02*
X9002294Y-24806900D01*
X9002294Y-24806900D02*
X9021341Y-24816424D01*
X9097532Y-25016424D02*
X9107056Y-25006900D01*
X9107056Y-25006900D02*
X9126103Y-24978329D01*
X9126103Y-24978329D02*
X9135627Y-24959281D01*
X9135627Y-24959281D02*
X9145151Y-24930710D01*
X9145151Y-24930710D02*
X9154675Y-24883091D01*
X9154675Y-24883091D02*
X9154675Y-24844996D01*
X9154675Y-24844996D02*
X9145151Y-24797377D01*
X9145151Y-24797377D02*
X9135627Y-24768805D01*
X9135627Y-24768805D02*
X9126103Y-24749758D01*
X9126103Y-24749758D02*
X9107056Y-24721186D01*
X9107056Y-24721186D02*
X9097532Y-24711662D01*
X9459437Y-25016424D02*
X9449913Y-25006900D01*
X9449913Y-25006900D02*
X9430865Y-24978329D01*
X9430865Y-24978329D02*
X9421341Y-24959281D01*
X9421341Y-24959281D02*
X9411817Y-24930710D01*
X9411817Y-24930710D02*
X9402294Y-24883091D01*
X9402294Y-24883091D02*
X9402294Y-24844996D01*
X9402294Y-24844996D02*
X9411817Y-24797377D01*
X9411817Y-24797377D02*
X9421341Y-24768805D01*
X9421341Y-24768805D02*
X9430865Y-24749758D01*
X9430865Y-24749758D02*
X9449913Y-24721186D01*
X9449913Y-24721186D02*
X9459437Y-24711662D01*
X9535627Y-24806900D02*
X9535627Y-24940234D01*
X9535627Y-24825948D02*
X9545151Y-24816424D01*
X9545151Y-24816424D02*
X9564198Y-24806900D01*
X9564198Y-24806900D02*
X9592770Y-24806900D01*
X9592770Y-24806900D02*
X9611817Y-24816424D01*
X9611817Y-24816424D02*
X9621341Y-24835472D01*
X9621341Y-24835472D02*
X9621341Y-24940234D01*
X9745151Y-24940234D02*
X9726103Y-24930710D01*
X9726103Y-24930710D02*
X9716579Y-24921186D01*
X9716579Y-24921186D02*
X9707056Y-24902138D01*
X9707056Y-24902138D02*
X9707056Y-24844996D01*
X9707056Y-24844996D02*
X9716579Y-24825948D01*
X9716579Y-24825948D02*
X9726103Y-24816424D01*
X9726103Y-24816424D02*
X9745151Y-24806900D01*
X9745151Y-24806900D02*
X9773722Y-24806900D01*
X9773722Y-24806900D02*
X9792770Y-24816424D01*
X9792770Y-24816424D02*
X9802294Y-24825948D01*
X9802294Y-24825948D02*
X9811817Y-24844996D01*
X9811817Y-24844996D02*
X9811817Y-24902138D01*
X9811817Y-24902138D02*
X9802294Y-24921186D01*
X9802294Y-24921186D02*
X9792770Y-24930710D01*
X9792770Y-24930710D02*
X9773722Y-24940234D01*
X9773722Y-24940234D02*
X9745151Y-24940234D01*
X9868960Y-24806900D02*
X9945151Y-24806900D01*
X9897532Y-24740234D02*
X9897532Y-24911662D01*
X9897532Y-24911662D02*
X9907056Y-24930710D01*
X9907056Y-24930710D02*
X9926103Y-24940234D01*
X9926103Y-24940234D02*
X9945151Y-24940234D01*
X10164198Y-24806900D02*
X10164198Y-25006900D01*
X10164198Y-24816424D02*
X10183246Y-24806900D01*
X10183246Y-24806900D02*
X10221341Y-24806900D01*
X10221341Y-24806900D02*
X10240389Y-24816424D01*
X10240389Y-24816424D02*
X10249913Y-24825948D01*
X10249913Y-24825948D02*
X10259437Y-24844996D01*
X10259437Y-24844996D02*
X10259437Y-24902138D01*
X10259437Y-24902138D02*
X10249913Y-24921186D01*
X10249913Y-24921186D02*
X10240389Y-24930710D01*
X10240389Y-24930710D02*
X10221341Y-24940234D01*
X10221341Y-24940234D02*
X10183246Y-24940234D01*
X10183246Y-24940234D02*
X10164198Y-24930710D01*
X10373722Y-24940234D02*
X10354675Y-24930710D01*
X10354675Y-24930710D02*
X10345151Y-24911662D01*
X10345151Y-24911662D02*
X10345151Y-24740234D01*
X10535627Y-24940234D02*
X10535627Y-24835472D01*
X10535627Y-24835472D02*
X10526103Y-24816424D01*
X10526103Y-24816424D02*
X10507056Y-24806900D01*
X10507056Y-24806900D02*
X10468960Y-24806900D01*
X10468960Y-24806900D02*
X10449913Y-24816424D01*
X10535627Y-24930710D02*
X10516579Y-24940234D01*
X10516579Y-24940234D02*
X10468960Y-24940234D01*
X10468960Y-24940234D02*
X10449913Y-24930710D01*
X10449913Y-24930710D02*
X10440389Y-24911662D01*
X10440389Y-24911662D02*
X10440389Y-24892615D01*
X10440389Y-24892615D02*
X10449913Y-24873567D01*
X10449913Y-24873567D02*
X10468960Y-24864043D01*
X10468960Y-24864043D02*
X10516579Y-24864043D01*
X10516579Y-24864043D02*
X10535627Y-24854519D01*
X10602294Y-24806900D02*
X10678484Y-24806900D01*
X10630865Y-24740234D02*
X10630865Y-24911662D01*
X10630865Y-24911662D02*
X10640389Y-24930710D01*
X10640389Y-24930710D02*
X10659437Y-24940234D01*
X10659437Y-24940234D02*
X10678484Y-24940234D01*
X10821341Y-24930710D02*
X10802294Y-24940234D01*
X10802294Y-24940234D02*
X10764198Y-24940234D01*
X10764198Y-24940234D02*
X10745151Y-24930710D01*
X10745151Y-24930710D02*
X10735627Y-24911662D01*
X10735627Y-24911662D02*
X10735627Y-24835472D01*
X10735627Y-24835472D02*
X10745151Y-24816424D01*
X10745151Y-24816424D02*
X10764198Y-24806900D01*
X10764198Y-24806900D02*
X10802294Y-24806900D01*
X10802294Y-24806900D02*
X10821341Y-24816424D01*
X10821341Y-24816424D02*
X10830865Y-24835472D01*
X10830865Y-24835472D02*
X10830865Y-24854519D01*
X10830865Y-24854519D02*
X10735627Y-24873567D01*
X11002294Y-24940234D02*
X11002294Y-24740234D01*
X11002294Y-24930710D02*
X10983246Y-24940234D01*
X10983246Y-24940234D02*
X10945151Y-24940234D01*
X10945151Y-24940234D02*
X10926103Y-24930710D01*
X10926103Y-24930710D02*
X10916579Y-24921186D01*
X10916579Y-24921186D02*
X10907056Y-24902138D01*
X10907056Y-24902138D02*
X10907056Y-24844996D01*
X10907056Y-24844996D02*
X10916579Y-24825948D01*
X10916579Y-24825948D02*
X10926103Y-24816424D01*
X10926103Y-24816424D02*
X10945151Y-24806900D01*
X10945151Y-24806900D02*
X10983246Y-24806900D01*
X10983246Y-24806900D02*
X11002294Y-24816424D01*
X11078484Y-25016424D02*
X11088008Y-25006900D01*
X11088008Y-25006900D02*
X11107056Y-24978329D01*
X11107056Y-24978329D02*
X11116579Y-24959281D01*
X11116579Y-24959281D02*
X11126103Y-24930710D01*
X11126103Y-24930710D02*
X11135627Y-24883091D01*
X11135627Y-24883091D02*
X11135627Y-24844996D01*
X11135627Y-24844996D02*
X11126103Y-24797377D01*
X11126103Y-24797377D02*
X11116579Y-24768805D01*
X11116579Y-24768805D02*
X11107056Y-24749758D01*
X11107056Y-24749758D02*
X11088008Y-24721186D01*
X11088008Y-24721186D02*
X11078484Y-24711662D01*
M02*
