%TF.GenerationSoftware,KiCad,Pcbnew,10.0.6*%
%TF.CreationDate,2026-09-19T22:41:34-04:00*%
%TF.ProjectId,alps75-zug,616c7073-3735-42d7-9a75-672e6b696361,rev?*%
%TF.SameCoordinates,Original*%
%TF.FileFunction,Drillmap*%
%TF.FilePolarity,Positive*%
%FSLAX45Y45*%
G04 Gerber Fmt 4.5, Leading zero omitted, Abs format (unit mm)*
G04 Created by KiCad (PCBNEW 10.0.6) date 2026-09-19 22:41:34*
%MOMM*%
%LPD*%
G01*
G04 APERTURE LIST*
%ADD10C,0.050000*%
%ADD11C,0.200000*%
%ADD12C,0.185000*%
%ADD13C,0.220000*%
G04 APERTURE END LIST*
D10*
X3708000Y-9029000D02*
G75*
G02*
X3808000Y-8929000I100000J0D01*
G01*
X3708000Y-24100000D02*
X3708000Y-9029000D01*
X3808000Y-8929000D02*
X9791000Y-8929000D01*
X3808000Y-24200000D02*
G75*
G02*
X3708000Y-24100000I0J100000D01*
G01*
X9791000Y-8929000D02*
G75*
G02*
X9891000Y-9029000I0J-100000D01*
G01*
X9891000Y-9029000D02*
X9891000Y-11500000D01*
X9991000Y-11600000D02*
G75*
G02*
X9891000Y-11500000I0J100000D01*
G01*
X9991000Y-11600000D02*
X37638250Y-11600000D01*
X37638250Y-11600000D02*
G75*
G02*
X37738250Y-11700000I0J-100000D01*
G01*
X37638250Y-24200000D02*
X3808000Y-24200000D01*
X37738250Y-11700000D02*
X37738250Y-24100000D01*
X37738250Y-24100000D02*
G75*
G02*
X37638250Y-24200000I-100000J0D01*
G01*
D11*
D12*
X4068500Y-10505000D02*
X4253500Y-10690000D01*
X4253500Y-10505000D02*
X4068500Y-10690000D01*
X4068500Y-10990000D02*
X4253500Y-11175000D01*
X4253500Y-10990000D02*
X4068500Y-11175000D01*
D13*
X3968000Y-10567500D02*
G75*
G02*
X3748000Y-10567500I-110000J0D01*
G01*
X3748000Y-10567500D02*
G75*
G02*
X3968000Y-10567500I110000J0D01*
G01*
X3968000Y-11112500D02*
G75*
G02*
X3748000Y-11112500I-110000J0D01*
G01*
X3748000Y-11112500D02*
G75*
G02*
X3968000Y-11112500I110000J0D01*
G01*
D11*
X3966277Y-24513984D02*
X3966277Y-24313984D01*
X3966277Y-24313984D02*
X4013896Y-24313984D01*
X4013896Y-24313984D02*
X4042467Y-24323508D01*
X4042467Y-24323508D02*
X4061515Y-24342555D01*
X4061515Y-24342555D02*
X4071039Y-24361603D01*
X4071039Y-24361603D02*
X4080562Y-24399698D01*
X4080562Y-24399698D02*
X4080562Y-24428269D01*
X4080562Y-24428269D02*
X4071039Y-24466365D01*
X4071039Y-24466365D02*
X4061515Y-24485412D01*
X4061515Y-24485412D02*
X4042467Y-24504460D01*
X4042467Y-24504460D02*
X4013896Y-24513984D01*
X4013896Y-24513984D02*
X3966277Y-24513984D01*
X4166277Y-24513984D02*
X4166277Y-24380650D01*
X4166277Y-24418746D02*
X4175801Y-24399698D01*
X4175801Y-24399698D02*
X4185324Y-24390174D01*
X4185324Y-24390174D02*
X4204372Y-24380650D01*
X4204372Y-24380650D02*
X4223420Y-24380650D01*
X4290086Y-24513984D02*
X4290086Y-24380650D01*
X4290086Y-24313984D02*
X4280563Y-24323508D01*
X4280563Y-24323508D02*
X4290086Y-24333031D01*
X4290086Y-24333031D02*
X4299610Y-24323508D01*
X4299610Y-24323508D02*
X4290086Y-24313984D01*
X4290086Y-24313984D02*
X4290086Y-24333031D01*
X4413896Y-24513984D02*
X4394848Y-24504460D01*
X4394848Y-24504460D02*
X4385324Y-24485412D01*
X4385324Y-24485412D02*
X4385324Y-24313984D01*
X4518658Y-24513984D02*
X4499610Y-24504460D01*
X4499610Y-24504460D02*
X4490086Y-24485412D01*
X4490086Y-24485412D02*
X4490086Y-24313984D01*
X4747229Y-24513984D02*
X4747229Y-24313984D01*
X4747229Y-24313984D02*
X4813896Y-24456841D01*
X4813896Y-24456841D02*
X4880563Y-24313984D01*
X4880563Y-24313984D02*
X4880563Y-24513984D01*
X5061515Y-24513984D02*
X5061515Y-24409222D01*
X5061515Y-24409222D02*
X5051991Y-24390174D01*
X5051991Y-24390174D02*
X5032944Y-24380650D01*
X5032944Y-24380650D02*
X4994848Y-24380650D01*
X4994848Y-24380650D02*
X4975801Y-24390174D01*
X5061515Y-24504460D02*
X5042467Y-24513984D01*
X5042467Y-24513984D02*
X4994848Y-24513984D01*
X4994848Y-24513984D02*
X4975801Y-24504460D01*
X4975801Y-24504460D02*
X4966277Y-24485412D01*
X4966277Y-24485412D02*
X4966277Y-24466365D01*
X4966277Y-24466365D02*
X4975801Y-24447317D01*
X4975801Y-24447317D02*
X4994848Y-24437793D01*
X4994848Y-24437793D02*
X5042467Y-24437793D01*
X5042467Y-24437793D02*
X5061515Y-24428269D01*
X5156753Y-24380650D02*
X5156753Y-24580650D01*
X5156753Y-24390174D02*
X5175801Y-24380650D01*
X5175801Y-24380650D02*
X5213896Y-24380650D01*
X5213896Y-24380650D02*
X5232944Y-24390174D01*
X5232944Y-24390174D02*
X5242467Y-24399698D01*
X5242467Y-24399698D02*
X5251991Y-24418746D01*
X5251991Y-24418746D02*
X5251991Y-24475888D01*
X5251991Y-24475888D02*
X5242467Y-24494936D01*
X5242467Y-24494936D02*
X5232944Y-24504460D01*
X5232944Y-24504460D02*
X5213896Y-24513984D01*
X5213896Y-24513984D02*
X5175801Y-24513984D01*
X5175801Y-24513984D02*
X5156753Y-24504460D01*
X5337705Y-24494936D02*
X5347229Y-24504460D01*
X5347229Y-24504460D02*
X5337705Y-24513984D01*
X5337705Y-24513984D02*
X5328182Y-24504460D01*
X5328182Y-24504460D02*
X5337705Y-24494936D01*
X5337705Y-24494936D02*
X5337705Y-24513984D01*
X5337705Y-24390174D02*
X5347229Y-24399698D01*
X5347229Y-24399698D02*
X5337705Y-24409222D01*
X5337705Y-24409222D02*
X5328182Y-24399698D01*
X5328182Y-24399698D02*
X5337705Y-24390174D01*
X5337705Y-24390174D02*
X5337705Y-24409222D01*
D12*
X3520500Y-24750000D02*
X3705500Y-24935000D01*
X3705500Y-24750000D02*
X3520500Y-24935000D01*
D11*
X4071039Y-24933984D02*
X3956753Y-24933984D01*
X4013896Y-24933984D02*
X4013896Y-24733984D01*
X4013896Y-24733984D02*
X3994848Y-24762555D01*
X3994848Y-24762555D02*
X3975801Y-24781603D01*
X3975801Y-24781603D02*
X3956753Y-24791127D01*
X4156753Y-24914936D02*
X4166277Y-24924460D01*
X4166277Y-24924460D02*
X4156753Y-24933984D01*
X4156753Y-24933984D02*
X4147229Y-24924460D01*
X4147229Y-24924460D02*
X4156753Y-24914936D01*
X4156753Y-24914936D02*
X4156753Y-24933984D01*
X4280563Y-24819698D02*
X4261515Y-24810174D01*
X4261515Y-24810174D02*
X4251991Y-24800650D01*
X4251991Y-24800650D02*
X4242467Y-24781603D01*
X4242467Y-24781603D02*
X4242467Y-24772079D01*
X4242467Y-24772079D02*
X4251991Y-24753031D01*
X4251991Y-24753031D02*
X4261515Y-24743508D01*
X4261515Y-24743508D02*
X4280563Y-24733984D01*
X4280563Y-24733984D02*
X4318658Y-24733984D01*
X4318658Y-24733984D02*
X4337705Y-24743508D01*
X4337705Y-24743508D02*
X4347229Y-24753031D01*
X4347229Y-24753031D02*
X4356753Y-24772079D01*
X4356753Y-24772079D02*
X4356753Y-24781603D01*
X4356753Y-24781603D02*
X4347229Y-24800650D01*
X4347229Y-24800650D02*
X4337705Y-24810174D01*
X4337705Y-24810174D02*
X4318658Y-24819698D01*
X4318658Y-24819698D02*
X4280563Y-24819698D01*
X4280563Y-24819698D02*
X4261515Y-24829222D01*
X4261515Y-24829222D02*
X4251991Y-24838746D01*
X4251991Y-24838746D02*
X4242467Y-24857793D01*
X4242467Y-24857793D02*
X4242467Y-24895888D01*
X4242467Y-24895888D02*
X4251991Y-24914936D01*
X4251991Y-24914936D02*
X4261515Y-24924460D01*
X4261515Y-24924460D02*
X4280563Y-24933984D01*
X4280563Y-24933984D02*
X4318658Y-24933984D01*
X4318658Y-24933984D02*
X4337705Y-24924460D01*
X4337705Y-24924460D02*
X4347229Y-24914936D01*
X4347229Y-24914936D02*
X4356753Y-24895888D01*
X4356753Y-24895888D02*
X4356753Y-24857793D01*
X4356753Y-24857793D02*
X4347229Y-24838746D01*
X4347229Y-24838746D02*
X4337705Y-24829222D01*
X4337705Y-24829222D02*
X4318658Y-24819698D01*
X4537705Y-24733984D02*
X4442467Y-24733984D01*
X4442467Y-24733984D02*
X4432944Y-24829222D01*
X4432944Y-24829222D02*
X4442467Y-24819698D01*
X4442467Y-24819698D02*
X4461515Y-24810174D01*
X4461515Y-24810174D02*
X4509134Y-24810174D01*
X4509134Y-24810174D02*
X4528182Y-24819698D01*
X4528182Y-24819698D02*
X4537705Y-24829222D01*
X4537705Y-24829222D02*
X4547229Y-24848269D01*
X4547229Y-24848269D02*
X4547229Y-24895888D01*
X4547229Y-24895888D02*
X4537705Y-24914936D01*
X4537705Y-24914936D02*
X4528182Y-24924460D01*
X4528182Y-24924460D02*
X4509134Y-24933984D01*
X4509134Y-24933984D02*
X4461515Y-24933984D01*
X4461515Y-24933984D02*
X4442467Y-24924460D01*
X4442467Y-24924460D02*
X4432944Y-24914936D01*
X4671039Y-24733984D02*
X4690086Y-24733984D01*
X4690086Y-24733984D02*
X4709134Y-24743508D01*
X4709134Y-24743508D02*
X4718658Y-24753031D01*
X4718658Y-24753031D02*
X4728182Y-24772079D01*
X4728182Y-24772079D02*
X4737705Y-24810174D01*
X4737705Y-24810174D02*
X4737705Y-24857793D01*
X4737705Y-24857793D02*
X4728182Y-24895888D01*
X4728182Y-24895888D02*
X4718658Y-24914936D01*
X4718658Y-24914936D02*
X4709134Y-24924460D01*
X4709134Y-24924460D02*
X4690086Y-24933984D01*
X4690086Y-24933984D02*
X4671039Y-24933984D01*
X4671039Y-24933984D02*
X4651991Y-24924460D01*
X4651991Y-24924460D02*
X4642467Y-24914936D01*
X4642467Y-24914936D02*
X4632944Y-24895888D01*
X4632944Y-24895888D02*
X4623420Y-24857793D01*
X4623420Y-24857793D02*
X4623420Y-24810174D01*
X4623420Y-24810174D02*
X4632944Y-24772079D01*
X4632944Y-24772079D02*
X4642467Y-24753031D01*
X4642467Y-24753031D02*
X4651991Y-24743508D01*
X4651991Y-24743508D02*
X4671039Y-24733984D01*
X4823420Y-24933984D02*
X4823420Y-24800650D01*
X4823420Y-24819698D02*
X4832944Y-24810174D01*
X4832944Y-24810174D02*
X4851991Y-24800650D01*
X4851991Y-24800650D02*
X4880563Y-24800650D01*
X4880563Y-24800650D02*
X4899610Y-24810174D01*
X4899610Y-24810174D02*
X4909134Y-24829222D01*
X4909134Y-24829222D02*
X4909134Y-24933984D01*
X4909134Y-24829222D02*
X4918658Y-24810174D01*
X4918658Y-24810174D02*
X4937705Y-24800650D01*
X4937705Y-24800650D02*
X4966277Y-24800650D01*
X4966277Y-24800650D02*
X4985325Y-24810174D01*
X4985325Y-24810174D02*
X4994848Y-24829222D01*
X4994848Y-24829222D02*
X4994848Y-24933984D01*
X5090086Y-24933984D02*
X5090086Y-24800650D01*
X5090086Y-24819698D02*
X5099610Y-24810174D01*
X5099610Y-24810174D02*
X5118658Y-24800650D01*
X5118658Y-24800650D02*
X5147229Y-24800650D01*
X5147229Y-24800650D02*
X5166277Y-24810174D01*
X5166277Y-24810174D02*
X5175801Y-24829222D01*
X5175801Y-24829222D02*
X5175801Y-24933984D01*
X5175801Y-24829222D02*
X5185325Y-24810174D01*
X5185325Y-24810174D02*
X5204372Y-24800650D01*
X5204372Y-24800650D02*
X5232944Y-24800650D01*
X5232944Y-24800650D02*
X5251991Y-24810174D01*
X5251991Y-24810174D02*
X5261515Y-24829222D01*
X5261515Y-24829222D02*
X5261515Y-24933984D01*
X5651991Y-24724460D02*
X5480563Y-24981603D01*
X5909134Y-24733984D02*
X5928182Y-24733984D01*
X5928182Y-24733984D02*
X5947229Y-24743508D01*
X5947229Y-24743508D02*
X5956753Y-24753031D01*
X5956753Y-24753031D02*
X5966277Y-24772079D01*
X5966277Y-24772079D02*
X5975801Y-24810174D01*
X5975801Y-24810174D02*
X5975801Y-24857793D01*
X5975801Y-24857793D02*
X5966277Y-24895888D01*
X5966277Y-24895888D02*
X5956753Y-24914936D01*
X5956753Y-24914936D02*
X5947229Y-24924460D01*
X5947229Y-24924460D02*
X5928182Y-24933984D01*
X5928182Y-24933984D02*
X5909134Y-24933984D01*
X5909134Y-24933984D02*
X5890086Y-24924460D01*
X5890086Y-24924460D02*
X5880563Y-24914936D01*
X5880563Y-24914936D02*
X5871039Y-24895888D01*
X5871039Y-24895888D02*
X5861515Y-24857793D01*
X5861515Y-24857793D02*
X5861515Y-24810174D01*
X5861515Y-24810174D02*
X5871039Y-24772079D01*
X5871039Y-24772079D02*
X5880563Y-24753031D01*
X5880563Y-24753031D02*
X5890086Y-24743508D01*
X5890086Y-24743508D02*
X5909134Y-24733984D01*
X6061515Y-24914936D02*
X6071039Y-24924460D01*
X6071039Y-24924460D02*
X6061515Y-24933984D01*
X6061515Y-24933984D02*
X6051991Y-24924460D01*
X6051991Y-24924460D02*
X6061515Y-24914936D01*
X6061515Y-24914936D02*
X6061515Y-24933984D01*
X6194848Y-24733984D02*
X6213896Y-24733984D01*
X6213896Y-24733984D02*
X6232944Y-24743508D01*
X6232944Y-24743508D02*
X6242467Y-24753031D01*
X6242467Y-24753031D02*
X6251991Y-24772079D01*
X6251991Y-24772079D02*
X6261515Y-24810174D01*
X6261515Y-24810174D02*
X6261515Y-24857793D01*
X6261515Y-24857793D02*
X6251991Y-24895888D01*
X6251991Y-24895888D02*
X6242467Y-24914936D01*
X6242467Y-24914936D02*
X6232944Y-24924460D01*
X6232944Y-24924460D02*
X6213896Y-24933984D01*
X6213896Y-24933984D02*
X6194848Y-24933984D01*
X6194848Y-24933984D02*
X6175801Y-24924460D01*
X6175801Y-24924460D02*
X6166277Y-24914936D01*
X6166277Y-24914936D02*
X6156753Y-24895888D01*
X6156753Y-24895888D02*
X6147229Y-24857793D01*
X6147229Y-24857793D02*
X6147229Y-24810174D01*
X6147229Y-24810174D02*
X6156753Y-24772079D01*
X6156753Y-24772079D02*
X6166277Y-24753031D01*
X6166277Y-24753031D02*
X6175801Y-24743508D01*
X6175801Y-24743508D02*
X6194848Y-24733984D01*
X6328182Y-24733984D02*
X6461515Y-24733984D01*
X6461515Y-24733984D02*
X6375801Y-24933984D01*
X6528182Y-24753031D02*
X6537706Y-24743508D01*
X6537706Y-24743508D02*
X6556753Y-24733984D01*
X6556753Y-24733984D02*
X6604372Y-24733984D01*
X6604372Y-24733984D02*
X6623420Y-24743508D01*
X6623420Y-24743508D02*
X6632944Y-24753031D01*
X6632944Y-24753031D02*
X6642467Y-24772079D01*
X6642467Y-24772079D02*
X6642467Y-24791127D01*
X6642467Y-24791127D02*
X6632944Y-24819698D01*
X6632944Y-24819698D02*
X6518658Y-24933984D01*
X6518658Y-24933984D02*
X6642467Y-24933984D01*
X6756753Y-24819698D02*
X6737706Y-24810174D01*
X6737706Y-24810174D02*
X6728182Y-24800650D01*
X6728182Y-24800650D02*
X6718658Y-24781603D01*
X6718658Y-24781603D02*
X6718658Y-24772079D01*
X6718658Y-24772079D02*
X6728182Y-24753031D01*
X6728182Y-24753031D02*
X6737706Y-24743508D01*
X6737706Y-24743508D02*
X6756753Y-24733984D01*
X6756753Y-24733984D02*
X6794848Y-24733984D01*
X6794848Y-24733984D02*
X6813896Y-24743508D01*
X6813896Y-24743508D02*
X6823420Y-24753031D01*
X6823420Y-24753031D02*
X6832944Y-24772079D01*
X6832944Y-24772079D02*
X6832944Y-24781603D01*
X6832944Y-24781603D02*
X6823420Y-24800650D01*
X6823420Y-24800650D02*
X6813896Y-24810174D01*
X6813896Y-24810174D02*
X6794848Y-24819698D01*
X6794848Y-24819698D02*
X6756753Y-24819698D01*
X6756753Y-24819698D02*
X6737706Y-24829222D01*
X6737706Y-24829222D02*
X6728182Y-24838746D01*
X6728182Y-24838746D02*
X6718658Y-24857793D01*
X6718658Y-24857793D02*
X6718658Y-24895888D01*
X6718658Y-24895888D02*
X6728182Y-24914936D01*
X6728182Y-24914936D02*
X6737706Y-24924460D01*
X6737706Y-24924460D02*
X6756753Y-24933984D01*
X6756753Y-24933984D02*
X6794848Y-24933984D01*
X6794848Y-24933984D02*
X6813896Y-24924460D01*
X6813896Y-24924460D02*
X6823420Y-24914936D01*
X6823420Y-24914936D02*
X6832944Y-24895888D01*
X6832944Y-24895888D02*
X6832944Y-24857793D01*
X6832944Y-24857793D02*
X6823420Y-24838746D01*
X6823420Y-24838746D02*
X6813896Y-24829222D01*
X6813896Y-24829222D02*
X6794848Y-24819698D01*
X6909134Y-24733984D02*
X6909134Y-24772079D01*
X6985325Y-24733984D02*
X6985325Y-24772079D01*
X7280563Y-25010174D02*
X7271039Y-25000650D01*
X7271039Y-25000650D02*
X7251991Y-24972079D01*
X7251991Y-24972079D02*
X7242468Y-24953031D01*
X7242468Y-24953031D02*
X7232944Y-24924460D01*
X7232944Y-24924460D02*
X7223420Y-24876841D01*
X7223420Y-24876841D02*
X7223420Y-24838746D01*
X7223420Y-24838746D02*
X7232944Y-24791127D01*
X7232944Y-24791127D02*
X7242468Y-24762555D01*
X7242468Y-24762555D02*
X7251991Y-24743508D01*
X7251991Y-24743508D02*
X7271039Y-24714936D01*
X7271039Y-24714936D02*
X7280563Y-24705412D01*
X7347229Y-24753031D02*
X7356753Y-24743508D01*
X7356753Y-24743508D02*
X7375801Y-24733984D01*
X7375801Y-24733984D02*
X7423420Y-24733984D01*
X7423420Y-24733984D02*
X7442468Y-24743508D01*
X7442468Y-24743508D02*
X7451991Y-24753031D01*
X7451991Y-24753031D02*
X7461515Y-24772079D01*
X7461515Y-24772079D02*
X7461515Y-24791127D01*
X7461515Y-24791127D02*
X7451991Y-24819698D01*
X7451991Y-24819698D02*
X7337706Y-24933984D01*
X7337706Y-24933984D02*
X7461515Y-24933984D01*
X7699610Y-24933984D02*
X7699610Y-24733984D01*
X7785325Y-24933984D02*
X7785325Y-24829222D01*
X7785325Y-24829222D02*
X7775801Y-24810174D01*
X7775801Y-24810174D02*
X7756753Y-24800650D01*
X7756753Y-24800650D02*
X7728182Y-24800650D01*
X7728182Y-24800650D02*
X7709134Y-24810174D01*
X7709134Y-24810174D02*
X7699610Y-24819698D01*
X7909134Y-24933984D02*
X7890087Y-24924460D01*
X7890087Y-24924460D02*
X7880563Y-24914936D01*
X7880563Y-24914936D02*
X7871039Y-24895888D01*
X7871039Y-24895888D02*
X7871039Y-24838746D01*
X7871039Y-24838746D02*
X7880563Y-24819698D01*
X7880563Y-24819698D02*
X7890087Y-24810174D01*
X7890087Y-24810174D02*
X7909134Y-24800650D01*
X7909134Y-24800650D02*
X7937706Y-24800650D01*
X7937706Y-24800650D02*
X7956753Y-24810174D01*
X7956753Y-24810174D02*
X7966277Y-24819698D01*
X7966277Y-24819698D02*
X7975801Y-24838746D01*
X7975801Y-24838746D02*
X7975801Y-24895888D01*
X7975801Y-24895888D02*
X7966277Y-24914936D01*
X7966277Y-24914936D02*
X7956753Y-24924460D01*
X7956753Y-24924460D02*
X7937706Y-24933984D01*
X7937706Y-24933984D02*
X7909134Y-24933984D01*
X8090087Y-24933984D02*
X8071039Y-24924460D01*
X8071039Y-24924460D02*
X8061515Y-24905412D01*
X8061515Y-24905412D02*
X8061515Y-24733984D01*
X8242468Y-24924460D02*
X8223420Y-24933984D01*
X8223420Y-24933984D02*
X8185325Y-24933984D01*
X8185325Y-24933984D02*
X8166277Y-24924460D01*
X8166277Y-24924460D02*
X8156753Y-24905412D01*
X8156753Y-24905412D02*
X8156753Y-24829222D01*
X8156753Y-24829222D02*
X8166277Y-24810174D01*
X8166277Y-24810174D02*
X8185325Y-24800650D01*
X8185325Y-24800650D02*
X8223420Y-24800650D01*
X8223420Y-24800650D02*
X8242468Y-24810174D01*
X8242468Y-24810174D02*
X8251991Y-24829222D01*
X8251991Y-24829222D02*
X8251991Y-24848269D01*
X8251991Y-24848269D02*
X8156753Y-24867317D01*
X8328182Y-24924460D02*
X8347230Y-24933984D01*
X8347230Y-24933984D02*
X8385325Y-24933984D01*
X8385325Y-24933984D02*
X8404373Y-24924460D01*
X8404373Y-24924460D02*
X8413896Y-24905412D01*
X8413896Y-24905412D02*
X8413896Y-24895888D01*
X8413896Y-24895888D02*
X8404373Y-24876841D01*
X8404373Y-24876841D02*
X8385325Y-24867317D01*
X8385325Y-24867317D02*
X8356753Y-24867317D01*
X8356753Y-24867317D02*
X8337706Y-24857793D01*
X8337706Y-24857793D02*
X8328182Y-24838746D01*
X8328182Y-24838746D02*
X8328182Y-24829222D01*
X8328182Y-24829222D02*
X8337706Y-24810174D01*
X8337706Y-24810174D02*
X8356753Y-24800650D01*
X8356753Y-24800650D02*
X8385325Y-24800650D01*
X8385325Y-24800650D02*
X8404373Y-24810174D01*
X8480563Y-25010174D02*
X8490087Y-25000650D01*
X8490087Y-25000650D02*
X8509134Y-24972079D01*
X8509134Y-24972079D02*
X8518658Y-24953031D01*
X8518658Y-24953031D02*
X8528182Y-24924460D01*
X8528182Y-24924460D02*
X8537706Y-24876841D01*
X8537706Y-24876841D02*
X8537706Y-24838746D01*
X8537706Y-24838746D02*
X8528182Y-24791127D01*
X8528182Y-24791127D02*
X8518658Y-24762555D01*
X8518658Y-24762555D02*
X8509134Y-24743508D01*
X8509134Y-24743508D02*
X8490087Y-24714936D01*
X8490087Y-24714936D02*
X8480563Y-24705412D01*
X8842468Y-25010174D02*
X8832944Y-25000650D01*
X8832944Y-25000650D02*
X8813896Y-24972079D01*
X8813896Y-24972079D02*
X8804373Y-24953031D01*
X8804373Y-24953031D02*
X8794849Y-24924460D01*
X8794849Y-24924460D02*
X8785325Y-24876841D01*
X8785325Y-24876841D02*
X8785325Y-24838746D01*
X8785325Y-24838746D02*
X8794849Y-24791127D01*
X8794849Y-24791127D02*
X8804373Y-24762555D01*
X8804373Y-24762555D02*
X8813896Y-24743508D01*
X8813896Y-24743508D02*
X8832944Y-24714936D01*
X8832944Y-24714936D02*
X8842468Y-24705412D01*
X8918658Y-24800650D02*
X8918658Y-24933984D01*
X8918658Y-24819698D02*
X8928182Y-24810174D01*
X8928182Y-24810174D02*
X8947230Y-24800650D01*
X8947230Y-24800650D02*
X8975801Y-24800650D01*
X8975801Y-24800650D02*
X8994849Y-24810174D01*
X8994849Y-24810174D02*
X9004373Y-24829222D01*
X9004373Y-24829222D02*
X9004373Y-24933984D01*
X9128182Y-24933984D02*
X9109134Y-24924460D01*
X9109134Y-24924460D02*
X9099611Y-24914936D01*
X9099611Y-24914936D02*
X9090087Y-24895888D01*
X9090087Y-24895888D02*
X9090087Y-24838746D01*
X9090087Y-24838746D02*
X9099611Y-24819698D01*
X9099611Y-24819698D02*
X9109134Y-24810174D01*
X9109134Y-24810174D02*
X9128182Y-24800650D01*
X9128182Y-24800650D02*
X9156754Y-24800650D01*
X9156754Y-24800650D02*
X9175801Y-24810174D01*
X9175801Y-24810174D02*
X9185325Y-24819698D01*
X9185325Y-24819698D02*
X9194849Y-24838746D01*
X9194849Y-24838746D02*
X9194849Y-24895888D01*
X9194849Y-24895888D02*
X9185325Y-24914936D01*
X9185325Y-24914936D02*
X9175801Y-24924460D01*
X9175801Y-24924460D02*
X9156754Y-24933984D01*
X9156754Y-24933984D02*
X9128182Y-24933984D01*
X9251992Y-24800650D02*
X9328182Y-24800650D01*
X9280563Y-24733984D02*
X9280563Y-24905412D01*
X9280563Y-24905412D02*
X9290087Y-24924460D01*
X9290087Y-24924460D02*
X9309134Y-24933984D01*
X9309134Y-24933984D02*
X9328182Y-24933984D01*
X9547230Y-24800650D02*
X9547230Y-25000650D01*
X9547230Y-24810174D02*
X9566277Y-24800650D01*
X9566277Y-24800650D02*
X9604373Y-24800650D01*
X9604373Y-24800650D02*
X9623420Y-24810174D01*
X9623420Y-24810174D02*
X9632944Y-24819698D01*
X9632944Y-24819698D02*
X9642468Y-24838746D01*
X9642468Y-24838746D02*
X9642468Y-24895888D01*
X9642468Y-24895888D02*
X9632944Y-24914936D01*
X9632944Y-24914936D02*
X9623420Y-24924460D01*
X9623420Y-24924460D02*
X9604373Y-24933984D01*
X9604373Y-24933984D02*
X9566277Y-24933984D01*
X9566277Y-24933984D02*
X9547230Y-24924460D01*
X9756754Y-24933984D02*
X9737706Y-24924460D01*
X9737706Y-24924460D02*
X9728182Y-24905412D01*
X9728182Y-24905412D02*
X9728182Y-24733984D01*
X9918658Y-24933984D02*
X9918658Y-24829222D01*
X9918658Y-24829222D02*
X9909135Y-24810174D01*
X9909135Y-24810174D02*
X9890087Y-24800650D01*
X9890087Y-24800650D02*
X9851992Y-24800650D01*
X9851992Y-24800650D02*
X9832944Y-24810174D01*
X9918658Y-24924460D02*
X9899611Y-24933984D01*
X9899611Y-24933984D02*
X9851992Y-24933984D01*
X9851992Y-24933984D02*
X9832944Y-24924460D01*
X9832944Y-24924460D02*
X9823420Y-24905412D01*
X9823420Y-24905412D02*
X9823420Y-24886365D01*
X9823420Y-24886365D02*
X9832944Y-24867317D01*
X9832944Y-24867317D02*
X9851992Y-24857793D01*
X9851992Y-24857793D02*
X9899611Y-24857793D01*
X9899611Y-24857793D02*
X9918658Y-24848269D01*
X9985325Y-24800650D02*
X10061515Y-24800650D01*
X10013896Y-24733984D02*
X10013896Y-24905412D01*
X10013896Y-24905412D02*
X10023420Y-24924460D01*
X10023420Y-24924460D02*
X10042468Y-24933984D01*
X10042468Y-24933984D02*
X10061515Y-24933984D01*
X10204373Y-24924460D02*
X10185325Y-24933984D01*
X10185325Y-24933984D02*
X10147230Y-24933984D01*
X10147230Y-24933984D02*
X10128182Y-24924460D01*
X10128182Y-24924460D02*
X10118658Y-24905412D01*
X10118658Y-24905412D02*
X10118658Y-24829222D01*
X10118658Y-24829222D02*
X10128182Y-24810174D01*
X10128182Y-24810174D02*
X10147230Y-24800650D01*
X10147230Y-24800650D02*
X10185325Y-24800650D01*
X10185325Y-24800650D02*
X10204373Y-24810174D01*
X10204373Y-24810174D02*
X10213896Y-24829222D01*
X10213896Y-24829222D02*
X10213896Y-24848269D01*
X10213896Y-24848269D02*
X10118658Y-24867317D01*
X10385325Y-24933984D02*
X10385325Y-24733984D01*
X10385325Y-24924460D02*
X10366277Y-24933984D01*
X10366277Y-24933984D02*
X10328182Y-24933984D01*
X10328182Y-24933984D02*
X10309135Y-24924460D01*
X10309135Y-24924460D02*
X10299611Y-24914936D01*
X10299611Y-24914936D02*
X10290087Y-24895888D01*
X10290087Y-24895888D02*
X10290087Y-24838746D01*
X10290087Y-24838746D02*
X10299611Y-24819698D01*
X10299611Y-24819698D02*
X10309135Y-24810174D01*
X10309135Y-24810174D02*
X10328182Y-24800650D01*
X10328182Y-24800650D02*
X10366277Y-24800650D01*
X10366277Y-24800650D02*
X10385325Y-24810174D01*
X10461516Y-25010174D02*
X10471039Y-25000650D01*
X10471039Y-25000650D02*
X10490087Y-24972079D01*
X10490087Y-24972079D02*
X10499611Y-24953031D01*
X10499611Y-24953031D02*
X10509135Y-24924460D01*
X10509135Y-24924460D02*
X10518658Y-24876841D01*
X10518658Y-24876841D02*
X10518658Y-24838746D01*
X10518658Y-24838746D02*
X10509135Y-24791127D01*
X10509135Y-24791127D02*
X10499611Y-24762555D01*
X10499611Y-24762555D02*
X10490087Y-24743508D01*
X10490087Y-24743508D02*
X10471039Y-24714936D01*
X10471039Y-24714936D02*
X10461516Y-24705412D01*
X3705500Y-25147500D02*
G75*
G02*
X3505500Y-25147500I-100000J0D01*
G01*
X3505500Y-25147500D02*
G75*
G02*
X3705500Y-25147500I100000J0D01*
G01*
X3956753Y-25058031D02*
X3966277Y-25048508D01*
X3966277Y-25048508D02*
X3985324Y-25038984D01*
X3985324Y-25038984D02*
X4032943Y-25038984D01*
X4032943Y-25038984D02*
X4051991Y-25048508D01*
X4051991Y-25048508D02*
X4061515Y-25058031D01*
X4061515Y-25058031D02*
X4071039Y-25077079D01*
X4071039Y-25077079D02*
X4071039Y-25096127D01*
X4071039Y-25096127D02*
X4061515Y-25124698D01*
X4061515Y-25124698D02*
X3947229Y-25238984D01*
X3947229Y-25238984D02*
X4071039Y-25238984D01*
X4156753Y-25219936D02*
X4166277Y-25229460D01*
X4166277Y-25229460D02*
X4156753Y-25238984D01*
X4156753Y-25238984D02*
X4147229Y-25229460D01*
X4147229Y-25229460D02*
X4156753Y-25219936D01*
X4156753Y-25219936D02*
X4156753Y-25238984D01*
X4242467Y-25058031D02*
X4251991Y-25048508D01*
X4251991Y-25048508D02*
X4271039Y-25038984D01*
X4271039Y-25038984D02*
X4318658Y-25038984D01*
X4318658Y-25038984D02*
X4337705Y-25048508D01*
X4337705Y-25048508D02*
X4347229Y-25058031D01*
X4347229Y-25058031D02*
X4356753Y-25077079D01*
X4356753Y-25077079D02*
X4356753Y-25096127D01*
X4356753Y-25096127D02*
X4347229Y-25124698D01*
X4347229Y-25124698D02*
X4232944Y-25238984D01*
X4232944Y-25238984D02*
X4356753Y-25238984D01*
X4480563Y-25038984D02*
X4499610Y-25038984D01*
X4499610Y-25038984D02*
X4518658Y-25048508D01*
X4518658Y-25048508D02*
X4528182Y-25058031D01*
X4528182Y-25058031D02*
X4537705Y-25077079D01*
X4537705Y-25077079D02*
X4547229Y-25115174D01*
X4547229Y-25115174D02*
X4547229Y-25162793D01*
X4547229Y-25162793D02*
X4537705Y-25200888D01*
X4537705Y-25200888D02*
X4528182Y-25219936D01*
X4528182Y-25219936D02*
X4518658Y-25229460D01*
X4518658Y-25229460D02*
X4499610Y-25238984D01*
X4499610Y-25238984D02*
X4480563Y-25238984D01*
X4480563Y-25238984D02*
X4461515Y-25229460D01*
X4461515Y-25229460D02*
X4451991Y-25219936D01*
X4451991Y-25219936D02*
X4442467Y-25200888D01*
X4442467Y-25200888D02*
X4432944Y-25162793D01*
X4432944Y-25162793D02*
X4432944Y-25115174D01*
X4432944Y-25115174D02*
X4442467Y-25077079D01*
X4442467Y-25077079D02*
X4451991Y-25058031D01*
X4451991Y-25058031D02*
X4461515Y-25048508D01*
X4461515Y-25048508D02*
X4480563Y-25038984D01*
X4671039Y-25038984D02*
X4690086Y-25038984D01*
X4690086Y-25038984D02*
X4709134Y-25048508D01*
X4709134Y-25048508D02*
X4718658Y-25058031D01*
X4718658Y-25058031D02*
X4728182Y-25077079D01*
X4728182Y-25077079D02*
X4737705Y-25115174D01*
X4737705Y-25115174D02*
X4737705Y-25162793D01*
X4737705Y-25162793D02*
X4728182Y-25200888D01*
X4728182Y-25200888D02*
X4718658Y-25219936D01*
X4718658Y-25219936D02*
X4709134Y-25229460D01*
X4709134Y-25229460D02*
X4690086Y-25238984D01*
X4690086Y-25238984D02*
X4671039Y-25238984D01*
X4671039Y-25238984D02*
X4651991Y-25229460D01*
X4651991Y-25229460D02*
X4642467Y-25219936D01*
X4642467Y-25219936D02*
X4632944Y-25200888D01*
X4632944Y-25200888D02*
X4623420Y-25162793D01*
X4623420Y-25162793D02*
X4623420Y-25115174D01*
X4623420Y-25115174D02*
X4632944Y-25077079D01*
X4632944Y-25077079D02*
X4642467Y-25058031D01*
X4642467Y-25058031D02*
X4651991Y-25048508D01*
X4651991Y-25048508D02*
X4671039Y-25038984D01*
X4823420Y-25238984D02*
X4823420Y-25105650D01*
X4823420Y-25124698D02*
X4832944Y-25115174D01*
X4832944Y-25115174D02*
X4851991Y-25105650D01*
X4851991Y-25105650D02*
X4880563Y-25105650D01*
X4880563Y-25105650D02*
X4899610Y-25115174D01*
X4899610Y-25115174D02*
X4909134Y-25134222D01*
X4909134Y-25134222D02*
X4909134Y-25238984D01*
X4909134Y-25134222D02*
X4918658Y-25115174D01*
X4918658Y-25115174D02*
X4937705Y-25105650D01*
X4937705Y-25105650D02*
X4966277Y-25105650D01*
X4966277Y-25105650D02*
X4985325Y-25115174D01*
X4985325Y-25115174D02*
X4994848Y-25134222D01*
X4994848Y-25134222D02*
X4994848Y-25238984D01*
X5090086Y-25238984D02*
X5090086Y-25105650D01*
X5090086Y-25124698D02*
X5099610Y-25115174D01*
X5099610Y-25115174D02*
X5118658Y-25105650D01*
X5118658Y-25105650D02*
X5147229Y-25105650D01*
X5147229Y-25105650D02*
X5166277Y-25115174D01*
X5166277Y-25115174D02*
X5175801Y-25134222D01*
X5175801Y-25134222D02*
X5175801Y-25238984D01*
X5175801Y-25134222D02*
X5185325Y-25115174D01*
X5185325Y-25115174D02*
X5204372Y-25105650D01*
X5204372Y-25105650D02*
X5232944Y-25105650D01*
X5232944Y-25105650D02*
X5251991Y-25115174D01*
X5251991Y-25115174D02*
X5261515Y-25134222D01*
X5261515Y-25134222D02*
X5261515Y-25238984D01*
X5651991Y-25029460D02*
X5480563Y-25286603D01*
X5909134Y-25038984D02*
X5928182Y-25038984D01*
X5928182Y-25038984D02*
X5947229Y-25048508D01*
X5947229Y-25048508D02*
X5956753Y-25058031D01*
X5956753Y-25058031D02*
X5966277Y-25077079D01*
X5966277Y-25077079D02*
X5975801Y-25115174D01*
X5975801Y-25115174D02*
X5975801Y-25162793D01*
X5975801Y-25162793D02*
X5966277Y-25200888D01*
X5966277Y-25200888D02*
X5956753Y-25219936D01*
X5956753Y-25219936D02*
X5947229Y-25229460D01*
X5947229Y-25229460D02*
X5928182Y-25238984D01*
X5928182Y-25238984D02*
X5909134Y-25238984D01*
X5909134Y-25238984D02*
X5890086Y-25229460D01*
X5890086Y-25229460D02*
X5880563Y-25219936D01*
X5880563Y-25219936D02*
X5871039Y-25200888D01*
X5871039Y-25200888D02*
X5861515Y-25162793D01*
X5861515Y-25162793D02*
X5861515Y-25115174D01*
X5861515Y-25115174D02*
X5871039Y-25077079D01*
X5871039Y-25077079D02*
X5880563Y-25058031D01*
X5880563Y-25058031D02*
X5890086Y-25048508D01*
X5890086Y-25048508D02*
X5909134Y-25038984D01*
X6061515Y-25219936D02*
X6071039Y-25229460D01*
X6071039Y-25229460D02*
X6061515Y-25238984D01*
X6061515Y-25238984D02*
X6051991Y-25229460D01*
X6051991Y-25229460D02*
X6061515Y-25219936D01*
X6061515Y-25219936D02*
X6061515Y-25238984D01*
X6194848Y-25038984D02*
X6213896Y-25038984D01*
X6213896Y-25038984D02*
X6232944Y-25048508D01*
X6232944Y-25048508D02*
X6242467Y-25058031D01*
X6242467Y-25058031D02*
X6251991Y-25077079D01*
X6251991Y-25077079D02*
X6261515Y-25115174D01*
X6261515Y-25115174D02*
X6261515Y-25162793D01*
X6261515Y-25162793D02*
X6251991Y-25200888D01*
X6251991Y-25200888D02*
X6242467Y-25219936D01*
X6242467Y-25219936D02*
X6232944Y-25229460D01*
X6232944Y-25229460D02*
X6213896Y-25238984D01*
X6213896Y-25238984D02*
X6194848Y-25238984D01*
X6194848Y-25238984D02*
X6175801Y-25229460D01*
X6175801Y-25229460D02*
X6166277Y-25219936D01*
X6166277Y-25219936D02*
X6156753Y-25200888D01*
X6156753Y-25200888D02*
X6147229Y-25162793D01*
X6147229Y-25162793D02*
X6147229Y-25115174D01*
X6147229Y-25115174D02*
X6156753Y-25077079D01*
X6156753Y-25077079D02*
X6166277Y-25058031D01*
X6166277Y-25058031D02*
X6175801Y-25048508D01*
X6175801Y-25048508D02*
X6194848Y-25038984D01*
X6375801Y-25124698D02*
X6356753Y-25115174D01*
X6356753Y-25115174D02*
X6347229Y-25105650D01*
X6347229Y-25105650D02*
X6337706Y-25086603D01*
X6337706Y-25086603D02*
X6337706Y-25077079D01*
X6337706Y-25077079D02*
X6347229Y-25058031D01*
X6347229Y-25058031D02*
X6356753Y-25048508D01*
X6356753Y-25048508D02*
X6375801Y-25038984D01*
X6375801Y-25038984D02*
X6413896Y-25038984D01*
X6413896Y-25038984D02*
X6432944Y-25048508D01*
X6432944Y-25048508D02*
X6442467Y-25058031D01*
X6442467Y-25058031D02*
X6451991Y-25077079D01*
X6451991Y-25077079D02*
X6451991Y-25086603D01*
X6451991Y-25086603D02*
X6442467Y-25105650D01*
X6442467Y-25105650D02*
X6432944Y-25115174D01*
X6432944Y-25115174D02*
X6413896Y-25124698D01*
X6413896Y-25124698D02*
X6375801Y-25124698D01*
X6375801Y-25124698D02*
X6356753Y-25134222D01*
X6356753Y-25134222D02*
X6347229Y-25143746D01*
X6347229Y-25143746D02*
X6337706Y-25162793D01*
X6337706Y-25162793D02*
X6337706Y-25200888D01*
X6337706Y-25200888D02*
X6347229Y-25219936D01*
X6347229Y-25219936D02*
X6356753Y-25229460D01*
X6356753Y-25229460D02*
X6375801Y-25238984D01*
X6375801Y-25238984D02*
X6413896Y-25238984D01*
X6413896Y-25238984D02*
X6432944Y-25229460D01*
X6432944Y-25229460D02*
X6442467Y-25219936D01*
X6442467Y-25219936D02*
X6451991Y-25200888D01*
X6451991Y-25200888D02*
X6451991Y-25162793D01*
X6451991Y-25162793D02*
X6442467Y-25143746D01*
X6442467Y-25143746D02*
X6432944Y-25134222D01*
X6432944Y-25134222D02*
X6413896Y-25124698D01*
X6623420Y-25038984D02*
X6585325Y-25038984D01*
X6585325Y-25038984D02*
X6566277Y-25048508D01*
X6566277Y-25048508D02*
X6556753Y-25058031D01*
X6556753Y-25058031D02*
X6537706Y-25086603D01*
X6537706Y-25086603D02*
X6528182Y-25124698D01*
X6528182Y-25124698D02*
X6528182Y-25200888D01*
X6528182Y-25200888D02*
X6537706Y-25219936D01*
X6537706Y-25219936D02*
X6547229Y-25229460D01*
X6547229Y-25229460D02*
X6566277Y-25238984D01*
X6566277Y-25238984D02*
X6604372Y-25238984D01*
X6604372Y-25238984D02*
X6623420Y-25229460D01*
X6623420Y-25229460D02*
X6632944Y-25219936D01*
X6632944Y-25219936D02*
X6642467Y-25200888D01*
X6642467Y-25200888D02*
X6642467Y-25153269D01*
X6642467Y-25153269D02*
X6632944Y-25134222D01*
X6632944Y-25134222D02*
X6623420Y-25124698D01*
X6623420Y-25124698D02*
X6604372Y-25115174D01*
X6604372Y-25115174D02*
X6566277Y-25115174D01*
X6566277Y-25115174D02*
X6547229Y-25124698D01*
X6547229Y-25124698D02*
X6537706Y-25134222D01*
X6537706Y-25134222D02*
X6528182Y-25153269D01*
X6813896Y-25038984D02*
X6775801Y-25038984D01*
X6775801Y-25038984D02*
X6756753Y-25048508D01*
X6756753Y-25048508D02*
X6747229Y-25058031D01*
X6747229Y-25058031D02*
X6728182Y-25086603D01*
X6728182Y-25086603D02*
X6718658Y-25124698D01*
X6718658Y-25124698D02*
X6718658Y-25200888D01*
X6718658Y-25200888D02*
X6728182Y-25219936D01*
X6728182Y-25219936D02*
X6737706Y-25229460D01*
X6737706Y-25229460D02*
X6756753Y-25238984D01*
X6756753Y-25238984D02*
X6794848Y-25238984D01*
X6794848Y-25238984D02*
X6813896Y-25229460D01*
X6813896Y-25229460D02*
X6823420Y-25219936D01*
X6823420Y-25219936D02*
X6832944Y-25200888D01*
X6832944Y-25200888D02*
X6832944Y-25153269D01*
X6832944Y-25153269D02*
X6823420Y-25134222D01*
X6823420Y-25134222D02*
X6813896Y-25124698D01*
X6813896Y-25124698D02*
X6794848Y-25115174D01*
X6794848Y-25115174D02*
X6756753Y-25115174D01*
X6756753Y-25115174D02*
X6737706Y-25124698D01*
X6737706Y-25124698D02*
X6728182Y-25134222D01*
X6728182Y-25134222D02*
X6718658Y-25153269D01*
X6909134Y-25038984D02*
X6909134Y-25077079D01*
X6985325Y-25038984D02*
X6985325Y-25077079D01*
X7280563Y-25315174D02*
X7271039Y-25305650D01*
X7271039Y-25305650D02*
X7251991Y-25277079D01*
X7251991Y-25277079D02*
X7242468Y-25258031D01*
X7242468Y-25258031D02*
X7232944Y-25229460D01*
X7232944Y-25229460D02*
X7223420Y-25181841D01*
X7223420Y-25181841D02*
X7223420Y-25143746D01*
X7223420Y-25143746D02*
X7232944Y-25096127D01*
X7232944Y-25096127D02*
X7242468Y-25067555D01*
X7242468Y-25067555D02*
X7251991Y-25048508D01*
X7251991Y-25048508D02*
X7271039Y-25019936D01*
X7271039Y-25019936D02*
X7280563Y-25010412D01*
X7347229Y-25058031D02*
X7356753Y-25048508D01*
X7356753Y-25048508D02*
X7375801Y-25038984D01*
X7375801Y-25038984D02*
X7423420Y-25038984D01*
X7423420Y-25038984D02*
X7442468Y-25048508D01*
X7442468Y-25048508D02*
X7451991Y-25058031D01*
X7451991Y-25058031D02*
X7461515Y-25077079D01*
X7461515Y-25077079D02*
X7461515Y-25096127D01*
X7461515Y-25096127D02*
X7451991Y-25124698D01*
X7451991Y-25124698D02*
X7337706Y-25238984D01*
X7337706Y-25238984D02*
X7461515Y-25238984D01*
X7699610Y-25238984D02*
X7699610Y-25038984D01*
X7785325Y-25238984D02*
X7785325Y-25134222D01*
X7785325Y-25134222D02*
X7775801Y-25115174D01*
X7775801Y-25115174D02*
X7756753Y-25105650D01*
X7756753Y-25105650D02*
X7728182Y-25105650D01*
X7728182Y-25105650D02*
X7709134Y-25115174D01*
X7709134Y-25115174D02*
X7699610Y-25124698D01*
X7909134Y-25238984D02*
X7890087Y-25229460D01*
X7890087Y-25229460D02*
X7880563Y-25219936D01*
X7880563Y-25219936D02*
X7871039Y-25200888D01*
X7871039Y-25200888D02*
X7871039Y-25143746D01*
X7871039Y-25143746D02*
X7880563Y-25124698D01*
X7880563Y-25124698D02*
X7890087Y-25115174D01*
X7890087Y-25115174D02*
X7909134Y-25105650D01*
X7909134Y-25105650D02*
X7937706Y-25105650D01*
X7937706Y-25105650D02*
X7956753Y-25115174D01*
X7956753Y-25115174D02*
X7966277Y-25124698D01*
X7966277Y-25124698D02*
X7975801Y-25143746D01*
X7975801Y-25143746D02*
X7975801Y-25200888D01*
X7975801Y-25200888D02*
X7966277Y-25219936D01*
X7966277Y-25219936D02*
X7956753Y-25229460D01*
X7956753Y-25229460D02*
X7937706Y-25238984D01*
X7937706Y-25238984D02*
X7909134Y-25238984D01*
X8090087Y-25238984D02*
X8071039Y-25229460D01*
X8071039Y-25229460D02*
X8061515Y-25210412D01*
X8061515Y-25210412D02*
X8061515Y-25038984D01*
X8242468Y-25229460D02*
X8223420Y-25238984D01*
X8223420Y-25238984D02*
X8185325Y-25238984D01*
X8185325Y-25238984D02*
X8166277Y-25229460D01*
X8166277Y-25229460D02*
X8156753Y-25210412D01*
X8156753Y-25210412D02*
X8156753Y-25134222D01*
X8156753Y-25134222D02*
X8166277Y-25115174D01*
X8166277Y-25115174D02*
X8185325Y-25105650D01*
X8185325Y-25105650D02*
X8223420Y-25105650D01*
X8223420Y-25105650D02*
X8242468Y-25115174D01*
X8242468Y-25115174D02*
X8251991Y-25134222D01*
X8251991Y-25134222D02*
X8251991Y-25153269D01*
X8251991Y-25153269D02*
X8156753Y-25172317D01*
X8328182Y-25229460D02*
X8347230Y-25238984D01*
X8347230Y-25238984D02*
X8385325Y-25238984D01*
X8385325Y-25238984D02*
X8404373Y-25229460D01*
X8404373Y-25229460D02*
X8413896Y-25210412D01*
X8413896Y-25210412D02*
X8413896Y-25200888D01*
X8413896Y-25200888D02*
X8404373Y-25181841D01*
X8404373Y-25181841D02*
X8385325Y-25172317D01*
X8385325Y-25172317D02*
X8356753Y-25172317D01*
X8356753Y-25172317D02*
X8337706Y-25162793D01*
X8337706Y-25162793D02*
X8328182Y-25143746D01*
X8328182Y-25143746D02*
X8328182Y-25134222D01*
X8328182Y-25134222D02*
X8337706Y-25115174D01*
X8337706Y-25115174D02*
X8356753Y-25105650D01*
X8356753Y-25105650D02*
X8385325Y-25105650D01*
X8385325Y-25105650D02*
X8404373Y-25115174D01*
X8480563Y-25315174D02*
X8490087Y-25305650D01*
X8490087Y-25305650D02*
X8509134Y-25277079D01*
X8509134Y-25277079D02*
X8518658Y-25258031D01*
X8518658Y-25258031D02*
X8528182Y-25229460D01*
X8528182Y-25229460D02*
X8537706Y-25181841D01*
X8537706Y-25181841D02*
X8537706Y-25143746D01*
X8537706Y-25143746D02*
X8528182Y-25096127D01*
X8528182Y-25096127D02*
X8518658Y-25067555D01*
X8518658Y-25067555D02*
X8509134Y-25048508D01*
X8509134Y-25048508D02*
X8490087Y-25019936D01*
X8490087Y-25019936D02*
X8480563Y-25010412D01*
X8842468Y-25315174D02*
X8832944Y-25305650D01*
X8832944Y-25305650D02*
X8813896Y-25277079D01*
X8813896Y-25277079D02*
X8804373Y-25258031D01*
X8804373Y-25258031D02*
X8794849Y-25229460D01*
X8794849Y-25229460D02*
X8785325Y-25181841D01*
X8785325Y-25181841D02*
X8785325Y-25143746D01*
X8785325Y-25143746D02*
X8794849Y-25096127D01*
X8794849Y-25096127D02*
X8804373Y-25067555D01*
X8804373Y-25067555D02*
X8813896Y-25048508D01*
X8813896Y-25048508D02*
X8832944Y-25019936D01*
X8832944Y-25019936D02*
X8842468Y-25010412D01*
X8918658Y-25105650D02*
X8918658Y-25238984D01*
X8918658Y-25124698D02*
X8928182Y-25115174D01*
X8928182Y-25115174D02*
X8947230Y-25105650D01*
X8947230Y-25105650D02*
X8975801Y-25105650D01*
X8975801Y-25105650D02*
X8994849Y-25115174D01*
X8994849Y-25115174D02*
X9004373Y-25134222D01*
X9004373Y-25134222D02*
X9004373Y-25238984D01*
X9128182Y-25238984D02*
X9109134Y-25229460D01*
X9109134Y-25229460D02*
X9099611Y-25219936D01*
X9099611Y-25219936D02*
X9090087Y-25200888D01*
X9090087Y-25200888D02*
X9090087Y-25143746D01*
X9090087Y-25143746D02*
X9099611Y-25124698D01*
X9099611Y-25124698D02*
X9109134Y-25115174D01*
X9109134Y-25115174D02*
X9128182Y-25105650D01*
X9128182Y-25105650D02*
X9156754Y-25105650D01*
X9156754Y-25105650D02*
X9175801Y-25115174D01*
X9175801Y-25115174D02*
X9185325Y-25124698D01*
X9185325Y-25124698D02*
X9194849Y-25143746D01*
X9194849Y-25143746D02*
X9194849Y-25200888D01*
X9194849Y-25200888D02*
X9185325Y-25219936D01*
X9185325Y-25219936D02*
X9175801Y-25229460D01*
X9175801Y-25229460D02*
X9156754Y-25238984D01*
X9156754Y-25238984D02*
X9128182Y-25238984D01*
X9251992Y-25105650D02*
X9328182Y-25105650D01*
X9280563Y-25038984D02*
X9280563Y-25210412D01*
X9280563Y-25210412D02*
X9290087Y-25229460D01*
X9290087Y-25229460D02*
X9309134Y-25238984D01*
X9309134Y-25238984D02*
X9328182Y-25238984D01*
X9547230Y-25105650D02*
X9547230Y-25305650D01*
X9547230Y-25115174D02*
X9566277Y-25105650D01*
X9566277Y-25105650D02*
X9604373Y-25105650D01*
X9604373Y-25105650D02*
X9623420Y-25115174D01*
X9623420Y-25115174D02*
X9632944Y-25124698D01*
X9632944Y-25124698D02*
X9642468Y-25143746D01*
X9642468Y-25143746D02*
X9642468Y-25200888D01*
X9642468Y-25200888D02*
X9632944Y-25219936D01*
X9632944Y-25219936D02*
X9623420Y-25229460D01*
X9623420Y-25229460D02*
X9604373Y-25238984D01*
X9604373Y-25238984D02*
X9566277Y-25238984D01*
X9566277Y-25238984D02*
X9547230Y-25229460D01*
X9756754Y-25238984D02*
X9737706Y-25229460D01*
X9737706Y-25229460D02*
X9728182Y-25210412D01*
X9728182Y-25210412D02*
X9728182Y-25038984D01*
X9918658Y-25238984D02*
X9918658Y-25134222D01*
X9918658Y-25134222D02*
X9909135Y-25115174D01*
X9909135Y-25115174D02*
X9890087Y-25105650D01*
X9890087Y-25105650D02*
X9851992Y-25105650D01*
X9851992Y-25105650D02*
X9832944Y-25115174D01*
X9918658Y-25229460D02*
X9899611Y-25238984D01*
X9899611Y-25238984D02*
X9851992Y-25238984D01*
X9851992Y-25238984D02*
X9832944Y-25229460D01*
X9832944Y-25229460D02*
X9823420Y-25210412D01*
X9823420Y-25210412D02*
X9823420Y-25191365D01*
X9823420Y-25191365D02*
X9832944Y-25172317D01*
X9832944Y-25172317D02*
X9851992Y-25162793D01*
X9851992Y-25162793D02*
X9899611Y-25162793D01*
X9899611Y-25162793D02*
X9918658Y-25153269D01*
X9985325Y-25105650D02*
X10061515Y-25105650D01*
X10013896Y-25038984D02*
X10013896Y-25210412D01*
X10013896Y-25210412D02*
X10023420Y-25229460D01*
X10023420Y-25229460D02*
X10042468Y-25238984D01*
X10042468Y-25238984D02*
X10061515Y-25238984D01*
X10204373Y-25229460D02*
X10185325Y-25238984D01*
X10185325Y-25238984D02*
X10147230Y-25238984D01*
X10147230Y-25238984D02*
X10128182Y-25229460D01*
X10128182Y-25229460D02*
X10118658Y-25210412D01*
X10118658Y-25210412D02*
X10118658Y-25134222D01*
X10118658Y-25134222D02*
X10128182Y-25115174D01*
X10128182Y-25115174D02*
X10147230Y-25105650D01*
X10147230Y-25105650D02*
X10185325Y-25105650D01*
X10185325Y-25105650D02*
X10204373Y-25115174D01*
X10204373Y-25115174D02*
X10213896Y-25134222D01*
X10213896Y-25134222D02*
X10213896Y-25153269D01*
X10213896Y-25153269D02*
X10118658Y-25172317D01*
X10385325Y-25238984D02*
X10385325Y-25038984D01*
X10385325Y-25229460D02*
X10366277Y-25238984D01*
X10366277Y-25238984D02*
X10328182Y-25238984D01*
X10328182Y-25238984D02*
X10309135Y-25229460D01*
X10309135Y-25229460D02*
X10299611Y-25219936D01*
X10299611Y-25219936D02*
X10290087Y-25200888D01*
X10290087Y-25200888D02*
X10290087Y-25143746D01*
X10290087Y-25143746D02*
X10299611Y-25124698D01*
X10299611Y-25124698D02*
X10309135Y-25115174D01*
X10309135Y-25115174D02*
X10328182Y-25105650D01*
X10328182Y-25105650D02*
X10366277Y-25105650D01*
X10366277Y-25105650D02*
X10385325Y-25115174D01*
X10461516Y-25315174D02*
X10471039Y-25305650D01*
X10471039Y-25305650D02*
X10490087Y-25277079D01*
X10490087Y-25277079D02*
X10499611Y-25258031D01*
X10499611Y-25258031D02*
X10509135Y-25229460D01*
X10509135Y-25229460D02*
X10518658Y-25181841D01*
X10518658Y-25181841D02*
X10518658Y-25143746D01*
X10518658Y-25143746D02*
X10509135Y-25096127D01*
X10509135Y-25096127D02*
X10499611Y-25067555D01*
X10499611Y-25067555D02*
X10490087Y-25048508D01*
X10490087Y-25048508D02*
X10471039Y-25019936D01*
X10471039Y-25019936D02*
X10461516Y-25010412D01*
M02*
