%TF.GenerationSoftware,KiCad,Pcbnew,10.0.6*%
%TF.CreationDate,2026-09-19T22:41:33-04:00*%
%TF.ProjectId,alps75-zug,616c7073-3735-42d7-9a75-672e6b696361,rev?*%
%TF.SameCoordinates,Original*%
%TF.FileFunction,Legend,Bot*%
%TF.FilePolarity,Positive*%
%FSLAX46Y46*%
G04 Gerber Fmt 4.6, Leading zero omitted, Abs format (unit mm)*
G04 Created by KiCad (PCBNEW 10.0.6) date 2026-09-19 22:41:33*
%MOMM*%
%LPD*%
G01*
G04 APERTURE LIST*
%ADD10C,0.150000*%
%ADD11C,0.120000*%
G04 APERTURE END LIST*
D10*
X209908569Y-191312714D02*
X208908569Y-191312714D01*
X208908569Y-191312714D02*
X208908569Y-191550809D01*
X208908569Y-191550809D02*
X208956188Y-191693666D01*
X208956188Y-191693666D02*
X209051426Y-191788904D01*
X209051426Y-191788904D02*
X209146664Y-191836523D01*
X209146664Y-191836523D02*
X209337140Y-191884142D01*
X209337140Y-191884142D02*
X209479997Y-191884142D01*
X209479997Y-191884142D02*
X209670473Y-191836523D01*
X209670473Y-191836523D02*
X209765711Y-191788904D01*
X209765711Y-191788904D02*
X209860950Y-191693666D01*
X209860950Y-191693666D02*
X209908569Y-191550809D01*
X209908569Y-191550809D02*
X209908569Y-191312714D01*
X208908569Y-192788904D02*
X208908569Y-192312714D01*
X208908569Y-192312714D02*
X209384759Y-192265095D01*
X209384759Y-192265095D02*
X209337140Y-192312714D01*
X209337140Y-192312714D02*
X209289521Y-192407952D01*
X209289521Y-192407952D02*
X209289521Y-192646047D01*
X209289521Y-192646047D02*
X209337140Y-192741285D01*
X209337140Y-192741285D02*
X209384759Y-192788904D01*
X209384759Y-192788904D02*
X209479997Y-192836523D01*
X209479997Y-192836523D02*
X209718092Y-192836523D01*
X209718092Y-192836523D02*
X209813330Y-192788904D01*
X209813330Y-192788904D02*
X209860950Y-192741285D01*
X209860950Y-192741285D02*
X209908569Y-192646047D01*
X209908569Y-192646047D02*
X209908569Y-192407952D01*
X209908569Y-192407952D02*
X209860950Y-192312714D01*
X209860950Y-192312714D02*
X209813330Y-192265095D01*
X208908569Y-193169857D02*
X208908569Y-193836523D01*
X208908569Y-193836523D02*
X209908569Y-193407952D01*
X269439819Y-229412714D02*
X268439819Y-229412714D01*
X268439819Y-229412714D02*
X268439819Y-229650809D01*
X268439819Y-229650809D02*
X268487438Y-229793666D01*
X268487438Y-229793666D02*
X268582676Y-229888904D01*
X268582676Y-229888904D02*
X268677914Y-229936523D01*
X268677914Y-229936523D02*
X268868390Y-229984142D01*
X268868390Y-229984142D02*
X269011247Y-229984142D01*
X269011247Y-229984142D02*
X269201723Y-229936523D01*
X269201723Y-229936523D02*
X269296961Y-229888904D01*
X269296961Y-229888904D02*
X269392200Y-229793666D01*
X269392200Y-229793666D02*
X269439819Y-229650809D01*
X269439819Y-229650809D02*
X269439819Y-229412714D01*
X268868390Y-230555571D02*
X268820771Y-230460333D01*
X268820771Y-230460333D02*
X268773152Y-230412714D01*
X268773152Y-230412714D02*
X268677914Y-230365095D01*
X268677914Y-230365095D02*
X268630295Y-230365095D01*
X268630295Y-230365095D02*
X268535057Y-230412714D01*
X268535057Y-230412714D02*
X268487438Y-230460333D01*
X268487438Y-230460333D02*
X268439819Y-230555571D01*
X268439819Y-230555571D02*
X268439819Y-230746047D01*
X268439819Y-230746047D02*
X268487438Y-230841285D01*
X268487438Y-230841285D02*
X268535057Y-230888904D01*
X268535057Y-230888904D02*
X268630295Y-230936523D01*
X268630295Y-230936523D02*
X268677914Y-230936523D01*
X268677914Y-230936523D02*
X268773152Y-230888904D01*
X268773152Y-230888904D02*
X268820771Y-230841285D01*
X268820771Y-230841285D02*
X268868390Y-230746047D01*
X268868390Y-230746047D02*
X268868390Y-230555571D01*
X268868390Y-230555571D02*
X268916009Y-230460333D01*
X268916009Y-230460333D02*
X268963628Y-230412714D01*
X268963628Y-230412714D02*
X269058866Y-230365095D01*
X269058866Y-230365095D02*
X269249342Y-230365095D01*
X269249342Y-230365095D02*
X269344580Y-230412714D01*
X269344580Y-230412714D02*
X269392200Y-230460333D01*
X269392200Y-230460333D02*
X269439819Y-230555571D01*
X269439819Y-230555571D02*
X269439819Y-230746047D01*
X269439819Y-230746047D02*
X269392200Y-230841285D01*
X269392200Y-230841285D02*
X269344580Y-230888904D01*
X269344580Y-230888904D02*
X269249342Y-230936523D01*
X269249342Y-230936523D02*
X269058866Y-230936523D01*
X269058866Y-230936523D02*
X268963628Y-230888904D01*
X268963628Y-230888904D02*
X268916009Y-230841285D01*
X268916009Y-230841285D02*
X268868390Y-230746047D01*
X268439819Y-231269857D02*
X268439819Y-231888904D01*
X268439819Y-231888904D02*
X268820771Y-231555571D01*
X268820771Y-231555571D02*
X268820771Y-231698428D01*
X268820771Y-231698428D02*
X268868390Y-231793666D01*
X268868390Y-231793666D02*
X268916009Y-231841285D01*
X268916009Y-231841285D02*
X269011247Y-231888904D01*
X269011247Y-231888904D02*
X269249342Y-231888904D01*
X269249342Y-231888904D02*
X269344580Y-231841285D01*
X269344580Y-231841285D02*
X269392200Y-231793666D01*
X269392200Y-231793666D02*
X269439819Y-231698428D01*
X269439819Y-231698428D02*
X269439819Y-231412714D01*
X269439819Y-231412714D02*
X269392200Y-231317476D01*
X269392200Y-231317476D02*
X269344580Y-231269857D01*
X100371069Y-153212714D02*
X99371069Y-153212714D01*
X99371069Y-153212714D02*
X99371069Y-153450809D01*
X99371069Y-153450809D02*
X99418688Y-153593666D01*
X99418688Y-153593666D02*
X99513926Y-153688904D01*
X99513926Y-153688904D02*
X99609164Y-153736523D01*
X99609164Y-153736523D02*
X99799640Y-153784142D01*
X99799640Y-153784142D02*
X99942497Y-153784142D01*
X99942497Y-153784142D02*
X100132973Y-153736523D01*
X100132973Y-153736523D02*
X100228211Y-153688904D01*
X100228211Y-153688904D02*
X100323450Y-153593666D01*
X100323450Y-153593666D02*
X100371069Y-153450809D01*
X100371069Y-153450809D02*
X100371069Y-153212714D01*
X99466307Y-154165095D02*
X99418688Y-154212714D01*
X99418688Y-154212714D02*
X99371069Y-154307952D01*
X99371069Y-154307952D02*
X99371069Y-154546047D01*
X99371069Y-154546047D02*
X99418688Y-154641285D01*
X99418688Y-154641285D02*
X99466307Y-154688904D01*
X99466307Y-154688904D02*
X99561545Y-154736523D01*
X99561545Y-154736523D02*
X99656783Y-154736523D01*
X99656783Y-154736523D02*
X99799640Y-154688904D01*
X99799640Y-154688904D02*
X100371069Y-154117476D01*
X100371069Y-154117476D02*
X100371069Y-154736523D01*
X99371069Y-155355571D02*
X99371069Y-155450809D01*
X99371069Y-155450809D02*
X99418688Y-155546047D01*
X99418688Y-155546047D02*
X99466307Y-155593666D01*
X99466307Y-155593666D02*
X99561545Y-155641285D01*
X99561545Y-155641285D02*
X99752021Y-155688904D01*
X99752021Y-155688904D02*
X99990116Y-155688904D01*
X99990116Y-155688904D02*
X100180592Y-155641285D01*
X100180592Y-155641285D02*
X100275830Y-155593666D01*
X100275830Y-155593666D02*
X100323450Y-155546047D01*
X100323450Y-155546047D02*
X100371069Y-155450809D01*
X100371069Y-155450809D02*
X100371069Y-155355571D01*
X100371069Y-155355571D02*
X100323450Y-155260333D01*
X100323450Y-155260333D02*
X100275830Y-155212714D01*
X100275830Y-155212714D02*
X100180592Y-155165095D01*
X100180592Y-155165095D02*
X99990116Y-155117476D01*
X99990116Y-155117476D02*
X99752021Y-155117476D01*
X99752021Y-155117476D02*
X99561545Y-155165095D01*
X99561545Y-155165095D02*
X99466307Y-155212714D01*
X99466307Y-155212714D02*
X99418688Y-155260333D01*
X99418688Y-155260333D02*
X99371069Y-155355571D01*
X116846344Y-124719819D02*
X116846344Y-123719819D01*
X116846344Y-123719819D02*
X116608249Y-123719819D01*
X116608249Y-123719819D02*
X116465392Y-123767438D01*
X116465392Y-123767438D02*
X116370154Y-123862676D01*
X116370154Y-123862676D02*
X116322535Y-123957914D01*
X116322535Y-123957914D02*
X116274916Y-124148390D01*
X116274916Y-124148390D02*
X116274916Y-124291247D01*
X116274916Y-124291247D02*
X116322535Y-124481723D01*
X116322535Y-124481723D02*
X116370154Y-124576961D01*
X116370154Y-124576961D02*
X116465392Y-124672200D01*
X116465392Y-124672200D02*
X116608249Y-124719819D01*
X116608249Y-124719819D02*
X116846344Y-124719819D01*
X115417773Y-124053152D02*
X115417773Y-124719819D01*
X115655868Y-123672200D02*
X115893963Y-124386485D01*
X115893963Y-124386485D02*
X115274916Y-124386485D01*
X267058569Y-191312714D02*
X266058569Y-191312714D01*
X266058569Y-191312714D02*
X266058569Y-191550809D01*
X266058569Y-191550809D02*
X266106188Y-191693666D01*
X266106188Y-191693666D02*
X266201426Y-191788904D01*
X266201426Y-191788904D02*
X266296664Y-191836523D01*
X266296664Y-191836523D02*
X266487140Y-191884142D01*
X266487140Y-191884142D02*
X266629997Y-191884142D01*
X266629997Y-191884142D02*
X266820473Y-191836523D01*
X266820473Y-191836523D02*
X266915711Y-191788904D01*
X266915711Y-191788904D02*
X267010950Y-191693666D01*
X267010950Y-191693666D02*
X267058569Y-191550809D01*
X267058569Y-191550809D02*
X267058569Y-191312714D01*
X266058569Y-192741285D02*
X266058569Y-192550809D01*
X266058569Y-192550809D02*
X266106188Y-192455571D01*
X266106188Y-192455571D02*
X266153807Y-192407952D01*
X266153807Y-192407952D02*
X266296664Y-192312714D01*
X266296664Y-192312714D02*
X266487140Y-192265095D01*
X266487140Y-192265095D02*
X266868092Y-192265095D01*
X266868092Y-192265095D02*
X266963330Y-192312714D01*
X266963330Y-192312714D02*
X267010950Y-192360333D01*
X267010950Y-192360333D02*
X267058569Y-192455571D01*
X267058569Y-192455571D02*
X267058569Y-192646047D01*
X267058569Y-192646047D02*
X267010950Y-192741285D01*
X267010950Y-192741285D02*
X266963330Y-192788904D01*
X266963330Y-192788904D02*
X266868092Y-192836523D01*
X266868092Y-192836523D02*
X266629997Y-192836523D01*
X266629997Y-192836523D02*
X266534759Y-192788904D01*
X266534759Y-192788904D02*
X266487140Y-192741285D01*
X266487140Y-192741285D02*
X266439521Y-192646047D01*
X266439521Y-192646047D02*
X266439521Y-192455571D01*
X266439521Y-192455571D02*
X266487140Y-192360333D01*
X266487140Y-192360333D02*
X266534759Y-192312714D01*
X266534759Y-192312714D02*
X266629997Y-192265095D01*
X266058569Y-193455571D02*
X266058569Y-193550809D01*
X266058569Y-193550809D02*
X266106188Y-193646047D01*
X266106188Y-193646047D02*
X266153807Y-193693666D01*
X266153807Y-193693666D02*
X266249045Y-193741285D01*
X266249045Y-193741285D02*
X266439521Y-193788904D01*
X266439521Y-193788904D02*
X266677616Y-193788904D01*
X266677616Y-193788904D02*
X266868092Y-193741285D01*
X266868092Y-193741285D02*
X266963330Y-193693666D01*
X266963330Y-193693666D02*
X267010950Y-193646047D01*
X267010950Y-193646047D02*
X267058569Y-193550809D01*
X267058569Y-193550809D02*
X267058569Y-193455571D01*
X267058569Y-193455571D02*
X267010950Y-193360333D01*
X267010950Y-193360333D02*
X266963330Y-193312714D01*
X266963330Y-193312714D02*
X266868092Y-193265095D01*
X266868092Y-193265095D02*
X266677616Y-193217476D01*
X266677616Y-193217476D02*
X266439521Y-193217476D01*
X266439521Y-193217476D02*
X266249045Y-193265095D01*
X266249045Y-193265095D02*
X266153807Y-193312714D01*
X266153807Y-193312714D02*
X266106188Y-193360333D01*
X266106188Y-193360333D02*
X266058569Y-193455571D01*
X290871069Y-229412714D02*
X289871069Y-229412714D01*
X289871069Y-229412714D02*
X289871069Y-229650809D01*
X289871069Y-229650809D02*
X289918688Y-229793666D01*
X289918688Y-229793666D02*
X290013926Y-229888904D01*
X290013926Y-229888904D02*
X290109164Y-229936523D01*
X290109164Y-229936523D02*
X290299640Y-229984142D01*
X290299640Y-229984142D02*
X290442497Y-229984142D01*
X290442497Y-229984142D02*
X290632973Y-229936523D01*
X290632973Y-229936523D02*
X290728211Y-229888904D01*
X290728211Y-229888904D02*
X290823450Y-229793666D01*
X290823450Y-229793666D02*
X290871069Y-229650809D01*
X290871069Y-229650809D02*
X290871069Y-229412714D01*
X290299640Y-230555571D02*
X290252021Y-230460333D01*
X290252021Y-230460333D02*
X290204402Y-230412714D01*
X290204402Y-230412714D02*
X290109164Y-230365095D01*
X290109164Y-230365095D02*
X290061545Y-230365095D01*
X290061545Y-230365095D02*
X289966307Y-230412714D01*
X289966307Y-230412714D02*
X289918688Y-230460333D01*
X289918688Y-230460333D02*
X289871069Y-230555571D01*
X289871069Y-230555571D02*
X289871069Y-230746047D01*
X289871069Y-230746047D02*
X289918688Y-230841285D01*
X289918688Y-230841285D02*
X289966307Y-230888904D01*
X289966307Y-230888904D02*
X290061545Y-230936523D01*
X290061545Y-230936523D02*
X290109164Y-230936523D01*
X290109164Y-230936523D02*
X290204402Y-230888904D01*
X290204402Y-230888904D02*
X290252021Y-230841285D01*
X290252021Y-230841285D02*
X290299640Y-230746047D01*
X290299640Y-230746047D02*
X290299640Y-230555571D01*
X290299640Y-230555571D02*
X290347259Y-230460333D01*
X290347259Y-230460333D02*
X290394878Y-230412714D01*
X290394878Y-230412714D02*
X290490116Y-230365095D01*
X290490116Y-230365095D02*
X290680592Y-230365095D01*
X290680592Y-230365095D02*
X290775830Y-230412714D01*
X290775830Y-230412714D02*
X290823450Y-230460333D01*
X290823450Y-230460333D02*
X290871069Y-230555571D01*
X290871069Y-230555571D02*
X290871069Y-230746047D01*
X290871069Y-230746047D02*
X290823450Y-230841285D01*
X290823450Y-230841285D02*
X290775830Y-230888904D01*
X290775830Y-230888904D02*
X290680592Y-230936523D01*
X290680592Y-230936523D02*
X290490116Y-230936523D01*
X290490116Y-230936523D02*
X290394878Y-230888904D01*
X290394878Y-230888904D02*
X290347259Y-230841285D01*
X290347259Y-230841285D02*
X290299640Y-230746047D01*
X290204402Y-231793666D02*
X290871069Y-231793666D01*
X289823450Y-231555571D02*
X290537735Y-231317476D01*
X290537735Y-231317476D02*
X290537735Y-231936523D01*
X288772535Y-124719819D02*
X288772535Y-123719819D01*
X288772535Y-123719819D02*
X288534440Y-123719819D01*
X288534440Y-123719819D02*
X288391583Y-123767438D01*
X288391583Y-123767438D02*
X288296345Y-123862676D01*
X288296345Y-123862676D02*
X288248726Y-123957914D01*
X288248726Y-123957914D02*
X288201107Y-124148390D01*
X288201107Y-124148390D02*
X288201107Y-124291247D01*
X288201107Y-124291247D02*
X288248726Y-124481723D01*
X288248726Y-124481723D02*
X288296345Y-124576961D01*
X288296345Y-124576961D02*
X288391583Y-124672200D01*
X288391583Y-124672200D02*
X288534440Y-124719819D01*
X288534440Y-124719819D02*
X288772535Y-124719819D01*
X287248726Y-124719819D02*
X287820154Y-124719819D01*
X287534440Y-124719819D02*
X287534440Y-123719819D01*
X287534440Y-123719819D02*
X287629678Y-123862676D01*
X287629678Y-123862676D02*
X287724916Y-123957914D01*
X287724916Y-123957914D02*
X287820154Y-124005533D01*
X286915392Y-123719819D02*
X286296345Y-123719819D01*
X286296345Y-123719819D02*
X286629678Y-124100771D01*
X286629678Y-124100771D02*
X286486821Y-124100771D01*
X286486821Y-124100771D02*
X286391583Y-124148390D01*
X286391583Y-124148390D02*
X286343964Y-124196009D01*
X286343964Y-124196009D02*
X286296345Y-124291247D01*
X286296345Y-124291247D02*
X286296345Y-124529342D01*
X286296345Y-124529342D02*
X286343964Y-124624580D01*
X286343964Y-124624580D02*
X286391583Y-124672200D01*
X286391583Y-124672200D02*
X286486821Y-124719819D01*
X286486821Y-124719819D02*
X286772535Y-124719819D01*
X286772535Y-124719819D02*
X286867773Y-124672200D01*
X286867773Y-124672200D02*
X286915392Y-124624580D01*
X135896344Y-124719819D02*
X135896344Y-123719819D01*
X135896344Y-123719819D02*
X135658249Y-123719819D01*
X135658249Y-123719819D02*
X135515392Y-123767438D01*
X135515392Y-123767438D02*
X135420154Y-123862676D01*
X135420154Y-123862676D02*
X135372535Y-123957914D01*
X135372535Y-123957914D02*
X135324916Y-124148390D01*
X135324916Y-124148390D02*
X135324916Y-124291247D01*
X135324916Y-124291247D02*
X135372535Y-124481723D01*
X135372535Y-124481723D02*
X135420154Y-124576961D01*
X135420154Y-124576961D02*
X135515392Y-124672200D01*
X135515392Y-124672200D02*
X135658249Y-124719819D01*
X135658249Y-124719819D02*
X135896344Y-124719819D01*
X134420154Y-123719819D02*
X134896344Y-123719819D01*
X134896344Y-123719819D02*
X134943963Y-124196009D01*
X134943963Y-124196009D02*
X134896344Y-124148390D01*
X134896344Y-124148390D02*
X134801106Y-124100771D01*
X134801106Y-124100771D02*
X134563011Y-124100771D01*
X134563011Y-124100771D02*
X134467773Y-124148390D01*
X134467773Y-124148390D02*
X134420154Y-124196009D01*
X134420154Y-124196009D02*
X134372535Y-124291247D01*
X134372535Y-124291247D02*
X134372535Y-124529342D01*
X134372535Y-124529342D02*
X134420154Y-124624580D01*
X134420154Y-124624580D02*
X134467773Y-124672200D01*
X134467773Y-124672200D02*
X134563011Y-124719819D01*
X134563011Y-124719819D02*
X134801106Y-124719819D01*
X134801106Y-124719819D02*
X134896344Y-124672200D01*
X134896344Y-124672200D02*
X134943963Y-124624580D01*
X324208569Y-172262714D02*
X323208569Y-172262714D01*
X323208569Y-172262714D02*
X323208569Y-172500809D01*
X323208569Y-172500809D02*
X323256188Y-172643666D01*
X323256188Y-172643666D02*
X323351426Y-172738904D01*
X323351426Y-172738904D02*
X323446664Y-172786523D01*
X323446664Y-172786523D02*
X323637140Y-172834142D01*
X323637140Y-172834142D02*
X323779997Y-172834142D01*
X323779997Y-172834142D02*
X323970473Y-172786523D01*
X323970473Y-172786523D02*
X324065711Y-172738904D01*
X324065711Y-172738904D02*
X324160950Y-172643666D01*
X324160950Y-172643666D02*
X324208569Y-172500809D01*
X324208569Y-172500809D02*
X324208569Y-172262714D01*
X323541902Y-173691285D02*
X324208569Y-173691285D01*
X323160950Y-173453190D02*
X323875235Y-173215095D01*
X323875235Y-173215095D02*
X323875235Y-173834142D01*
X323208569Y-174119857D02*
X323208569Y-174786523D01*
X323208569Y-174786523D02*
X324208569Y-174357952D01*
X257533569Y-210362714D02*
X256533569Y-210362714D01*
X256533569Y-210362714D02*
X256533569Y-210600809D01*
X256533569Y-210600809D02*
X256581188Y-210743666D01*
X256581188Y-210743666D02*
X256676426Y-210838904D01*
X256676426Y-210838904D02*
X256771664Y-210886523D01*
X256771664Y-210886523D02*
X256962140Y-210934142D01*
X256962140Y-210934142D02*
X257104997Y-210934142D01*
X257104997Y-210934142D02*
X257295473Y-210886523D01*
X257295473Y-210886523D02*
X257390711Y-210838904D01*
X257390711Y-210838904D02*
X257485950Y-210743666D01*
X257485950Y-210743666D02*
X257533569Y-210600809D01*
X257533569Y-210600809D02*
X257533569Y-210362714D01*
X256533569Y-211267476D02*
X256533569Y-211934142D01*
X256533569Y-211934142D02*
X257533569Y-211505571D01*
X256866902Y-212743666D02*
X257533569Y-212743666D01*
X256485950Y-212505571D02*
X257200235Y-212267476D01*
X257200235Y-212267476D02*
X257200235Y-212886523D01*
X171808569Y-191312714D02*
X170808569Y-191312714D01*
X170808569Y-191312714D02*
X170808569Y-191550809D01*
X170808569Y-191550809D02*
X170856188Y-191693666D01*
X170856188Y-191693666D02*
X170951426Y-191788904D01*
X170951426Y-191788904D02*
X171046664Y-191836523D01*
X171046664Y-191836523D02*
X171237140Y-191884142D01*
X171237140Y-191884142D02*
X171379997Y-191884142D01*
X171379997Y-191884142D02*
X171570473Y-191836523D01*
X171570473Y-191836523D02*
X171665711Y-191788904D01*
X171665711Y-191788904D02*
X171760950Y-191693666D01*
X171760950Y-191693666D02*
X171808569Y-191550809D01*
X171808569Y-191550809D02*
X171808569Y-191312714D01*
X170808569Y-192788904D02*
X170808569Y-192312714D01*
X170808569Y-192312714D02*
X171284759Y-192265095D01*
X171284759Y-192265095D02*
X171237140Y-192312714D01*
X171237140Y-192312714D02*
X171189521Y-192407952D01*
X171189521Y-192407952D02*
X171189521Y-192646047D01*
X171189521Y-192646047D02*
X171237140Y-192741285D01*
X171237140Y-192741285D02*
X171284759Y-192788904D01*
X171284759Y-192788904D02*
X171379997Y-192836523D01*
X171379997Y-192836523D02*
X171618092Y-192836523D01*
X171618092Y-192836523D02*
X171713330Y-192788904D01*
X171713330Y-192788904D02*
X171760950Y-192741285D01*
X171760950Y-192741285D02*
X171808569Y-192646047D01*
X171808569Y-192646047D02*
X171808569Y-192407952D01*
X171808569Y-192407952D02*
X171760950Y-192312714D01*
X171760950Y-192312714D02*
X171713330Y-192265095D01*
X170808569Y-193741285D02*
X170808569Y-193265095D01*
X170808569Y-193265095D02*
X171284759Y-193217476D01*
X171284759Y-193217476D02*
X171237140Y-193265095D01*
X171237140Y-193265095D02*
X171189521Y-193360333D01*
X171189521Y-193360333D02*
X171189521Y-193598428D01*
X171189521Y-193598428D02*
X171237140Y-193693666D01*
X171237140Y-193693666D02*
X171284759Y-193741285D01*
X171284759Y-193741285D02*
X171379997Y-193788904D01*
X171379997Y-193788904D02*
X171618092Y-193788904D01*
X171618092Y-193788904D02*
X171713330Y-193741285D01*
X171713330Y-193741285D02*
X171760950Y-193693666D01*
X171760950Y-193693666D02*
X171808569Y-193598428D01*
X171808569Y-193598428D02*
X171808569Y-193360333D01*
X171808569Y-193360333D02*
X171760950Y-193265095D01*
X171760950Y-193265095D02*
X171713330Y-193217476D01*
X173996344Y-124719819D02*
X173996344Y-123719819D01*
X173996344Y-123719819D02*
X173758249Y-123719819D01*
X173758249Y-123719819D02*
X173615392Y-123767438D01*
X173615392Y-123767438D02*
X173520154Y-123862676D01*
X173520154Y-123862676D02*
X173472535Y-123957914D01*
X173472535Y-123957914D02*
X173424916Y-124148390D01*
X173424916Y-124148390D02*
X173424916Y-124291247D01*
X173424916Y-124291247D02*
X173472535Y-124481723D01*
X173472535Y-124481723D02*
X173520154Y-124576961D01*
X173520154Y-124576961D02*
X173615392Y-124672200D01*
X173615392Y-124672200D02*
X173758249Y-124719819D01*
X173758249Y-124719819D02*
X173996344Y-124719819D01*
X173091582Y-123719819D02*
X172424916Y-123719819D01*
X172424916Y-123719819D02*
X172853487Y-124719819D01*
X157521069Y-153212714D02*
X156521069Y-153212714D01*
X156521069Y-153212714D02*
X156521069Y-153450809D01*
X156521069Y-153450809D02*
X156568688Y-153593666D01*
X156568688Y-153593666D02*
X156663926Y-153688904D01*
X156663926Y-153688904D02*
X156759164Y-153736523D01*
X156759164Y-153736523D02*
X156949640Y-153784142D01*
X156949640Y-153784142D02*
X157092497Y-153784142D01*
X157092497Y-153784142D02*
X157282973Y-153736523D01*
X157282973Y-153736523D02*
X157378211Y-153688904D01*
X157378211Y-153688904D02*
X157473450Y-153593666D01*
X157473450Y-153593666D02*
X157521069Y-153450809D01*
X157521069Y-153450809D02*
X157521069Y-153212714D01*
X156616307Y-154165095D02*
X156568688Y-154212714D01*
X156568688Y-154212714D02*
X156521069Y-154307952D01*
X156521069Y-154307952D02*
X156521069Y-154546047D01*
X156521069Y-154546047D02*
X156568688Y-154641285D01*
X156568688Y-154641285D02*
X156616307Y-154688904D01*
X156616307Y-154688904D02*
X156711545Y-154736523D01*
X156711545Y-154736523D02*
X156806783Y-154736523D01*
X156806783Y-154736523D02*
X156949640Y-154688904D01*
X156949640Y-154688904D02*
X157521069Y-154117476D01*
X157521069Y-154117476D02*
X157521069Y-154736523D01*
X156521069Y-155069857D02*
X156521069Y-155688904D01*
X156521069Y-155688904D02*
X156902021Y-155355571D01*
X156902021Y-155355571D02*
X156902021Y-155498428D01*
X156902021Y-155498428D02*
X156949640Y-155593666D01*
X156949640Y-155593666D02*
X156997259Y-155641285D01*
X156997259Y-155641285D02*
X157092497Y-155688904D01*
X157092497Y-155688904D02*
X157330592Y-155688904D01*
X157330592Y-155688904D02*
X157425830Y-155641285D01*
X157425830Y-155641285D02*
X157473450Y-155593666D01*
X157473450Y-155593666D02*
X157521069Y-155498428D01*
X157521069Y-155498428D02*
X157521069Y-155212714D01*
X157521069Y-155212714D02*
X157473450Y-155117476D01*
X157473450Y-155117476D02*
X157425830Y-155069857D01*
X367071069Y-229412714D02*
X366071069Y-229412714D01*
X366071069Y-229412714D02*
X366071069Y-229650809D01*
X366071069Y-229650809D02*
X366118688Y-229793666D01*
X366118688Y-229793666D02*
X366213926Y-229888904D01*
X366213926Y-229888904D02*
X366309164Y-229936523D01*
X366309164Y-229936523D02*
X366499640Y-229984142D01*
X366499640Y-229984142D02*
X366642497Y-229984142D01*
X366642497Y-229984142D02*
X366832973Y-229936523D01*
X366832973Y-229936523D02*
X366928211Y-229888904D01*
X366928211Y-229888904D02*
X367023450Y-229793666D01*
X367023450Y-229793666D02*
X367071069Y-229650809D01*
X367071069Y-229650809D02*
X367071069Y-229412714D01*
X366499640Y-230555571D02*
X366452021Y-230460333D01*
X366452021Y-230460333D02*
X366404402Y-230412714D01*
X366404402Y-230412714D02*
X366309164Y-230365095D01*
X366309164Y-230365095D02*
X366261545Y-230365095D01*
X366261545Y-230365095D02*
X366166307Y-230412714D01*
X366166307Y-230412714D02*
X366118688Y-230460333D01*
X366118688Y-230460333D02*
X366071069Y-230555571D01*
X366071069Y-230555571D02*
X366071069Y-230746047D01*
X366071069Y-230746047D02*
X366118688Y-230841285D01*
X366118688Y-230841285D02*
X366166307Y-230888904D01*
X366166307Y-230888904D02*
X366261545Y-230936523D01*
X366261545Y-230936523D02*
X366309164Y-230936523D01*
X366309164Y-230936523D02*
X366404402Y-230888904D01*
X366404402Y-230888904D02*
X366452021Y-230841285D01*
X366452021Y-230841285D02*
X366499640Y-230746047D01*
X366499640Y-230746047D02*
X366499640Y-230555571D01*
X366499640Y-230555571D02*
X366547259Y-230460333D01*
X366547259Y-230460333D02*
X366594878Y-230412714D01*
X366594878Y-230412714D02*
X366690116Y-230365095D01*
X366690116Y-230365095D02*
X366880592Y-230365095D01*
X366880592Y-230365095D02*
X366975830Y-230412714D01*
X366975830Y-230412714D02*
X367023450Y-230460333D01*
X367023450Y-230460333D02*
X367071069Y-230555571D01*
X367071069Y-230555571D02*
X367071069Y-230746047D01*
X367071069Y-230746047D02*
X367023450Y-230841285D01*
X367023450Y-230841285D02*
X366975830Y-230888904D01*
X366975830Y-230888904D02*
X366880592Y-230936523D01*
X366880592Y-230936523D02*
X366690116Y-230936523D01*
X366690116Y-230936523D02*
X366594878Y-230888904D01*
X366594878Y-230888904D02*
X366547259Y-230841285D01*
X366547259Y-230841285D02*
X366499640Y-230746047D01*
X366499640Y-231507952D02*
X366452021Y-231412714D01*
X366452021Y-231412714D02*
X366404402Y-231365095D01*
X366404402Y-231365095D02*
X366309164Y-231317476D01*
X366309164Y-231317476D02*
X366261545Y-231317476D01*
X366261545Y-231317476D02*
X366166307Y-231365095D01*
X366166307Y-231365095D02*
X366118688Y-231412714D01*
X366118688Y-231412714D02*
X366071069Y-231507952D01*
X366071069Y-231507952D02*
X366071069Y-231698428D01*
X366071069Y-231698428D02*
X366118688Y-231793666D01*
X366118688Y-231793666D02*
X366166307Y-231841285D01*
X366166307Y-231841285D02*
X366261545Y-231888904D01*
X366261545Y-231888904D02*
X366309164Y-231888904D01*
X366309164Y-231888904D02*
X366404402Y-231841285D01*
X366404402Y-231841285D02*
X366452021Y-231793666D01*
X366452021Y-231793666D02*
X366499640Y-231698428D01*
X366499640Y-231698428D02*
X366499640Y-231507952D01*
X366499640Y-231507952D02*
X366547259Y-231412714D01*
X366547259Y-231412714D02*
X366594878Y-231365095D01*
X366594878Y-231365095D02*
X366690116Y-231317476D01*
X366690116Y-231317476D02*
X366880592Y-231317476D01*
X366880592Y-231317476D02*
X366975830Y-231365095D01*
X366975830Y-231365095D02*
X367023450Y-231412714D01*
X367023450Y-231412714D02*
X367071069Y-231507952D01*
X367071069Y-231507952D02*
X367071069Y-231698428D01*
X367071069Y-231698428D02*
X367023450Y-231793666D01*
X367023450Y-231793666D02*
X366975830Y-231841285D01*
X366975830Y-231841285D02*
X366880592Y-231888904D01*
X366880592Y-231888904D02*
X366690116Y-231888904D01*
X366690116Y-231888904D02*
X366594878Y-231841285D01*
X366594878Y-231841285D02*
X366547259Y-231793666D01*
X366547259Y-231793666D02*
X366499640Y-231698428D01*
X271821069Y-153212714D02*
X270821069Y-153212714D01*
X270821069Y-153212714D02*
X270821069Y-153450809D01*
X270821069Y-153450809D02*
X270868688Y-153593666D01*
X270868688Y-153593666D02*
X270963926Y-153688904D01*
X270963926Y-153688904D02*
X271059164Y-153736523D01*
X271059164Y-153736523D02*
X271249640Y-153784142D01*
X271249640Y-153784142D02*
X271392497Y-153784142D01*
X271392497Y-153784142D02*
X271582973Y-153736523D01*
X271582973Y-153736523D02*
X271678211Y-153688904D01*
X271678211Y-153688904D02*
X271773450Y-153593666D01*
X271773450Y-153593666D02*
X271821069Y-153450809D01*
X271821069Y-153450809D02*
X271821069Y-153212714D01*
X270916307Y-154165095D02*
X270868688Y-154212714D01*
X270868688Y-154212714D02*
X270821069Y-154307952D01*
X270821069Y-154307952D02*
X270821069Y-154546047D01*
X270821069Y-154546047D02*
X270868688Y-154641285D01*
X270868688Y-154641285D02*
X270916307Y-154688904D01*
X270916307Y-154688904D02*
X271011545Y-154736523D01*
X271011545Y-154736523D02*
X271106783Y-154736523D01*
X271106783Y-154736523D02*
X271249640Y-154688904D01*
X271249640Y-154688904D02*
X271821069Y-154117476D01*
X271821069Y-154117476D02*
X271821069Y-154736523D01*
X271821069Y-155212714D02*
X271821069Y-155403190D01*
X271821069Y-155403190D02*
X271773450Y-155498428D01*
X271773450Y-155498428D02*
X271725830Y-155546047D01*
X271725830Y-155546047D02*
X271582973Y-155641285D01*
X271582973Y-155641285D02*
X271392497Y-155688904D01*
X271392497Y-155688904D02*
X271011545Y-155688904D01*
X271011545Y-155688904D02*
X270916307Y-155641285D01*
X270916307Y-155641285D02*
X270868688Y-155593666D01*
X270868688Y-155593666D02*
X270821069Y-155498428D01*
X270821069Y-155498428D02*
X270821069Y-155307952D01*
X270821069Y-155307952D02*
X270868688Y-155212714D01*
X270868688Y-155212714D02*
X270916307Y-155165095D01*
X270916307Y-155165095D02*
X271011545Y-155117476D01*
X271011545Y-155117476D02*
X271249640Y-155117476D01*
X271249640Y-155117476D02*
X271344878Y-155165095D01*
X271344878Y-155165095D02*
X271392497Y-155212714D01*
X271392497Y-155212714D02*
X271440116Y-155307952D01*
X271440116Y-155307952D02*
X271440116Y-155498428D01*
X271440116Y-155498428D02*
X271392497Y-155593666D01*
X271392497Y-155593666D02*
X271344878Y-155641285D01*
X271344878Y-155641285D02*
X271249640Y-155688904D01*
X195621069Y-153212714D02*
X194621069Y-153212714D01*
X194621069Y-153212714D02*
X194621069Y-153450809D01*
X194621069Y-153450809D02*
X194668688Y-153593666D01*
X194668688Y-153593666D02*
X194763926Y-153688904D01*
X194763926Y-153688904D02*
X194859164Y-153736523D01*
X194859164Y-153736523D02*
X195049640Y-153784142D01*
X195049640Y-153784142D02*
X195192497Y-153784142D01*
X195192497Y-153784142D02*
X195382973Y-153736523D01*
X195382973Y-153736523D02*
X195478211Y-153688904D01*
X195478211Y-153688904D02*
X195573450Y-153593666D01*
X195573450Y-153593666D02*
X195621069Y-153450809D01*
X195621069Y-153450809D02*
X195621069Y-153212714D01*
X194716307Y-154165095D02*
X194668688Y-154212714D01*
X194668688Y-154212714D02*
X194621069Y-154307952D01*
X194621069Y-154307952D02*
X194621069Y-154546047D01*
X194621069Y-154546047D02*
X194668688Y-154641285D01*
X194668688Y-154641285D02*
X194716307Y-154688904D01*
X194716307Y-154688904D02*
X194811545Y-154736523D01*
X194811545Y-154736523D02*
X194906783Y-154736523D01*
X194906783Y-154736523D02*
X195049640Y-154688904D01*
X195049640Y-154688904D02*
X195621069Y-154117476D01*
X195621069Y-154117476D02*
X195621069Y-154736523D01*
X194621069Y-155641285D02*
X194621069Y-155165095D01*
X194621069Y-155165095D02*
X195097259Y-155117476D01*
X195097259Y-155117476D02*
X195049640Y-155165095D01*
X195049640Y-155165095D02*
X195002021Y-155260333D01*
X195002021Y-155260333D02*
X195002021Y-155498428D01*
X195002021Y-155498428D02*
X195049640Y-155593666D01*
X195049640Y-155593666D02*
X195097259Y-155641285D01*
X195097259Y-155641285D02*
X195192497Y-155688904D01*
X195192497Y-155688904D02*
X195430592Y-155688904D01*
X195430592Y-155688904D02*
X195525830Y-155641285D01*
X195525830Y-155641285D02*
X195573450Y-155593666D01*
X195573450Y-155593666D02*
X195621069Y-155498428D01*
X195621069Y-155498428D02*
X195621069Y-155260333D01*
X195621069Y-155260333D02*
X195573450Y-155165095D01*
X195573450Y-155165095D02*
X195525830Y-155117476D01*
X231622535Y-124719819D02*
X231622535Y-123719819D01*
X231622535Y-123719819D02*
X231384440Y-123719819D01*
X231384440Y-123719819D02*
X231241583Y-123767438D01*
X231241583Y-123767438D02*
X231146345Y-123862676D01*
X231146345Y-123862676D02*
X231098726Y-123957914D01*
X231098726Y-123957914D02*
X231051107Y-124148390D01*
X231051107Y-124148390D02*
X231051107Y-124291247D01*
X231051107Y-124291247D02*
X231098726Y-124481723D01*
X231098726Y-124481723D02*
X231146345Y-124576961D01*
X231146345Y-124576961D02*
X231241583Y-124672200D01*
X231241583Y-124672200D02*
X231384440Y-124719819D01*
X231384440Y-124719819D02*
X231622535Y-124719819D01*
X230098726Y-124719819D02*
X230670154Y-124719819D01*
X230384440Y-124719819D02*
X230384440Y-123719819D01*
X230384440Y-123719819D02*
X230479678Y-123862676D01*
X230479678Y-123862676D02*
X230574916Y-123957914D01*
X230574916Y-123957914D02*
X230670154Y-124005533D01*
X229479678Y-123719819D02*
X229384440Y-123719819D01*
X229384440Y-123719819D02*
X229289202Y-123767438D01*
X229289202Y-123767438D02*
X229241583Y-123815057D01*
X229241583Y-123815057D02*
X229193964Y-123910295D01*
X229193964Y-123910295D02*
X229146345Y-124100771D01*
X229146345Y-124100771D02*
X229146345Y-124338866D01*
X229146345Y-124338866D02*
X229193964Y-124529342D01*
X229193964Y-124529342D02*
X229241583Y-124624580D01*
X229241583Y-124624580D02*
X229289202Y-124672200D01*
X229289202Y-124672200D02*
X229384440Y-124719819D01*
X229384440Y-124719819D02*
X229479678Y-124719819D01*
X229479678Y-124719819D02*
X229574916Y-124672200D01*
X229574916Y-124672200D02*
X229622535Y-124624580D01*
X229622535Y-124624580D02*
X229670154Y-124529342D01*
X229670154Y-124529342D02*
X229717773Y-124338866D01*
X229717773Y-124338866D02*
X229717773Y-124100771D01*
X229717773Y-124100771D02*
X229670154Y-123910295D01*
X229670154Y-123910295D02*
X229622535Y-123815057D01*
X229622535Y-123815057D02*
X229574916Y-123767438D01*
X229574916Y-123767438D02*
X229479678Y-123719819D01*
X200383569Y-210362714D02*
X199383569Y-210362714D01*
X199383569Y-210362714D02*
X199383569Y-210600809D01*
X199383569Y-210600809D02*
X199431188Y-210743666D01*
X199431188Y-210743666D02*
X199526426Y-210838904D01*
X199526426Y-210838904D02*
X199621664Y-210886523D01*
X199621664Y-210886523D02*
X199812140Y-210934142D01*
X199812140Y-210934142D02*
X199954997Y-210934142D01*
X199954997Y-210934142D02*
X200145473Y-210886523D01*
X200145473Y-210886523D02*
X200240711Y-210838904D01*
X200240711Y-210838904D02*
X200335950Y-210743666D01*
X200335950Y-210743666D02*
X200383569Y-210600809D01*
X200383569Y-210600809D02*
X200383569Y-210362714D01*
X199383569Y-211267476D02*
X199383569Y-211934142D01*
X199383569Y-211934142D02*
X200383569Y-211505571D01*
X200383569Y-212838904D02*
X200383569Y-212267476D01*
X200383569Y-212553190D02*
X199383569Y-212553190D01*
X199383569Y-212553190D02*
X199526426Y-212457952D01*
X199526426Y-212457952D02*
X199621664Y-212362714D01*
X199621664Y-212362714D02*
X199669283Y-212267476D01*
X190858569Y-191312714D02*
X189858569Y-191312714D01*
X189858569Y-191312714D02*
X189858569Y-191550809D01*
X189858569Y-191550809D02*
X189906188Y-191693666D01*
X189906188Y-191693666D02*
X190001426Y-191788904D01*
X190001426Y-191788904D02*
X190096664Y-191836523D01*
X190096664Y-191836523D02*
X190287140Y-191884142D01*
X190287140Y-191884142D02*
X190429997Y-191884142D01*
X190429997Y-191884142D02*
X190620473Y-191836523D01*
X190620473Y-191836523D02*
X190715711Y-191788904D01*
X190715711Y-191788904D02*
X190810950Y-191693666D01*
X190810950Y-191693666D02*
X190858569Y-191550809D01*
X190858569Y-191550809D02*
X190858569Y-191312714D01*
X189858569Y-192788904D02*
X189858569Y-192312714D01*
X189858569Y-192312714D02*
X190334759Y-192265095D01*
X190334759Y-192265095D02*
X190287140Y-192312714D01*
X190287140Y-192312714D02*
X190239521Y-192407952D01*
X190239521Y-192407952D02*
X190239521Y-192646047D01*
X190239521Y-192646047D02*
X190287140Y-192741285D01*
X190287140Y-192741285D02*
X190334759Y-192788904D01*
X190334759Y-192788904D02*
X190429997Y-192836523D01*
X190429997Y-192836523D02*
X190668092Y-192836523D01*
X190668092Y-192836523D02*
X190763330Y-192788904D01*
X190763330Y-192788904D02*
X190810950Y-192741285D01*
X190810950Y-192741285D02*
X190858569Y-192646047D01*
X190858569Y-192646047D02*
X190858569Y-192407952D01*
X190858569Y-192407952D02*
X190810950Y-192312714D01*
X190810950Y-192312714D02*
X190763330Y-192265095D01*
X189858569Y-193693666D02*
X189858569Y-193503190D01*
X189858569Y-193503190D02*
X189906188Y-193407952D01*
X189906188Y-193407952D02*
X189953807Y-193360333D01*
X189953807Y-193360333D02*
X190096664Y-193265095D01*
X190096664Y-193265095D02*
X190287140Y-193217476D01*
X190287140Y-193217476D02*
X190668092Y-193217476D01*
X190668092Y-193217476D02*
X190763330Y-193265095D01*
X190763330Y-193265095D02*
X190810950Y-193312714D01*
X190810950Y-193312714D02*
X190858569Y-193407952D01*
X190858569Y-193407952D02*
X190858569Y-193598428D01*
X190858569Y-193598428D02*
X190810950Y-193693666D01*
X190810950Y-193693666D02*
X190763330Y-193741285D01*
X190763330Y-193741285D02*
X190668092Y-193788904D01*
X190668092Y-193788904D02*
X190429997Y-193788904D01*
X190429997Y-193788904D02*
X190334759Y-193741285D01*
X190334759Y-193741285D02*
X190287140Y-193693666D01*
X190287140Y-193693666D02*
X190239521Y-193598428D01*
X190239521Y-193598428D02*
X190239521Y-193407952D01*
X190239521Y-193407952D02*
X190287140Y-193312714D01*
X190287140Y-193312714D02*
X190334759Y-193265095D01*
X190334759Y-193265095D02*
X190429997Y-193217476D01*
X119421069Y-229412714D02*
X118421069Y-229412714D01*
X118421069Y-229412714D02*
X118421069Y-229650809D01*
X118421069Y-229650809D02*
X118468688Y-229793666D01*
X118468688Y-229793666D02*
X118563926Y-229888904D01*
X118563926Y-229888904D02*
X118659164Y-229936523D01*
X118659164Y-229936523D02*
X118849640Y-229984142D01*
X118849640Y-229984142D02*
X118992497Y-229984142D01*
X118992497Y-229984142D02*
X119182973Y-229936523D01*
X119182973Y-229936523D02*
X119278211Y-229888904D01*
X119278211Y-229888904D02*
X119373450Y-229793666D01*
X119373450Y-229793666D02*
X119421069Y-229650809D01*
X119421069Y-229650809D02*
X119421069Y-229412714D01*
X118849640Y-230555571D02*
X118802021Y-230460333D01*
X118802021Y-230460333D02*
X118754402Y-230412714D01*
X118754402Y-230412714D02*
X118659164Y-230365095D01*
X118659164Y-230365095D02*
X118611545Y-230365095D01*
X118611545Y-230365095D02*
X118516307Y-230412714D01*
X118516307Y-230412714D02*
X118468688Y-230460333D01*
X118468688Y-230460333D02*
X118421069Y-230555571D01*
X118421069Y-230555571D02*
X118421069Y-230746047D01*
X118421069Y-230746047D02*
X118468688Y-230841285D01*
X118468688Y-230841285D02*
X118516307Y-230888904D01*
X118516307Y-230888904D02*
X118611545Y-230936523D01*
X118611545Y-230936523D02*
X118659164Y-230936523D01*
X118659164Y-230936523D02*
X118754402Y-230888904D01*
X118754402Y-230888904D02*
X118802021Y-230841285D01*
X118802021Y-230841285D02*
X118849640Y-230746047D01*
X118849640Y-230746047D02*
X118849640Y-230555571D01*
X118849640Y-230555571D02*
X118897259Y-230460333D01*
X118897259Y-230460333D02*
X118944878Y-230412714D01*
X118944878Y-230412714D02*
X119040116Y-230365095D01*
X119040116Y-230365095D02*
X119230592Y-230365095D01*
X119230592Y-230365095D02*
X119325830Y-230412714D01*
X119325830Y-230412714D02*
X119373450Y-230460333D01*
X119373450Y-230460333D02*
X119421069Y-230555571D01*
X119421069Y-230555571D02*
X119421069Y-230746047D01*
X119421069Y-230746047D02*
X119373450Y-230841285D01*
X119373450Y-230841285D02*
X119325830Y-230888904D01*
X119325830Y-230888904D02*
X119230592Y-230936523D01*
X119230592Y-230936523D02*
X119040116Y-230936523D01*
X119040116Y-230936523D02*
X118944878Y-230888904D01*
X118944878Y-230888904D02*
X118897259Y-230841285D01*
X118897259Y-230841285D02*
X118849640Y-230746047D01*
X119421069Y-231888904D02*
X119421069Y-231317476D01*
X119421069Y-231603190D02*
X118421069Y-231603190D01*
X118421069Y-231603190D02*
X118563926Y-231507952D01*
X118563926Y-231507952D02*
X118659164Y-231412714D01*
X118659164Y-231412714D02*
X118706783Y-231317476D01*
X95608569Y-191312714D02*
X94608569Y-191312714D01*
X94608569Y-191312714D02*
X94608569Y-191550809D01*
X94608569Y-191550809D02*
X94656188Y-191693666D01*
X94656188Y-191693666D02*
X94751426Y-191788904D01*
X94751426Y-191788904D02*
X94846664Y-191836523D01*
X94846664Y-191836523D02*
X95037140Y-191884142D01*
X95037140Y-191884142D02*
X95179997Y-191884142D01*
X95179997Y-191884142D02*
X95370473Y-191836523D01*
X95370473Y-191836523D02*
X95465711Y-191788904D01*
X95465711Y-191788904D02*
X95560950Y-191693666D01*
X95560950Y-191693666D02*
X95608569Y-191550809D01*
X95608569Y-191550809D02*
X95608569Y-191312714D01*
X94608569Y-192788904D02*
X94608569Y-192312714D01*
X94608569Y-192312714D02*
X95084759Y-192265095D01*
X95084759Y-192265095D02*
X95037140Y-192312714D01*
X95037140Y-192312714D02*
X94989521Y-192407952D01*
X94989521Y-192407952D02*
X94989521Y-192646047D01*
X94989521Y-192646047D02*
X95037140Y-192741285D01*
X95037140Y-192741285D02*
X95084759Y-192788904D01*
X95084759Y-192788904D02*
X95179997Y-192836523D01*
X95179997Y-192836523D02*
X95418092Y-192836523D01*
X95418092Y-192836523D02*
X95513330Y-192788904D01*
X95513330Y-192788904D02*
X95560950Y-192741285D01*
X95560950Y-192741285D02*
X95608569Y-192646047D01*
X95608569Y-192646047D02*
X95608569Y-192407952D01*
X95608569Y-192407952D02*
X95560950Y-192312714D01*
X95560950Y-192312714D02*
X95513330Y-192265095D01*
X95608569Y-193788904D02*
X95608569Y-193217476D01*
X95608569Y-193503190D02*
X94608569Y-193503190D01*
X94608569Y-193503190D02*
X94751426Y-193407952D01*
X94751426Y-193407952D02*
X94846664Y-193312714D01*
X94846664Y-193312714D02*
X94894283Y-193217476D01*
X326872535Y-124719819D02*
X326872535Y-123719819D01*
X326872535Y-123719819D02*
X326634440Y-123719819D01*
X326634440Y-123719819D02*
X326491583Y-123767438D01*
X326491583Y-123767438D02*
X326396345Y-123862676D01*
X326396345Y-123862676D02*
X326348726Y-123957914D01*
X326348726Y-123957914D02*
X326301107Y-124148390D01*
X326301107Y-124148390D02*
X326301107Y-124291247D01*
X326301107Y-124291247D02*
X326348726Y-124481723D01*
X326348726Y-124481723D02*
X326396345Y-124576961D01*
X326396345Y-124576961D02*
X326491583Y-124672200D01*
X326491583Y-124672200D02*
X326634440Y-124719819D01*
X326634440Y-124719819D02*
X326872535Y-124719819D01*
X325348726Y-124719819D02*
X325920154Y-124719819D01*
X325634440Y-124719819D02*
X325634440Y-123719819D01*
X325634440Y-123719819D02*
X325729678Y-123862676D01*
X325729678Y-123862676D02*
X325824916Y-123957914D01*
X325824916Y-123957914D02*
X325920154Y-124005533D01*
X324443964Y-123719819D02*
X324920154Y-123719819D01*
X324920154Y-123719819D02*
X324967773Y-124196009D01*
X324967773Y-124196009D02*
X324920154Y-124148390D01*
X324920154Y-124148390D02*
X324824916Y-124100771D01*
X324824916Y-124100771D02*
X324586821Y-124100771D01*
X324586821Y-124100771D02*
X324491583Y-124148390D01*
X324491583Y-124148390D02*
X324443964Y-124196009D01*
X324443964Y-124196009D02*
X324396345Y-124291247D01*
X324396345Y-124291247D02*
X324396345Y-124529342D01*
X324396345Y-124529342D02*
X324443964Y-124624580D01*
X324443964Y-124624580D02*
X324491583Y-124672200D01*
X324491583Y-124672200D02*
X324586821Y-124719819D01*
X324586821Y-124719819D02*
X324824916Y-124719819D01*
X324824916Y-124719819D02*
X324920154Y-124672200D01*
X324920154Y-124672200D02*
X324967773Y-124624580D01*
X307822535Y-124719819D02*
X307822535Y-123719819D01*
X307822535Y-123719819D02*
X307584440Y-123719819D01*
X307584440Y-123719819D02*
X307441583Y-123767438D01*
X307441583Y-123767438D02*
X307346345Y-123862676D01*
X307346345Y-123862676D02*
X307298726Y-123957914D01*
X307298726Y-123957914D02*
X307251107Y-124148390D01*
X307251107Y-124148390D02*
X307251107Y-124291247D01*
X307251107Y-124291247D02*
X307298726Y-124481723D01*
X307298726Y-124481723D02*
X307346345Y-124576961D01*
X307346345Y-124576961D02*
X307441583Y-124672200D01*
X307441583Y-124672200D02*
X307584440Y-124719819D01*
X307584440Y-124719819D02*
X307822535Y-124719819D01*
X306298726Y-124719819D02*
X306870154Y-124719819D01*
X306584440Y-124719819D02*
X306584440Y-123719819D01*
X306584440Y-123719819D02*
X306679678Y-123862676D01*
X306679678Y-123862676D02*
X306774916Y-123957914D01*
X306774916Y-123957914D02*
X306870154Y-124005533D01*
X305441583Y-124053152D02*
X305441583Y-124719819D01*
X305679678Y-123672200D02*
X305917773Y-124386485D01*
X305917773Y-124386485D02*
X305298726Y-124386485D01*
X181333569Y-210362714D02*
X180333569Y-210362714D01*
X180333569Y-210362714D02*
X180333569Y-210600809D01*
X180333569Y-210600809D02*
X180381188Y-210743666D01*
X180381188Y-210743666D02*
X180476426Y-210838904D01*
X180476426Y-210838904D02*
X180571664Y-210886523D01*
X180571664Y-210886523D02*
X180762140Y-210934142D01*
X180762140Y-210934142D02*
X180904997Y-210934142D01*
X180904997Y-210934142D02*
X181095473Y-210886523D01*
X181095473Y-210886523D02*
X181190711Y-210838904D01*
X181190711Y-210838904D02*
X181285950Y-210743666D01*
X181285950Y-210743666D02*
X181333569Y-210600809D01*
X181333569Y-210600809D02*
X181333569Y-210362714D01*
X180333569Y-211267476D02*
X180333569Y-211934142D01*
X180333569Y-211934142D02*
X181333569Y-211505571D01*
X180333569Y-212505571D02*
X180333569Y-212600809D01*
X180333569Y-212600809D02*
X180381188Y-212696047D01*
X180381188Y-212696047D02*
X180428807Y-212743666D01*
X180428807Y-212743666D02*
X180524045Y-212791285D01*
X180524045Y-212791285D02*
X180714521Y-212838904D01*
X180714521Y-212838904D02*
X180952616Y-212838904D01*
X180952616Y-212838904D02*
X181143092Y-212791285D01*
X181143092Y-212791285D02*
X181238330Y-212743666D01*
X181238330Y-212743666D02*
X181285950Y-212696047D01*
X181285950Y-212696047D02*
X181333569Y-212600809D01*
X181333569Y-212600809D02*
X181333569Y-212505571D01*
X181333569Y-212505571D02*
X181285950Y-212410333D01*
X181285950Y-212410333D02*
X181238330Y-212362714D01*
X181238330Y-212362714D02*
X181143092Y-212315095D01*
X181143092Y-212315095D02*
X180952616Y-212267476D01*
X180952616Y-212267476D02*
X180714521Y-212267476D01*
X180714521Y-212267476D02*
X180524045Y-212315095D01*
X180524045Y-212315095D02*
X180428807Y-212362714D01*
X180428807Y-212362714D02*
X180381188Y-212410333D01*
X180381188Y-212410333D02*
X180333569Y-212505571D01*
X212096344Y-124719819D02*
X212096344Y-123719819D01*
X212096344Y-123719819D02*
X211858249Y-123719819D01*
X211858249Y-123719819D02*
X211715392Y-123767438D01*
X211715392Y-123767438D02*
X211620154Y-123862676D01*
X211620154Y-123862676D02*
X211572535Y-123957914D01*
X211572535Y-123957914D02*
X211524916Y-124148390D01*
X211524916Y-124148390D02*
X211524916Y-124291247D01*
X211524916Y-124291247D02*
X211572535Y-124481723D01*
X211572535Y-124481723D02*
X211620154Y-124576961D01*
X211620154Y-124576961D02*
X211715392Y-124672200D01*
X211715392Y-124672200D02*
X211858249Y-124719819D01*
X211858249Y-124719819D02*
X212096344Y-124719819D01*
X211048725Y-124719819D02*
X210858249Y-124719819D01*
X210858249Y-124719819D02*
X210763011Y-124672200D01*
X210763011Y-124672200D02*
X210715392Y-124624580D01*
X210715392Y-124624580D02*
X210620154Y-124481723D01*
X210620154Y-124481723D02*
X210572535Y-124291247D01*
X210572535Y-124291247D02*
X210572535Y-123910295D01*
X210572535Y-123910295D02*
X210620154Y-123815057D01*
X210620154Y-123815057D02*
X210667773Y-123767438D01*
X210667773Y-123767438D02*
X210763011Y-123719819D01*
X210763011Y-123719819D02*
X210953487Y-123719819D01*
X210953487Y-123719819D02*
X211048725Y-123767438D01*
X211048725Y-123767438D02*
X211096344Y-123815057D01*
X211096344Y-123815057D02*
X211143963Y-123910295D01*
X211143963Y-123910295D02*
X211143963Y-124148390D01*
X211143963Y-124148390D02*
X211096344Y-124243628D01*
X211096344Y-124243628D02*
X211048725Y-124291247D01*
X211048725Y-124291247D02*
X210953487Y-124338866D01*
X210953487Y-124338866D02*
X210763011Y-124338866D01*
X210763011Y-124338866D02*
X210667773Y-124291247D01*
X210667773Y-124291247D02*
X210620154Y-124243628D01*
X210620154Y-124243628D02*
X210572535Y-124148390D01*
X228958569Y-191312714D02*
X227958569Y-191312714D01*
X227958569Y-191312714D02*
X227958569Y-191550809D01*
X227958569Y-191550809D02*
X228006188Y-191693666D01*
X228006188Y-191693666D02*
X228101426Y-191788904D01*
X228101426Y-191788904D02*
X228196664Y-191836523D01*
X228196664Y-191836523D02*
X228387140Y-191884142D01*
X228387140Y-191884142D02*
X228529997Y-191884142D01*
X228529997Y-191884142D02*
X228720473Y-191836523D01*
X228720473Y-191836523D02*
X228815711Y-191788904D01*
X228815711Y-191788904D02*
X228910950Y-191693666D01*
X228910950Y-191693666D02*
X228958569Y-191550809D01*
X228958569Y-191550809D02*
X228958569Y-191312714D01*
X227958569Y-192788904D02*
X227958569Y-192312714D01*
X227958569Y-192312714D02*
X228434759Y-192265095D01*
X228434759Y-192265095D02*
X228387140Y-192312714D01*
X228387140Y-192312714D02*
X228339521Y-192407952D01*
X228339521Y-192407952D02*
X228339521Y-192646047D01*
X228339521Y-192646047D02*
X228387140Y-192741285D01*
X228387140Y-192741285D02*
X228434759Y-192788904D01*
X228434759Y-192788904D02*
X228529997Y-192836523D01*
X228529997Y-192836523D02*
X228768092Y-192836523D01*
X228768092Y-192836523D02*
X228863330Y-192788904D01*
X228863330Y-192788904D02*
X228910950Y-192741285D01*
X228910950Y-192741285D02*
X228958569Y-192646047D01*
X228958569Y-192646047D02*
X228958569Y-192407952D01*
X228958569Y-192407952D02*
X228910950Y-192312714D01*
X228910950Y-192312714D02*
X228863330Y-192265095D01*
X228387140Y-193407952D02*
X228339521Y-193312714D01*
X228339521Y-193312714D02*
X228291902Y-193265095D01*
X228291902Y-193265095D02*
X228196664Y-193217476D01*
X228196664Y-193217476D02*
X228149045Y-193217476D01*
X228149045Y-193217476D02*
X228053807Y-193265095D01*
X228053807Y-193265095D02*
X228006188Y-193312714D01*
X228006188Y-193312714D02*
X227958569Y-193407952D01*
X227958569Y-193407952D02*
X227958569Y-193598428D01*
X227958569Y-193598428D02*
X228006188Y-193693666D01*
X228006188Y-193693666D02*
X228053807Y-193741285D01*
X228053807Y-193741285D02*
X228149045Y-193788904D01*
X228149045Y-193788904D02*
X228196664Y-193788904D01*
X228196664Y-193788904D02*
X228291902Y-193741285D01*
X228291902Y-193741285D02*
X228339521Y-193693666D01*
X228339521Y-193693666D02*
X228387140Y-193598428D01*
X228387140Y-193598428D02*
X228387140Y-193407952D01*
X228387140Y-193407952D02*
X228434759Y-193312714D01*
X228434759Y-193312714D02*
X228482378Y-193265095D01*
X228482378Y-193265095D02*
X228577616Y-193217476D01*
X228577616Y-193217476D02*
X228768092Y-193217476D01*
X228768092Y-193217476D02*
X228863330Y-193265095D01*
X228863330Y-193265095D02*
X228910950Y-193312714D01*
X228910950Y-193312714D02*
X228958569Y-193407952D01*
X228958569Y-193407952D02*
X228958569Y-193598428D01*
X228958569Y-193598428D02*
X228910950Y-193693666D01*
X228910950Y-193693666D02*
X228863330Y-193741285D01*
X228863330Y-193741285D02*
X228768092Y-193788904D01*
X228768092Y-193788904D02*
X228577616Y-193788904D01*
X228577616Y-193788904D02*
X228482378Y-193741285D01*
X228482378Y-193741285D02*
X228434759Y-193693666D01*
X228434759Y-193693666D02*
X228387140Y-193598428D01*
X348021069Y-191312714D02*
X347021069Y-191312714D01*
X347021069Y-191312714D02*
X347021069Y-191550809D01*
X347021069Y-191550809D02*
X347068688Y-191693666D01*
X347068688Y-191693666D02*
X347163926Y-191788904D01*
X347163926Y-191788904D02*
X347259164Y-191836523D01*
X347259164Y-191836523D02*
X347449640Y-191884142D01*
X347449640Y-191884142D02*
X347592497Y-191884142D01*
X347592497Y-191884142D02*
X347782973Y-191836523D01*
X347782973Y-191836523D02*
X347878211Y-191788904D01*
X347878211Y-191788904D02*
X347973450Y-191693666D01*
X347973450Y-191693666D02*
X348021069Y-191550809D01*
X348021069Y-191550809D02*
X348021069Y-191312714D01*
X347021069Y-192741285D02*
X347021069Y-192550809D01*
X347021069Y-192550809D02*
X347068688Y-192455571D01*
X347068688Y-192455571D02*
X347116307Y-192407952D01*
X347116307Y-192407952D02*
X347259164Y-192312714D01*
X347259164Y-192312714D02*
X347449640Y-192265095D01*
X347449640Y-192265095D02*
X347830592Y-192265095D01*
X347830592Y-192265095D02*
X347925830Y-192312714D01*
X347925830Y-192312714D02*
X347973450Y-192360333D01*
X347973450Y-192360333D02*
X348021069Y-192455571D01*
X348021069Y-192455571D02*
X348021069Y-192646047D01*
X348021069Y-192646047D02*
X347973450Y-192741285D01*
X347973450Y-192741285D02*
X347925830Y-192788904D01*
X347925830Y-192788904D02*
X347830592Y-192836523D01*
X347830592Y-192836523D02*
X347592497Y-192836523D01*
X347592497Y-192836523D02*
X347497259Y-192788904D01*
X347497259Y-192788904D02*
X347449640Y-192741285D01*
X347449640Y-192741285D02*
X347402021Y-192646047D01*
X347402021Y-192646047D02*
X347402021Y-192455571D01*
X347402021Y-192455571D02*
X347449640Y-192360333D01*
X347449640Y-192360333D02*
X347497259Y-192312714D01*
X347497259Y-192312714D02*
X347592497Y-192265095D01*
X347021069Y-193169857D02*
X347021069Y-193788904D01*
X347021069Y-193788904D02*
X347402021Y-193455571D01*
X347402021Y-193455571D02*
X347402021Y-193598428D01*
X347402021Y-193598428D02*
X347449640Y-193693666D01*
X347449640Y-193693666D02*
X347497259Y-193741285D01*
X347497259Y-193741285D02*
X347592497Y-193788904D01*
X347592497Y-193788904D02*
X347830592Y-193788904D01*
X347830592Y-193788904D02*
X347925830Y-193741285D01*
X347925830Y-193741285D02*
X347973450Y-193693666D01*
X347973450Y-193693666D02*
X348021069Y-193598428D01*
X348021069Y-193598428D02*
X348021069Y-193312714D01*
X348021069Y-193312714D02*
X347973450Y-193217476D01*
X347973450Y-193217476D02*
X347925830Y-193169857D01*
X167046069Y-172262714D02*
X166046069Y-172262714D01*
X166046069Y-172262714D02*
X166046069Y-172500809D01*
X166046069Y-172500809D02*
X166093688Y-172643666D01*
X166093688Y-172643666D02*
X166188926Y-172738904D01*
X166188926Y-172738904D02*
X166284164Y-172786523D01*
X166284164Y-172786523D02*
X166474640Y-172834142D01*
X166474640Y-172834142D02*
X166617497Y-172834142D01*
X166617497Y-172834142D02*
X166807973Y-172786523D01*
X166807973Y-172786523D02*
X166903211Y-172738904D01*
X166903211Y-172738904D02*
X166998450Y-172643666D01*
X166998450Y-172643666D02*
X167046069Y-172500809D01*
X167046069Y-172500809D02*
X167046069Y-172262714D01*
X166046069Y-173167476D02*
X166046069Y-173786523D01*
X166046069Y-173786523D02*
X166427021Y-173453190D01*
X166427021Y-173453190D02*
X166427021Y-173596047D01*
X166427021Y-173596047D02*
X166474640Y-173691285D01*
X166474640Y-173691285D02*
X166522259Y-173738904D01*
X166522259Y-173738904D02*
X166617497Y-173786523D01*
X166617497Y-173786523D02*
X166855592Y-173786523D01*
X166855592Y-173786523D02*
X166950830Y-173738904D01*
X166950830Y-173738904D02*
X166998450Y-173691285D01*
X166998450Y-173691285D02*
X167046069Y-173596047D01*
X167046069Y-173596047D02*
X167046069Y-173310333D01*
X167046069Y-173310333D02*
X166998450Y-173215095D01*
X166998450Y-173215095D02*
X166950830Y-173167476D01*
X167046069Y-174262714D02*
X167046069Y-174453190D01*
X167046069Y-174453190D02*
X166998450Y-174548428D01*
X166998450Y-174548428D02*
X166950830Y-174596047D01*
X166950830Y-174596047D02*
X166807973Y-174691285D01*
X166807973Y-174691285D02*
X166617497Y-174738904D01*
X166617497Y-174738904D02*
X166236545Y-174738904D01*
X166236545Y-174738904D02*
X166141307Y-174691285D01*
X166141307Y-174691285D02*
X166093688Y-174643666D01*
X166093688Y-174643666D02*
X166046069Y-174548428D01*
X166046069Y-174548428D02*
X166046069Y-174357952D01*
X166046069Y-174357952D02*
X166093688Y-174262714D01*
X166093688Y-174262714D02*
X166141307Y-174215095D01*
X166141307Y-174215095D02*
X166236545Y-174167476D01*
X166236545Y-174167476D02*
X166474640Y-174167476D01*
X166474640Y-174167476D02*
X166569878Y-174215095D01*
X166569878Y-174215095D02*
X166617497Y-174262714D01*
X166617497Y-174262714D02*
X166665116Y-174357952D01*
X166665116Y-174357952D02*
X166665116Y-174548428D01*
X166665116Y-174548428D02*
X166617497Y-174643666D01*
X166617497Y-174643666D02*
X166569878Y-174691285D01*
X166569878Y-174691285D02*
X166474640Y-174738904D01*
X348021069Y-172262714D02*
X347021069Y-172262714D01*
X347021069Y-172262714D02*
X347021069Y-172500809D01*
X347021069Y-172500809D02*
X347068688Y-172643666D01*
X347068688Y-172643666D02*
X347163926Y-172738904D01*
X347163926Y-172738904D02*
X347259164Y-172786523D01*
X347259164Y-172786523D02*
X347449640Y-172834142D01*
X347449640Y-172834142D02*
X347592497Y-172834142D01*
X347592497Y-172834142D02*
X347782973Y-172786523D01*
X347782973Y-172786523D02*
X347878211Y-172738904D01*
X347878211Y-172738904D02*
X347973450Y-172643666D01*
X347973450Y-172643666D02*
X348021069Y-172500809D01*
X348021069Y-172500809D02*
X348021069Y-172262714D01*
X347354402Y-173691285D02*
X348021069Y-173691285D01*
X346973450Y-173453190D02*
X347687735Y-173215095D01*
X347687735Y-173215095D02*
X347687735Y-173834142D01*
X347449640Y-174357952D02*
X347402021Y-174262714D01*
X347402021Y-174262714D02*
X347354402Y-174215095D01*
X347354402Y-174215095D02*
X347259164Y-174167476D01*
X347259164Y-174167476D02*
X347211545Y-174167476D01*
X347211545Y-174167476D02*
X347116307Y-174215095D01*
X347116307Y-174215095D02*
X347068688Y-174262714D01*
X347068688Y-174262714D02*
X347021069Y-174357952D01*
X347021069Y-174357952D02*
X347021069Y-174548428D01*
X347021069Y-174548428D02*
X347068688Y-174643666D01*
X347068688Y-174643666D02*
X347116307Y-174691285D01*
X347116307Y-174691285D02*
X347211545Y-174738904D01*
X347211545Y-174738904D02*
X347259164Y-174738904D01*
X347259164Y-174738904D02*
X347354402Y-174691285D01*
X347354402Y-174691285D02*
X347402021Y-174643666D01*
X347402021Y-174643666D02*
X347449640Y-174548428D01*
X347449640Y-174548428D02*
X347449640Y-174357952D01*
X347449640Y-174357952D02*
X347497259Y-174262714D01*
X347497259Y-174262714D02*
X347544878Y-174215095D01*
X347544878Y-174215095D02*
X347640116Y-174167476D01*
X347640116Y-174167476D02*
X347830592Y-174167476D01*
X347830592Y-174167476D02*
X347925830Y-174215095D01*
X347925830Y-174215095D02*
X347973450Y-174262714D01*
X347973450Y-174262714D02*
X348021069Y-174357952D01*
X348021069Y-174357952D02*
X348021069Y-174548428D01*
X348021069Y-174548428D02*
X347973450Y-174643666D01*
X347973450Y-174643666D02*
X347925830Y-174691285D01*
X347925830Y-174691285D02*
X347830592Y-174738904D01*
X347830592Y-174738904D02*
X347640116Y-174738904D01*
X347640116Y-174738904D02*
X347544878Y-174691285D01*
X347544878Y-174691285D02*
X347497259Y-174643666D01*
X347497259Y-174643666D02*
X347449640Y-174548428D01*
X367071069Y-210362714D02*
X366071069Y-210362714D01*
X366071069Y-210362714D02*
X366071069Y-210600809D01*
X366071069Y-210600809D02*
X366118688Y-210743666D01*
X366118688Y-210743666D02*
X366213926Y-210838904D01*
X366213926Y-210838904D02*
X366309164Y-210886523D01*
X366309164Y-210886523D02*
X366499640Y-210934142D01*
X366499640Y-210934142D02*
X366642497Y-210934142D01*
X366642497Y-210934142D02*
X366832973Y-210886523D01*
X366832973Y-210886523D02*
X366928211Y-210838904D01*
X366928211Y-210838904D02*
X367023450Y-210743666D01*
X367023450Y-210743666D02*
X367071069Y-210600809D01*
X367071069Y-210600809D02*
X367071069Y-210362714D01*
X366071069Y-211267476D02*
X366071069Y-211934142D01*
X366071069Y-211934142D02*
X367071069Y-211505571D01*
X366499640Y-212457952D02*
X366452021Y-212362714D01*
X366452021Y-212362714D02*
X366404402Y-212315095D01*
X366404402Y-212315095D02*
X366309164Y-212267476D01*
X366309164Y-212267476D02*
X366261545Y-212267476D01*
X366261545Y-212267476D02*
X366166307Y-212315095D01*
X366166307Y-212315095D02*
X366118688Y-212362714D01*
X366118688Y-212362714D02*
X366071069Y-212457952D01*
X366071069Y-212457952D02*
X366071069Y-212648428D01*
X366071069Y-212648428D02*
X366118688Y-212743666D01*
X366118688Y-212743666D02*
X366166307Y-212791285D01*
X366166307Y-212791285D02*
X366261545Y-212838904D01*
X366261545Y-212838904D02*
X366309164Y-212838904D01*
X366309164Y-212838904D02*
X366404402Y-212791285D01*
X366404402Y-212791285D02*
X366452021Y-212743666D01*
X366452021Y-212743666D02*
X366499640Y-212648428D01*
X366499640Y-212648428D02*
X366499640Y-212457952D01*
X366499640Y-212457952D02*
X366547259Y-212362714D01*
X366547259Y-212362714D02*
X366594878Y-212315095D01*
X366594878Y-212315095D02*
X366690116Y-212267476D01*
X366690116Y-212267476D02*
X366880592Y-212267476D01*
X366880592Y-212267476D02*
X366975830Y-212315095D01*
X366975830Y-212315095D02*
X367023450Y-212362714D01*
X367023450Y-212362714D02*
X367071069Y-212457952D01*
X367071069Y-212457952D02*
X367071069Y-212648428D01*
X367071069Y-212648428D02*
X367023450Y-212743666D01*
X367023450Y-212743666D02*
X366975830Y-212791285D01*
X366975830Y-212791285D02*
X366880592Y-212838904D01*
X366880592Y-212838904D02*
X366690116Y-212838904D01*
X366690116Y-212838904D02*
X366594878Y-212791285D01*
X366594878Y-212791285D02*
X366547259Y-212743666D01*
X366547259Y-212743666D02*
X366499640Y-212648428D01*
X114658569Y-191312714D02*
X113658569Y-191312714D01*
X113658569Y-191312714D02*
X113658569Y-191550809D01*
X113658569Y-191550809D02*
X113706188Y-191693666D01*
X113706188Y-191693666D02*
X113801426Y-191788904D01*
X113801426Y-191788904D02*
X113896664Y-191836523D01*
X113896664Y-191836523D02*
X114087140Y-191884142D01*
X114087140Y-191884142D02*
X114229997Y-191884142D01*
X114229997Y-191884142D02*
X114420473Y-191836523D01*
X114420473Y-191836523D02*
X114515711Y-191788904D01*
X114515711Y-191788904D02*
X114610950Y-191693666D01*
X114610950Y-191693666D02*
X114658569Y-191550809D01*
X114658569Y-191550809D02*
X114658569Y-191312714D01*
X113658569Y-192788904D02*
X113658569Y-192312714D01*
X113658569Y-192312714D02*
X114134759Y-192265095D01*
X114134759Y-192265095D02*
X114087140Y-192312714D01*
X114087140Y-192312714D02*
X114039521Y-192407952D01*
X114039521Y-192407952D02*
X114039521Y-192646047D01*
X114039521Y-192646047D02*
X114087140Y-192741285D01*
X114087140Y-192741285D02*
X114134759Y-192788904D01*
X114134759Y-192788904D02*
X114229997Y-192836523D01*
X114229997Y-192836523D02*
X114468092Y-192836523D01*
X114468092Y-192836523D02*
X114563330Y-192788904D01*
X114563330Y-192788904D02*
X114610950Y-192741285D01*
X114610950Y-192741285D02*
X114658569Y-192646047D01*
X114658569Y-192646047D02*
X114658569Y-192407952D01*
X114658569Y-192407952D02*
X114610950Y-192312714D01*
X114610950Y-192312714D02*
X114563330Y-192265095D01*
X113753807Y-193217476D02*
X113706188Y-193265095D01*
X113706188Y-193265095D02*
X113658569Y-193360333D01*
X113658569Y-193360333D02*
X113658569Y-193598428D01*
X113658569Y-193598428D02*
X113706188Y-193693666D01*
X113706188Y-193693666D02*
X113753807Y-193741285D01*
X113753807Y-193741285D02*
X113849045Y-193788904D01*
X113849045Y-193788904D02*
X113944283Y-193788904D01*
X113944283Y-193788904D02*
X114087140Y-193741285D01*
X114087140Y-193741285D02*
X114658569Y-193169857D01*
X114658569Y-193169857D02*
X114658569Y-193788904D01*
X214671069Y-153212714D02*
X213671069Y-153212714D01*
X213671069Y-153212714D02*
X213671069Y-153450809D01*
X213671069Y-153450809D02*
X213718688Y-153593666D01*
X213718688Y-153593666D02*
X213813926Y-153688904D01*
X213813926Y-153688904D02*
X213909164Y-153736523D01*
X213909164Y-153736523D02*
X214099640Y-153784142D01*
X214099640Y-153784142D02*
X214242497Y-153784142D01*
X214242497Y-153784142D02*
X214432973Y-153736523D01*
X214432973Y-153736523D02*
X214528211Y-153688904D01*
X214528211Y-153688904D02*
X214623450Y-153593666D01*
X214623450Y-153593666D02*
X214671069Y-153450809D01*
X214671069Y-153450809D02*
X214671069Y-153212714D01*
X213766307Y-154165095D02*
X213718688Y-154212714D01*
X213718688Y-154212714D02*
X213671069Y-154307952D01*
X213671069Y-154307952D02*
X213671069Y-154546047D01*
X213671069Y-154546047D02*
X213718688Y-154641285D01*
X213718688Y-154641285D02*
X213766307Y-154688904D01*
X213766307Y-154688904D02*
X213861545Y-154736523D01*
X213861545Y-154736523D02*
X213956783Y-154736523D01*
X213956783Y-154736523D02*
X214099640Y-154688904D01*
X214099640Y-154688904D02*
X214671069Y-154117476D01*
X214671069Y-154117476D02*
X214671069Y-154736523D01*
X213671069Y-155593666D02*
X213671069Y-155403190D01*
X213671069Y-155403190D02*
X213718688Y-155307952D01*
X213718688Y-155307952D02*
X213766307Y-155260333D01*
X213766307Y-155260333D02*
X213909164Y-155165095D01*
X213909164Y-155165095D02*
X214099640Y-155117476D01*
X214099640Y-155117476D02*
X214480592Y-155117476D01*
X214480592Y-155117476D02*
X214575830Y-155165095D01*
X214575830Y-155165095D02*
X214623450Y-155212714D01*
X214623450Y-155212714D02*
X214671069Y-155307952D01*
X214671069Y-155307952D02*
X214671069Y-155498428D01*
X214671069Y-155498428D02*
X214623450Y-155593666D01*
X214623450Y-155593666D02*
X214575830Y-155641285D01*
X214575830Y-155641285D02*
X214480592Y-155688904D01*
X214480592Y-155688904D02*
X214242497Y-155688904D01*
X214242497Y-155688904D02*
X214147259Y-155641285D01*
X214147259Y-155641285D02*
X214099640Y-155593666D01*
X214099640Y-155593666D02*
X214052021Y-155498428D01*
X214052021Y-155498428D02*
X214052021Y-155307952D01*
X214052021Y-155307952D02*
X214099640Y-155212714D01*
X214099640Y-155212714D02*
X214147259Y-155165095D01*
X214147259Y-155165095D02*
X214242497Y-155117476D01*
X124183569Y-210362714D02*
X123183569Y-210362714D01*
X123183569Y-210362714D02*
X123183569Y-210600809D01*
X123183569Y-210600809D02*
X123231188Y-210743666D01*
X123231188Y-210743666D02*
X123326426Y-210838904D01*
X123326426Y-210838904D02*
X123421664Y-210886523D01*
X123421664Y-210886523D02*
X123612140Y-210934142D01*
X123612140Y-210934142D02*
X123754997Y-210934142D01*
X123754997Y-210934142D02*
X123945473Y-210886523D01*
X123945473Y-210886523D02*
X124040711Y-210838904D01*
X124040711Y-210838904D02*
X124135950Y-210743666D01*
X124135950Y-210743666D02*
X124183569Y-210600809D01*
X124183569Y-210600809D02*
X124183569Y-210362714D01*
X123183569Y-211791285D02*
X123183569Y-211600809D01*
X123183569Y-211600809D02*
X123231188Y-211505571D01*
X123231188Y-211505571D02*
X123278807Y-211457952D01*
X123278807Y-211457952D02*
X123421664Y-211362714D01*
X123421664Y-211362714D02*
X123612140Y-211315095D01*
X123612140Y-211315095D02*
X123993092Y-211315095D01*
X123993092Y-211315095D02*
X124088330Y-211362714D01*
X124088330Y-211362714D02*
X124135950Y-211410333D01*
X124135950Y-211410333D02*
X124183569Y-211505571D01*
X124183569Y-211505571D02*
X124183569Y-211696047D01*
X124183569Y-211696047D02*
X124135950Y-211791285D01*
X124135950Y-211791285D02*
X124088330Y-211838904D01*
X124088330Y-211838904D02*
X123993092Y-211886523D01*
X123993092Y-211886523D02*
X123754997Y-211886523D01*
X123754997Y-211886523D02*
X123659759Y-211838904D01*
X123659759Y-211838904D02*
X123612140Y-211791285D01*
X123612140Y-211791285D02*
X123564521Y-211696047D01*
X123564521Y-211696047D02*
X123564521Y-211505571D01*
X123564521Y-211505571D02*
X123612140Y-211410333D01*
X123612140Y-211410333D02*
X123659759Y-211362714D01*
X123659759Y-211362714D02*
X123754997Y-211315095D01*
X123183569Y-212219857D02*
X123183569Y-212886523D01*
X123183569Y-212886523D02*
X124183569Y-212457952D01*
X364972535Y-124719819D02*
X364972535Y-123719819D01*
X364972535Y-123719819D02*
X364734440Y-123719819D01*
X364734440Y-123719819D02*
X364591583Y-123767438D01*
X364591583Y-123767438D02*
X364496345Y-123862676D01*
X364496345Y-123862676D02*
X364448726Y-123957914D01*
X364448726Y-123957914D02*
X364401107Y-124148390D01*
X364401107Y-124148390D02*
X364401107Y-124291247D01*
X364401107Y-124291247D02*
X364448726Y-124481723D01*
X364448726Y-124481723D02*
X364496345Y-124576961D01*
X364496345Y-124576961D02*
X364591583Y-124672200D01*
X364591583Y-124672200D02*
X364734440Y-124719819D01*
X364734440Y-124719819D02*
X364972535Y-124719819D01*
X363448726Y-124719819D02*
X364020154Y-124719819D01*
X363734440Y-124719819D02*
X363734440Y-123719819D01*
X363734440Y-123719819D02*
X363829678Y-123862676D01*
X363829678Y-123862676D02*
X363924916Y-123957914D01*
X363924916Y-123957914D02*
X364020154Y-124005533D01*
X363115392Y-123719819D02*
X362448726Y-123719819D01*
X362448726Y-123719819D02*
X362877297Y-124719819D01*
X252771069Y-153212714D02*
X251771069Y-153212714D01*
X251771069Y-153212714D02*
X251771069Y-153450809D01*
X251771069Y-153450809D02*
X251818688Y-153593666D01*
X251818688Y-153593666D02*
X251913926Y-153688904D01*
X251913926Y-153688904D02*
X252009164Y-153736523D01*
X252009164Y-153736523D02*
X252199640Y-153784142D01*
X252199640Y-153784142D02*
X252342497Y-153784142D01*
X252342497Y-153784142D02*
X252532973Y-153736523D01*
X252532973Y-153736523D02*
X252628211Y-153688904D01*
X252628211Y-153688904D02*
X252723450Y-153593666D01*
X252723450Y-153593666D02*
X252771069Y-153450809D01*
X252771069Y-153450809D02*
X252771069Y-153212714D01*
X251866307Y-154165095D02*
X251818688Y-154212714D01*
X251818688Y-154212714D02*
X251771069Y-154307952D01*
X251771069Y-154307952D02*
X251771069Y-154546047D01*
X251771069Y-154546047D02*
X251818688Y-154641285D01*
X251818688Y-154641285D02*
X251866307Y-154688904D01*
X251866307Y-154688904D02*
X251961545Y-154736523D01*
X251961545Y-154736523D02*
X252056783Y-154736523D01*
X252056783Y-154736523D02*
X252199640Y-154688904D01*
X252199640Y-154688904D02*
X252771069Y-154117476D01*
X252771069Y-154117476D02*
X252771069Y-154736523D01*
X252199640Y-155307952D02*
X252152021Y-155212714D01*
X252152021Y-155212714D02*
X252104402Y-155165095D01*
X252104402Y-155165095D02*
X252009164Y-155117476D01*
X252009164Y-155117476D02*
X251961545Y-155117476D01*
X251961545Y-155117476D02*
X251866307Y-155165095D01*
X251866307Y-155165095D02*
X251818688Y-155212714D01*
X251818688Y-155212714D02*
X251771069Y-155307952D01*
X251771069Y-155307952D02*
X251771069Y-155498428D01*
X251771069Y-155498428D02*
X251818688Y-155593666D01*
X251818688Y-155593666D02*
X251866307Y-155641285D01*
X251866307Y-155641285D02*
X251961545Y-155688904D01*
X251961545Y-155688904D02*
X252009164Y-155688904D01*
X252009164Y-155688904D02*
X252104402Y-155641285D01*
X252104402Y-155641285D02*
X252152021Y-155593666D01*
X252152021Y-155593666D02*
X252199640Y-155498428D01*
X252199640Y-155498428D02*
X252199640Y-155307952D01*
X252199640Y-155307952D02*
X252247259Y-155212714D01*
X252247259Y-155212714D02*
X252294878Y-155165095D01*
X252294878Y-155165095D02*
X252390116Y-155117476D01*
X252390116Y-155117476D02*
X252580592Y-155117476D01*
X252580592Y-155117476D02*
X252675830Y-155165095D01*
X252675830Y-155165095D02*
X252723450Y-155212714D01*
X252723450Y-155212714D02*
X252771069Y-155307952D01*
X252771069Y-155307952D02*
X252771069Y-155498428D01*
X252771069Y-155498428D02*
X252723450Y-155593666D01*
X252723450Y-155593666D02*
X252675830Y-155641285D01*
X252675830Y-155641285D02*
X252580592Y-155688904D01*
X252580592Y-155688904D02*
X252390116Y-155688904D01*
X252390116Y-155688904D02*
X252294878Y-155641285D01*
X252294878Y-155641285D02*
X252247259Y-155593666D01*
X252247259Y-155593666D02*
X252199640Y-155498428D01*
X219433569Y-210362714D02*
X218433569Y-210362714D01*
X218433569Y-210362714D02*
X218433569Y-210600809D01*
X218433569Y-210600809D02*
X218481188Y-210743666D01*
X218481188Y-210743666D02*
X218576426Y-210838904D01*
X218576426Y-210838904D02*
X218671664Y-210886523D01*
X218671664Y-210886523D02*
X218862140Y-210934142D01*
X218862140Y-210934142D02*
X219004997Y-210934142D01*
X219004997Y-210934142D02*
X219195473Y-210886523D01*
X219195473Y-210886523D02*
X219290711Y-210838904D01*
X219290711Y-210838904D02*
X219385950Y-210743666D01*
X219385950Y-210743666D02*
X219433569Y-210600809D01*
X219433569Y-210600809D02*
X219433569Y-210362714D01*
X218433569Y-211267476D02*
X218433569Y-211934142D01*
X218433569Y-211934142D02*
X219433569Y-211505571D01*
X218528807Y-212267476D02*
X218481188Y-212315095D01*
X218481188Y-212315095D02*
X218433569Y-212410333D01*
X218433569Y-212410333D02*
X218433569Y-212648428D01*
X218433569Y-212648428D02*
X218481188Y-212743666D01*
X218481188Y-212743666D02*
X218528807Y-212791285D01*
X218528807Y-212791285D02*
X218624045Y-212838904D01*
X218624045Y-212838904D02*
X218719283Y-212838904D01*
X218719283Y-212838904D02*
X218862140Y-212791285D01*
X218862140Y-212791285D02*
X219433569Y-212219857D01*
X219433569Y-212219857D02*
X219433569Y-212838904D01*
X97796344Y-124719819D02*
X97796344Y-123719819D01*
X97796344Y-123719819D02*
X97558249Y-123719819D01*
X97558249Y-123719819D02*
X97415392Y-123767438D01*
X97415392Y-123767438D02*
X97320154Y-123862676D01*
X97320154Y-123862676D02*
X97272535Y-123957914D01*
X97272535Y-123957914D02*
X97224916Y-124148390D01*
X97224916Y-124148390D02*
X97224916Y-124291247D01*
X97224916Y-124291247D02*
X97272535Y-124481723D01*
X97272535Y-124481723D02*
X97320154Y-124576961D01*
X97320154Y-124576961D02*
X97415392Y-124672200D01*
X97415392Y-124672200D02*
X97558249Y-124719819D01*
X97558249Y-124719819D02*
X97796344Y-124719819D01*
X96891582Y-123719819D02*
X96272535Y-123719819D01*
X96272535Y-123719819D02*
X96605868Y-124100771D01*
X96605868Y-124100771D02*
X96463011Y-124100771D01*
X96463011Y-124100771D02*
X96367773Y-124148390D01*
X96367773Y-124148390D02*
X96320154Y-124196009D01*
X96320154Y-124196009D02*
X96272535Y-124291247D01*
X96272535Y-124291247D02*
X96272535Y-124529342D01*
X96272535Y-124529342D02*
X96320154Y-124624580D01*
X96320154Y-124624580D02*
X96367773Y-124672200D01*
X96367773Y-124672200D02*
X96463011Y-124719819D01*
X96463011Y-124719819D02*
X96748725Y-124719819D01*
X96748725Y-124719819D02*
X96843963Y-124672200D01*
X96843963Y-124672200D02*
X96891582Y-124624580D01*
X233721069Y-153212714D02*
X232721069Y-153212714D01*
X232721069Y-153212714D02*
X232721069Y-153450809D01*
X232721069Y-153450809D02*
X232768688Y-153593666D01*
X232768688Y-153593666D02*
X232863926Y-153688904D01*
X232863926Y-153688904D02*
X232959164Y-153736523D01*
X232959164Y-153736523D02*
X233149640Y-153784142D01*
X233149640Y-153784142D02*
X233292497Y-153784142D01*
X233292497Y-153784142D02*
X233482973Y-153736523D01*
X233482973Y-153736523D02*
X233578211Y-153688904D01*
X233578211Y-153688904D02*
X233673450Y-153593666D01*
X233673450Y-153593666D02*
X233721069Y-153450809D01*
X233721069Y-153450809D02*
X233721069Y-153212714D01*
X232816307Y-154165095D02*
X232768688Y-154212714D01*
X232768688Y-154212714D02*
X232721069Y-154307952D01*
X232721069Y-154307952D02*
X232721069Y-154546047D01*
X232721069Y-154546047D02*
X232768688Y-154641285D01*
X232768688Y-154641285D02*
X232816307Y-154688904D01*
X232816307Y-154688904D02*
X232911545Y-154736523D01*
X232911545Y-154736523D02*
X233006783Y-154736523D01*
X233006783Y-154736523D02*
X233149640Y-154688904D01*
X233149640Y-154688904D02*
X233721069Y-154117476D01*
X233721069Y-154117476D02*
X233721069Y-154736523D01*
X232721069Y-155069857D02*
X232721069Y-155736523D01*
X232721069Y-155736523D02*
X233721069Y-155307952D01*
X128946069Y-172262714D02*
X127946069Y-172262714D01*
X127946069Y-172262714D02*
X127946069Y-172500809D01*
X127946069Y-172500809D02*
X127993688Y-172643666D01*
X127993688Y-172643666D02*
X128088926Y-172738904D01*
X128088926Y-172738904D02*
X128184164Y-172786523D01*
X128184164Y-172786523D02*
X128374640Y-172834142D01*
X128374640Y-172834142D02*
X128517497Y-172834142D01*
X128517497Y-172834142D02*
X128707973Y-172786523D01*
X128707973Y-172786523D02*
X128803211Y-172738904D01*
X128803211Y-172738904D02*
X128898450Y-172643666D01*
X128898450Y-172643666D02*
X128946069Y-172500809D01*
X128946069Y-172500809D02*
X128946069Y-172262714D01*
X127946069Y-173167476D02*
X127946069Y-173786523D01*
X127946069Y-173786523D02*
X128327021Y-173453190D01*
X128327021Y-173453190D02*
X128327021Y-173596047D01*
X128327021Y-173596047D02*
X128374640Y-173691285D01*
X128374640Y-173691285D02*
X128422259Y-173738904D01*
X128422259Y-173738904D02*
X128517497Y-173786523D01*
X128517497Y-173786523D02*
X128755592Y-173786523D01*
X128755592Y-173786523D02*
X128850830Y-173738904D01*
X128850830Y-173738904D02*
X128898450Y-173691285D01*
X128898450Y-173691285D02*
X128946069Y-173596047D01*
X128946069Y-173596047D02*
X128946069Y-173310333D01*
X128946069Y-173310333D02*
X128898450Y-173215095D01*
X128898450Y-173215095D02*
X128850830Y-173167476D01*
X127946069Y-174119857D02*
X127946069Y-174786523D01*
X127946069Y-174786523D02*
X128946069Y-174357952D01*
X62271069Y-153212714D02*
X61271069Y-153212714D01*
X61271069Y-153212714D02*
X61271069Y-153450809D01*
X61271069Y-153450809D02*
X61318688Y-153593666D01*
X61318688Y-153593666D02*
X61413926Y-153688904D01*
X61413926Y-153688904D02*
X61509164Y-153736523D01*
X61509164Y-153736523D02*
X61699640Y-153784142D01*
X61699640Y-153784142D02*
X61842497Y-153784142D01*
X61842497Y-153784142D02*
X62032973Y-153736523D01*
X62032973Y-153736523D02*
X62128211Y-153688904D01*
X62128211Y-153688904D02*
X62223450Y-153593666D01*
X62223450Y-153593666D02*
X62271069Y-153450809D01*
X62271069Y-153450809D02*
X62271069Y-153212714D01*
X62271069Y-154736523D02*
X62271069Y-154165095D01*
X62271069Y-154450809D02*
X61271069Y-154450809D01*
X61271069Y-154450809D02*
X61413926Y-154355571D01*
X61413926Y-154355571D02*
X61509164Y-154260333D01*
X61509164Y-154260333D02*
X61556783Y-154165095D01*
X61699640Y-155307952D02*
X61652021Y-155212714D01*
X61652021Y-155212714D02*
X61604402Y-155165095D01*
X61604402Y-155165095D02*
X61509164Y-155117476D01*
X61509164Y-155117476D02*
X61461545Y-155117476D01*
X61461545Y-155117476D02*
X61366307Y-155165095D01*
X61366307Y-155165095D02*
X61318688Y-155212714D01*
X61318688Y-155212714D02*
X61271069Y-155307952D01*
X61271069Y-155307952D02*
X61271069Y-155498428D01*
X61271069Y-155498428D02*
X61318688Y-155593666D01*
X61318688Y-155593666D02*
X61366307Y-155641285D01*
X61366307Y-155641285D02*
X61461545Y-155688904D01*
X61461545Y-155688904D02*
X61509164Y-155688904D01*
X61509164Y-155688904D02*
X61604402Y-155641285D01*
X61604402Y-155641285D02*
X61652021Y-155593666D01*
X61652021Y-155593666D02*
X61699640Y-155498428D01*
X61699640Y-155498428D02*
X61699640Y-155307952D01*
X61699640Y-155307952D02*
X61747259Y-155212714D01*
X61747259Y-155212714D02*
X61794878Y-155165095D01*
X61794878Y-155165095D02*
X61890116Y-155117476D01*
X61890116Y-155117476D02*
X62080592Y-155117476D01*
X62080592Y-155117476D02*
X62175830Y-155165095D01*
X62175830Y-155165095D02*
X62223450Y-155212714D01*
X62223450Y-155212714D02*
X62271069Y-155307952D01*
X62271069Y-155307952D02*
X62271069Y-155498428D01*
X62271069Y-155498428D02*
X62223450Y-155593666D01*
X62223450Y-155593666D02*
X62175830Y-155641285D01*
X62175830Y-155641285D02*
X62080592Y-155688904D01*
X62080592Y-155688904D02*
X61890116Y-155688904D01*
X61890116Y-155688904D02*
X61794878Y-155641285D01*
X61794878Y-155641285D02*
X61747259Y-155593666D01*
X61747259Y-155593666D02*
X61699640Y-155498428D01*
X162283569Y-210362714D02*
X161283569Y-210362714D01*
X161283569Y-210362714D02*
X161283569Y-210600809D01*
X161283569Y-210600809D02*
X161331188Y-210743666D01*
X161331188Y-210743666D02*
X161426426Y-210838904D01*
X161426426Y-210838904D02*
X161521664Y-210886523D01*
X161521664Y-210886523D02*
X161712140Y-210934142D01*
X161712140Y-210934142D02*
X161854997Y-210934142D01*
X161854997Y-210934142D02*
X162045473Y-210886523D01*
X162045473Y-210886523D02*
X162140711Y-210838904D01*
X162140711Y-210838904D02*
X162235950Y-210743666D01*
X162235950Y-210743666D02*
X162283569Y-210600809D01*
X162283569Y-210600809D02*
X162283569Y-210362714D01*
X161283569Y-211791285D02*
X161283569Y-211600809D01*
X161283569Y-211600809D02*
X161331188Y-211505571D01*
X161331188Y-211505571D02*
X161378807Y-211457952D01*
X161378807Y-211457952D02*
X161521664Y-211362714D01*
X161521664Y-211362714D02*
X161712140Y-211315095D01*
X161712140Y-211315095D02*
X162093092Y-211315095D01*
X162093092Y-211315095D02*
X162188330Y-211362714D01*
X162188330Y-211362714D02*
X162235950Y-211410333D01*
X162235950Y-211410333D02*
X162283569Y-211505571D01*
X162283569Y-211505571D02*
X162283569Y-211696047D01*
X162283569Y-211696047D02*
X162235950Y-211791285D01*
X162235950Y-211791285D02*
X162188330Y-211838904D01*
X162188330Y-211838904D02*
X162093092Y-211886523D01*
X162093092Y-211886523D02*
X161854997Y-211886523D01*
X161854997Y-211886523D02*
X161759759Y-211838904D01*
X161759759Y-211838904D02*
X161712140Y-211791285D01*
X161712140Y-211791285D02*
X161664521Y-211696047D01*
X161664521Y-211696047D02*
X161664521Y-211505571D01*
X161664521Y-211505571D02*
X161712140Y-211410333D01*
X161712140Y-211410333D02*
X161759759Y-211362714D01*
X161759759Y-211362714D02*
X161854997Y-211315095D01*
X162283569Y-212362714D02*
X162283569Y-212553190D01*
X162283569Y-212553190D02*
X162235950Y-212648428D01*
X162235950Y-212648428D02*
X162188330Y-212696047D01*
X162188330Y-212696047D02*
X162045473Y-212791285D01*
X162045473Y-212791285D02*
X161854997Y-212838904D01*
X161854997Y-212838904D02*
X161474045Y-212838904D01*
X161474045Y-212838904D02*
X161378807Y-212791285D01*
X161378807Y-212791285D02*
X161331188Y-212743666D01*
X161331188Y-212743666D02*
X161283569Y-212648428D01*
X161283569Y-212648428D02*
X161283569Y-212457952D01*
X161283569Y-212457952D02*
X161331188Y-212362714D01*
X161331188Y-212362714D02*
X161378807Y-212315095D01*
X161378807Y-212315095D02*
X161474045Y-212267476D01*
X161474045Y-212267476D02*
X161712140Y-212267476D01*
X161712140Y-212267476D02*
X161807378Y-212315095D01*
X161807378Y-212315095D02*
X161854997Y-212362714D01*
X161854997Y-212362714D02*
X161902616Y-212457952D01*
X161902616Y-212457952D02*
X161902616Y-212648428D01*
X161902616Y-212648428D02*
X161854997Y-212743666D01*
X161854997Y-212743666D02*
X161807378Y-212791285D01*
X161807378Y-212791285D02*
X161712140Y-212838904D01*
X281346069Y-172262714D02*
X280346069Y-172262714D01*
X280346069Y-172262714D02*
X280346069Y-172500809D01*
X280346069Y-172500809D02*
X280393688Y-172643666D01*
X280393688Y-172643666D02*
X280488926Y-172738904D01*
X280488926Y-172738904D02*
X280584164Y-172786523D01*
X280584164Y-172786523D02*
X280774640Y-172834142D01*
X280774640Y-172834142D02*
X280917497Y-172834142D01*
X280917497Y-172834142D02*
X281107973Y-172786523D01*
X281107973Y-172786523D02*
X281203211Y-172738904D01*
X281203211Y-172738904D02*
X281298450Y-172643666D01*
X281298450Y-172643666D02*
X281346069Y-172500809D01*
X281346069Y-172500809D02*
X281346069Y-172262714D01*
X280679402Y-173691285D02*
X281346069Y-173691285D01*
X280298450Y-173453190D02*
X281012735Y-173215095D01*
X281012735Y-173215095D02*
X281012735Y-173834142D01*
X280346069Y-174691285D02*
X280346069Y-174215095D01*
X280346069Y-174215095D02*
X280822259Y-174167476D01*
X280822259Y-174167476D02*
X280774640Y-174215095D01*
X280774640Y-174215095D02*
X280727021Y-174310333D01*
X280727021Y-174310333D02*
X280727021Y-174548428D01*
X280727021Y-174548428D02*
X280774640Y-174643666D01*
X280774640Y-174643666D02*
X280822259Y-174691285D01*
X280822259Y-174691285D02*
X280917497Y-174738904D01*
X280917497Y-174738904D02*
X281155592Y-174738904D01*
X281155592Y-174738904D02*
X281250830Y-174691285D01*
X281250830Y-174691285D02*
X281298450Y-174643666D01*
X281298450Y-174643666D02*
X281346069Y-174548428D01*
X281346069Y-174548428D02*
X281346069Y-174310333D01*
X281346069Y-174310333D02*
X281298450Y-174215095D01*
X281298450Y-174215095D02*
X281250830Y-174167476D01*
X262296069Y-172262714D02*
X261296069Y-172262714D01*
X261296069Y-172262714D02*
X261296069Y-172500809D01*
X261296069Y-172500809D02*
X261343688Y-172643666D01*
X261343688Y-172643666D02*
X261438926Y-172738904D01*
X261438926Y-172738904D02*
X261534164Y-172786523D01*
X261534164Y-172786523D02*
X261724640Y-172834142D01*
X261724640Y-172834142D02*
X261867497Y-172834142D01*
X261867497Y-172834142D02*
X262057973Y-172786523D01*
X262057973Y-172786523D02*
X262153211Y-172738904D01*
X262153211Y-172738904D02*
X262248450Y-172643666D01*
X262248450Y-172643666D02*
X262296069Y-172500809D01*
X262296069Y-172500809D02*
X262296069Y-172262714D01*
X261629402Y-173691285D02*
X262296069Y-173691285D01*
X261248450Y-173453190D02*
X261962735Y-173215095D01*
X261962735Y-173215095D02*
X261962735Y-173834142D01*
X261629402Y-174643666D02*
X262296069Y-174643666D01*
X261248450Y-174405571D02*
X261962735Y-174167476D01*
X261962735Y-174167476D02*
X261962735Y-174786523D01*
X90846069Y-172262714D02*
X89846069Y-172262714D01*
X89846069Y-172262714D02*
X89846069Y-172500809D01*
X89846069Y-172500809D02*
X89893688Y-172643666D01*
X89893688Y-172643666D02*
X89988926Y-172738904D01*
X89988926Y-172738904D02*
X90084164Y-172786523D01*
X90084164Y-172786523D02*
X90274640Y-172834142D01*
X90274640Y-172834142D02*
X90417497Y-172834142D01*
X90417497Y-172834142D02*
X90607973Y-172786523D01*
X90607973Y-172786523D02*
X90703211Y-172738904D01*
X90703211Y-172738904D02*
X90798450Y-172643666D01*
X90798450Y-172643666D02*
X90846069Y-172500809D01*
X90846069Y-172500809D02*
X90846069Y-172262714D01*
X89846069Y-173167476D02*
X89846069Y-173786523D01*
X89846069Y-173786523D02*
X90227021Y-173453190D01*
X90227021Y-173453190D02*
X90227021Y-173596047D01*
X90227021Y-173596047D02*
X90274640Y-173691285D01*
X90274640Y-173691285D02*
X90322259Y-173738904D01*
X90322259Y-173738904D02*
X90417497Y-173786523D01*
X90417497Y-173786523D02*
X90655592Y-173786523D01*
X90655592Y-173786523D02*
X90750830Y-173738904D01*
X90750830Y-173738904D02*
X90798450Y-173691285D01*
X90798450Y-173691285D02*
X90846069Y-173596047D01*
X90846069Y-173596047D02*
X90846069Y-173310333D01*
X90846069Y-173310333D02*
X90798450Y-173215095D01*
X90798450Y-173215095D02*
X90750830Y-173167476D01*
X89846069Y-174691285D02*
X89846069Y-174215095D01*
X89846069Y-174215095D02*
X90322259Y-174167476D01*
X90322259Y-174167476D02*
X90274640Y-174215095D01*
X90274640Y-174215095D02*
X90227021Y-174310333D01*
X90227021Y-174310333D02*
X90227021Y-174548428D01*
X90227021Y-174548428D02*
X90274640Y-174643666D01*
X90274640Y-174643666D02*
X90322259Y-174691285D01*
X90322259Y-174691285D02*
X90417497Y-174738904D01*
X90417497Y-174738904D02*
X90655592Y-174738904D01*
X90655592Y-174738904D02*
X90750830Y-174691285D01*
X90750830Y-174691285D02*
X90798450Y-174643666D01*
X90798450Y-174643666D02*
X90846069Y-174548428D01*
X90846069Y-174548428D02*
X90846069Y-174310333D01*
X90846069Y-174310333D02*
X90798450Y-174215095D01*
X90798450Y-174215095D02*
X90750830Y-174167476D01*
X328971069Y-229412714D02*
X327971069Y-229412714D01*
X327971069Y-229412714D02*
X327971069Y-229650809D01*
X327971069Y-229650809D02*
X328018688Y-229793666D01*
X328018688Y-229793666D02*
X328113926Y-229888904D01*
X328113926Y-229888904D02*
X328209164Y-229936523D01*
X328209164Y-229936523D02*
X328399640Y-229984142D01*
X328399640Y-229984142D02*
X328542497Y-229984142D01*
X328542497Y-229984142D02*
X328732973Y-229936523D01*
X328732973Y-229936523D02*
X328828211Y-229888904D01*
X328828211Y-229888904D02*
X328923450Y-229793666D01*
X328923450Y-229793666D02*
X328971069Y-229650809D01*
X328971069Y-229650809D02*
X328971069Y-229412714D01*
X328399640Y-230555571D02*
X328352021Y-230460333D01*
X328352021Y-230460333D02*
X328304402Y-230412714D01*
X328304402Y-230412714D02*
X328209164Y-230365095D01*
X328209164Y-230365095D02*
X328161545Y-230365095D01*
X328161545Y-230365095D02*
X328066307Y-230412714D01*
X328066307Y-230412714D02*
X328018688Y-230460333D01*
X328018688Y-230460333D02*
X327971069Y-230555571D01*
X327971069Y-230555571D02*
X327971069Y-230746047D01*
X327971069Y-230746047D02*
X328018688Y-230841285D01*
X328018688Y-230841285D02*
X328066307Y-230888904D01*
X328066307Y-230888904D02*
X328161545Y-230936523D01*
X328161545Y-230936523D02*
X328209164Y-230936523D01*
X328209164Y-230936523D02*
X328304402Y-230888904D01*
X328304402Y-230888904D02*
X328352021Y-230841285D01*
X328352021Y-230841285D02*
X328399640Y-230746047D01*
X328399640Y-230746047D02*
X328399640Y-230555571D01*
X328399640Y-230555571D02*
X328447259Y-230460333D01*
X328447259Y-230460333D02*
X328494878Y-230412714D01*
X328494878Y-230412714D02*
X328590116Y-230365095D01*
X328590116Y-230365095D02*
X328780592Y-230365095D01*
X328780592Y-230365095D02*
X328875830Y-230412714D01*
X328875830Y-230412714D02*
X328923450Y-230460333D01*
X328923450Y-230460333D02*
X328971069Y-230555571D01*
X328971069Y-230555571D02*
X328971069Y-230746047D01*
X328971069Y-230746047D02*
X328923450Y-230841285D01*
X328923450Y-230841285D02*
X328875830Y-230888904D01*
X328875830Y-230888904D02*
X328780592Y-230936523D01*
X328780592Y-230936523D02*
X328590116Y-230936523D01*
X328590116Y-230936523D02*
X328494878Y-230888904D01*
X328494878Y-230888904D02*
X328447259Y-230841285D01*
X328447259Y-230841285D02*
X328399640Y-230746047D01*
X327971069Y-231793666D02*
X327971069Y-231603190D01*
X327971069Y-231603190D02*
X328018688Y-231507952D01*
X328018688Y-231507952D02*
X328066307Y-231460333D01*
X328066307Y-231460333D02*
X328209164Y-231365095D01*
X328209164Y-231365095D02*
X328399640Y-231317476D01*
X328399640Y-231317476D02*
X328780592Y-231317476D01*
X328780592Y-231317476D02*
X328875830Y-231365095D01*
X328875830Y-231365095D02*
X328923450Y-231412714D01*
X328923450Y-231412714D02*
X328971069Y-231507952D01*
X328971069Y-231507952D02*
X328971069Y-231698428D01*
X328971069Y-231698428D02*
X328923450Y-231793666D01*
X328923450Y-231793666D02*
X328875830Y-231841285D01*
X328875830Y-231841285D02*
X328780592Y-231888904D01*
X328780592Y-231888904D02*
X328542497Y-231888904D01*
X328542497Y-231888904D02*
X328447259Y-231841285D01*
X328447259Y-231841285D02*
X328399640Y-231793666D01*
X328399640Y-231793666D02*
X328352021Y-231698428D01*
X328352021Y-231698428D02*
X328352021Y-231507952D01*
X328352021Y-231507952D02*
X328399640Y-231412714D01*
X328399640Y-231412714D02*
X328447259Y-231365095D01*
X328447259Y-231365095D02*
X328542497Y-231317476D01*
X290871069Y-153212714D02*
X289871069Y-153212714D01*
X289871069Y-153212714D02*
X289871069Y-153450809D01*
X289871069Y-153450809D02*
X289918688Y-153593666D01*
X289918688Y-153593666D02*
X290013926Y-153688904D01*
X290013926Y-153688904D02*
X290109164Y-153736523D01*
X290109164Y-153736523D02*
X290299640Y-153784142D01*
X290299640Y-153784142D02*
X290442497Y-153784142D01*
X290442497Y-153784142D02*
X290632973Y-153736523D01*
X290632973Y-153736523D02*
X290728211Y-153688904D01*
X290728211Y-153688904D02*
X290823450Y-153593666D01*
X290823450Y-153593666D02*
X290871069Y-153450809D01*
X290871069Y-153450809D02*
X290871069Y-153212714D01*
X289871069Y-154117476D02*
X289871069Y-154736523D01*
X289871069Y-154736523D02*
X290252021Y-154403190D01*
X290252021Y-154403190D02*
X290252021Y-154546047D01*
X290252021Y-154546047D02*
X290299640Y-154641285D01*
X290299640Y-154641285D02*
X290347259Y-154688904D01*
X290347259Y-154688904D02*
X290442497Y-154736523D01*
X290442497Y-154736523D02*
X290680592Y-154736523D01*
X290680592Y-154736523D02*
X290775830Y-154688904D01*
X290775830Y-154688904D02*
X290823450Y-154641285D01*
X290823450Y-154641285D02*
X290871069Y-154546047D01*
X290871069Y-154546047D02*
X290871069Y-154260333D01*
X290871069Y-154260333D02*
X290823450Y-154165095D01*
X290823450Y-154165095D02*
X290775830Y-154117476D01*
X289871069Y-155355571D02*
X289871069Y-155450809D01*
X289871069Y-155450809D02*
X289918688Y-155546047D01*
X289918688Y-155546047D02*
X289966307Y-155593666D01*
X289966307Y-155593666D02*
X290061545Y-155641285D01*
X290061545Y-155641285D02*
X290252021Y-155688904D01*
X290252021Y-155688904D02*
X290490116Y-155688904D01*
X290490116Y-155688904D02*
X290680592Y-155641285D01*
X290680592Y-155641285D02*
X290775830Y-155593666D01*
X290775830Y-155593666D02*
X290823450Y-155546047D01*
X290823450Y-155546047D02*
X290871069Y-155450809D01*
X290871069Y-155450809D02*
X290871069Y-155355571D01*
X290871069Y-155355571D02*
X290823450Y-155260333D01*
X290823450Y-155260333D02*
X290775830Y-155212714D01*
X290775830Y-155212714D02*
X290680592Y-155165095D01*
X290680592Y-155165095D02*
X290490116Y-155117476D01*
X290490116Y-155117476D02*
X290252021Y-155117476D01*
X290252021Y-155117476D02*
X290061545Y-155165095D01*
X290061545Y-155165095D02*
X289966307Y-155212714D01*
X289966307Y-155212714D02*
X289918688Y-155260333D01*
X289918688Y-155260333D02*
X289871069Y-155355571D01*
X300396069Y-172262714D02*
X299396069Y-172262714D01*
X299396069Y-172262714D02*
X299396069Y-172500809D01*
X299396069Y-172500809D02*
X299443688Y-172643666D01*
X299443688Y-172643666D02*
X299538926Y-172738904D01*
X299538926Y-172738904D02*
X299634164Y-172786523D01*
X299634164Y-172786523D02*
X299824640Y-172834142D01*
X299824640Y-172834142D02*
X299967497Y-172834142D01*
X299967497Y-172834142D02*
X300157973Y-172786523D01*
X300157973Y-172786523D02*
X300253211Y-172738904D01*
X300253211Y-172738904D02*
X300348450Y-172643666D01*
X300348450Y-172643666D02*
X300396069Y-172500809D01*
X300396069Y-172500809D02*
X300396069Y-172262714D01*
X299729402Y-173691285D02*
X300396069Y-173691285D01*
X299348450Y-173453190D02*
X300062735Y-173215095D01*
X300062735Y-173215095D02*
X300062735Y-173834142D01*
X299396069Y-174643666D02*
X299396069Y-174453190D01*
X299396069Y-174453190D02*
X299443688Y-174357952D01*
X299443688Y-174357952D02*
X299491307Y-174310333D01*
X299491307Y-174310333D02*
X299634164Y-174215095D01*
X299634164Y-174215095D02*
X299824640Y-174167476D01*
X299824640Y-174167476D02*
X300205592Y-174167476D01*
X300205592Y-174167476D02*
X300300830Y-174215095D01*
X300300830Y-174215095D02*
X300348450Y-174262714D01*
X300348450Y-174262714D02*
X300396069Y-174357952D01*
X300396069Y-174357952D02*
X300396069Y-174548428D01*
X300396069Y-174548428D02*
X300348450Y-174643666D01*
X300348450Y-174643666D02*
X300300830Y-174691285D01*
X300300830Y-174691285D02*
X300205592Y-174738904D01*
X300205592Y-174738904D02*
X299967497Y-174738904D01*
X299967497Y-174738904D02*
X299872259Y-174691285D01*
X299872259Y-174691285D02*
X299824640Y-174643666D01*
X299824640Y-174643666D02*
X299777021Y-174548428D01*
X299777021Y-174548428D02*
X299777021Y-174357952D01*
X299777021Y-174357952D02*
X299824640Y-174262714D01*
X299824640Y-174262714D02*
X299872259Y-174215095D01*
X299872259Y-174215095D02*
X299967497Y-174167476D01*
X248008569Y-191312714D02*
X247008569Y-191312714D01*
X247008569Y-191312714D02*
X247008569Y-191550809D01*
X247008569Y-191550809D02*
X247056188Y-191693666D01*
X247056188Y-191693666D02*
X247151426Y-191788904D01*
X247151426Y-191788904D02*
X247246664Y-191836523D01*
X247246664Y-191836523D02*
X247437140Y-191884142D01*
X247437140Y-191884142D02*
X247579997Y-191884142D01*
X247579997Y-191884142D02*
X247770473Y-191836523D01*
X247770473Y-191836523D02*
X247865711Y-191788904D01*
X247865711Y-191788904D02*
X247960950Y-191693666D01*
X247960950Y-191693666D02*
X248008569Y-191550809D01*
X248008569Y-191550809D02*
X248008569Y-191312714D01*
X247008569Y-192788904D02*
X247008569Y-192312714D01*
X247008569Y-192312714D02*
X247484759Y-192265095D01*
X247484759Y-192265095D02*
X247437140Y-192312714D01*
X247437140Y-192312714D02*
X247389521Y-192407952D01*
X247389521Y-192407952D02*
X247389521Y-192646047D01*
X247389521Y-192646047D02*
X247437140Y-192741285D01*
X247437140Y-192741285D02*
X247484759Y-192788904D01*
X247484759Y-192788904D02*
X247579997Y-192836523D01*
X247579997Y-192836523D02*
X247818092Y-192836523D01*
X247818092Y-192836523D02*
X247913330Y-192788904D01*
X247913330Y-192788904D02*
X247960950Y-192741285D01*
X247960950Y-192741285D02*
X248008569Y-192646047D01*
X248008569Y-192646047D02*
X248008569Y-192407952D01*
X248008569Y-192407952D02*
X247960950Y-192312714D01*
X247960950Y-192312714D02*
X247913330Y-192265095D01*
X248008569Y-193312714D02*
X248008569Y-193503190D01*
X248008569Y-193503190D02*
X247960950Y-193598428D01*
X247960950Y-193598428D02*
X247913330Y-193646047D01*
X247913330Y-193646047D02*
X247770473Y-193741285D01*
X247770473Y-193741285D02*
X247579997Y-193788904D01*
X247579997Y-193788904D02*
X247199045Y-193788904D01*
X247199045Y-193788904D02*
X247103807Y-193741285D01*
X247103807Y-193741285D02*
X247056188Y-193693666D01*
X247056188Y-193693666D02*
X247008569Y-193598428D01*
X247008569Y-193598428D02*
X247008569Y-193407952D01*
X247008569Y-193407952D02*
X247056188Y-193312714D01*
X247056188Y-193312714D02*
X247103807Y-193265095D01*
X247103807Y-193265095D02*
X247199045Y-193217476D01*
X247199045Y-193217476D02*
X247437140Y-193217476D01*
X247437140Y-193217476D02*
X247532378Y-193265095D01*
X247532378Y-193265095D02*
X247579997Y-193312714D01*
X247579997Y-193312714D02*
X247627616Y-193407952D01*
X247627616Y-193407952D02*
X247627616Y-193598428D01*
X247627616Y-193598428D02*
X247579997Y-193693666D01*
X247579997Y-193693666D02*
X247532378Y-193741285D01*
X247532378Y-193741285D02*
X247437140Y-193788904D01*
X367071069Y-191312714D02*
X366071069Y-191312714D01*
X366071069Y-191312714D02*
X366071069Y-191550809D01*
X366071069Y-191550809D02*
X366118688Y-191693666D01*
X366118688Y-191693666D02*
X366213926Y-191788904D01*
X366213926Y-191788904D02*
X366309164Y-191836523D01*
X366309164Y-191836523D02*
X366499640Y-191884142D01*
X366499640Y-191884142D02*
X366642497Y-191884142D01*
X366642497Y-191884142D02*
X366832973Y-191836523D01*
X366832973Y-191836523D02*
X366928211Y-191788904D01*
X366928211Y-191788904D02*
X367023450Y-191693666D01*
X367023450Y-191693666D02*
X367071069Y-191550809D01*
X367071069Y-191550809D02*
X367071069Y-191312714D01*
X366071069Y-192741285D02*
X366071069Y-192550809D01*
X366071069Y-192550809D02*
X366118688Y-192455571D01*
X366118688Y-192455571D02*
X366166307Y-192407952D01*
X366166307Y-192407952D02*
X366309164Y-192312714D01*
X366309164Y-192312714D02*
X366499640Y-192265095D01*
X366499640Y-192265095D02*
X366880592Y-192265095D01*
X366880592Y-192265095D02*
X366975830Y-192312714D01*
X366975830Y-192312714D02*
X367023450Y-192360333D01*
X367023450Y-192360333D02*
X367071069Y-192455571D01*
X367071069Y-192455571D02*
X367071069Y-192646047D01*
X367071069Y-192646047D02*
X367023450Y-192741285D01*
X367023450Y-192741285D02*
X366975830Y-192788904D01*
X366975830Y-192788904D02*
X366880592Y-192836523D01*
X366880592Y-192836523D02*
X366642497Y-192836523D01*
X366642497Y-192836523D02*
X366547259Y-192788904D01*
X366547259Y-192788904D02*
X366499640Y-192741285D01*
X366499640Y-192741285D02*
X366452021Y-192646047D01*
X366452021Y-192646047D02*
X366452021Y-192455571D01*
X366452021Y-192455571D02*
X366499640Y-192360333D01*
X366499640Y-192360333D02*
X366547259Y-192312714D01*
X366547259Y-192312714D02*
X366642497Y-192265095D01*
X366404402Y-193693666D02*
X367071069Y-193693666D01*
X366023450Y-193455571D02*
X366737735Y-193217476D01*
X366737735Y-193217476D02*
X366737735Y-193836523D01*
X119421069Y-153212714D02*
X118421069Y-153212714D01*
X118421069Y-153212714D02*
X118421069Y-153450809D01*
X118421069Y-153450809D02*
X118468688Y-153593666D01*
X118468688Y-153593666D02*
X118563926Y-153688904D01*
X118563926Y-153688904D02*
X118659164Y-153736523D01*
X118659164Y-153736523D02*
X118849640Y-153784142D01*
X118849640Y-153784142D02*
X118992497Y-153784142D01*
X118992497Y-153784142D02*
X119182973Y-153736523D01*
X119182973Y-153736523D02*
X119278211Y-153688904D01*
X119278211Y-153688904D02*
X119373450Y-153593666D01*
X119373450Y-153593666D02*
X119421069Y-153450809D01*
X119421069Y-153450809D02*
X119421069Y-153212714D01*
X118516307Y-154165095D02*
X118468688Y-154212714D01*
X118468688Y-154212714D02*
X118421069Y-154307952D01*
X118421069Y-154307952D02*
X118421069Y-154546047D01*
X118421069Y-154546047D02*
X118468688Y-154641285D01*
X118468688Y-154641285D02*
X118516307Y-154688904D01*
X118516307Y-154688904D02*
X118611545Y-154736523D01*
X118611545Y-154736523D02*
X118706783Y-154736523D01*
X118706783Y-154736523D02*
X118849640Y-154688904D01*
X118849640Y-154688904D02*
X119421069Y-154117476D01*
X119421069Y-154117476D02*
X119421069Y-154736523D01*
X119421069Y-155688904D02*
X119421069Y-155117476D01*
X119421069Y-155403190D02*
X118421069Y-155403190D01*
X118421069Y-155403190D02*
X118563926Y-155307952D01*
X118563926Y-155307952D02*
X118659164Y-155212714D01*
X118659164Y-155212714D02*
X118706783Y-155117476D01*
X138471069Y-153212714D02*
X137471069Y-153212714D01*
X137471069Y-153212714D02*
X137471069Y-153450809D01*
X137471069Y-153450809D02*
X137518688Y-153593666D01*
X137518688Y-153593666D02*
X137613926Y-153688904D01*
X137613926Y-153688904D02*
X137709164Y-153736523D01*
X137709164Y-153736523D02*
X137899640Y-153784142D01*
X137899640Y-153784142D02*
X138042497Y-153784142D01*
X138042497Y-153784142D02*
X138232973Y-153736523D01*
X138232973Y-153736523D02*
X138328211Y-153688904D01*
X138328211Y-153688904D02*
X138423450Y-153593666D01*
X138423450Y-153593666D02*
X138471069Y-153450809D01*
X138471069Y-153450809D02*
X138471069Y-153212714D01*
X137566307Y-154165095D02*
X137518688Y-154212714D01*
X137518688Y-154212714D02*
X137471069Y-154307952D01*
X137471069Y-154307952D02*
X137471069Y-154546047D01*
X137471069Y-154546047D02*
X137518688Y-154641285D01*
X137518688Y-154641285D02*
X137566307Y-154688904D01*
X137566307Y-154688904D02*
X137661545Y-154736523D01*
X137661545Y-154736523D02*
X137756783Y-154736523D01*
X137756783Y-154736523D02*
X137899640Y-154688904D01*
X137899640Y-154688904D02*
X138471069Y-154117476D01*
X138471069Y-154117476D02*
X138471069Y-154736523D01*
X137566307Y-155117476D02*
X137518688Y-155165095D01*
X137518688Y-155165095D02*
X137471069Y-155260333D01*
X137471069Y-155260333D02*
X137471069Y-155498428D01*
X137471069Y-155498428D02*
X137518688Y-155593666D01*
X137518688Y-155593666D02*
X137566307Y-155641285D01*
X137566307Y-155641285D02*
X137661545Y-155688904D01*
X137661545Y-155688904D02*
X137756783Y-155688904D01*
X137756783Y-155688904D02*
X137899640Y-155641285D01*
X137899640Y-155641285D02*
X138471069Y-155069857D01*
X138471069Y-155069857D02*
X138471069Y-155688904D01*
X269722535Y-124719819D02*
X269722535Y-123719819D01*
X269722535Y-123719819D02*
X269484440Y-123719819D01*
X269484440Y-123719819D02*
X269341583Y-123767438D01*
X269341583Y-123767438D02*
X269246345Y-123862676D01*
X269246345Y-123862676D02*
X269198726Y-123957914D01*
X269198726Y-123957914D02*
X269151107Y-124148390D01*
X269151107Y-124148390D02*
X269151107Y-124291247D01*
X269151107Y-124291247D02*
X269198726Y-124481723D01*
X269198726Y-124481723D02*
X269246345Y-124576961D01*
X269246345Y-124576961D02*
X269341583Y-124672200D01*
X269341583Y-124672200D02*
X269484440Y-124719819D01*
X269484440Y-124719819D02*
X269722535Y-124719819D01*
X268198726Y-124719819D02*
X268770154Y-124719819D01*
X268484440Y-124719819D02*
X268484440Y-123719819D01*
X268484440Y-123719819D02*
X268579678Y-123862676D01*
X268579678Y-123862676D02*
X268674916Y-123957914D01*
X268674916Y-123957914D02*
X268770154Y-124005533D01*
X267817773Y-123815057D02*
X267770154Y-123767438D01*
X267770154Y-123767438D02*
X267674916Y-123719819D01*
X267674916Y-123719819D02*
X267436821Y-123719819D01*
X267436821Y-123719819D02*
X267341583Y-123767438D01*
X267341583Y-123767438D02*
X267293964Y-123815057D01*
X267293964Y-123815057D02*
X267246345Y-123910295D01*
X267246345Y-123910295D02*
X267246345Y-124005533D01*
X267246345Y-124005533D02*
X267293964Y-124148390D01*
X267293964Y-124148390D02*
X267865392Y-124719819D01*
X267865392Y-124719819D02*
X267246345Y-124719819D01*
X195621069Y-229412714D02*
X194621069Y-229412714D01*
X194621069Y-229412714D02*
X194621069Y-229650809D01*
X194621069Y-229650809D02*
X194668688Y-229793666D01*
X194668688Y-229793666D02*
X194763926Y-229888904D01*
X194763926Y-229888904D02*
X194859164Y-229936523D01*
X194859164Y-229936523D02*
X195049640Y-229984142D01*
X195049640Y-229984142D02*
X195192497Y-229984142D01*
X195192497Y-229984142D02*
X195382973Y-229936523D01*
X195382973Y-229936523D02*
X195478211Y-229888904D01*
X195478211Y-229888904D02*
X195573450Y-229793666D01*
X195573450Y-229793666D02*
X195621069Y-229650809D01*
X195621069Y-229650809D02*
X195621069Y-229412714D01*
X195049640Y-230555571D02*
X195002021Y-230460333D01*
X195002021Y-230460333D02*
X194954402Y-230412714D01*
X194954402Y-230412714D02*
X194859164Y-230365095D01*
X194859164Y-230365095D02*
X194811545Y-230365095D01*
X194811545Y-230365095D02*
X194716307Y-230412714D01*
X194716307Y-230412714D02*
X194668688Y-230460333D01*
X194668688Y-230460333D02*
X194621069Y-230555571D01*
X194621069Y-230555571D02*
X194621069Y-230746047D01*
X194621069Y-230746047D02*
X194668688Y-230841285D01*
X194668688Y-230841285D02*
X194716307Y-230888904D01*
X194716307Y-230888904D02*
X194811545Y-230936523D01*
X194811545Y-230936523D02*
X194859164Y-230936523D01*
X194859164Y-230936523D02*
X194954402Y-230888904D01*
X194954402Y-230888904D02*
X195002021Y-230841285D01*
X195002021Y-230841285D02*
X195049640Y-230746047D01*
X195049640Y-230746047D02*
X195049640Y-230555571D01*
X195049640Y-230555571D02*
X195097259Y-230460333D01*
X195097259Y-230460333D02*
X195144878Y-230412714D01*
X195144878Y-230412714D02*
X195240116Y-230365095D01*
X195240116Y-230365095D02*
X195430592Y-230365095D01*
X195430592Y-230365095D02*
X195525830Y-230412714D01*
X195525830Y-230412714D02*
X195573450Y-230460333D01*
X195573450Y-230460333D02*
X195621069Y-230555571D01*
X195621069Y-230555571D02*
X195621069Y-230746047D01*
X195621069Y-230746047D02*
X195573450Y-230841285D01*
X195573450Y-230841285D02*
X195525830Y-230888904D01*
X195525830Y-230888904D02*
X195430592Y-230936523D01*
X195430592Y-230936523D02*
X195240116Y-230936523D01*
X195240116Y-230936523D02*
X195144878Y-230888904D01*
X195144878Y-230888904D02*
X195097259Y-230841285D01*
X195097259Y-230841285D02*
X195049640Y-230746047D01*
X194716307Y-231317476D02*
X194668688Y-231365095D01*
X194668688Y-231365095D02*
X194621069Y-231460333D01*
X194621069Y-231460333D02*
X194621069Y-231698428D01*
X194621069Y-231698428D02*
X194668688Y-231793666D01*
X194668688Y-231793666D02*
X194716307Y-231841285D01*
X194716307Y-231841285D02*
X194811545Y-231888904D01*
X194811545Y-231888904D02*
X194906783Y-231888904D01*
X194906783Y-231888904D02*
X195049640Y-231841285D01*
X195049640Y-231841285D02*
X195621069Y-231269857D01*
X195621069Y-231269857D02*
X195621069Y-231888904D01*
X133708569Y-191312714D02*
X132708569Y-191312714D01*
X132708569Y-191312714D02*
X132708569Y-191550809D01*
X132708569Y-191550809D02*
X132756188Y-191693666D01*
X132756188Y-191693666D02*
X132851426Y-191788904D01*
X132851426Y-191788904D02*
X132946664Y-191836523D01*
X132946664Y-191836523D02*
X133137140Y-191884142D01*
X133137140Y-191884142D02*
X133279997Y-191884142D01*
X133279997Y-191884142D02*
X133470473Y-191836523D01*
X133470473Y-191836523D02*
X133565711Y-191788904D01*
X133565711Y-191788904D02*
X133660950Y-191693666D01*
X133660950Y-191693666D02*
X133708569Y-191550809D01*
X133708569Y-191550809D02*
X133708569Y-191312714D01*
X132708569Y-192788904D02*
X132708569Y-192312714D01*
X132708569Y-192312714D02*
X133184759Y-192265095D01*
X133184759Y-192265095D02*
X133137140Y-192312714D01*
X133137140Y-192312714D02*
X133089521Y-192407952D01*
X133089521Y-192407952D02*
X133089521Y-192646047D01*
X133089521Y-192646047D02*
X133137140Y-192741285D01*
X133137140Y-192741285D02*
X133184759Y-192788904D01*
X133184759Y-192788904D02*
X133279997Y-192836523D01*
X133279997Y-192836523D02*
X133518092Y-192836523D01*
X133518092Y-192836523D02*
X133613330Y-192788904D01*
X133613330Y-192788904D02*
X133660950Y-192741285D01*
X133660950Y-192741285D02*
X133708569Y-192646047D01*
X133708569Y-192646047D02*
X133708569Y-192407952D01*
X133708569Y-192407952D02*
X133660950Y-192312714D01*
X133660950Y-192312714D02*
X133613330Y-192265095D01*
X132708569Y-193169857D02*
X132708569Y-193788904D01*
X132708569Y-193788904D02*
X133089521Y-193455571D01*
X133089521Y-193455571D02*
X133089521Y-193598428D01*
X133089521Y-193598428D02*
X133137140Y-193693666D01*
X133137140Y-193693666D02*
X133184759Y-193741285D01*
X133184759Y-193741285D02*
X133279997Y-193788904D01*
X133279997Y-193788904D02*
X133518092Y-193788904D01*
X133518092Y-193788904D02*
X133613330Y-193741285D01*
X133613330Y-193741285D02*
X133660950Y-193693666D01*
X133660950Y-193693666D02*
X133708569Y-193598428D01*
X133708569Y-193598428D02*
X133708569Y-193312714D01*
X133708569Y-193312714D02*
X133660950Y-193217476D01*
X133660950Y-193217476D02*
X133613330Y-193169857D01*
X143233569Y-210362714D02*
X142233569Y-210362714D01*
X142233569Y-210362714D02*
X142233569Y-210600809D01*
X142233569Y-210600809D02*
X142281188Y-210743666D01*
X142281188Y-210743666D02*
X142376426Y-210838904D01*
X142376426Y-210838904D02*
X142471664Y-210886523D01*
X142471664Y-210886523D02*
X142662140Y-210934142D01*
X142662140Y-210934142D02*
X142804997Y-210934142D01*
X142804997Y-210934142D02*
X142995473Y-210886523D01*
X142995473Y-210886523D02*
X143090711Y-210838904D01*
X143090711Y-210838904D02*
X143185950Y-210743666D01*
X143185950Y-210743666D02*
X143233569Y-210600809D01*
X143233569Y-210600809D02*
X143233569Y-210362714D01*
X142233569Y-211791285D02*
X142233569Y-211600809D01*
X142233569Y-211600809D02*
X142281188Y-211505571D01*
X142281188Y-211505571D02*
X142328807Y-211457952D01*
X142328807Y-211457952D02*
X142471664Y-211362714D01*
X142471664Y-211362714D02*
X142662140Y-211315095D01*
X142662140Y-211315095D02*
X143043092Y-211315095D01*
X143043092Y-211315095D02*
X143138330Y-211362714D01*
X143138330Y-211362714D02*
X143185950Y-211410333D01*
X143185950Y-211410333D02*
X143233569Y-211505571D01*
X143233569Y-211505571D02*
X143233569Y-211696047D01*
X143233569Y-211696047D02*
X143185950Y-211791285D01*
X143185950Y-211791285D02*
X143138330Y-211838904D01*
X143138330Y-211838904D02*
X143043092Y-211886523D01*
X143043092Y-211886523D02*
X142804997Y-211886523D01*
X142804997Y-211886523D02*
X142709759Y-211838904D01*
X142709759Y-211838904D02*
X142662140Y-211791285D01*
X142662140Y-211791285D02*
X142614521Y-211696047D01*
X142614521Y-211696047D02*
X142614521Y-211505571D01*
X142614521Y-211505571D02*
X142662140Y-211410333D01*
X142662140Y-211410333D02*
X142709759Y-211362714D01*
X142709759Y-211362714D02*
X142804997Y-211315095D01*
X142662140Y-212457952D02*
X142614521Y-212362714D01*
X142614521Y-212362714D02*
X142566902Y-212315095D01*
X142566902Y-212315095D02*
X142471664Y-212267476D01*
X142471664Y-212267476D02*
X142424045Y-212267476D01*
X142424045Y-212267476D02*
X142328807Y-212315095D01*
X142328807Y-212315095D02*
X142281188Y-212362714D01*
X142281188Y-212362714D02*
X142233569Y-212457952D01*
X142233569Y-212457952D02*
X142233569Y-212648428D01*
X142233569Y-212648428D02*
X142281188Y-212743666D01*
X142281188Y-212743666D02*
X142328807Y-212791285D01*
X142328807Y-212791285D02*
X142424045Y-212838904D01*
X142424045Y-212838904D02*
X142471664Y-212838904D01*
X142471664Y-212838904D02*
X142566902Y-212791285D01*
X142566902Y-212791285D02*
X142614521Y-212743666D01*
X142614521Y-212743666D02*
X142662140Y-212648428D01*
X142662140Y-212648428D02*
X142662140Y-212457952D01*
X142662140Y-212457952D02*
X142709759Y-212362714D01*
X142709759Y-212362714D02*
X142757378Y-212315095D01*
X142757378Y-212315095D02*
X142852616Y-212267476D01*
X142852616Y-212267476D02*
X143043092Y-212267476D01*
X143043092Y-212267476D02*
X143138330Y-212315095D01*
X143138330Y-212315095D02*
X143185950Y-212362714D01*
X143185950Y-212362714D02*
X143233569Y-212457952D01*
X143233569Y-212457952D02*
X143233569Y-212648428D01*
X143233569Y-212648428D02*
X143185950Y-212743666D01*
X143185950Y-212743666D02*
X143138330Y-212791285D01*
X143138330Y-212791285D02*
X143043092Y-212838904D01*
X143043092Y-212838904D02*
X142852616Y-212838904D01*
X142852616Y-212838904D02*
X142757378Y-212791285D01*
X142757378Y-212791285D02*
X142709759Y-212743666D01*
X142709759Y-212743666D02*
X142662140Y-212648428D01*
X67033569Y-172262714D02*
X66033569Y-172262714D01*
X66033569Y-172262714D02*
X66033569Y-172500809D01*
X66033569Y-172500809D02*
X66081188Y-172643666D01*
X66081188Y-172643666D02*
X66176426Y-172738904D01*
X66176426Y-172738904D02*
X66271664Y-172786523D01*
X66271664Y-172786523D02*
X66462140Y-172834142D01*
X66462140Y-172834142D02*
X66604997Y-172834142D01*
X66604997Y-172834142D02*
X66795473Y-172786523D01*
X66795473Y-172786523D02*
X66890711Y-172738904D01*
X66890711Y-172738904D02*
X66985950Y-172643666D01*
X66985950Y-172643666D02*
X67033569Y-172500809D01*
X67033569Y-172500809D02*
X67033569Y-172262714D01*
X66033569Y-173167476D02*
X66033569Y-173786523D01*
X66033569Y-173786523D02*
X66414521Y-173453190D01*
X66414521Y-173453190D02*
X66414521Y-173596047D01*
X66414521Y-173596047D02*
X66462140Y-173691285D01*
X66462140Y-173691285D02*
X66509759Y-173738904D01*
X66509759Y-173738904D02*
X66604997Y-173786523D01*
X66604997Y-173786523D02*
X66843092Y-173786523D01*
X66843092Y-173786523D02*
X66938330Y-173738904D01*
X66938330Y-173738904D02*
X66985950Y-173691285D01*
X66985950Y-173691285D02*
X67033569Y-173596047D01*
X67033569Y-173596047D02*
X67033569Y-173310333D01*
X67033569Y-173310333D02*
X66985950Y-173215095D01*
X66985950Y-173215095D02*
X66938330Y-173167476D01*
X66366902Y-174643666D02*
X67033569Y-174643666D01*
X65985950Y-174405571D02*
X66700235Y-174167476D01*
X66700235Y-174167476D02*
X66700235Y-174786523D01*
X286108569Y-191312714D02*
X285108569Y-191312714D01*
X285108569Y-191312714D02*
X285108569Y-191550809D01*
X285108569Y-191550809D02*
X285156188Y-191693666D01*
X285156188Y-191693666D02*
X285251426Y-191788904D01*
X285251426Y-191788904D02*
X285346664Y-191836523D01*
X285346664Y-191836523D02*
X285537140Y-191884142D01*
X285537140Y-191884142D02*
X285679997Y-191884142D01*
X285679997Y-191884142D02*
X285870473Y-191836523D01*
X285870473Y-191836523D02*
X285965711Y-191788904D01*
X285965711Y-191788904D02*
X286060950Y-191693666D01*
X286060950Y-191693666D02*
X286108569Y-191550809D01*
X286108569Y-191550809D02*
X286108569Y-191312714D01*
X285108569Y-192741285D02*
X285108569Y-192550809D01*
X285108569Y-192550809D02*
X285156188Y-192455571D01*
X285156188Y-192455571D02*
X285203807Y-192407952D01*
X285203807Y-192407952D02*
X285346664Y-192312714D01*
X285346664Y-192312714D02*
X285537140Y-192265095D01*
X285537140Y-192265095D02*
X285918092Y-192265095D01*
X285918092Y-192265095D02*
X286013330Y-192312714D01*
X286013330Y-192312714D02*
X286060950Y-192360333D01*
X286060950Y-192360333D02*
X286108569Y-192455571D01*
X286108569Y-192455571D02*
X286108569Y-192646047D01*
X286108569Y-192646047D02*
X286060950Y-192741285D01*
X286060950Y-192741285D02*
X286013330Y-192788904D01*
X286013330Y-192788904D02*
X285918092Y-192836523D01*
X285918092Y-192836523D02*
X285679997Y-192836523D01*
X285679997Y-192836523D02*
X285584759Y-192788904D01*
X285584759Y-192788904D02*
X285537140Y-192741285D01*
X285537140Y-192741285D02*
X285489521Y-192646047D01*
X285489521Y-192646047D02*
X285489521Y-192455571D01*
X285489521Y-192455571D02*
X285537140Y-192360333D01*
X285537140Y-192360333D02*
X285584759Y-192312714D01*
X285584759Y-192312714D02*
X285679997Y-192265095D01*
X286108569Y-193788904D02*
X286108569Y-193217476D01*
X286108569Y-193503190D02*
X285108569Y-193503190D01*
X285108569Y-193503190D02*
X285251426Y-193407952D01*
X285251426Y-193407952D02*
X285346664Y-193312714D01*
X285346664Y-193312714D02*
X285394283Y-193217476D01*
X59696344Y-124719819D02*
X59696344Y-123719819D01*
X59696344Y-123719819D02*
X59458249Y-123719819D01*
X59458249Y-123719819D02*
X59315392Y-123767438D01*
X59315392Y-123767438D02*
X59220154Y-123862676D01*
X59220154Y-123862676D02*
X59172535Y-123957914D01*
X59172535Y-123957914D02*
X59124916Y-124148390D01*
X59124916Y-124148390D02*
X59124916Y-124291247D01*
X59124916Y-124291247D02*
X59172535Y-124481723D01*
X59172535Y-124481723D02*
X59220154Y-124576961D01*
X59220154Y-124576961D02*
X59315392Y-124672200D01*
X59315392Y-124672200D02*
X59458249Y-124719819D01*
X59458249Y-124719819D02*
X59696344Y-124719819D01*
X58172535Y-124719819D02*
X58743963Y-124719819D01*
X58458249Y-124719819D02*
X58458249Y-123719819D01*
X58458249Y-123719819D02*
X58553487Y-123862676D01*
X58553487Y-123862676D02*
X58648725Y-123957914D01*
X58648725Y-123957914D02*
X58743963Y-124005533D01*
X78746344Y-124719819D02*
X78746344Y-123719819D01*
X78746344Y-123719819D02*
X78508249Y-123719819D01*
X78508249Y-123719819D02*
X78365392Y-123767438D01*
X78365392Y-123767438D02*
X78270154Y-123862676D01*
X78270154Y-123862676D02*
X78222535Y-123957914D01*
X78222535Y-123957914D02*
X78174916Y-124148390D01*
X78174916Y-124148390D02*
X78174916Y-124291247D01*
X78174916Y-124291247D02*
X78222535Y-124481723D01*
X78222535Y-124481723D02*
X78270154Y-124576961D01*
X78270154Y-124576961D02*
X78365392Y-124672200D01*
X78365392Y-124672200D02*
X78508249Y-124719819D01*
X78508249Y-124719819D02*
X78746344Y-124719819D01*
X77793963Y-123815057D02*
X77746344Y-123767438D01*
X77746344Y-123767438D02*
X77651106Y-123719819D01*
X77651106Y-123719819D02*
X77413011Y-123719819D01*
X77413011Y-123719819D02*
X77317773Y-123767438D01*
X77317773Y-123767438D02*
X77270154Y-123815057D01*
X77270154Y-123815057D02*
X77222535Y-123910295D01*
X77222535Y-123910295D02*
X77222535Y-124005533D01*
X77222535Y-124005533D02*
X77270154Y-124148390D01*
X77270154Y-124148390D02*
X77841582Y-124719819D01*
X77841582Y-124719819D02*
X77222535Y-124719819D01*
X193046344Y-124719819D02*
X193046344Y-123719819D01*
X193046344Y-123719819D02*
X192808249Y-123719819D01*
X192808249Y-123719819D02*
X192665392Y-123767438D01*
X192665392Y-123767438D02*
X192570154Y-123862676D01*
X192570154Y-123862676D02*
X192522535Y-123957914D01*
X192522535Y-123957914D02*
X192474916Y-124148390D01*
X192474916Y-124148390D02*
X192474916Y-124291247D01*
X192474916Y-124291247D02*
X192522535Y-124481723D01*
X192522535Y-124481723D02*
X192570154Y-124576961D01*
X192570154Y-124576961D02*
X192665392Y-124672200D01*
X192665392Y-124672200D02*
X192808249Y-124719819D01*
X192808249Y-124719819D02*
X193046344Y-124719819D01*
X191903487Y-124148390D02*
X191998725Y-124100771D01*
X191998725Y-124100771D02*
X192046344Y-124053152D01*
X192046344Y-124053152D02*
X192093963Y-123957914D01*
X192093963Y-123957914D02*
X192093963Y-123910295D01*
X192093963Y-123910295D02*
X192046344Y-123815057D01*
X192046344Y-123815057D02*
X191998725Y-123767438D01*
X191998725Y-123767438D02*
X191903487Y-123719819D01*
X191903487Y-123719819D02*
X191713011Y-123719819D01*
X191713011Y-123719819D02*
X191617773Y-123767438D01*
X191617773Y-123767438D02*
X191570154Y-123815057D01*
X191570154Y-123815057D02*
X191522535Y-123910295D01*
X191522535Y-123910295D02*
X191522535Y-123957914D01*
X191522535Y-123957914D02*
X191570154Y-124053152D01*
X191570154Y-124053152D02*
X191617773Y-124100771D01*
X191617773Y-124100771D02*
X191713011Y-124148390D01*
X191713011Y-124148390D02*
X191903487Y-124148390D01*
X191903487Y-124148390D02*
X191998725Y-124196009D01*
X191998725Y-124196009D02*
X192046344Y-124243628D01*
X192046344Y-124243628D02*
X192093963Y-124338866D01*
X192093963Y-124338866D02*
X192093963Y-124529342D01*
X192093963Y-124529342D02*
X192046344Y-124624580D01*
X192046344Y-124624580D02*
X191998725Y-124672200D01*
X191998725Y-124672200D02*
X191903487Y-124719819D01*
X191903487Y-124719819D02*
X191713011Y-124719819D01*
X191713011Y-124719819D02*
X191617773Y-124672200D01*
X191617773Y-124672200D02*
X191570154Y-124624580D01*
X191570154Y-124624580D02*
X191522535Y-124529342D01*
X191522535Y-124529342D02*
X191522535Y-124338866D01*
X191522535Y-124338866D02*
X191570154Y-124243628D01*
X191570154Y-124243628D02*
X191617773Y-124196009D01*
X191617773Y-124196009D02*
X191713011Y-124148390D01*
X67033569Y-229412714D02*
X66033569Y-229412714D01*
X66033569Y-229412714D02*
X66033569Y-229650809D01*
X66033569Y-229650809D02*
X66081188Y-229793666D01*
X66081188Y-229793666D02*
X66176426Y-229888904D01*
X66176426Y-229888904D02*
X66271664Y-229936523D01*
X66271664Y-229936523D02*
X66462140Y-229984142D01*
X66462140Y-229984142D02*
X66604997Y-229984142D01*
X66604997Y-229984142D02*
X66795473Y-229936523D01*
X66795473Y-229936523D02*
X66890711Y-229888904D01*
X66890711Y-229888904D02*
X66985950Y-229793666D01*
X66985950Y-229793666D02*
X67033569Y-229650809D01*
X67033569Y-229650809D02*
X67033569Y-229412714D01*
X66033569Y-230317476D02*
X66033569Y-230984142D01*
X66033569Y-230984142D02*
X67033569Y-230555571D01*
X67033569Y-231412714D02*
X67033569Y-231603190D01*
X67033569Y-231603190D02*
X66985950Y-231698428D01*
X66985950Y-231698428D02*
X66938330Y-231746047D01*
X66938330Y-231746047D02*
X66795473Y-231841285D01*
X66795473Y-231841285D02*
X66604997Y-231888904D01*
X66604997Y-231888904D02*
X66224045Y-231888904D01*
X66224045Y-231888904D02*
X66128807Y-231841285D01*
X66128807Y-231841285D02*
X66081188Y-231793666D01*
X66081188Y-231793666D02*
X66033569Y-231698428D01*
X66033569Y-231698428D02*
X66033569Y-231507952D01*
X66033569Y-231507952D02*
X66081188Y-231412714D01*
X66081188Y-231412714D02*
X66128807Y-231365095D01*
X66128807Y-231365095D02*
X66224045Y-231317476D01*
X66224045Y-231317476D02*
X66462140Y-231317476D01*
X66462140Y-231317476D02*
X66557378Y-231365095D01*
X66557378Y-231365095D02*
X66604997Y-231412714D01*
X66604997Y-231412714D02*
X66652616Y-231507952D01*
X66652616Y-231507952D02*
X66652616Y-231698428D01*
X66652616Y-231698428D02*
X66604997Y-231793666D01*
X66604997Y-231793666D02*
X66557378Y-231841285D01*
X66557378Y-231841285D02*
X66462140Y-231888904D01*
X309921069Y-229412714D02*
X308921069Y-229412714D01*
X308921069Y-229412714D02*
X308921069Y-229650809D01*
X308921069Y-229650809D02*
X308968688Y-229793666D01*
X308968688Y-229793666D02*
X309063926Y-229888904D01*
X309063926Y-229888904D02*
X309159164Y-229936523D01*
X309159164Y-229936523D02*
X309349640Y-229984142D01*
X309349640Y-229984142D02*
X309492497Y-229984142D01*
X309492497Y-229984142D02*
X309682973Y-229936523D01*
X309682973Y-229936523D02*
X309778211Y-229888904D01*
X309778211Y-229888904D02*
X309873450Y-229793666D01*
X309873450Y-229793666D02*
X309921069Y-229650809D01*
X309921069Y-229650809D02*
X309921069Y-229412714D01*
X309349640Y-230555571D02*
X309302021Y-230460333D01*
X309302021Y-230460333D02*
X309254402Y-230412714D01*
X309254402Y-230412714D02*
X309159164Y-230365095D01*
X309159164Y-230365095D02*
X309111545Y-230365095D01*
X309111545Y-230365095D02*
X309016307Y-230412714D01*
X309016307Y-230412714D02*
X308968688Y-230460333D01*
X308968688Y-230460333D02*
X308921069Y-230555571D01*
X308921069Y-230555571D02*
X308921069Y-230746047D01*
X308921069Y-230746047D02*
X308968688Y-230841285D01*
X308968688Y-230841285D02*
X309016307Y-230888904D01*
X309016307Y-230888904D02*
X309111545Y-230936523D01*
X309111545Y-230936523D02*
X309159164Y-230936523D01*
X309159164Y-230936523D02*
X309254402Y-230888904D01*
X309254402Y-230888904D02*
X309302021Y-230841285D01*
X309302021Y-230841285D02*
X309349640Y-230746047D01*
X309349640Y-230746047D02*
X309349640Y-230555571D01*
X309349640Y-230555571D02*
X309397259Y-230460333D01*
X309397259Y-230460333D02*
X309444878Y-230412714D01*
X309444878Y-230412714D02*
X309540116Y-230365095D01*
X309540116Y-230365095D02*
X309730592Y-230365095D01*
X309730592Y-230365095D02*
X309825830Y-230412714D01*
X309825830Y-230412714D02*
X309873450Y-230460333D01*
X309873450Y-230460333D02*
X309921069Y-230555571D01*
X309921069Y-230555571D02*
X309921069Y-230746047D01*
X309921069Y-230746047D02*
X309873450Y-230841285D01*
X309873450Y-230841285D02*
X309825830Y-230888904D01*
X309825830Y-230888904D02*
X309730592Y-230936523D01*
X309730592Y-230936523D02*
X309540116Y-230936523D01*
X309540116Y-230936523D02*
X309444878Y-230888904D01*
X309444878Y-230888904D02*
X309397259Y-230841285D01*
X309397259Y-230841285D02*
X309349640Y-230746047D01*
X308921069Y-231841285D02*
X308921069Y-231365095D01*
X308921069Y-231365095D02*
X309397259Y-231317476D01*
X309397259Y-231317476D02*
X309349640Y-231365095D01*
X309349640Y-231365095D02*
X309302021Y-231460333D01*
X309302021Y-231460333D02*
X309302021Y-231698428D01*
X309302021Y-231698428D02*
X309349640Y-231793666D01*
X309349640Y-231793666D02*
X309397259Y-231841285D01*
X309397259Y-231841285D02*
X309492497Y-231888904D01*
X309492497Y-231888904D02*
X309730592Y-231888904D01*
X309730592Y-231888904D02*
X309825830Y-231841285D01*
X309825830Y-231841285D02*
X309873450Y-231793666D01*
X309873450Y-231793666D02*
X309921069Y-231698428D01*
X309921069Y-231698428D02*
X309921069Y-231460333D01*
X309921069Y-231460333D02*
X309873450Y-231365095D01*
X309873450Y-231365095D02*
X309825830Y-231317476D01*
X367071069Y-153212714D02*
X366071069Y-153212714D01*
X366071069Y-153212714D02*
X366071069Y-153450809D01*
X366071069Y-153450809D02*
X366118688Y-153593666D01*
X366118688Y-153593666D02*
X366213926Y-153688904D01*
X366213926Y-153688904D02*
X366309164Y-153736523D01*
X366309164Y-153736523D02*
X366499640Y-153784142D01*
X366499640Y-153784142D02*
X366642497Y-153784142D01*
X366642497Y-153784142D02*
X366832973Y-153736523D01*
X366832973Y-153736523D02*
X366928211Y-153688904D01*
X366928211Y-153688904D02*
X367023450Y-153593666D01*
X367023450Y-153593666D02*
X367071069Y-153450809D01*
X367071069Y-153450809D02*
X367071069Y-153212714D01*
X366071069Y-154117476D02*
X366071069Y-154736523D01*
X366071069Y-154736523D02*
X366452021Y-154403190D01*
X366452021Y-154403190D02*
X366452021Y-154546047D01*
X366452021Y-154546047D02*
X366499640Y-154641285D01*
X366499640Y-154641285D02*
X366547259Y-154688904D01*
X366547259Y-154688904D02*
X366642497Y-154736523D01*
X366642497Y-154736523D02*
X366880592Y-154736523D01*
X366880592Y-154736523D02*
X366975830Y-154688904D01*
X366975830Y-154688904D02*
X367023450Y-154641285D01*
X367023450Y-154641285D02*
X367071069Y-154546047D01*
X367071069Y-154546047D02*
X367071069Y-154260333D01*
X367071069Y-154260333D02*
X367023450Y-154165095D01*
X367023450Y-154165095D02*
X366975830Y-154117476D01*
X366071069Y-155069857D02*
X366071069Y-155688904D01*
X366071069Y-155688904D02*
X366452021Y-155355571D01*
X366452021Y-155355571D02*
X366452021Y-155498428D01*
X366452021Y-155498428D02*
X366499640Y-155593666D01*
X366499640Y-155593666D02*
X366547259Y-155641285D01*
X366547259Y-155641285D02*
X366642497Y-155688904D01*
X366642497Y-155688904D02*
X366880592Y-155688904D01*
X366880592Y-155688904D02*
X366975830Y-155641285D01*
X366975830Y-155641285D02*
X367023450Y-155593666D01*
X367023450Y-155593666D02*
X367071069Y-155498428D01*
X367071069Y-155498428D02*
X367071069Y-155212714D01*
X367071069Y-155212714D02*
X367023450Y-155117476D01*
X367023450Y-155117476D02*
X366975830Y-155069857D01*
X348021069Y-210362714D02*
X347021069Y-210362714D01*
X347021069Y-210362714D02*
X347021069Y-210600809D01*
X347021069Y-210600809D02*
X347068688Y-210743666D01*
X347068688Y-210743666D02*
X347163926Y-210838904D01*
X347163926Y-210838904D02*
X347259164Y-210886523D01*
X347259164Y-210886523D02*
X347449640Y-210934142D01*
X347449640Y-210934142D02*
X347592497Y-210934142D01*
X347592497Y-210934142D02*
X347782973Y-210886523D01*
X347782973Y-210886523D02*
X347878211Y-210838904D01*
X347878211Y-210838904D02*
X347973450Y-210743666D01*
X347973450Y-210743666D02*
X348021069Y-210600809D01*
X348021069Y-210600809D02*
X348021069Y-210362714D01*
X347021069Y-211267476D02*
X347021069Y-211934142D01*
X347021069Y-211934142D02*
X348021069Y-211505571D01*
X347021069Y-212219857D02*
X347021069Y-212886523D01*
X347021069Y-212886523D02*
X348021069Y-212457952D01*
X105133569Y-210362714D02*
X104133569Y-210362714D01*
X104133569Y-210362714D02*
X104133569Y-210600809D01*
X104133569Y-210600809D02*
X104181188Y-210743666D01*
X104181188Y-210743666D02*
X104276426Y-210838904D01*
X104276426Y-210838904D02*
X104371664Y-210886523D01*
X104371664Y-210886523D02*
X104562140Y-210934142D01*
X104562140Y-210934142D02*
X104704997Y-210934142D01*
X104704997Y-210934142D02*
X104895473Y-210886523D01*
X104895473Y-210886523D02*
X104990711Y-210838904D01*
X104990711Y-210838904D02*
X105085950Y-210743666D01*
X105085950Y-210743666D02*
X105133569Y-210600809D01*
X105133569Y-210600809D02*
X105133569Y-210362714D01*
X104133569Y-211791285D02*
X104133569Y-211600809D01*
X104133569Y-211600809D02*
X104181188Y-211505571D01*
X104181188Y-211505571D02*
X104228807Y-211457952D01*
X104228807Y-211457952D02*
X104371664Y-211362714D01*
X104371664Y-211362714D02*
X104562140Y-211315095D01*
X104562140Y-211315095D02*
X104943092Y-211315095D01*
X104943092Y-211315095D02*
X105038330Y-211362714D01*
X105038330Y-211362714D02*
X105085950Y-211410333D01*
X105085950Y-211410333D02*
X105133569Y-211505571D01*
X105133569Y-211505571D02*
X105133569Y-211696047D01*
X105133569Y-211696047D02*
X105085950Y-211791285D01*
X105085950Y-211791285D02*
X105038330Y-211838904D01*
X105038330Y-211838904D02*
X104943092Y-211886523D01*
X104943092Y-211886523D02*
X104704997Y-211886523D01*
X104704997Y-211886523D02*
X104609759Y-211838904D01*
X104609759Y-211838904D02*
X104562140Y-211791285D01*
X104562140Y-211791285D02*
X104514521Y-211696047D01*
X104514521Y-211696047D02*
X104514521Y-211505571D01*
X104514521Y-211505571D02*
X104562140Y-211410333D01*
X104562140Y-211410333D02*
X104609759Y-211362714D01*
X104609759Y-211362714D02*
X104704997Y-211315095D01*
X104133569Y-212743666D02*
X104133569Y-212553190D01*
X104133569Y-212553190D02*
X104181188Y-212457952D01*
X104181188Y-212457952D02*
X104228807Y-212410333D01*
X104228807Y-212410333D02*
X104371664Y-212315095D01*
X104371664Y-212315095D02*
X104562140Y-212267476D01*
X104562140Y-212267476D02*
X104943092Y-212267476D01*
X104943092Y-212267476D02*
X105038330Y-212315095D01*
X105038330Y-212315095D02*
X105085950Y-212362714D01*
X105085950Y-212362714D02*
X105133569Y-212457952D01*
X105133569Y-212457952D02*
X105133569Y-212648428D01*
X105133569Y-212648428D02*
X105085950Y-212743666D01*
X105085950Y-212743666D02*
X105038330Y-212791285D01*
X105038330Y-212791285D02*
X104943092Y-212838904D01*
X104943092Y-212838904D02*
X104704997Y-212838904D01*
X104704997Y-212838904D02*
X104609759Y-212791285D01*
X104609759Y-212791285D02*
X104562140Y-212743666D01*
X104562140Y-212743666D02*
X104514521Y-212648428D01*
X104514521Y-212648428D02*
X104514521Y-212457952D01*
X104514521Y-212457952D02*
X104562140Y-212362714D01*
X104562140Y-212362714D02*
X104609759Y-212315095D01*
X104609759Y-212315095D02*
X104704997Y-212267476D01*
X147996069Y-172262714D02*
X146996069Y-172262714D01*
X146996069Y-172262714D02*
X146996069Y-172500809D01*
X146996069Y-172500809D02*
X147043688Y-172643666D01*
X147043688Y-172643666D02*
X147138926Y-172738904D01*
X147138926Y-172738904D02*
X147234164Y-172786523D01*
X147234164Y-172786523D02*
X147424640Y-172834142D01*
X147424640Y-172834142D02*
X147567497Y-172834142D01*
X147567497Y-172834142D02*
X147757973Y-172786523D01*
X147757973Y-172786523D02*
X147853211Y-172738904D01*
X147853211Y-172738904D02*
X147948450Y-172643666D01*
X147948450Y-172643666D02*
X147996069Y-172500809D01*
X147996069Y-172500809D02*
X147996069Y-172262714D01*
X146996069Y-173167476D02*
X146996069Y-173786523D01*
X146996069Y-173786523D02*
X147377021Y-173453190D01*
X147377021Y-173453190D02*
X147377021Y-173596047D01*
X147377021Y-173596047D02*
X147424640Y-173691285D01*
X147424640Y-173691285D02*
X147472259Y-173738904D01*
X147472259Y-173738904D02*
X147567497Y-173786523D01*
X147567497Y-173786523D02*
X147805592Y-173786523D01*
X147805592Y-173786523D02*
X147900830Y-173738904D01*
X147900830Y-173738904D02*
X147948450Y-173691285D01*
X147948450Y-173691285D02*
X147996069Y-173596047D01*
X147996069Y-173596047D02*
X147996069Y-173310333D01*
X147996069Y-173310333D02*
X147948450Y-173215095D01*
X147948450Y-173215095D02*
X147900830Y-173167476D01*
X147424640Y-174357952D02*
X147377021Y-174262714D01*
X147377021Y-174262714D02*
X147329402Y-174215095D01*
X147329402Y-174215095D02*
X147234164Y-174167476D01*
X147234164Y-174167476D02*
X147186545Y-174167476D01*
X147186545Y-174167476D02*
X147091307Y-174215095D01*
X147091307Y-174215095D02*
X147043688Y-174262714D01*
X147043688Y-174262714D02*
X146996069Y-174357952D01*
X146996069Y-174357952D02*
X146996069Y-174548428D01*
X146996069Y-174548428D02*
X147043688Y-174643666D01*
X147043688Y-174643666D02*
X147091307Y-174691285D01*
X147091307Y-174691285D02*
X147186545Y-174738904D01*
X147186545Y-174738904D02*
X147234164Y-174738904D01*
X147234164Y-174738904D02*
X147329402Y-174691285D01*
X147329402Y-174691285D02*
X147377021Y-174643666D01*
X147377021Y-174643666D02*
X147424640Y-174548428D01*
X147424640Y-174548428D02*
X147424640Y-174357952D01*
X147424640Y-174357952D02*
X147472259Y-174262714D01*
X147472259Y-174262714D02*
X147519878Y-174215095D01*
X147519878Y-174215095D02*
X147615116Y-174167476D01*
X147615116Y-174167476D02*
X147805592Y-174167476D01*
X147805592Y-174167476D02*
X147900830Y-174215095D01*
X147900830Y-174215095D02*
X147948450Y-174262714D01*
X147948450Y-174262714D02*
X147996069Y-174357952D01*
X147996069Y-174357952D02*
X147996069Y-174548428D01*
X147996069Y-174548428D02*
X147948450Y-174643666D01*
X147948450Y-174643666D02*
X147900830Y-174691285D01*
X147900830Y-174691285D02*
X147805592Y-174738904D01*
X147805592Y-174738904D02*
X147615116Y-174738904D01*
X147615116Y-174738904D02*
X147519878Y-174691285D01*
X147519878Y-174691285D02*
X147472259Y-174643666D01*
X147472259Y-174643666D02*
X147424640Y-174548428D01*
X348021069Y-229412714D02*
X347021069Y-229412714D01*
X347021069Y-229412714D02*
X347021069Y-229650809D01*
X347021069Y-229650809D02*
X347068688Y-229793666D01*
X347068688Y-229793666D02*
X347163926Y-229888904D01*
X347163926Y-229888904D02*
X347259164Y-229936523D01*
X347259164Y-229936523D02*
X347449640Y-229984142D01*
X347449640Y-229984142D02*
X347592497Y-229984142D01*
X347592497Y-229984142D02*
X347782973Y-229936523D01*
X347782973Y-229936523D02*
X347878211Y-229888904D01*
X347878211Y-229888904D02*
X347973450Y-229793666D01*
X347973450Y-229793666D02*
X348021069Y-229650809D01*
X348021069Y-229650809D02*
X348021069Y-229412714D01*
X347449640Y-230555571D02*
X347402021Y-230460333D01*
X347402021Y-230460333D02*
X347354402Y-230412714D01*
X347354402Y-230412714D02*
X347259164Y-230365095D01*
X347259164Y-230365095D02*
X347211545Y-230365095D01*
X347211545Y-230365095D02*
X347116307Y-230412714D01*
X347116307Y-230412714D02*
X347068688Y-230460333D01*
X347068688Y-230460333D02*
X347021069Y-230555571D01*
X347021069Y-230555571D02*
X347021069Y-230746047D01*
X347021069Y-230746047D02*
X347068688Y-230841285D01*
X347068688Y-230841285D02*
X347116307Y-230888904D01*
X347116307Y-230888904D02*
X347211545Y-230936523D01*
X347211545Y-230936523D02*
X347259164Y-230936523D01*
X347259164Y-230936523D02*
X347354402Y-230888904D01*
X347354402Y-230888904D02*
X347402021Y-230841285D01*
X347402021Y-230841285D02*
X347449640Y-230746047D01*
X347449640Y-230746047D02*
X347449640Y-230555571D01*
X347449640Y-230555571D02*
X347497259Y-230460333D01*
X347497259Y-230460333D02*
X347544878Y-230412714D01*
X347544878Y-230412714D02*
X347640116Y-230365095D01*
X347640116Y-230365095D02*
X347830592Y-230365095D01*
X347830592Y-230365095D02*
X347925830Y-230412714D01*
X347925830Y-230412714D02*
X347973450Y-230460333D01*
X347973450Y-230460333D02*
X348021069Y-230555571D01*
X348021069Y-230555571D02*
X348021069Y-230746047D01*
X348021069Y-230746047D02*
X347973450Y-230841285D01*
X347973450Y-230841285D02*
X347925830Y-230888904D01*
X347925830Y-230888904D02*
X347830592Y-230936523D01*
X347830592Y-230936523D02*
X347640116Y-230936523D01*
X347640116Y-230936523D02*
X347544878Y-230888904D01*
X347544878Y-230888904D02*
X347497259Y-230841285D01*
X347497259Y-230841285D02*
X347449640Y-230746047D01*
X347021069Y-231269857D02*
X347021069Y-231936523D01*
X347021069Y-231936523D02*
X348021069Y-231507952D01*
X109896069Y-172262714D02*
X108896069Y-172262714D01*
X108896069Y-172262714D02*
X108896069Y-172500809D01*
X108896069Y-172500809D02*
X108943688Y-172643666D01*
X108943688Y-172643666D02*
X109038926Y-172738904D01*
X109038926Y-172738904D02*
X109134164Y-172786523D01*
X109134164Y-172786523D02*
X109324640Y-172834142D01*
X109324640Y-172834142D02*
X109467497Y-172834142D01*
X109467497Y-172834142D02*
X109657973Y-172786523D01*
X109657973Y-172786523D02*
X109753211Y-172738904D01*
X109753211Y-172738904D02*
X109848450Y-172643666D01*
X109848450Y-172643666D02*
X109896069Y-172500809D01*
X109896069Y-172500809D02*
X109896069Y-172262714D01*
X108896069Y-173167476D02*
X108896069Y-173786523D01*
X108896069Y-173786523D02*
X109277021Y-173453190D01*
X109277021Y-173453190D02*
X109277021Y-173596047D01*
X109277021Y-173596047D02*
X109324640Y-173691285D01*
X109324640Y-173691285D02*
X109372259Y-173738904D01*
X109372259Y-173738904D02*
X109467497Y-173786523D01*
X109467497Y-173786523D02*
X109705592Y-173786523D01*
X109705592Y-173786523D02*
X109800830Y-173738904D01*
X109800830Y-173738904D02*
X109848450Y-173691285D01*
X109848450Y-173691285D02*
X109896069Y-173596047D01*
X109896069Y-173596047D02*
X109896069Y-173310333D01*
X109896069Y-173310333D02*
X109848450Y-173215095D01*
X109848450Y-173215095D02*
X109800830Y-173167476D01*
X108896069Y-174643666D02*
X108896069Y-174453190D01*
X108896069Y-174453190D02*
X108943688Y-174357952D01*
X108943688Y-174357952D02*
X108991307Y-174310333D01*
X108991307Y-174310333D02*
X109134164Y-174215095D01*
X109134164Y-174215095D02*
X109324640Y-174167476D01*
X109324640Y-174167476D02*
X109705592Y-174167476D01*
X109705592Y-174167476D02*
X109800830Y-174215095D01*
X109800830Y-174215095D02*
X109848450Y-174262714D01*
X109848450Y-174262714D02*
X109896069Y-174357952D01*
X109896069Y-174357952D02*
X109896069Y-174548428D01*
X109896069Y-174548428D02*
X109848450Y-174643666D01*
X109848450Y-174643666D02*
X109800830Y-174691285D01*
X109800830Y-174691285D02*
X109705592Y-174738904D01*
X109705592Y-174738904D02*
X109467497Y-174738904D01*
X109467497Y-174738904D02*
X109372259Y-174691285D01*
X109372259Y-174691285D02*
X109324640Y-174643666D01*
X109324640Y-174643666D02*
X109277021Y-174548428D01*
X109277021Y-174548428D02*
X109277021Y-174357952D01*
X109277021Y-174357952D02*
X109324640Y-174262714D01*
X109324640Y-174262714D02*
X109372259Y-174215095D01*
X109372259Y-174215095D02*
X109467497Y-174167476D01*
X74177319Y-210362714D02*
X73177319Y-210362714D01*
X73177319Y-210362714D02*
X73177319Y-210600809D01*
X73177319Y-210600809D02*
X73224938Y-210743666D01*
X73224938Y-210743666D02*
X73320176Y-210838904D01*
X73320176Y-210838904D02*
X73415414Y-210886523D01*
X73415414Y-210886523D02*
X73605890Y-210934142D01*
X73605890Y-210934142D02*
X73748747Y-210934142D01*
X73748747Y-210934142D02*
X73939223Y-210886523D01*
X73939223Y-210886523D02*
X74034461Y-210838904D01*
X74034461Y-210838904D02*
X74129700Y-210743666D01*
X74129700Y-210743666D02*
X74177319Y-210600809D01*
X74177319Y-210600809D02*
X74177319Y-210362714D01*
X73177319Y-211791285D02*
X73177319Y-211600809D01*
X73177319Y-211600809D02*
X73224938Y-211505571D01*
X73224938Y-211505571D02*
X73272557Y-211457952D01*
X73272557Y-211457952D02*
X73415414Y-211362714D01*
X73415414Y-211362714D02*
X73605890Y-211315095D01*
X73605890Y-211315095D02*
X73986842Y-211315095D01*
X73986842Y-211315095D02*
X74082080Y-211362714D01*
X74082080Y-211362714D02*
X74129700Y-211410333D01*
X74129700Y-211410333D02*
X74177319Y-211505571D01*
X74177319Y-211505571D02*
X74177319Y-211696047D01*
X74177319Y-211696047D02*
X74129700Y-211791285D01*
X74129700Y-211791285D02*
X74082080Y-211838904D01*
X74082080Y-211838904D02*
X73986842Y-211886523D01*
X73986842Y-211886523D02*
X73748747Y-211886523D01*
X73748747Y-211886523D02*
X73653509Y-211838904D01*
X73653509Y-211838904D02*
X73605890Y-211791285D01*
X73605890Y-211791285D02*
X73558271Y-211696047D01*
X73558271Y-211696047D02*
X73558271Y-211505571D01*
X73558271Y-211505571D02*
X73605890Y-211410333D01*
X73605890Y-211410333D02*
X73653509Y-211362714D01*
X73653509Y-211362714D02*
X73748747Y-211315095D01*
X73177319Y-212791285D02*
X73177319Y-212315095D01*
X73177319Y-212315095D02*
X73653509Y-212267476D01*
X73653509Y-212267476D02*
X73605890Y-212315095D01*
X73605890Y-212315095D02*
X73558271Y-212410333D01*
X73558271Y-212410333D02*
X73558271Y-212648428D01*
X73558271Y-212648428D02*
X73605890Y-212743666D01*
X73605890Y-212743666D02*
X73653509Y-212791285D01*
X73653509Y-212791285D02*
X73748747Y-212838904D01*
X73748747Y-212838904D02*
X73986842Y-212838904D01*
X73986842Y-212838904D02*
X74082080Y-212791285D01*
X74082080Y-212791285D02*
X74129700Y-212743666D01*
X74129700Y-212743666D02*
X74177319Y-212648428D01*
X74177319Y-212648428D02*
X74177319Y-212410333D01*
X74177319Y-212410333D02*
X74129700Y-212315095D01*
X74129700Y-212315095D02*
X74082080Y-212267476D01*
X276583569Y-210362714D02*
X275583569Y-210362714D01*
X275583569Y-210362714D02*
X275583569Y-210600809D01*
X275583569Y-210600809D02*
X275631188Y-210743666D01*
X275631188Y-210743666D02*
X275726426Y-210838904D01*
X275726426Y-210838904D02*
X275821664Y-210886523D01*
X275821664Y-210886523D02*
X276012140Y-210934142D01*
X276012140Y-210934142D02*
X276154997Y-210934142D01*
X276154997Y-210934142D02*
X276345473Y-210886523D01*
X276345473Y-210886523D02*
X276440711Y-210838904D01*
X276440711Y-210838904D02*
X276535950Y-210743666D01*
X276535950Y-210743666D02*
X276583569Y-210600809D01*
X276583569Y-210600809D02*
X276583569Y-210362714D01*
X275583569Y-211267476D02*
X275583569Y-211934142D01*
X275583569Y-211934142D02*
X276583569Y-211505571D01*
X275583569Y-212791285D02*
X275583569Y-212315095D01*
X275583569Y-212315095D02*
X276059759Y-212267476D01*
X276059759Y-212267476D02*
X276012140Y-212315095D01*
X276012140Y-212315095D02*
X275964521Y-212410333D01*
X275964521Y-212410333D02*
X275964521Y-212648428D01*
X275964521Y-212648428D02*
X276012140Y-212743666D01*
X276012140Y-212743666D02*
X276059759Y-212791285D01*
X276059759Y-212791285D02*
X276154997Y-212838904D01*
X276154997Y-212838904D02*
X276393092Y-212838904D01*
X276393092Y-212838904D02*
X276488330Y-212791285D01*
X276488330Y-212791285D02*
X276535950Y-212743666D01*
X276535950Y-212743666D02*
X276583569Y-212648428D01*
X276583569Y-212648428D02*
X276583569Y-212410333D01*
X276583569Y-212410333D02*
X276535950Y-212315095D01*
X276535950Y-212315095D02*
X276488330Y-212267476D01*
X186096069Y-172262714D02*
X185096069Y-172262714D01*
X185096069Y-172262714D02*
X185096069Y-172500809D01*
X185096069Y-172500809D02*
X185143688Y-172643666D01*
X185143688Y-172643666D02*
X185238926Y-172738904D01*
X185238926Y-172738904D02*
X185334164Y-172786523D01*
X185334164Y-172786523D02*
X185524640Y-172834142D01*
X185524640Y-172834142D02*
X185667497Y-172834142D01*
X185667497Y-172834142D02*
X185857973Y-172786523D01*
X185857973Y-172786523D02*
X185953211Y-172738904D01*
X185953211Y-172738904D02*
X186048450Y-172643666D01*
X186048450Y-172643666D02*
X186096069Y-172500809D01*
X186096069Y-172500809D02*
X186096069Y-172262714D01*
X185429402Y-173691285D02*
X186096069Y-173691285D01*
X185048450Y-173453190D02*
X185762735Y-173215095D01*
X185762735Y-173215095D02*
X185762735Y-173834142D01*
X185096069Y-174405571D02*
X185096069Y-174500809D01*
X185096069Y-174500809D02*
X185143688Y-174596047D01*
X185143688Y-174596047D02*
X185191307Y-174643666D01*
X185191307Y-174643666D02*
X185286545Y-174691285D01*
X185286545Y-174691285D02*
X185477021Y-174738904D01*
X185477021Y-174738904D02*
X185715116Y-174738904D01*
X185715116Y-174738904D02*
X185905592Y-174691285D01*
X185905592Y-174691285D02*
X186000830Y-174643666D01*
X186000830Y-174643666D02*
X186048450Y-174596047D01*
X186048450Y-174596047D02*
X186096069Y-174500809D01*
X186096069Y-174500809D02*
X186096069Y-174405571D01*
X186096069Y-174405571D02*
X186048450Y-174310333D01*
X186048450Y-174310333D02*
X186000830Y-174262714D01*
X186000830Y-174262714D02*
X185905592Y-174215095D01*
X185905592Y-174215095D02*
X185715116Y-174167476D01*
X185715116Y-174167476D02*
X185477021Y-174167476D01*
X185477021Y-174167476D02*
X185286545Y-174215095D01*
X185286545Y-174215095D02*
X185191307Y-174262714D01*
X185191307Y-174262714D02*
X185143688Y-174310333D01*
X185143688Y-174310333D02*
X185096069Y-174405571D01*
X69414819Y-191312714D02*
X68414819Y-191312714D01*
X68414819Y-191312714D02*
X68414819Y-191550809D01*
X68414819Y-191550809D02*
X68462438Y-191693666D01*
X68462438Y-191693666D02*
X68557676Y-191788904D01*
X68557676Y-191788904D02*
X68652914Y-191836523D01*
X68652914Y-191836523D02*
X68843390Y-191884142D01*
X68843390Y-191884142D02*
X68986247Y-191884142D01*
X68986247Y-191884142D02*
X69176723Y-191836523D01*
X69176723Y-191836523D02*
X69271961Y-191788904D01*
X69271961Y-191788904D02*
X69367200Y-191693666D01*
X69367200Y-191693666D02*
X69414819Y-191550809D01*
X69414819Y-191550809D02*
X69414819Y-191312714D01*
X68414819Y-192788904D02*
X68414819Y-192312714D01*
X68414819Y-192312714D02*
X68891009Y-192265095D01*
X68891009Y-192265095D02*
X68843390Y-192312714D01*
X68843390Y-192312714D02*
X68795771Y-192407952D01*
X68795771Y-192407952D02*
X68795771Y-192646047D01*
X68795771Y-192646047D02*
X68843390Y-192741285D01*
X68843390Y-192741285D02*
X68891009Y-192788904D01*
X68891009Y-192788904D02*
X68986247Y-192836523D01*
X68986247Y-192836523D02*
X69224342Y-192836523D01*
X69224342Y-192836523D02*
X69319580Y-192788904D01*
X69319580Y-192788904D02*
X69367200Y-192741285D01*
X69367200Y-192741285D02*
X69414819Y-192646047D01*
X69414819Y-192646047D02*
X69414819Y-192407952D01*
X69414819Y-192407952D02*
X69367200Y-192312714D01*
X69367200Y-192312714D02*
X69319580Y-192265095D01*
X68414819Y-193455571D02*
X68414819Y-193550809D01*
X68414819Y-193550809D02*
X68462438Y-193646047D01*
X68462438Y-193646047D02*
X68510057Y-193693666D01*
X68510057Y-193693666D02*
X68605295Y-193741285D01*
X68605295Y-193741285D02*
X68795771Y-193788904D01*
X68795771Y-193788904D02*
X69033866Y-193788904D01*
X69033866Y-193788904D02*
X69224342Y-193741285D01*
X69224342Y-193741285D02*
X69319580Y-193693666D01*
X69319580Y-193693666D02*
X69367200Y-193646047D01*
X69367200Y-193646047D02*
X69414819Y-193550809D01*
X69414819Y-193550809D02*
X69414819Y-193455571D01*
X69414819Y-193455571D02*
X69367200Y-193360333D01*
X69367200Y-193360333D02*
X69319580Y-193312714D01*
X69319580Y-193312714D02*
X69224342Y-193265095D01*
X69224342Y-193265095D02*
X69033866Y-193217476D01*
X69033866Y-193217476D02*
X68795771Y-193217476D01*
X68795771Y-193217476D02*
X68605295Y-193265095D01*
X68605295Y-193265095D02*
X68510057Y-193312714D01*
X68510057Y-193312714D02*
X68462438Y-193360333D01*
X68462438Y-193360333D02*
X68414819Y-193455571D01*
X152758569Y-191312714D02*
X151758569Y-191312714D01*
X151758569Y-191312714D02*
X151758569Y-191550809D01*
X151758569Y-191550809D02*
X151806188Y-191693666D01*
X151806188Y-191693666D02*
X151901426Y-191788904D01*
X151901426Y-191788904D02*
X151996664Y-191836523D01*
X151996664Y-191836523D02*
X152187140Y-191884142D01*
X152187140Y-191884142D02*
X152329997Y-191884142D01*
X152329997Y-191884142D02*
X152520473Y-191836523D01*
X152520473Y-191836523D02*
X152615711Y-191788904D01*
X152615711Y-191788904D02*
X152710950Y-191693666D01*
X152710950Y-191693666D02*
X152758569Y-191550809D01*
X152758569Y-191550809D02*
X152758569Y-191312714D01*
X151758569Y-192788904D02*
X151758569Y-192312714D01*
X151758569Y-192312714D02*
X152234759Y-192265095D01*
X152234759Y-192265095D02*
X152187140Y-192312714D01*
X152187140Y-192312714D02*
X152139521Y-192407952D01*
X152139521Y-192407952D02*
X152139521Y-192646047D01*
X152139521Y-192646047D02*
X152187140Y-192741285D01*
X152187140Y-192741285D02*
X152234759Y-192788904D01*
X152234759Y-192788904D02*
X152329997Y-192836523D01*
X152329997Y-192836523D02*
X152568092Y-192836523D01*
X152568092Y-192836523D02*
X152663330Y-192788904D01*
X152663330Y-192788904D02*
X152710950Y-192741285D01*
X152710950Y-192741285D02*
X152758569Y-192646047D01*
X152758569Y-192646047D02*
X152758569Y-192407952D01*
X152758569Y-192407952D02*
X152710950Y-192312714D01*
X152710950Y-192312714D02*
X152663330Y-192265095D01*
X152091902Y-193693666D02*
X152758569Y-193693666D01*
X151710950Y-193455571D02*
X152425235Y-193217476D01*
X152425235Y-193217476D02*
X152425235Y-193836523D01*
X317064819Y-191312714D02*
X316064819Y-191312714D01*
X316064819Y-191312714D02*
X316064819Y-191550809D01*
X316064819Y-191550809D02*
X316112438Y-191693666D01*
X316112438Y-191693666D02*
X316207676Y-191788904D01*
X316207676Y-191788904D02*
X316302914Y-191836523D01*
X316302914Y-191836523D02*
X316493390Y-191884142D01*
X316493390Y-191884142D02*
X316636247Y-191884142D01*
X316636247Y-191884142D02*
X316826723Y-191836523D01*
X316826723Y-191836523D02*
X316921961Y-191788904D01*
X316921961Y-191788904D02*
X317017200Y-191693666D01*
X317017200Y-191693666D02*
X317064819Y-191550809D01*
X317064819Y-191550809D02*
X317064819Y-191312714D01*
X316064819Y-192741285D02*
X316064819Y-192550809D01*
X316064819Y-192550809D02*
X316112438Y-192455571D01*
X316112438Y-192455571D02*
X316160057Y-192407952D01*
X316160057Y-192407952D02*
X316302914Y-192312714D01*
X316302914Y-192312714D02*
X316493390Y-192265095D01*
X316493390Y-192265095D02*
X316874342Y-192265095D01*
X316874342Y-192265095D02*
X316969580Y-192312714D01*
X316969580Y-192312714D02*
X317017200Y-192360333D01*
X317017200Y-192360333D02*
X317064819Y-192455571D01*
X317064819Y-192455571D02*
X317064819Y-192646047D01*
X317064819Y-192646047D02*
X317017200Y-192741285D01*
X317017200Y-192741285D02*
X316969580Y-192788904D01*
X316969580Y-192788904D02*
X316874342Y-192836523D01*
X316874342Y-192836523D02*
X316636247Y-192836523D01*
X316636247Y-192836523D02*
X316541009Y-192788904D01*
X316541009Y-192788904D02*
X316493390Y-192741285D01*
X316493390Y-192741285D02*
X316445771Y-192646047D01*
X316445771Y-192646047D02*
X316445771Y-192455571D01*
X316445771Y-192455571D02*
X316493390Y-192360333D01*
X316493390Y-192360333D02*
X316541009Y-192312714D01*
X316541009Y-192312714D02*
X316636247Y-192265095D01*
X316160057Y-193217476D02*
X316112438Y-193265095D01*
X316112438Y-193265095D02*
X316064819Y-193360333D01*
X316064819Y-193360333D02*
X316064819Y-193598428D01*
X316064819Y-193598428D02*
X316112438Y-193693666D01*
X316112438Y-193693666D02*
X316160057Y-193741285D01*
X316160057Y-193741285D02*
X316255295Y-193788904D01*
X316255295Y-193788904D02*
X316350533Y-193788904D01*
X316350533Y-193788904D02*
X316493390Y-193741285D01*
X316493390Y-193741285D02*
X317064819Y-193169857D01*
X317064819Y-193169857D02*
X317064819Y-193788904D01*
X176571069Y-153212714D02*
X175571069Y-153212714D01*
X175571069Y-153212714D02*
X175571069Y-153450809D01*
X175571069Y-153450809D02*
X175618688Y-153593666D01*
X175618688Y-153593666D02*
X175713926Y-153688904D01*
X175713926Y-153688904D02*
X175809164Y-153736523D01*
X175809164Y-153736523D02*
X175999640Y-153784142D01*
X175999640Y-153784142D02*
X176142497Y-153784142D01*
X176142497Y-153784142D02*
X176332973Y-153736523D01*
X176332973Y-153736523D02*
X176428211Y-153688904D01*
X176428211Y-153688904D02*
X176523450Y-153593666D01*
X176523450Y-153593666D02*
X176571069Y-153450809D01*
X176571069Y-153450809D02*
X176571069Y-153212714D01*
X175666307Y-154165095D02*
X175618688Y-154212714D01*
X175618688Y-154212714D02*
X175571069Y-154307952D01*
X175571069Y-154307952D02*
X175571069Y-154546047D01*
X175571069Y-154546047D02*
X175618688Y-154641285D01*
X175618688Y-154641285D02*
X175666307Y-154688904D01*
X175666307Y-154688904D02*
X175761545Y-154736523D01*
X175761545Y-154736523D02*
X175856783Y-154736523D01*
X175856783Y-154736523D02*
X175999640Y-154688904D01*
X175999640Y-154688904D02*
X176571069Y-154117476D01*
X176571069Y-154117476D02*
X176571069Y-154736523D01*
X175904402Y-155593666D02*
X176571069Y-155593666D01*
X175523450Y-155355571D02*
X176237735Y-155117476D01*
X176237735Y-155117476D02*
X176237735Y-155736523D01*
X154946344Y-124719819D02*
X154946344Y-123719819D01*
X154946344Y-123719819D02*
X154708249Y-123719819D01*
X154708249Y-123719819D02*
X154565392Y-123767438D01*
X154565392Y-123767438D02*
X154470154Y-123862676D01*
X154470154Y-123862676D02*
X154422535Y-123957914D01*
X154422535Y-123957914D02*
X154374916Y-124148390D01*
X154374916Y-124148390D02*
X154374916Y-124291247D01*
X154374916Y-124291247D02*
X154422535Y-124481723D01*
X154422535Y-124481723D02*
X154470154Y-124576961D01*
X154470154Y-124576961D02*
X154565392Y-124672200D01*
X154565392Y-124672200D02*
X154708249Y-124719819D01*
X154708249Y-124719819D02*
X154946344Y-124719819D01*
X153517773Y-123719819D02*
X153708249Y-123719819D01*
X153708249Y-123719819D02*
X153803487Y-123767438D01*
X153803487Y-123767438D02*
X153851106Y-123815057D01*
X153851106Y-123815057D02*
X153946344Y-123957914D01*
X153946344Y-123957914D02*
X153993963Y-124148390D01*
X153993963Y-124148390D02*
X153993963Y-124529342D01*
X153993963Y-124529342D02*
X153946344Y-124624580D01*
X153946344Y-124624580D02*
X153898725Y-124672200D01*
X153898725Y-124672200D02*
X153803487Y-124719819D01*
X153803487Y-124719819D02*
X153613011Y-124719819D01*
X153613011Y-124719819D02*
X153517773Y-124672200D01*
X153517773Y-124672200D02*
X153470154Y-124624580D01*
X153470154Y-124624580D02*
X153422535Y-124529342D01*
X153422535Y-124529342D02*
X153422535Y-124291247D01*
X153422535Y-124291247D02*
X153470154Y-124196009D01*
X153470154Y-124196009D02*
X153517773Y-124148390D01*
X153517773Y-124148390D02*
X153613011Y-124100771D01*
X153613011Y-124100771D02*
X153803487Y-124100771D01*
X153803487Y-124100771D02*
X153898725Y-124148390D01*
X153898725Y-124148390D02*
X153946344Y-124196009D01*
X153946344Y-124196009D02*
X153993963Y-124291247D01*
X93227319Y-229412714D02*
X92227319Y-229412714D01*
X92227319Y-229412714D02*
X92227319Y-229650809D01*
X92227319Y-229650809D02*
X92274938Y-229793666D01*
X92274938Y-229793666D02*
X92370176Y-229888904D01*
X92370176Y-229888904D02*
X92465414Y-229936523D01*
X92465414Y-229936523D02*
X92655890Y-229984142D01*
X92655890Y-229984142D02*
X92798747Y-229984142D01*
X92798747Y-229984142D02*
X92989223Y-229936523D01*
X92989223Y-229936523D02*
X93084461Y-229888904D01*
X93084461Y-229888904D02*
X93179700Y-229793666D01*
X93179700Y-229793666D02*
X93227319Y-229650809D01*
X93227319Y-229650809D02*
X93227319Y-229412714D01*
X92655890Y-230555571D02*
X92608271Y-230460333D01*
X92608271Y-230460333D02*
X92560652Y-230412714D01*
X92560652Y-230412714D02*
X92465414Y-230365095D01*
X92465414Y-230365095D02*
X92417795Y-230365095D01*
X92417795Y-230365095D02*
X92322557Y-230412714D01*
X92322557Y-230412714D02*
X92274938Y-230460333D01*
X92274938Y-230460333D02*
X92227319Y-230555571D01*
X92227319Y-230555571D02*
X92227319Y-230746047D01*
X92227319Y-230746047D02*
X92274938Y-230841285D01*
X92274938Y-230841285D02*
X92322557Y-230888904D01*
X92322557Y-230888904D02*
X92417795Y-230936523D01*
X92417795Y-230936523D02*
X92465414Y-230936523D01*
X92465414Y-230936523D02*
X92560652Y-230888904D01*
X92560652Y-230888904D02*
X92608271Y-230841285D01*
X92608271Y-230841285D02*
X92655890Y-230746047D01*
X92655890Y-230746047D02*
X92655890Y-230555571D01*
X92655890Y-230555571D02*
X92703509Y-230460333D01*
X92703509Y-230460333D02*
X92751128Y-230412714D01*
X92751128Y-230412714D02*
X92846366Y-230365095D01*
X92846366Y-230365095D02*
X93036842Y-230365095D01*
X93036842Y-230365095D02*
X93132080Y-230412714D01*
X93132080Y-230412714D02*
X93179700Y-230460333D01*
X93179700Y-230460333D02*
X93227319Y-230555571D01*
X93227319Y-230555571D02*
X93227319Y-230746047D01*
X93227319Y-230746047D02*
X93179700Y-230841285D01*
X93179700Y-230841285D02*
X93132080Y-230888904D01*
X93132080Y-230888904D02*
X93036842Y-230936523D01*
X93036842Y-230936523D02*
X92846366Y-230936523D01*
X92846366Y-230936523D02*
X92751128Y-230888904D01*
X92751128Y-230888904D02*
X92703509Y-230841285D01*
X92703509Y-230841285D02*
X92655890Y-230746047D01*
X92227319Y-231555571D02*
X92227319Y-231650809D01*
X92227319Y-231650809D02*
X92274938Y-231746047D01*
X92274938Y-231746047D02*
X92322557Y-231793666D01*
X92322557Y-231793666D02*
X92417795Y-231841285D01*
X92417795Y-231841285D02*
X92608271Y-231888904D01*
X92608271Y-231888904D02*
X92846366Y-231888904D01*
X92846366Y-231888904D02*
X93036842Y-231841285D01*
X93036842Y-231841285D02*
X93132080Y-231793666D01*
X93132080Y-231793666D02*
X93179700Y-231746047D01*
X93179700Y-231746047D02*
X93227319Y-231650809D01*
X93227319Y-231650809D02*
X93227319Y-231555571D01*
X93227319Y-231555571D02*
X93179700Y-231460333D01*
X93179700Y-231460333D02*
X93132080Y-231412714D01*
X93132080Y-231412714D02*
X93036842Y-231365095D01*
X93036842Y-231365095D02*
X92846366Y-231317476D01*
X92846366Y-231317476D02*
X92608271Y-231317476D01*
X92608271Y-231317476D02*
X92417795Y-231365095D01*
X92417795Y-231365095D02*
X92322557Y-231412714D01*
X92322557Y-231412714D02*
X92274938Y-231460333D01*
X92274938Y-231460333D02*
X92227319Y-231555571D01*
X319446069Y-153212714D02*
X318446069Y-153212714D01*
X318446069Y-153212714D02*
X318446069Y-153450809D01*
X318446069Y-153450809D02*
X318493688Y-153593666D01*
X318493688Y-153593666D02*
X318588926Y-153688904D01*
X318588926Y-153688904D02*
X318684164Y-153736523D01*
X318684164Y-153736523D02*
X318874640Y-153784142D01*
X318874640Y-153784142D02*
X319017497Y-153784142D01*
X319017497Y-153784142D02*
X319207973Y-153736523D01*
X319207973Y-153736523D02*
X319303211Y-153688904D01*
X319303211Y-153688904D02*
X319398450Y-153593666D01*
X319398450Y-153593666D02*
X319446069Y-153450809D01*
X319446069Y-153450809D02*
X319446069Y-153212714D01*
X318446069Y-154117476D02*
X318446069Y-154736523D01*
X318446069Y-154736523D02*
X318827021Y-154403190D01*
X318827021Y-154403190D02*
X318827021Y-154546047D01*
X318827021Y-154546047D02*
X318874640Y-154641285D01*
X318874640Y-154641285D02*
X318922259Y-154688904D01*
X318922259Y-154688904D02*
X319017497Y-154736523D01*
X319017497Y-154736523D02*
X319255592Y-154736523D01*
X319255592Y-154736523D02*
X319350830Y-154688904D01*
X319350830Y-154688904D02*
X319398450Y-154641285D01*
X319398450Y-154641285D02*
X319446069Y-154546047D01*
X319446069Y-154546047D02*
X319446069Y-154260333D01*
X319446069Y-154260333D02*
X319398450Y-154165095D01*
X319398450Y-154165095D02*
X319350830Y-154117476D01*
X319446069Y-155688904D02*
X319446069Y-155117476D01*
X319446069Y-155403190D02*
X318446069Y-155403190D01*
X318446069Y-155403190D02*
X318588926Y-155307952D01*
X318588926Y-155307952D02*
X318684164Y-155212714D01*
X318684164Y-155212714D02*
X318731783Y-155117476D01*
X250672535Y-124719819D02*
X250672535Y-123719819D01*
X250672535Y-123719819D02*
X250434440Y-123719819D01*
X250434440Y-123719819D02*
X250291583Y-123767438D01*
X250291583Y-123767438D02*
X250196345Y-123862676D01*
X250196345Y-123862676D02*
X250148726Y-123957914D01*
X250148726Y-123957914D02*
X250101107Y-124148390D01*
X250101107Y-124148390D02*
X250101107Y-124291247D01*
X250101107Y-124291247D02*
X250148726Y-124481723D01*
X250148726Y-124481723D02*
X250196345Y-124576961D01*
X250196345Y-124576961D02*
X250291583Y-124672200D01*
X250291583Y-124672200D02*
X250434440Y-124719819D01*
X250434440Y-124719819D02*
X250672535Y-124719819D01*
X249148726Y-124719819D02*
X249720154Y-124719819D01*
X249434440Y-124719819D02*
X249434440Y-123719819D01*
X249434440Y-123719819D02*
X249529678Y-123862676D01*
X249529678Y-123862676D02*
X249624916Y-123957914D01*
X249624916Y-123957914D02*
X249720154Y-124005533D01*
X248196345Y-124719819D02*
X248767773Y-124719819D01*
X248482059Y-124719819D02*
X248482059Y-123719819D01*
X248482059Y-123719819D02*
X248577297Y-123862676D01*
X248577297Y-123862676D02*
X248672535Y-123957914D01*
X248672535Y-123957914D02*
X248767773Y-124005533D01*
X224196069Y-172262714D02*
X223196069Y-172262714D01*
X223196069Y-172262714D02*
X223196069Y-172500809D01*
X223196069Y-172500809D02*
X223243688Y-172643666D01*
X223243688Y-172643666D02*
X223338926Y-172738904D01*
X223338926Y-172738904D02*
X223434164Y-172786523D01*
X223434164Y-172786523D02*
X223624640Y-172834142D01*
X223624640Y-172834142D02*
X223767497Y-172834142D01*
X223767497Y-172834142D02*
X223957973Y-172786523D01*
X223957973Y-172786523D02*
X224053211Y-172738904D01*
X224053211Y-172738904D02*
X224148450Y-172643666D01*
X224148450Y-172643666D02*
X224196069Y-172500809D01*
X224196069Y-172500809D02*
X224196069Y-172262714D01*
X223529402Y-173691285D02*
X224196069Y-173691285D01*
X223148450Y-173453190D02*
X223862735Y-173215095D01*
X223862735Y-173215095D02*
X223862735Y-173834142D01*
X223291307Y-174167476D02*
X223243688Y-174215095D01*
X223243688Y-174215095D02*
X223196069Y-174310333D01*
X223196069Y-174310333D02*
X223196069Y-174548428D01*
X223196069Y-174548428D02*
X223243688Y-174643666D01*
X223243688Y-174643666D02*
X223291307Y-174691285D01*
X223291307Y-174691285D02*
X223386545Y-174738904D01*
X223386545Y-174738904D02*
X223481783Y-174738904D01*
X223481783Y-174738904D02*
X223624640Y-174691285D01*
X223624640Y-174691285D02*
X224196069Y-174119857D01*
X224196069Y-174119857D02*
X224196069Y-174738904D01*
X367071069Y-172262714D02*
X366071069Y-172262714D01*
X366071069Y-172262714D02*
X366071069Y-172500809D01*
X366071069Y-172500809D02*
X366118688Y-172643666D01*
X366118688Y-172643666D02*
X366213926Y-172738904D01*
X366213926Y-172738904D02*
X366309164Y-172786523D01*
X366309164Y-172786523D02*
X366499640Y-172834142D01*
X366499640Y-172834142D02*
X366642497Y-172834142D01*
X366642497Y-172834142D02*
X366832973Y-172786523D01*
X366832973Y-172786523D02*
X366928211Y-172738904D01*
X366928211Y-172738904D02*
X367023450Y-172643666D01*
X367023450Y-172643666D02*
X367071069Y-172500809D01*
X367071069Y-172500809D02*
X367071069Y-172262714D01*
X366404402Y-173691285D02*
X367071069Y-173691285D01*
X366023450Y-173453190D02*
X366737735Y-173215095D01*
X366737735Y-173215095D02*
X366737735Y-173834142D01*
X367071069Y-174262714D02*
X367071069Y-174453190D01*
X367071069Y-174453190D02*
X367023450Y-174548428D01*
X367023450Y-174548428D02*
X366975830Y-174596047D01*
X366975830Y-174596047D02*
X366832973Y-174691285D01*
X366832973Y-174691285D02*
X366642497Y-174738904D01*
X366642497Y-174738904D02*
X366261545Y-174738904D01*
X366261545Y-174738904D02*
X366166307Y-174691285D01*
X366166307Y-174691285D02*
X366118688Y-174643666D01*
X366118688Y-174643666D02*
X366071069Y-174548428D01*
X366071069Y-174548428D02*
X366071069Y-174357952D01*
X366071069Y-174357952D02*
X366118688Y-174262714D01*
X366118688Y-174262714D02*
X366166307Y-174215095D01*
X366166307Y-174215095D02*
X366261545Y-174167476D01*
X366261545Y-174167476D02*
X366499640Y-174167476D01*
X366499640Y-174167476D02*
X366594878Y-174215095D01*
X366594878Y-174215095D02*
X366642497Y-174262714D01*
X366642497Y-174262714D02*
X366690116Y-174357952D01*
X366690116Y-174357952D02*
X366690116Y-174548428D01*
X366690116Y-174548428D02*
X366642497Y-174643666D01*
X366642497Y-174643666D02*
X366594878Y-174691285D01*
X366594878Y-174691285D02*
X366499640Y-174738904D01*
X243246069Y-172262714D02*
X242246069Y-172262714D01*
X242246069Y-172262714D02*
X242246069Y-172500809D01*
X242246069Y-172500809D02*
X242293688Y-172643666D01*
X242293688Y-172643666D02*
X242388926Y-172738904D01*
X242388926Y-172738904D02*
X242484164Y-172786523D01*
X242484164Y-172786523D02*
X242674640Y-172834142D01*
X242674640Y-172834142D02*
X242817497Y-172834142D01*
X242817497Y-172834142D02*
X243007973Y-172786523D01*
X243007973Y-172786523D02*
X243103211Y-172738904D01*
X243103211Y-172738904D02*
X243198450Y-172643666D01*
X243198450Y-172643666D02*
X243246069Y-172500809D01*
X243246069Y-172500809D02*
X243246069Y-172262714D01*
X242579402Y-173691285D02*
X243246069Y-173691285D01*
X242198450Y-173453190D02*
X242912735Y-173215095D01*
X242912735Y-173215095D02*
X242912735Y-173834142D01*
X242246069Y-174119857D02*
X242246069Y-174738904D01*
X242246069Y-174738904D02*
X242627021Y-174405571D01*
X242627021Y-174405571D02*
X242627021Y-174548428D01*
X242627021Y-174548428D02*
X242674640Y-174643666D01*
X242674640Y-174643666D02*
X242722259Y-174691285D01*
X242722259Y-174691285D02*
X242817497Y-174738904D01*
X242817497Y-174738904D02*
X243055592Y-174738904D01*
X243055592Y-174738904D02*
X243150830Y-174691285D01*
X243150830Y-174691285D02*
X243198450Y-174643666D01*
X243198450Y-174643666D02*
X243246069Y-174548428D01*
X243246069Y-174548428D02*
X243246069Y-174262714D01*
X243246069Y-174262714D02*
X243198450Y-174167476D01*
X243198450Y-174167476D02*
X243150830Y-174119857D01*
X345922535Y-124719819D02*
X345922535Y-123719819D01*
X345922535Y-123719819D02*
X345684440Y-123719819D01*
X345684440Y-123719819D02*
X345541583Y-123767438D01*
X345541583Y-123767438D02*
X345446345Y-123862676D01*
X345446345Y-123862676D02*
X345398726Y-123957914D01*
X345398726Y-123957914D02*
X345351107Y-124148390D01*
X345351107Y-124148390D02*
X345351107Y-124291247D01*
X345351107Y-124291247D02*
X345398726Y-124481723D01*
X345398726Y-124481723D02*
X345446345Y-124576961D01*
X345446345Y-124576961D02*
X345541583Y-124672200D01*
X345541583Y-124672200D02*
X345684440Y-124719819D01*
X345684440Y-124719819D02*
X345922535Y-124719819D01*
X344398726Y-124719819D02*
X344970154Y-124719819D01*
X344684440Y-124719819D02*
X344684440Y-123719819D01*
X344684440Y-123719819D02*
X344779678Y-123862676D01*
X344779678Y-123862676D02*
X344874916Y-123957914D01*
X344874916Y-123957914D02*
X344970154Y-124005533D01*
X343541583Y-123719819D02*
X343732059Y-123719819D01*
X343732059Y-123719819D02*
X343827297Y-123767438D01*
X343827297Y-123767438D02*
X343874916Y-123815057D01*
X343874916Y-123815057D02*
X343970154Y-123957914D01*
X343970154Y-123957914D02*
X344017773Y-124148390D01*
X344017773Y-124148390D02*
X344017773Y-124529342D01*
X344017773Y-124529342D02*
X343970154Y-124624580D01*
X343970154Y-124624580D02*
X343922535Y-124672200D01*
X343922535Y-124672200D02*
X343827297Y-124719819D01*
X343827297Y-124719819D02*
X343636821Y-124719819D01*
X343636821Y-124719819D02*
X343541583Y-124672200D01*
X343541583Y-124672200D02*
X343493964Y-124624580D01*
X343493964Y-124624580D02*
X343446345Y-124529342D01*
X343446345Y-124529342D02*
X343446345Y-124291247D01*
X343446345Y-124291247D02*
X343493964Y-124196009D01*
X343493964Y-124196009D02*
X343541583Y-124148390D01*
X343541583Y-124148390D02*
X343636821Y-124100771D01*
X343636821Y-124100771D02*
X343827297Y-124100771D01*
X343827297Y-124100771D02*
X343922535Y-124148390D01*
X343922535Y-124148390D02*
X343970154Y-124196009D01*
X343970154Y-124196009D02*
X344017773Y-124291247D01*
X81321069Y-153212714D02*
X80321069Y-153212714D01*
X80321069Y-153212714D02*
X80321069Y-153450809D01*
X80321069Y-153450809D02*
X80368688Y-153593666D01*
X80368688Y-153593666D02*
X80463926Y-153688904D01*
X80463926Y-153688904D02*
X80559164Y-153736523D01*
X80559164Y-153736523D02*
X80749640Y-153784142D01*
X80749640Y-153784142D02*
X80892497Y-153784142D01*
X80892497Y-153784142D02*
X81082973Y-153736523D01*
X81082973Y-153736523D02*
X81178211Y-153688904D01*
X81178211Y-153688904D02*
X81273450Y-153593666D01*
X81273450Y-153593666D02*
X81321069Y-153450809D01*
X81321069Y-153450809D02*
X81321069Y-153212714D01*
X81321069Y-154736523D02*
X81321069Y-154165095D01*
X81321069Y-154450809D02*
X80321069Y-154450809D01*
X80321069Y-154450809D02*
X80463926Y-154355571D01*
X80463926Y-154355571D02*
X80559164Y-154260333D01*
X80559164Y-154260333D02*
X80606783Y-154165095D01*
X81321069Y-155212714D02*
X81321069Y-155403190D01*
X81321069Y-155403190D02*
X81273450Y-155498428D01*
X81273450Y-155498428D02*
X81225830Y-155546047D01*
X81225830Y-155546047D02*
X81082973Y-155641285D01*
X81082973Y-155641285D02*
X80892497Y-155688904D01*
X80892497Y-155688904D02*
X80511545Y-155688904D01*
X80511545Y-155688904D02*
X80416307Y-155641285D01*
X80416307Y-155641285D02*
X80368688Y-155593666D01*
X80368688Y-155593666D02*
X80321069Y-155498428D01*
X80321069Y-155498428D02*
X80321069Y-155307952D01*
X80321069Y-155307952D02*
X80368688Y-155212714D01*
X80368688Y-155212714D02*
X80416307Y-155165095D01*
X80416307Y-155165095D02*
X80511545Y-155117476D01*
X80511545Y-155117476D02*
X80749640Y-155117476D01*
X80749640Y-155117476D02*
X80844878Y-155165095D01*
X80844878Y-155165095D02*
X80892497Y-155212714D01*
X80892497Y-155212714D02*
X80940116Y-155307952D01*
X80940116Y-155307952D02*
X80940116Y-155498428D01*
X80940116Y-155498428D02*
X80892497Y-155593666D01*
X80892497Y-155593666D02*
X80844878Y-155641285D01*
X80844878Y-155641285D02*
X80749640Y-155688904D01*
X348021069Y-153212714D02*
X347021069Y-153212714D01*
X347021069Y-153212714D02*
X347021069Y-153450809D01*
X347021069Y-153450809D02*
X347068688Y-153593666D01*
X347068688Y-153593666D02*
X347163926Y-153688904D01*
X347163926Y-153688904D02*
X347259164Y-153736523D01*
X347259164Y-153736523D02*
X347449640Y-153784142D01*
X347449640Y-153784142D02*
X347592497Y-153784142D01*
X347592497Y-153784142D02*
X347782973Y-153736523D01*
X347782973Y-153736523D02*
X347878211Y-153688904D01*
X347878211Y-153688904D02*
X347973450Y-153593666D01*
X347973450Y-153593666D02*
X348021069Y-153450809D01*
X348021069Y-153450809D02*
X348021069Y-153212714D01*
X347021069Y-154117476D02*
X347021069Y-154736523D01*
X347021069Y-154736523D02*
X347402021Y-154403190D01*
X347402021Y-154403190D02*
X347402021Y-154546047D01*
X347402021Y-154546047D02*
X347449640Y-154641285D01*
X347449640Y-154641285D02*
X347497259Y-154688904D01*
X347497259Y-154688904D02*
X347592497Y-154736523D01*
X347592497Y-154736523D02*
X347830592Y-154736523D01*
X347830592Y-154736523D02*
X347925830Y-154688904D01*
X347925830Y-154688904D02*
X347973450Y-154641285D01*
X347973450Y-154641285D02*
X348021069Y-154546047D01*
X348021069Y-154546047D02*
X348021069Y-154260333D01*
X348021069Y-154260333D02*
X347973450Y-154165095D01*
X347973450Y-154165095D02*
X347925830Y-154117476D01*
X347116307Y-155117476D02*
X347068688Y-155165095D01*
X347068688Y-155165095D02*
X347021069Y-155260333D01*
X347021069Y-155260333D02*
X347021069Y-155498428D01*
X347021069Y-155498428D02*
X347068688Y-155593666D01*
X347068688Y-155593666D02*
X347116307Y-155641285D01*
X347116307Y-155641285D02*
X347211545Y-155688904D01*
X347211545Y-155688904D02*
X347306783Y-155688904D01*
X347306783Y-155688904D02*
X347449640Y-155641285D01*
X347449640Y-155641285D02*
X348021069Y-155069857D01*
X348021069Y-155069857D02*
X348021069Y-155688904D01*
X238483569Y-210362714D02*
X237483569Y-210362714D01*
X237483569Y-210362714D02*
X237483569Y-210600809D01*
X237483569Y-210600809D02*
X237531188Y-210743666D01*
X237531188Y-210743666D02*
X237626426Y-210838904D01*
X237626426Y-210838904D02*
X237721664Y-210886523D01*
X237721664Y-210886523D02*
X237912140Y-210934142D01*
X237912140Y-210934142D02*
X238054997Y-210934142D01*
X238054997Y-210934142D02*
X238245473Y-210886523D01*
X238245473Y-210886523D02*
X238340711Y-210838904D01*
X238340711Y-210838904D02*
X238435950Y-210743666D01*
X238435950Y-210743666D02*
X238483569Y-210600809D01*
X238483569Y-210600809D02*
X238483569Y-210362714D01*
X237483569Y-211267476D02*
X237483569Y-211934142D01*
X237483569Y-211934142D02*
X238483569Y-211505571D01*
X237483569Y-212219857D02*
X237483569Y-212838904D01*
X237483569Y-212838904D02*
X237864521Y-212505571D01*
X237864521Y-212505571D02*
X237864521Y-212648428D01*
X237864521Y-212648428D02*
X237912140Y-212743666D01*
X237912140Y-212743666D02*
X237959759Y-212791285D01*
X237959759Y-212791285D02*
X238054997Y-212838904D01*
X238054997Y-212838904D02*
X238293092Y-212838904D01*
X238293092Y-212838904D02*
X238388330Y-212791285D01*
X238388330Y-212791285D02*
X238435950Y-212743666D01*
X238435950Y-212743666D02*
X238483569Y-212648428D01*
X238483569Y-212648428D02*
X238483569Y-212362714D01*
X238483569Y-212362714D02*
X238435950Y-212267476D01*
X238435950Y-212267476D02*
X238388330Y-212219857D01*
X205146069Y-172262714D02*
X204146069Y-172262714D01*
X204146069Y-172262714D02*
X204146069Y-172500809D01*
X204146069Y-172500809D02*
X204193688Y-172643666D01*
X204193688Y-172643666D02*
X204288926Y-172738904D01*
X204288926Y-172738904D02*
X204384164Y-172786523D01*
X204384164Y-172786523D02*
X204574640Y-172834142D01*
X204574640Y-172834142D02*
X204717497Y-172834142D01*
X204717497Y-172834142D02*
X204907973Y-172786523D01*
X204907973Y-172786523D02*
X205003211Y-172738904D01*
X205003211Y-172738904D02*
X205098450Y-172643666D01*
X205098450Y-172643666D02*
X205146069Y-172500809D01*
X205146069Y-172500809D02*
X205146069Y-172262714D01*
X204479402Y-173691285D02*
X205146069Y-173691285D01*
X204098450Y-173453190D02*
X204812735Y-173215095D01*
X204812735Y-173215095D02*
X204812735Y-173834142D01*
X205146069Y-174738904D02*
X205146069Y-174167476D01*
X205146069Y-174453190D02*
X204146069Y-174453190D01*
X204146069Y-174453190D02*
X204288926Y-174357952D01*
X204288926Y-174357952D02*
X204384164Y-174262714D01*
X204384164Y-174262714D02*
X204431783Y-174167476D01*
X312302319Y-210362714D02*
X311302319Y-210362714D01*
X311302319Y-210362714D02*
X311302319Y-210600809D01*
X311302319Y-210600809D02*
X311349938Y-210743666D01*
X311349938Y-210743666D02*
X311445176Y-210838904D01*
X311445176Y-210838904D02*
X311540414Y-210886523D01*
X311540414Y-210886523D02*
X311730890Y-210934142D01*
X311730890Y-210934142D02*
X311873747Y-210934142D01*
X311873747Y-210934142D02*
X312064223Y-210886523D01*
X312064223Y-210886523D02*
X312159461Y-210838904D01*
X312159461Y-210838904D02*
X312254700Y-210743666D01*
X312254700Y-210743666D02*
X312302319Y-210600809D01*
X312302319Y-210600809D02*
X312302319Y-210362714D01*
X311302319Y-211267476D02*
X311302319Y-211934142D01*
X311302319Y-211934142D02*
X312302319Y-211505571D01*
X311302319Y-212743666D02*
X311302319Y-212553190D01*
X311302319Y-212553190D02*
X311349938Y-212457952D01*
X311349938Y-212457952D02*
X311397557Y-212410333D01*
X311397557Y-212410333D02*
X311540414Y-212315095D01*
X311540414Y-212315095D02*
X311730890Y-212267476D01*
X311730890Y-212267476D02*
X312111842Y-212267476D01*
X312111842Y-212267476D02*
X312207080Y-212315095D01*
X312207080Y-212315095D02*
X312254700Y-212362714D01*
X312254700Y-212362714D02*
X312302319Y-212457952D01*
X312302319Y-212457952D02*
X312302319Y-212648428D01*
X312302319Y-212648428D02*
X312254700Y-212743666D01*
X312254700Y-212743666D02*
X312207080Y-212791285D01*
X312207080Y-212791285D02*
X312111842Y-212838904D01*
X312111842Y-212838904D02*
X311873747Y-212838904D01*
X311873747Y-212838904D02*
X311778509Y-212791285D01*
X311778509Y-212791285D02*
X311730890Y-212743666D01*
X311730890Y-212743666D02*
X311683271Y-212648428D01*
X311683271Y-212648428D02*
X311683271Y-212457952D01*
X311683271Y-212457952D02*
X311730890Y-212362714D01*
X311730890Y-212362714D02*
X311778509Y-212315095D01*
X311778509Y-212315095D02*
X311873747Y-212267476D01*
%TO.C,D57*%
D11*
X206548750Y-194610000D02*
X206548750Y-190750000D01*
X208548750Y-194610000D02*
X206548750Y-194610000D01*
X208548750Y-194610000D02*
X208548750Y-190750000D01*
%TO.C,D83*%
X266080000Y-232710000D02*
X266080000Y-228850000D01*
X268080000Y-232710000D02*
X266080000Y-232710000D01*
X268080000Y-232710000D02*
X268080000Y-228850000D01*
%TO.C,D20*%
X97011250Y-156510000D02*
X97011250Y-152650000D01*
X99011250Y-156510000D02*
X97011250Y-156510000D01*
X99011250Y-156510000D02*
X99011250Y-152650000D01*
%TO.C,D4*%
X118191250Y-125170000D02*
X114331250Y-125170000D01*
X118191250Y-125170000D02*
X118191250Y-127170000D01*
X118191250Y-127170000D02*
X114331250Y-127170000D01*
%TO.C,D60*%
X263698750Y-194610000D02*
X263698750Y-190750000D01*
X265698750Y-194610000D02*
X263698750Y-194610000D01*
X265698750Y-194610000D02*
X265698750Y-190750000D01*
%TO.C,D84*%
X287511250Y-232710000D02*
X287511250Y-228850000D01*
X289511250Y-232710000D02*
X287511250Y-232710000D01*
X289511250Y-232710000D02*
X289511250Y-228850000D01*
%TO.C,D13*%
X289641250Y-125170000D02*
X285781250Y-125170000D01*
X289641250Y-125170000D02*
X289641250Y-127170000D01*
X289641250Y-127170000D02*
X285781250Y-127170000D01*
%TO.C,D5*%
X137241250Y-125170000D02*
X133381250Y-125170000D01*
X137241250Y-125170000D02*
X137241250Y-127170000D01*
X137241250Y-127170000D02*
X133381250Y-127170000D01*
%TO.C,D47*%
X320848750Y-175560000D02*
X320848750Y-171700000D01*
X322848750Y-175560000D02*
X320848750Y-175560000D01*
X322848750Y-175560000D02*
X322848750Y-171700000D01*
%TO.C,D74*%
X254173750Y-213660000D02*
X254173750Y-209800000D01*
X256173750Y-213660000D02*
X254173750Y-213660000D01*
X256173750Y-213660000D02*
X256173750Y-209800000D01*
%TO.C,D55*%
X168448750Y-194610000D02*
X168448750Y-190750000D01*
X170448750Y-194610000D02*
X168448750Y-194610000D01*
X170448750Y-194610000D02*
X170448750Y-190750000D01*
%TO.C,D7*%
X175341250Y-125170000D02*
X171481250Y-125170000D01*
X175341250Y-125170000D02*
X175341250Y-127170000D01*
X175341250Y-127170000D02*
X171481250Y-127170000D01*
%TO.C,D23*%
X154161250Y-156510000D02*
X154161250Y-152650000D01*
X156161250Y-156510000D02*
X154161250Y-156510000D01*
X156161250Y-156510000D02*
X156161250Y-152650000D01*
%TO.C,D88*%
X363711250Y-232710000D02*
X363711250Y-228850000D01*
X365711250Y-232710000D02*
X363711250Y-232710000D01*
X365711250Y-232710000D02*
X365711250Y-228850000D01*
%TO.C,D29*%
X268461250Y-156510000D02*
X268461250Y-152650000D01*
X270461250Y-156510000D02*
X268461250Y-156510000D01*
X270461250Y-156510000D02*
X270461250Y-152650000D01*
%TO.C,D25*%
X192261250Y-156510000D02*
X192261250Y-152650000D01*
X194261250Y-156510000D02*
X192261250Y-156510000D01*
X194261250Y-156510000D02*
X194261250Y-152650000D01*
%TO.C,D10*%
X232491250Y-125170000D02*
X228631250Y-125170000D01*
X232491250Y-125170000D02*
X232491250Y-127170000D01*
X232491250Y-127170000D02*
X228631250Y-127170000D01*
%TO.C,D71*%
X197023750Y-213660000D02*
X197023750Y-209800000D01*
X199023750Y-213660000D02*
X197023750Y-213660000D01*
X199023750Y-213660000D02*
X199023750Y-209800000D01*
%TO.C,D56*%
X187498750Y-194610000D02*
X187498750Y-190750000D01*
X189498750Y-194610000D02*
X187498750Y-194610000D01*
X189498750Y-194610000D02*
X189498750Y-190750000D01*
%TO.C,D81*%
X116061250Y-232710000D02*
X116061250Y-228850000D01*
X118061250Y-232710000D02*
X116061250Y-232710000D01*
X118061250Y-232710000D02*
X118061250Y-228850000D01*
%TO.C,D51*%
X92248750Y-194610000D02*
X92248750Y-190750000D01*
X94248750Y-194610000D02*
X92248750Y-194610000D01*
X94248750Y-194610000D02*
X94248750Y-190750000D01*
%TO.C,D15*%
X327741250Y-125170000D02*
X323881250Y-125170000D01*
X327741250Y-125170000D02*
X327741250Y-127170000D01*
X327741250Y-127170000D02*
X323881250Y-127170000D01*
%TO.C,D14*%
X308691250Y-125170000D02*
X304831250Y-125170000D01*
X308691250Y-125170000D02*
X308691250Y-127170000D01*
X308691250Y-127170000D02*
X304831250Y-127170000D01*
%TO.C,D70*%
X177973750Y-213660000D02*
X177973750Y-209800000D01*
X179973750Y-213660000D02*
X177973750Y-213660000D01*
X179973750Y-213660000D02*
X179973750Y-209800000D01*
%TO.C,D9*%
X213441250Y-125170000D02*
X209581250Y-125170000D01*
X213441250Y-125170000D02*
X213441250Y-127170000D01*
X213441250Y-127170000D02*
X209581250Y-127170000D01*
%TO.C,D58*%
X225598750Y-194610000D02*
X225598750Y-190750000D01*
X227598750Y-194610000D02*
X225598750Y-194610000D01*
X227598750Y-194610000D02*
X227598750Y-190750000D01*
%TO.C,D63*%
X344661250Y-194610000D02*
X344661250Y-190750000D01*
X346661250Y-194610000D02*
X344661250Y-194610000D01*
X346661250Y-194610000D02*
X346661250Y-190750000D01*
%TO.C,D39*%
X163686250Y-175560000D02*
X163686250Y-171700000D01*
X165686250Y-175560000D02*
X163686250Y-175560000D01*
X165686250Y-175560000D02*
X165686250Y-171700000D01*
%TO.C,D48*%
X344661250Y-175560000D02*
X344661250Y-171700000D01*
X346661250Y-175560000D02*
X344661250Y-175560000D01*
X346661250Y-175560000D02*
X346661250Y-171700000D01*
%TO.C,D78*%
X363711250Y-213660000D02*
X363711250Y-209800000D01*
X365711250Y-213660000D02*
X363711250Y-213660000D01*
X365711250Y-213660000D02*
X365711250Y-209800000D01*
%TO.C,D52*%
X111298750Y-194610000D02*
X111298750Y-190750000D01*
X113298750Y-194610000D02*
X111298750Y-194610000D01*
X113298750Y-194610000D02*
X113298750Y-190750000D01*
%TO.C,D26*%
X211311250Y-156510000D02*
X211311250Y-152650000D01*
X213311250Y-156510000D02*
X211311250Y-156510000D01*
X213311250Y-156510000D02*
X213311250Y-152650000D01*
%TO.C,D67*%
X120823750Y-213660000D02*
X120823750Y-209800000D01*
X122823750Y-213660000D02*
X120823750Y-213660000D01*
X122823750Y-213660000D02*
X122823750Y-209800000D01*
%TO.C,D17*%
X365841250Y-125170000D02*
X361981250Y-125170000D01*
X365841250Y-125170000D02*
X365841250Y-127170000D01*
X365841250Y-127170000D02*
X361981250Y-127170000D01*
%TO.C,D28*%
X249411250Y-156510000D02*
X249411250Y-152650000D01*
X251411250Y-156510000D02*
X249411250Y-156510000D01*
X251411250Y-156510000D02*
X251411250Y-152650000D01*
%TO.C,D72*%
X216073750Y-213660000D02*
X216073750Y-209800000D01*
X218073750Y-213660000D02*
X216073750Y-213660000D01*
X218073750Y-213660000D02*
X218073750Y-209800000D01*
%TO.C,D3*%
X99141250Y-125170000D02*
X95281250Y-125170000D01*
X99141250Y-125170000D02*
X99141250Y-127170000D01*
X99141250Y-127170000D02*
X95281250Y-127170000D01*
%TO.C,D27*%
X230361250Y-156510000D02*
X230361250Y-152650000D01*
X232361250Y-156510000D02*
X230361250Y-156510000D01*
X232361250Y-156510000D02*
X232361250Y-152650000D01*
%TO.C,D37*%
X125586250Y-175560000D02*
X125586250Y-171700000D01*
X127586250Y-175560000D02*
X125586250Y-175560000D01*
X127586250Y-175560000D02*
X127586250Y-171700000D01*
%TO.C,D18*%
X58911250Y-156510000D02*
X58911250Y-152650000D01*
X60911250Y-156510000D02*
X58911250Y-156510000D01*
X60911250Y-156510000D02*
X60911250Y-152650000D01*
%TO.C,D69*%
X158923750Y-213660000D02*
X158923750Y-209800000D01*
X160923750Y-213660000D02*
X158923750Y-213660000D01*
X160923750Y-213660000D02*
X160923750Y-209800000D01*
%TO.C,D45*%
X277986250Y-175560000D02*
X277986250Y-171700000D01*
X279986250Y-175560000D02*
X277986250Y-175560000D01*
X279986250Y-175560000D02*
X279986250Y-171700000D01*
%TO.C,D44*%
X258936250Y-175560000D02*
X258936250Y-171700000D01*
X260936250Y-175560000D02*
X258936250Y-175560000D01*
X260936250Y-175560000D02*
X260936250Y-171700000D01*
%TO.C,D35*%
X87486250Y-175560000D02*
X87486250Y-171700000D01*
X89486250Y-175560000D02*
X87486250Y-175560000D01*
X89486250Y-175560000D02*
X89486250Y-171700000D01*
%TO.C,D86*%
X325611250Y-232710000D02*
X325611250Y-228850000D01*
X327611250Y-232710000D02*
X325611250Y-232710000D01*
X327611250Y-232710000D02*
X327611250Y-228850000D01*
%TO.C,D30*%
X287511250Y-156510000D02*
X287511250Y-152650000D01*
X289511250Y-156510000D02*
X287511250Y-156510000D01*
X289511250Y-156510000D02*
X289511250Y-152650000D01*
%TO.C,D46*%
X297036250Y-175560000D02*
X297036250Y-171700000D01*
X299036250Y-175560000D02*
X297036250Y-175560000D01*
X299036250Y-175560000D02*
X299036250Y-171700000D01*
%TO.C,D59*%
X244648750Y-194610000D02*
X244648750Y-190750000D01*
X246648750Y-194610000D02*
X244648750Y-194610000D01*
X246648750Y-194610000D02*
X246648750Y-190750000D01*
%TO.C,D64*%
X363711250Y-194610000D02*
X363711250Y-190750000D01*
X365711250Y-194610000D02*
X363711250Y-194610000D01*
X365711250Y-194610000D02*
X365711250Y-190750000D01*
%TO.C,D21*%
X116061250Y-156510000D02*
X116061250Y-152650000D01*
X118061250Y-156510000D02*
X116061250Y-156510000D01*
X118061250Y-156510000D02*
X118061250Y-152650000D01*
%TO.C,D22*%
X135111250Y-156510000D02*
X135111250Y-152650000D01*
X137111250Y-156510000D02*
X135111250Y-156510000D01*
X137111250Y-156510000D02*
X137111250Y-152650000D01*
%TO.C,D12*%
X270591250Y-125170000D02*
X266731250Y-125170000D01*
X270591250Y-125170000D02*
X270591250Y-127170000D01*
X270591250Y-127170000D02*
X266731250Y-127170000D01*
%TO.C,D82*%
X192261250Y-232710000D02*
X192261250Y-228850000D01*
X194261250Y-232710000D02*
X192261250Y-232710000D01*
X194261250Y-232710000D02*
X194261250Y-228850000D01*
%TO.C,D53*%
X130348750Y-194610000D02*
X130348750Y-190750000D01*
X132348750Y-194610000D02*
X130348750Y-194610000D01*
X132348750Y-194610000D02*
X132348750Y-190750000D01*
%TO.C,D68*%
X139873750Y-213660000D02*
X139873750Y-209800000D01*
X141873750Y-213660000D02*
X139873750Y-213660000D01*
X141873750Y-213660000D02*
X141873750Y-209800000D01*
%TO.C,D34*%
X63673750Y-175560000D02*
X63673750Y-171700000D01*
X65673750Y-175560000D02*
X63673750Y-175560000D01*
X65673750Y-175560000D02*
X65673750Y-171700000D01*
%TO.C,D61*%
X282748750Y-194610000D02*
X282748750Y-190750000D01*
X284748750Y-194610000D02*
X282748750Y-194610000D01*
X284748750Y-194610000D02*
X284748750Y-190750000D01*
%TO.C,D1*%
X61041250Y-125170000D02*
X57181250Y-125170000D01*
X61041250Y-125170000D02*
X61041250Y-127170000D01*
X61041250Y-127170000D02*
X57181250Y-127170000D01*
%TO.C,D2*%
X80091250Y-125170000D02*
X76231250Y-125170000D01*
X80091250Y-125170000D02*
X80091250Y-127170000D01*
X80091250Y-127170000D02*
X76231250Y-127170000D01*
%TO.C,D8*%
X194391250Y-125170000D02*
X190531250Y-125170000D01*
X194391250Y-125170000D02*
X194391250Y-127170000D01*
X194391250Y-127170000D02*
X190531250Y-127170000D01*
%TO.C,D79*%
X63673750Y-232710000D02*
X63673750Y-228850000D01*
X65673750Y-232710000D02*
X63673750Y-232710000D01*
X65673750Y-232710000D02*
X65673750Y-228850000D01*
%TO.C,D85*%
X306561250Y-232710000D02*
X306561250Y-228850000D01*
X308561250Y-232710000D02*
X306561250Y-232710000D01*
X308561250Y-232710000D02*
X308561250Y-228850000D01*
%TO.C,D33*%
X363711250Y-156510000D02*
X363711250Y-152650000D01*
X365711250Y-156510000D02*
X363711250Y-156510000D01*
X365711250Y-156510000D02*
X365711250Y-152650000D01*
%TO.C,D77*%
X344661250Y-213660000D02*
X344661250Y-209800000D01*
X346661250Y-213660000D02*
X344661250Y-213660000D01*
X346661250Y-213660000D02*
X346661250Y-209800000D01*
%TO.C,D66*%
X101773750Y-213660000D02*
X101773750Y-209800000D01*
X103773750Y-213660000D02*
X101773750Y-213660000D01*
X103773750Y-213660000D02*
X103773750Y-209800000D01*
%TO.C,D38*%
X144636250Y-175560000D02*
X144636250Y-171700000D01*
X146636250Y-175560000D02*
X144636250Y-175560000D01*
X146636250Y-175560000D02*
X146636250Y-171700000D01*
%TO.C,D87*%
X344661250Y-232710000D02*
X344661250Y-228850000D01*
X346661250Y-232710000D02*
X344661250Y-232710000D01*
X346661250Y-232710000D02*
X346661250Y-228850000D01*
%TO.C,D36*%
X106536250Y-175560000D02*
X106536250Y-171700000D01*
X108536250Y-175560000D02*
X106536250Y-175560000D01*
X108536250Y-175560000D02*
X108536250Y-171700000D01*
%TO.C,D65*%
X70817500Y-213660000D02*
X70817500Y-209800000D01*
X72817500Y-213660000D02*
X70817500Y-213660000D01*
X72817500Y-213660000D02*
X72817500Y-209800000D01*
%TO.C,D75*%
X273223750Y-213660000D02*
X273223750Y-209800000D01*
X275223750Y-213660000D02*
X273223750Y-213660000D01*
X275223750Y-213660000D02*
X275223750Y-209800000D01*
%TO.C,D40*%
X182736250Y-175560000D02*
X182736250Y-171700000D01*
X184736250Y-175560000D02*
X182736250Y-175560000D01*
X184736250Y-175560000D02*
X184736250Y-171700000D01*
%TO.C,D50*%
X66055000Y-194610000D02*
X66055000Y-190750000D01*
X68055000Y-194610000D02*
X66055000Y-194610000D01*
X68055000Y-194610000D02*
X68055000Y-190750000D01*
%TO.C,D54*%
X149398750Y-194610000D02*
X149398750Y-190750000D01*
X151398750Y-194610000D02*
X149398750Y-194610000D01*
X151398750Y-194610000D02*
X151398750Y-190750000D01*
%TO.C,D62*%
X313705000Y-194610000D02*
X313705000Y-190750000D01*
X315705000Y-194610000D02*
X313705000Y-194610000D01*
X315705000Y-194610000D02*
X315705000Y-190750000D01*
%TO.C,D24*%
X173211250Y-156510000D02*
X173211250Y-152650000D01*
X175211250Y-156510000D02*
X173211250Y-156510000D01*
X175211250Y-156510000D02*
X175211250Y-152650000D01*
%TO.C,D6*%
X156291250Y-125170000D02*
X152431250Y-125170000D01*
X156291250Y-125170000D02*
X156291250Y-127170000D01*
X156291250Y-127170000D02*
X152431250Y-127170000D01*
%TO.C,D80*%
X89867500Y-232710000D02*
X89867500Y-228850000D01*
X91867500Y-232710000D02*
X89867500Y-232710000D01*
X91867500Y-232710000D02*
X91867500Y-228850000D01*
%TO.C,D31*%
X316086250Y-156510000D02*
X316086250Y-152650000D01*
X318086250Y-156510000D02*
X316086250Y-156510000D01*
X318086250Y-156510000D02*
X318086250Y-152650000D01*
%TO.C,D11*%
X251541250Y-125170000D02*
X247681250Y-125170000D01*
X251541250Y-125170000D02*
X251541250Y-127170000D01*
X251541250Y-127170000D02*
X247681250Y-127170000D01*
%TO.C,D42*%
X220836250Y-175560000D02*
X220836250Y-171700000D01*
X222836250Y-175560000D02*
X220836250Y-175560000D01*
X222836250Y-175560000D02*
X222836250Y-171700000D01*
%TO.C,D49*%
X363711250Y-175560000D02*
X363711250Y-171700000D01*
X365711250Y-175560000D02*
X363711250Y-175560000D01*
X365711250Y-175560000D02*
X365711250Y-171700000D01*
%TO.C,D43*%
X239886250Y-175560000D02*
X239886250Y-171700000D01*
X241886250Y-175560000D02*
X239886250Y-175560000D01*
X241886250Y-175560000D02*
X241886250Y-171700000D01*
%TO.C,D16*%
X346791250Y-125170000D02*
X342931250Y-125170000D01*
X346791250Y-125170000D02*
X346791250Y-127170000D01*
X346791250Y-127170000D02*
X342931250Y-127170000D01*
%TO.C,D19*%
X77961250Y-156510000D02*
X77961250Y-152650000D01*
X79961250Y-156510000D02*
X77961250Y-156510000D01*
X79961250Y-156510000D02*
X79961250Y-152650000D01*
%TO.C,D32*%
X344661250Y-156510000D02*
X344661250Y-152650000D01*
X346661250Y-156510000D02*
X344661250Y-156510000D01*
X346661250Y-156510000D02*
X346661250Y-152650000D01*
%TO.C,D73*%
X235123750Y-213660000D02*
X235123750Y-209800000D01*
X237123750Y-213660000D02*
X235123750Y-213660000D01*
X237123750Y-213660000D02*
X237123750Y-209800000D01*
%TO.C,D41*%
X201786250Y-175560000D02*
X201786250Y-171700000D01*
X203786250Y-175560000D02*
X201786250Y-175560000D01*
X203786250Y-175560000D02*
X203786250Y-171700000D01*
%TO.C,D76*%
X308942500Y-213660000D02*
X308942500Y-209800000D01*
X310942500Y-213660000D02*
X308942500Y-213660000D01*
X310942500Y-213660000D02*
X310942500Y-209800000D01*
%TD*%
M02*
