%TF.GenerationSoftware,KiCad,Pcbnew,10.0.6*%
%TF.CreationDate,2026-09-19T22:41:33-04:00*%
%TF.ProjectId,alps75-zug,616c7073-3735-42d7-9a75-672e6b696361,rev?*%
%TF.SameCoordinates,Original*%
%TF.FileFunction,Copper,L1,Top*%
%TF.FilePolarity,Positive*%
%FSLAX46Y46*%
G04 Gerber Fmt 4.6, Leading zero omitted, Abs format (unit mm)*
G04 Created by KiCad (PCBNEW 10.0.6) date 2026-09-19 22:41:33*
%MOMM*%
%LPD*%
G01*
G04 APERTURE LIST*
G04 Aperture macros list*
%AMRoundRect*
0 Rectangle with rounded corners*
0 $1 Rounding radius*
0 $2 $3 $4 $5 $6 $7 $8 $9 X,Y pos of 4 corners*
0 Add a 4 corners polygon primitive as box body*
4,1,4,$2,$3,$4,$5,$6,$7,$8,$9,$2,$3,0*
0 Add four circle primitives for the rounded corners*
1,1,$1+$1,$2,$3*
1,1,$1+$1,$4,$5*
1,1,$1+$1,$6,$7*
1,1,$1+$1,$8,$9*
0 Add four rect primitives between the rounded corners*
20,1,$1+$1,$2,$3,$4,$5,0*
20,1,$1+$1,$4,$5,$6,$7,0*
20,1,$1+$1,$6,$7,$8,$9,0*
20,1,$1+$1,$8,$9,$2,$3,0*%
%AMFreePoly0*
4,1,37,0.800000,0.796148,0.878414,0.796148,1.032228,0.765552,1.177117,0.705537,1.307515,0.618408,1.418408,0.507515,1.505537,0.377117,1.565552,0.232228,1.596148,0.078414,1.596148,-0.078414,1.565552,-0.232228,1.505537,-0.377117,1.418408,-0.507515,1.307515,-0.618408,1.177117,-0.705537,1.032228,-0.765552,0.878414,-0.796148,0.800000,-0.796148,0.800000,-0.800000,-1.400000,-0.800000,
-1.403843,-0.796157,-1.439018,-0.796157,-1.511114,-0.766294,-1.566294,-0.711114,-1.596157,-0.639018,-1.596157,-0.603843,-1.600000,-0.600000,-1.600000,0.600000,-1.596157,0.603843,-1.596157,0.639018,-1.566294,0.711114,-1.511114,0.766294,-1.439018,0.796157,-1.403843,0.796157,-1.400000,0.800000,0.800000,0.800000,0.800000,0.796148,0.800000,0.796148,$1*%
%AMFreePoly1*
4,1,37,1.403843,0.796157,1.439018,0.796157,1.511114,0.766294,1.566294,0.711114,1.596157,0.639018,1.596157,0.603843,1.600000,0.600000,1.600000,-0.600000,1.596157,-0.603843,1.596157,-0.639018,1.566294,-0.711114,1.511114,-0.766294,1.439018,-0.796157,1.403843,-0.796157,1.400000,-0.800000,-0.800000,-0.800000,-0.800000,-0.796148,-0.878414,-0.796148,-1.032228,-0.765552,-1.177117,-0.705537,
-1.307515,-0.618408,-1.418408,-0.507515,-1.505537,-0.377117,-1.565552,-0.232228,-1.596148,-0.078414,-1.596148,0.078414,-1.565552,0.232228,-1.505537,0.377117,-1.418408,0.507515,-1.307515,0.618408,-1.177117,0.705537,-1.032228,0.765552,-0.878414,0.796148,-0.800000,0.796148,-0.800000,0.800000,1.400000,0.800000,1.403843,0.796157,1.403843,0.796157,$1*%
%AMFreePoly2*
4,1,37,1.600000,0.796148,1.678414,0.796148,1.832228,0.765552,1.977117,0.705537,2.107515,0.618408,2.218408,0.507515,2.305537,0.377117,2.365552,0.232228,2.396148,0.078414,2.396148,-0.078414,2.365552,-0.232228,2.305537,-0.377117,2.218408,-0.507515,2.107515,-0.618408,1.977117,-0.705537,1.832228,-0.765552,1.678414,-0.796148,1.600000,-0.796148,1.600000,-0.800000,-0.600000,-0.800000,
-0.603843,-0.796157,-0.639018,-0.796157,-0.711114,-0.766294,-0.766294,-0.711114,-0.796157,-0.639018,-0.796157,-0.603843,-0.800000,-0.600000,-0.800000,0.600000,-0.796157,0.603843,-0.796157,0.639018,-0.766294,0.711114,-0.711114,0.766294,-0.639018,0.796157,-0.603843,0.796157,-0.600000,0.800000,1.600000,0.800000,1.600000,0.796148,1.600000,0.796148,$1*%
G04 Aperture macros list end*
%TA.AperFunction,ComponentPad*%
%ADD10C,2.500000*%
%TD*%
%TA.AperFunction,SMDPad,CuDef*%
%ADD11FreePoly0,90.000000*%
%TD*%
%TA.AperFunction,SMDPad,CuDef*%
%ADD12RoundRect,0.800000X0.000010X-0.800000X0.000010X0.800000X-0.000010X0.800000X-0.000010X-0.800000X0*%
%TD*%
%TA.AperFunction,SMDPad,CuDef*%
%ADD13FreePoly1,90.000000*%
%TD*%
%TA.AperFunction,SMDPad,CuDef*%
%ADD14RoundRect,0.800000X0.800000X0.000010X-0.800000X0.000010X-0.800000X-0.000010X0.800000X-0.000010X0*%
%TD*%
%TA.AperFunction,SMDPad,CuDef*%
%ADD15FreePoly2,0.000000*%
%TD*%
%TA.AperFunction,ViaPad*%
%ADD16C,0.600000*%
%TD*%
%TA.AperFunction,Conductor*%
%ADD17C,0.200000*%
%TD*%
G04 APERTURE END LIST*
D10*
%TO.P,SW6,1,1_1*%
%TO.N,COL5*%
X146081250Y-133750000D03*
%TO.P,SW6,2,2_2*%
%TO.N,Net-(D6-A)*%
X145581250Y-128750000D03*
%TD*%
%TO.P,SW13,1,1_1*%
%TO.N,COL12*%
X279431250Y-133750000D03*
%TO.P,SW13,2,2_2*%
%TO.N,Net-(D13-A)*%
X278931250Y-128750000D03*
%TD*%
%TO.P,SW26,1,1_1*%
%TO.N,COL8*%
X204731250Y-146300000D03*
%TO.P,SW26,2,2_2*%
%TO.N,Net-(D26-A)*%
X209731250Y-145800000D03*
%TD*%
%TO.P,SW88,1,1_1*%
%TO.N,COL16*%
X357131250Y-222500000D03*
%TO.P,SW88,2,2_2*%
%TO.N,Net-(D88-A)*%
X362131250Y-222000000D03*
%TD*%
%TO.P,SW8,1,1_1*%
%TO.N,COL7*%
X184181250Y-133750000D03*
%TO.P,SW8,2,2_2*%
%TO.N,Net-(D8-A)*%
X183681250Y-128750000D03*
%TD*%
%TO.P,SW24,1,1_1*%
%TO.N,COL6*%
X166631250Y-146300000D03*
%TO.P,SW24,2,2_2*%
%TO.N,Net-(D24-A)*%
X171631250Y-145800000D03*
%TD*%
%TO.P,SW78,1,1_1*%
%TO.N,COL16*%
X357131250Y-203450000D03*
%TO.P,SW78,2,2_2*%
%TO.N,Net-(D78-A)*%
X362131250Y-202950000D03*
%TD*%
%TO.P,SW59,1,1_1*%
%TO.N,COL9*%
X238068750Y-184400000D03*
%TO.P,SW59,2,2_2*%
%TO.N,Net-(D59-A)*%
X243068750Y-183900000D03*
%TD*%
%TO.P,SW47,1,1_1*%
%TO.N,COL13*%
X314268750Y-165350000D03*
%TO.P,SW47,2,2_2*%
%TO.N,Net-(D47-A)*%
X319268750Y-164850000D03*
%TD*%
%TO.P,SW84,1,1_1*%
%TO.N,COL12*%
X280931250Y-222500000D03*
%TO.P,SW84,2,2_2*%
%TO.N,Net-(D84-A)*%
X285931250Y-222000000D03*
%TD*%
%TO.P,SW32,1,1_1*%
%TO.N,COL15*%
X338081250Y-146300000D03*
%TO.P,SW32,2,2_2*%
%TO.N,Net-(D32-A)*%
X343081250Y-145800000D03*
%TD*%
%TO.P,SW27,1,1_1*%
%TO.N,COL9*%
X223781250Y-146300000D03*
%TO.P,SW27,2,2_2*%
%TO.N,Net-(D27-A)*%
X228781250Y-145800000D03*
%TD*%
%TO.P,SW81,1,1_1*%
%TO.N,COL3*%
X109481250Y-222500000D03*
%TO.P,SW81,2,2_2*%
%TO.N,Net-(D81-A)*%
X114481250Y-222000000D03*
%TD*%
%TO.P,SW48,1,1_1*%
%TO.N,COL15*%
X338081250Y-165350000D03*
%TO.P,SW48,2,2_2*%
%TO.N,Net-(D48-A)*%
X343081250Y-164850000D03*
%TD*%
%TO.P,SW38,1,1_1*%
%TO.N,COL4*%
X138056250Y-165350000D03*
%TO.P,SW38,2,2_2*%
%TO.N,Net-(D38-A)*%
X143056250Y-164850000D03*
%TD*%
%TO.P,SW72,1,1_1*%
%TO.N,COL8*%
X209493750Y-203450000D03*
%TO.P,SW72,2,2_2*%
%TO.N,Net-(D72-A)*%
X214493750Y-202950000D03*
%TD*%
%TO.P,SW29,1,1_1*%
%TO.N,COL11*%
X261881250Y-146300000D03*
%TO.P,SW29,2,2_2*%
%TO.N,Net-(D29-A)*%
X266881250Y-145800000D03*
%TD*%
%TO.P,SW70,1,1_1*%
%TO.N,COL6*%
X171393750Y-203450000D03*
%TO.P,SW70,2,2_2*%
%TO.N,Net-(D70-A)*%
X176393750Y-202950000D03*
%TD*%
%TO.P,SW74,1,1_1*%
%TO.N,COL10*%
X247593750Y-203450000D03*
%TO.P,SW74,2,2_2*%
%TO.N,Net-(D74-A)*%
X252593750Y-202950000D03*
%TD*%
%TO.P,SW65,1,1_1*%
%TO.N,COL0*%
X64237500Y-203450000D03*
%TO.P,SW65,2,2_2*%
%TO.N,Net-(D65-A)*%
X69237500Y-202950000D03*
%TD*%
%TO.P,SW31,1,1_1*%
%TO.N,COL13*%
X309506250Y-146300000D03*
%TO.P,SW31,2,2_2*%
%TO.N,Net-(D31-A)*%
X314506250Y-145800000D03*
%TD*%
%TO.P,SW55,1,1_1*%
%TO.N,COL5*%
X161868750Y-184400000D03*
%TO.P,SW55,2,2_2*%
%TO.N,Net-(D55-A)*%
X166868750Y-183900000D03*
%TD*%
%TO.P,SW5,1,1_1*%
%TO.N,COL4*%
X127031250Y-133750000D03*
%TO.P,SW5,2,2_2*%
%TO.N,Net-(D5-A)*%
X126531250Y-128750000D03*
%TD*%
%TO.P,SW23,1,1_1*%
%TO.N,COL5*%
X147581250Y-146300000D03*
%TO.P,SW23,2,2_2*%
%TO.N,Net-(D23-A)*%
X152581250Y-145800000D03*
%TD*%
%TO.P,SW52,1,1_1*%
%TO.N,COL2*%
X104718750Y-184400000D03*
%TO.P,SW52,2,2_2*%
%TO.N,Net-(D52-A)*%
X109718750Y-183900000D03*
%TD*%
%TO.P,SW61,1,1_1*%
%TO.N,COL11*%
X276168750Y-184400000D03*
%TO.P,SW61,2,2_2*%
%TO.N,Net-(D61-A)*%
X281168750Y-183900000D03*
%TD*%
%TO.P,SW3,1,1_1*%
%TO.N,COL2*%
X88931250Y-133750000D03*
%TO.P,SW3,2,2_2*%
%TO.N,Net-(D3-A)*%
X88431250Y-128750000D03*
%TD*%
%TO.P,SW15,1,1_1*%
%TO.N,COL14*%
X317531250Y-133750000D03*
%TO.P,SW15,2,2_2*%
%TO.N,Net-(D15-A)*%
X317031250Y-128750000D03*
%TD*%
%TO.P,SW46,1,1_1*%
%TO.N,COL12*%
X290456250Y-165350000D03*
%TO.P,SW46,2,2_2*%
%TO.N,Net-(D46-A)*%
X295456250Y-164850000D03*
%TD*%
%TO.P,SW83,1,1_1*%
%TO.N,COL10*%
X259500000Y-222500000D03*
%TO.P,SW83,2,2_2*%
%TO.N,Net-(D83-A)*%
X264500000Y-222000000D03*
%TD*%
%TO.P,SW30,1,1_1*%
%TO.N,COL12*%
X280931250Y-146300000D03*
%TO.P,SW30,2,2_2*%
%TO.N,Net-(D30-A)*%
X285931250Y-145800000D03*
%TD*%
%TO.P,SW86,1,1_1*%
%TO.N,COL14*%
X319031250Y-222500000D03*
%TO.P,SW86,2,2_2*%
%TO.N,Net-(D86-A)*%
X324031250Y-222000000D03*
%TD*%
%TO.P,SW10,1,1_1*%
%TO.N,COL9*%
X222281250Y-133750000D03*
%TO.P,SW10,2,2_2*%
%TO.N,Net-(D10-A)*%
X221781250Y-128750000D03*
%TD*%
%TO.P,SW35,1,1_1*%
%TO.N,COL1*%
X80906250Y-165350000D03*
%TO.P,SW35,2,2_2*%
%TO.N,Net-(D35-A)*%
X85906250Y-164850000D03*
%TD*%
%TO.P,SW56,1,1_1*%
%TO.N,COL6*%
X180918750Y-184400000D03*
%TO.P,SW56,2,2_2*%
%TO.N,Net-(D56-A)*%
X185918750Y-183900000D03*
%TD*%
%TO.P,SW2,1,1_1*%
%TO.N,COL1*%
X69881250Y-133750000D03*
%TO.P,SW2,2,2_2*%
%TO.N,Net-(D2-A)*%
X69381250Y-128750000D03*
%TD*%
%TO.P,SW39,1,1_1*%
%TO.N,COL5*%
X157106250Y-165350000D03*
%TO.P,SW39,2,2_2*%
%TO.N,Net-(D39-A)*%
X162106250Y-164850000D03*
%TD*%
%TO.P,SW51,1,1_1*%
%TO.N,COL1*%
X85668750Y-184400000D03*
%TO.P,SW51,2,2_2*%
%TO.N,Net-(D51-A)*%
X90668750Y-183900000D03*
%TD*%
%TO.P,SW4,1,1_1*%
%TO.N,COL3*%
X107981250Y-133750000D03*
%TO.P,SW4,2,2_2*%
%TO.N,Net-(D4-A)*%
X107481250Y-128750000D03*
%TD*%
%TO.P,SW80,1,1_1*%
%TO.N,COL1*%
X83287500Y-222500000D03*
%TO.P,SW80,2,2_2*%
%TO.N,Net-(D80-A)*%
X88287500Y-222000000D03*
%TD*%
%TO.P,SW54,1,1_1*%
%TO.N,COL4*%
X142818750Y-184400000D03*
%TO.P,SW54,2,2_2*%
%TO.N,Net-(D54-A)*%
X147818750Y-183900000D03*
%TD*%
%TO.P,SW7,1,1_1*%
%TO.N,COL6*%
X165131250Y-133750000D03*
%TO.P,SW7,2,2_2*%
%TO.N,Net-(D7-A)*%
X164631250Y-128750000D03*
%TD*%
%TO.P,SW17,1,1_1*%
%TO.N,COL16*%
X355631250Y-133750000D03*
%TO.P,SW17,2,2_2*%
%TO.N,Net-(D17-A)*%
X355131250Y-128750000D03*
%TD*%
%TO.P,SW76,1,1_1*%
%TO.N,COL13*%
X302362500Y-203450000D03*
%TO.P,SW76,2,2_2*%
%TO.N,Net-(D76-A)*%
X307362500Y-202950000D03*
%TD*%
%TO.P,SW64,1,1_1*%
%TO.N,COL16*%
X357131250Y-184400000D03*
%TO.P,SW64,2,2_2*%
%TO.N,Net-(D64-A)*%
X362131250Y-183900000D03*
%TD*%
%TO.P,SW45,1,1_1*%
%TO.N,COL11*%
X271406250Y-165350000D03*
%TO.P,SW45,2,2_2*%
%TO.N,Net-(D45-A)*%
X276406250Y-164850000D03*
%TD*%
%TO.P,SW33,1,1_1*%
%TO.N,COL16*%
X357131250Y-146300000D03*
%TO.P,SW33,2,2_2*%
%TO.N,Net-(D33-A)*%
X362131250Y-145800000D03*
%TD*%
%TO.P,SW75,1,1_1*%
%TO.N,COL11*%
X266643750Y-203450000D03*
%TO.P,SW75,2,2_2*%
%TO.N,Net-(D75-A)*%
X271643750Y-202950000D03*
%TD*%
%TO.P,SW21,1,1_1*%
%TO.N,COL3*%
X109481250Y-146300000D03*
%TO.P,SW21,2,2_2*%
%TO.N,Net-(D21-A)*%
X114481250Y-145800000D03*
%TD*%
%TO.P,SW50,1,1_1*%
%TO.N,COL0*%
X59475000Y-184400000D03*
%TO.P,SW50,2,2_2*%
%TO.N,Net-(D50-A)*%
X64475000Y-183900000D03*
%TD*%
%TO.P,SW44,1,1_1*%
%TO.N,COL10*%
X252356250Y-165350000D03*
%TO.P,SW44,2,2_2*%
%TO.N,Net-(D44-A)*%
X257356250Y-164850000D03*
%TD*%
%TO.P,SW87,1,1_1*%
%TO.N,COL15*%
X338081250Y-222500000D03*
%TO.P,SW87,2,2_2*%
%TO.N,Net-(D87-A)*%
X343081250Y-222000000D03*
%TD*%
%TO.P,SW20,1,1_1*%
%TO.N,COL2*%
X90431250Y-146300000D03*
%TO.P,SW20,2,2_2*%
%TO.N,Net-(D20-A)*%
X95431250Y-145800000D03*
%TD*%
%TO.P,SW66,1,1_1*%
%TO.N,COL2*%
X95193750Y-203450000D03*
%TO.P,SW66,2,2_2*%
%TO.N,Net-(D66-A)*%
X100193750Y-202950000D03*
%TD*%
%TO.P,SW60,1,1_1*%
%TO.N,COL10*%
X257118750Y-184400000D03*
%TO.P,SW60,2,2_2*%
%TO.N,Net-(D60-A)*%
X262118750Y-183900000D03*
%TD*%
%TO.P,SW25,1,1_1*%
%TO.N,COL7*%
X185681250Y-146300000D03*
%TO.P,SW25,2,2_2*%
%TO.N,Net-(D25-A)*%
X190681250Y-145800000D03*
%TD*%
%TO.P,SW22,1,1_1*%
%TO.N,COL4*%
X128531250Y-146300000D03*
%TO.P,SW22,2,2_2*%
%TO.N,Net-(D22-A)*%
X133531250Y-145800000D03*
%TD*%
%TO.P,SW37,1,1_1*%
%TO.N,COL3*%
X119006250Y-165350000D03*
%TO.P,SW37,2,2_2*%
%TO.N,Net-(D37-A)*%
X124006250Y-164850000D03*
%TD*%
%TO.P,SW28,1,1_1*%
%TO.N,COL10*%
X242831250Y-146300000D03*
%TO.P,SW28,2,2_2*%
%TO.N,Net-(D28-A)*%
X247831250Y-145800000D03*
%TD*%
%TO.P,SW57,1,1_1*%
%TO.N,COL7*%
X199968750Y-184400000D03*
%TO.P,SW57,2,2_2*%
%TO.N,Net-(D57-A)*%
X204968750Y-183900000D03*
%TD*%
%TO.P,SW34,1,1_1*%
%TO.N,COL0*%
X57093750Y-165350000D03*
%TO.P,SW34,2,2_2*%
%TO.N,Net-(D34-A)*%
X62093750Y-164850000D03*
%TD*%
%TO.P,SW69,1,1_1*%
%TO.N,COL5*%
X152343750Y-203450000D03*
%TO.P,SW69,2,2_2*%
%TO.N,Net-(D69-A)*%
X157343750Y-202950000D03*
%TD*%
%TO.P,SW53,1,1_1*%
%TO.N,COL3*%
X123768750Y-184400000D03*
%TO.P,SW53,2,2_2*%
%TO.N,Net-(D53-A)*%
X128768750Y-183900000D03*
%TD*%
%TO.P,SW68,1,1_1*%
%TO.N,COL4*%
X133293750Y-203450000D03*
%TO.P,SW68,2,2_2*%
%TO.N,Net-(D68-A)*%
X138293750Y-202950000D03*
%TD*%
%TO.P,SW67,1,1_1*%
%TO.N,COL3*%
X114243750Y-203450000D03*
%TO.P,SW67,2,2_2*%
%TO.N,Net-(D67-A)*%
X119243750Y-202950000D03*
%TD*%
%TO.P,SW41,1,1_1*%
%TO.N,COL7*%
X195206250Y-165350000D03*
%TO.P,SW41,2,2_2*%
%TO.N,Net-(D41-A)*%
X200206250Y-164850000D03*
%TD*%
%TO.P,SW16,1,1_1*%
%TO.N,COL15*%
X336581250Y-133750000D03*
%TO.P,SW16,2,2_2*%
%TO.N,Net-(D16-A)*%
X336081250Y-128750000D03*
%TD*%
%TO.P,SW49,1,1_1*%
%TO.N,COL16*%
X357131250Y-165350000D03*
%TO.P,SW49,2,2_2*%
%TO.N,Net-(D49-A)*%
X362131250Y-164850000D03*
%TD*%
%TO.P,SW63,1,1_1*%
%TO.N,COL15*%
X338081250Y-184400000D03*
%TO.P,SW63,2,2_2*%
%TO.N,Net-(D63-A)*%
X343081250Y-183900000D03*
%TD*%
%TO.P,SW43,1,1_1*%
%TO.N,COL9*%
X233306250Y-165350000D03*
%TO.P,SW43,2,2_2*%
%TO.N,Net-(D43-A)*%
X238306250Y-164850000D03*
%TD*%
%TO.P,SW82,1,1_1*%
%TO.N,COL7*%
X185681250Y-222500000D03*
%TO.P,SW82,2,2_2*%
%TO.N,Net-(D82-A)*%
X190681250Y-222000000D03*
%TD*%
%TO.P,SW18,1,1_1*%
%TO.N,COL0*%
X52331250Y-146300000D03*
%TO.P,SW18,2,2_2*%
%TO.N,Net-(D18-A)*%
X57331250Y-145800000D03*
%TD*%
%TO.P,SW1,1,1_1*%
%TO.N,COL0*%
X50831250Y-133750000D03*
%TO.P,SW1,2,2_2*%
%TO.N,Net-(D1-A)*%
X50331250Y-128750000D03*
%TD*%
%TO.P,SW77,1,1_1*%
%TO.N,COL15*%
X338081250Y-203450000D03*
%TO.P,SW77,2,2_2*%
%TO.N,Net-(D77-A)*%
X343081250Y-202950000D03*
%TD*%
%TO.P,SW14,1,1_1*%
%TO.N,COL13*%
X298481250Y-133750000D03*
%TO.P,SW14,2,2_2*%
%TO.N,Net-(D14-A)*%
X297981250Y-128750000D03*
%TD*%
%TO.P,SW79,1,1_1*%
%TO.N,COL0*%
X57093750Y-222500000D03*
%TO.P,SW79,2,2_2*%
%TO.N,Net-(D79-A)*%
X62093750Y-222000000D03*
%TD*%
%TO.P,SW11,1,1_1*%
%TO.N,COL10*%
X241331250Y-133750000D03*
%TO.P,SW11,2,2_2*%
%TO.N,Net-(D11-A)*%
X240831250Y-128750000D03*
%TD*%
%TO.P,SW12,1,1_1*%
%TO.N,COL11*%
X260381250Y-133750000D03*
%TO.P,SW12,2,2_2*%
%TO.N,Net-(D12-A)*%
X259881250Y-128750000D03*
%TD*%
%TO.P,SW36,1,1_1*%
%TO.N,COL2*%
X99956250Y-165350000D03*
%TO.P,SW36,2,2_2*%
%TO.N,Net-(D36-A)*%
X104956250Y-164850000D03*
%TD*%
%TO.P,SW40,1,1_1*%
%TO.N,COL6*%
X176156250Y-165350000D03*
%TO.P,SW40,2,2_2*%
%TO.N,Net-(D40-A)*%
X181156250Y-164850000D03*
%TD*%
D11*
%TO.P,U1,1,GPIO0_1*%
%TO.N,COL0*%
X38450000Y-118090000D03*
D12*
%TO.P,U1,2,GPIO1_2*%
%TO.N,COL1*%
X40990000Y-118090000D03*
D13*
%TO.P,U1,3,GND_3*%
%TO.N,Net-(U1-GND-Pad13)*%
X43530000Y-118090000D03*
D12*
%TO.P,U1,4,GPIO2_4*%
%TO.N,COL2*%
X46070000Y-118090000D03*
%TO.P,U1,5,GPIO3_5*%
%TO.N,COL3*%
X48610000Y-118090000D03*
%TO.P,U1,6,GPIO4_6*%
%TO.N,COL4*%
X51150000Y-118090000D03*
%TO.P,U1,7,GPIO5_7*%
%TO.N,COL5*%
X53690000Y-118090000D03*
D13*
%TO.P,U1,8,GND_8*%
%TO.N,Net-(U1-GND-Pad13)*%
X56230000Y-118090000D03*
D12*
%TO.P,U1,9,GPIO6_9*%
%TO.N,COL6*%
X58770000Y-118090000D03*
%TO.P,U1,10,GPIO7_10*%
%TO.N,COL7*%
X61310000Y-118090000D03*
%TO.P,U1,11,GPIO8_11*%
%TO.N,COL8*%
X63850000Y-118090000D03*
%TO.P,U1,12,GPIO9_12*%
%TO.N,COL9*%
X66390000Y-118090000D03*
D13*
%TO.P,U1,13,GND_13*%
%TO.N,Net-(U1-GND-Pad13)*%
X68930000Y-118090000D03*
D12*
%TO.P,U1,14,GPIO10_14*%
%TO.N,COL10*%
X71470000Y-118090000D03*
%TO.P,U1,15,GPIO11_15*%
%TO.N,COL11*%
X74010000Y-118090000D03*
%TO.P,U1,16,GPIO12_16*%
%TO.N,COL12*%
X76550000Y-118090000D03*
%TO.P,U1,17,GPIO13_17*%
%TO.N,COL13*%
X79090000Y-118090000D03*
D13*
%TO.P,U1,18,GND_18*%
%TO.N,Net-(U1-GND-Pad13)*%
X81630000Y-118090000D03*
D12*
%TO.P,U1,19,GPIO14_19*%
%TO.N,COL14*%
X84170000Y-118090000D03*
%TO.P,U1,20,GPIO15_20*%
%TO.N,COL15*%
X86710000Y-118090000D03*
%TO.P,U1,21,GPIO16_21*%
%TO.N,COL16*%
X86710000Y-98710000D03*
%TO.P,U1,22,GPIO17_22*%
%TO.N,ROW0*%
X84170000Y-98710000D03*
D11*
%TO.P,U1,23,GND_23*%
%TO.N,Net-(U1-GND-Pad13)*%
X81630000Y-98710000D03*
D12*
%TO.P,U1,24,GPIO18_24*%
%TO.N,ROW1*%
X79090000Y-98710000D03*
%TO.P,U1,25,GPIO19_25*%
%TO.N,ROW2*%
X76550000Y-98710000D03*
%TO.P,U1,26,GPIO20_26*%
%TO.N,ROW3*%
X74010000Y-98710000D03*
%TO.P,U1,27,GPIO21_27*%
%TO.N,ROW4*%
X71470000Y-98710000D03*
D11*
%TO.P,U1,28,GND_28*%
%TO.N,Net-(U1-GND-Pad13)*%
X68930000Y-98710000D03*
D12*
%TO.P,U1,29,GPIO22_29*%
%TO.N,ROW5*%
X66390000Y-98710000D03*
%TO.P,U1,30,RUN_30*%
%TO.N,unconnected-(U1-RUN-Pad30)*%
X63850000Y-98710000D03*
%TO.P,U1,31,GPIO26_ADC0_31*%
%TO.N,unconnected-(U1-GPIO26_ADC0-Pad31)*%
X61310000Y-98710000D03*
%TO.P,U1,32,GPIO27_ADC1_32*%
%TO.N,unconnected-(U1-GPIO27_ADC1-Pad32)*%
X58770000Y-98710000D03*
D11*
%TO.P,U1,33,AGND_33*%
%TO.N,unconnected-(U1-AGND-Pad33)*%
X56230000Y-98710000D03*
D12*
%TO.P,U1,34,GPIO28_ADC2_34*%
%TO.N,unconnected-(U1-GPIO28_ADC2-Pad34)*%
X53690000Y-98710000D03*
%TO.P,U1,35,ADC_VREF_35*%
%TO.N,unconnected-(U1-ADC_VREF-Pad35)*%
X51150000Y-98710000D03*
%TO.P,U1,36,3V3_36*%
%TO.N,unconnected-(U1-3V3-Pad36)*%
X48610000Y-98710000D03*
%TO.P,U1,37,3V3_EN_37*%
%TO.N,unconnected-(U1-3V3_EN-Pad37)*%
X46070000Y-98710000D03*
D11*
%TO.P,U1,38,GND_38*%
%TO.N,Net-(U1-GND-Pad13)*%
X43530000Y-98710000D03*
D12*
%TO.P,U1,39,VSYS_39*%
%TO.N,unconnected-(U1-VSYS-Pad39)*%
X40990000Y-98710000D03*
%TO.P,U1,40,VBUS_40*%
%TO.N,unconnected-(U1-VBUS-Pad40)*%
X38450000Y-98710000D03*
D14*
%TO.P,U1,D1,SWCLK_D1*%
%TO.N,unconnected-(U1-SWCLK-PadD1)*%
X87280000Y-110940000D03*
D15*
%TO.P,U1,D2,GND_D2*%
%TO.N,Net-(U1-GND-Pad13)*%
X86480000Y-108400000D03*
D14*
%TO.P,U1,D3,SWDIO_D3*%
%TO.N,unconnected-(U1-SWDIO-PadD3)*%
X87280000Y-105860000D03*
%TD*%
D10*
%TO.P,SW42,1,1_1*%
%TO.N,COL8*%
X214256250Y-165350000D03*
%TO.P,SW42,2,2_2*%
%TO.N,Net-(D42-A)*%
X219256250Y-164850000D03*
%TD*%
%TO.P,SW71,1,1_1*%
%TO.N,COL7*%
X190443750Y-203450000D03*
%TO.P,SW71,2,2_2*%
%TO.N,Net-(D71-A)*%
X195443750Y-202950000D03*
%TD*%
%TO.P,SW19,1,1_1*%
%TO.N,COL1*%
X71381250Y-146300000D03*
%TO.P,SW19,2,2_2*%
%TO.N,Net-(D19-A)*%
X76381250Y-145800000D03*
%TD*%
%TO.P,SW58,1,1_1*%
%TO.N,COL8*%
X219018750Y-184400000D03*
%TO.P,SW58,2,2_2*%
%TO.N,Net-(D58-A)*%
X224018750Y-183900000D03*
%TD*%
%TO.P,SW9,1,1_1*%
%TO.N,COL8*%
X203231250Y-133750000D03*
%TO.P,SW9,2,2_2*%
%TO.N,Net-(D9-A)*%
X202731250Y-128750000D03*
%TD*%
%TO.P,SW62,1,1_1*%
%TO.N,COL13*%
X307125000Y-184400000D03*
%TO.P,SW62,2,2_2*%
%TO.N,Net-(D62-A)*%
X312125000Y-183900000D03*
%TD*%
%TO.P,SW85,1,1_1*%
%TO.N,COL13*%
X299981250Y-222500000D03*
%TO.P,SW85,2,2_2*%
%TO.N,Net-(D85-A)*%
X304981250Y-222000000D03*
%TD*%
%TO.P,SW73,1,1_1*%
%TO.N,COL9*%
X228543750Y-203450000D03*
%TO.P,SW73,2,2_2*%
%TO.N,Net-(D73-A)*%
X233543750Y-202950000D03*
%TD*%
D16*
%TO.N,ROW0*%
X93000000Y-95200000D03*
%TO.N,ROW1*%
X94000000Y-94200000D03*
%TO.N,ROW2*%
X95000000Y-93200000D03*
%TO.N,ROW3*%
X96000000Y-92200000D03*
%TO.N,ROW4*%
X97000000Y-91200000D03*
%TO.N,ROW5*%
X98000000Y-90200000D03*
%TD*%
%TO.N,COL5*%
D17*
X146081300Y-144800000D02*
X147581300Y-146300000D01*
X146081300Y-133750000D02*
X147581300Y-132250000D01*
X147581300Y-146300000D02*
X147581300Y-155825000D01*
X147581300Y-155825000D02*
X157106200Y-165350000D01*
X157106200Y-179637500D02*
X161868800Y-184400000D01*
X53690000Y-124000000D02*
X53690000Y-118090000D01*
X157106200Y-165350000D02*
X157106200Y-179637500D01*
X161868800Y-193925000D02*
X152343800Y-203450000D01*
X161868800Y-184400000D02*
X161868800Y-193925000D01*
X146081300Y-133750000D02*
X146081300Y-144800000D01*
X147581300Y-132250000D02*
X147581300Y-125000000D01*
X147581300Y-125000000D02*
X147081300Y-124500000D01*
X147081300Y-124500000D02*
X54190000Y-124500000D01*
X54190000Y-124500000D02*
X53690000Y-124000000D01*
%TO.N,COL12*%
X279431250Y-133750000D02*
X279431250Y-144800000D01*
X280431200Y-121000000D02*
X77050000Y-121000000D01*
X76550000Y-120500000D02*
X76550000Y-118090000D01*
X280931200Y-121500000D02*
X280431200Y-121000000D01*
X280931200Y-132250000D02*
X280931200Y-121500000D01*
X290456250Y-212975000D02*
X280931250Y-222500000D01*
X290456250Y-165350000D02*
X290456250Y-212975000D01*
X279431250Y-144800000D02*
X280931250Y-146300000D01*
X77050000Y-121000000D02*
X76550000Y-120500000D01*
X280931250Y-146300000D02*
X280931250Y-155825000D01*
X279431200Y-133750000D02*
X280931200Y-132250000D01*
X280931250Y-155825000D02*
X290456250Y-165350000D01*
%TO.N,COL8*%
X214256250Y-179637500D02*
X219018750Y-184400000D01*
X203231250Y-144800000D02*
X204731250Y-146300000D01*
X203231250Y-133750000D02*
X203231250Y-144800000D01*
X204731250Y-155825000D02*
X214256250Y-165350000D01*
X204231200Y-123000000D02*
X64350000Y-123000000D01*
X203231200Y-133750000D02*
X204731200Y-132250000D01*
X219018750Y-193925000D02*
X209493750Y-203450000D01*
X63850000Y-122500000D02*
X63850000Y-118090000D01*
X204731200Y-132250000D02*
X204731200Y-123500000D01*
X204731200Y-123500000D02*
X204231200Y-123000000D01*
X214256250Y-165350000D02*
X214256250Y-179637500D01*
X64350000Y-123000000D02*
X63850000Y-122500000D01*
X204731250Y-146300000D02*
X204731250Y-155825000D01*
X219018750Y-184400000D02*
X219018750Y-193925000D01*
%TO.N,COL16*%
X91500000Y-119000000D02*
X91000000Y-118500000D01*
X91000000Y-118500000D02*
X91000000Y-96700000D01*
X357131250Y-146300000D02*
X357131250Y-165350000D01*
X355631250Y-133750000D02*
X355631250Y-144800000D01*
X91000000Y-96700000D02*
X90500000Y-96200000D01*
X355631250Y-144800000D02*
X357131250Y-146300000D01*
X357131250Y-203450000D02*
X357131250Y-222500000D01*
X86710000Y-96700000D02*
X86710000Y-98710000D01*
X357131300Y-132250000D02*
X357131300Y-119500000D01*
X356631300Y-119000000D02*
X91500000Y-119000000D01*
X357131250Y-165350000D02*
X357131250Y-184400000D01*
X87210000Y-96200000D02*
X86710000Y-96700000D01*
X90500000Y-96200000D02*
X87210000Y-96200000D01*
X355631300Y-133750000D02*
X357131300Y-132250000D01*
X357131250Y-184400000D02*
X357131250Y-203450000D01*
X357131300Y-119500000D02*
X356631300Y-119000000D01*
%TO.N,COL7*%
X185681300Y-146300000D02*
X185681300Y-155825000D01*
X185681300Y-124000000D02*
X185181300Y-123500000D01*
X195206300Y-179637500D02*
X199968800Y-184400000D01*
X184181300Y-133750000D02*
X184181300Y-144800000D01*
X199968800Y-184400000D02*
X199968800Y-193925000D01*
X61310000Y-123000000D02*
X61310000Y-118090000D01*
X184181300Y-133750000D02*
X185681300Y-132250000D01*
X195206300Y-165350000D02*
X195206300Y-179637500D01*
X185181300Y-123500000D02*
X61810000Y-123500000D01*
X190443700Y-217737500D02*
X185681300Y-222500000D01*
X185681300Y-155825000D02*
X195206300Y-165350000D01*
X190443700Y-203450000D02*
X190443700Y-217737500D01*
X61810000Y-123500000D02*
X61310000Y-123000000D01*
X184181300Y-144800000D02*
X185681300Y-146300000D01*
X199968800Y-193925000D02*
X190443700Y-203450000D01*
X185681300Y-132250000D02*
X185681300Y-124000000D01*
%TO.N,COL6*%
X165131200Y-144800000D02*
X166631200Y-146300000D01*
X176156200Y-179637500D02*
X180918700Y-184400000D01*
X166131200Y-124000000D02*
X59270000Y-124000000D01*
X58770000Y-123500000D02*
X58770000Y-118090000D01*
X166631200Y-124500000D02*
X166131200Y-124000000D01*
X166631200Y-146300000D02*
X166631200Y-155825000D01*
X180918700Y-184400000D02*
X180918700Y-193925000D01*
X59270000Y-124000000D02*
X58770000Y-123500000D01*
X176156200Y-165350000D02*
X176156200Y-179637500D01*
X165131200Y-133750000D02*
X166631200Y-132250000D01*
X166631200Y-155825000D02*
X176156200Y-165350000D01*
X165131200Y-133750000D02*
X165131200Y-144800000D01*
X166631200Y-132250000D02*
X166631200Y-124500000D01*
X180918700Y-193925000D02*
X171393800Y-203450000D01*
%TO.N,COL9*%
X223781250Y-146300000D02*
X223781250Y-155825000D01*
X223281200Y-122500000D02*
X66890000Y-122500000D01*
X233306250Y-179637500D02*
X238068750Y-184400000D01*
X238068750Y-184400000D02*
X238068750Y-193925000D01*
X222281250Y-144800000D02*
X223781250Y-146300000D01*
X66390000Y-122000000D02*
X66390000Y-118090000D01*
X222281200Y-133750000D02*
X223781200Y-132250000D01*
X66890000Y-122500000D02*
X66390000Y-122000000D01*
X233306250Y-165350000D02*
X233306250Y-179637500D01*
X222281250Y-133750000D02*
X222281250Y-144800000D01*
X238068750Y-193925000D02*
X228543750Y-203450000D01*
X223781200Y-123000000D02*
X223281200Y-122500000D01*
X223781250Y-155825000D02*
X233306250Y-165350000D01*
X223781200Y-132250000D02*
X223781200Y-123000000D01*
%TO.N,COL13*%
X307125000Y-198687500D02*
X302362500Y-203450000D01*
X79590000Y-120500000D02*
X79090000Y-120000000D01*
X302362500Y-220118750D02*
X299981250Y-222500000D01*
X298481250Y-133750000D02*
X298481250Y-135275000D01*
X79090000Y-120000000D02*
X79090000Y-118090000D01*
X314268750Y-165350000D02*
X314268750Y-177256250D01*
X298481250Y-135275000D02*
X309506250Y-146300000D01*
X298481200Y-133750000D02*
X299981200Y-132250000D01*
X307125000Y-184400000D02*
X307125000Y-198687500D01*
X309506250Y-160587500D02*
X314268750Y-165350000D01*
X302362500Y-203450000D02*
X302362500Y-220118750D01*
X309506250Y-146300000D02*
X309506250Y-160587500D01*
X314268750Y-177256250D02*
X307125000Y-184400000D01*
X299981200Y-121000000D02*
X299481200Y-120500000D01*
X299481200Y-120500000D02*
X79590000Y-120500000D01*
X299981200Y-132250000D02*
X299981200Y-121000000D01*
%TO.N,COL15*%
X86710000Y-119000000D02*
X86710000Y-118090000D01*
X336581250Y-133750000D02*
X336581250Y-144800000D01*
X336581300Y-133750000D02*
X338081300Y-132250000D01*
X87210000Y-119500000D02*
X86710000Y-119000000D01*
X338081300Y-132250000D02*
X338081300Y-120000000D01*
X338081300Y-120000000D02*
X337581300Y-119500000D01*
X338081250Y-184400000D02*
X338081250Y-203450000D01*
X336581250Y-144800000D02*
X338081250Y-146300000D01*
X338081250Y-165350000D02*
X338081250Y-184400000D01*
X337581300Y-119500000D02*
X87210000Y-119500000D01*
X338081250Y-146300000D02*
X338081250Y-165350000D01*
X338081250Y-203450000D02*
X338081250Y-222500000D01*
%TO.N,COL3*%
X114243800Y-203450000D02*
X114243800Y-217737500D01*
X123768700Y-193925000D02*
X114243800Y-203450000D01*
X108981300Y-125500000D02*
X49110000Y-125500000D01*
X109481300Y-155825000D02*
X119006200Y-165350000D01*
X49110000Y-125500000D02*
X48610000Y-125000000D01*
X107981300Y-133750000D02*
X109481300Y-132250000D01*
X109481300Y-146300000D02*
X109481300Y-155825000D01*
X119006200Y-165350000D02*
X119006200Y-179637500D01*
X109481300Y-126000000D02*
X108981300Y-125500000D01*
X123768700Y-184400000D02*
X123768700Y-193925000D01*
X107981300Y-133750000D02*
X107981300Y-144800000D01*
X107981300Y-144800000D02*
X109481300Y-146300000D01*
X119006200Y-179637500D02*
X123768700Y-184400000D01*
X114243800Y-217737500D02*
X109481300Y-222500000D01*
X48610000Y-125000000D02*
X48610000Y-118090000D01*
X109481300Y-132250000D02*
X109481300Y-126000000D01*
%TO.N,COL4*%
X128531200Y-132250000D02*
X128531200Y-125500000D01*
X127031200Y-133750000D02*
X127031200Y-144800000D01*
X138056300Y-165350000D02*
X138056300Y-179637500D01*
X128531200Y-155825000D02*
X138056300Y-165350000D01*
X51650000Y-125000000D02*
X51150000Y-124500000D01*
X142818700Y-184400000D02*
X142818700Y-193925000D01*
X128031200Y-125000000D02*
X51650000Y-125000000D01*
X51150000Y-124500000D02*
X51150000Y-118090000D01*
X142818700Y-193925000D02*
X133293700Y-203450000D01*
X128531200Y-125500000D02*
X128031200Y-125000000D01*
X127031200Y-144800000D02*
X128531200Y-146300000D01*
X128531200Y-146300000D02*
X128531200Y-155825000D01*
X127031200Y-133750000D02*
X128531200Y-132250000D01*
X138056300Y-179637500D02*
X142818700Y-184400000D01*
%TO.N,COL11*%
X261381300Y-121500000D02*
X74510000Y-121500000D01*
X260381250Y-144800000D02*
X261881250Y-146300000D01*
X276168750Y-184400000D02*
X276168750Y-193925000D01*
X260381250Y-133750000D02*
X260381250Y-144800000D01*
X261881300Y-122000000D02*
X261381300Y-121500000D01*
X74010000Y-121000000D02*
X74010000Y-118090000D01*
X276168750Y-193925000D02*
X266643750Y-203450000D01*
X74510000Y-121500000D02*
X74010000Y-121000000D01*
X260381300Y-133750000D02*
X261881300Y-132250000D01*
X271406250Y-165350000D02*
X271406250Y-179637500D01*
X261881300Y-132250000D02*
X261881300Y-122000000D01*
X261881250Y-146300000D02*
X261881250Y-155825000D01*
X271406250Y-179637500D02*
X276168750Y-184400000D01*
X261881250Y-155825000D02*
X271406250Y-165350000D01*
%TO.N,COL10*%
X252356250Y-179637500D02*
X257118750Y-184400000D01*
X71470000Y-121500000D02*
X71470000Y-118090000D01*
X247593750Y-210593750D02*
X259500000Y-222500000D01*
X242331300Y-122000000D02*
X71970000Y-122000000D01*
X242831250Y-155825000D02*
X252356250Y-165350000D01*
X257118750Y-184400000D02*
X257118750Y-193925000D01*
X242831250Y-146300000D02*
X242831250Y-155825000D01*
X257118750Y-193925000D02*
X247593750Y-203450000D01*
X252356250Y-165350000D02*
X252356250Y-179637500D01*
X241331250Y-144800000D02*
X242831250Y-146300000D01*
X71970000Y-122000000D02*
X71470000Y-121500000D01*
X242831300Y-122500000D02*
X242331300Y-122000000D01*
X242831300Y-132250000D02*
X242831300Y-122500000D01*
X241331300Y-133750000D02*
X242831300Y-132250000D01*
X247593750Y-203450000D02*
X247593750Y-210593750D01*
X241331250Y-133750000D02*
X241331250Y-144800000D01*
%TO.N,COL0*%
X57093800Y-182018800D02*
X59475000Y-184400000D01*
X50831200Y-144800000D02*
X52331200Y-146300000D01*
X64237500Y-203450000D02*
X64237500Y-215356200D01*
X52331200Y-160587500D02*
X57093800Y-165350000D01*
X57093800Y-165350000D02*
X57093800Y-182018800D01*
X38450000Y-126500000D02*
X38450000Y-118090000D01*
X52331200Y-146300000D02*
X52331200Y-160587500D01*
X38950000Y-127000000D02*
X38450000Y-126500000D01*
X59475000Y-198687500D02*
X64237500Y-203450000D01*
X51831200Y-127000000D02*
X38950000Y-127000000D01*
X52331200Y-132250000D02*
X52331200Y-127500000D01*
X52331200Y-127500000D02*
X51831200Y-127000000D01*
X64237500Y-215356200D02*
X57093800Y-222500000D01*
X59475000Y-184400000D02*
X59475000Y-198687500D01*
X50831200Y-133750000D02*
X50831200Y-144800000D01*
X50831200Y-133750000D02*
X52331200Y-132250000D01*
%TO.N,COL2*%
X104718800Y-184400000D02*
X104718800Y-193925000D01*
X88931300Y-133750000D02*
X90431300Y-132250000D01*
X46570000Y-126000000D02*
X46070000Y-125500000D01*
X104718800Y-193925000D02*
X95193700Y-203450000D01*
X89931300Y-126000000D02*
X46570000Y-126000000D01*
X90431300Y-132250000D02*
X90431300Y-126500000D01*
X88931300Y-144800000D02*
X90431300Y-146300000D01*
X46070000Y-125500000D02*
X46070000Y-118090000D01*
X99956200Y-179637500D02*
X104718800Y-184400000D01*
X90431300Y-155825000D02*
X99956200Y-165350000D01*
X90431300Y-146300000D02*
X90431300Y-155825000D01*
X88931300Y-133750000D02*
X88931300Y-144800000D01*
X90431300Y-126500000D02*
X89931300Y-126000000D01*
X99956200Y-165350000D02*
X99956200Y-179637500D01*
%TO.N,COL14*%
X84670000Y-120000000D02*
X84170000Y-119500000D01*
X326500000Y-215031250D02*
X319031250Y-222500000D01*
X317531250Y-133750000D02*
X326500000Y-142718750D01*
X326500000Y-142718750D02*
X326500000Y-215031250D01*
X317531200Y-133750000D02*
X319031200Y-132250000D01*
X319031200Y-132250000D02*
X319031200Y-120500000D01*
X319031200Y-120500000D02*
X318531200Y-120000000D01*
X318531200Y-120000000D02*
X84670000Y-120000000D01*
X84170000Y-119500000D02*
X84170000Y-118090000D01*
%TO.N,COL1*%
X71381200Y-155825000D02*
X80906200Y-165350000D01*
X71381200Y-127000000D02*
X70881200Y-126500000D01*
X69881200Y-144800000D02*
X71381200Y-146300000D01*
X70881200Y-126500000D02*
X41490000Y-126500000D01*
X85668800Y-220118700D02*
X83287500Y-222500000D01*
X80906200Y-179637500D02*
X85668800Y-184400000D01*
X40990000Y-126000000D02*
X40990000Y-118090000D01*
X69881200Y-133750000D02*
X69881200Y-144800000D01*
X71381200Y-146300000D02*
X71381200Y-155825000D01*
X69881200Y-133750000D02*
X71381200Y-132250000D01*
X71381200Y-132250000D02*
X71381200Y-127000000D01*
X85668800Y-184400000D02*
X85668800Y-220118700D01*
X41490000Y-126500000D02*
X40990000Y-126000000D01*
X80906200Y-165350000D02*
X80906200Y-179637500D01*
%TO.N,ROW0*%
X84670000Y-95200000D02*
X84170000Y-95700000D01*
X84170000Y-95700000D02*
X84170000Y-98710000D01*
X93000000Y-95200000D02*
X84670000Y-95200000D01*
%TO.N,ROW1*%
X79090000Y-94700000D02*
X79090000Y-98710000D01*
X79590000Y-94200000D02*
X79090000Y-94700000D01*
X94000000Y-94200000D02*
X79590000Y-94200000D01*
%TO.N,ROW2*%
X77050000Y-93200000D02*
X76550000Y-93700000D01*
X95000000Y-93200000D02*
X77050000Y-93200000D01*
X76550000Y-93700000D02*
X76550000Y-98710000D01*
%TO.N,ROW3*%
X74010000Y-92700000D02*
X74010000Y-98710000D01*
X74510000Y-92200000D02*
X74010000Y-92700000D01*
X96000000Y-92200000D02*
X74510000Y-92200000D01*
%TO.N,ROW4*%
X71470000Y-91700000D02*
X71470000Y-98710000D01*
X71970000Y-91200000D02*
X71470000Y-91700000D01*
X97000000Y-91200000D02*
X71970000Y-91200000D01*
%TO.N,ROW5*%
X66390000Y-90700000D02*
X66390000Y-98710000D01*
X66890000Y-90200000D02*
X66390000Y-90700000D01*
X98000000Y-90200000D02*
X66890000Y-90200000D01*
%TO.N,Net-(U1-GND-Pad13)*%
X43530000Y-98710000D02*
X43530000Y-104000000D01*
X43530000Y-104000000D02*
X43530000Y-118090000D01*
X68930000Y-98710000D02*
X68930000Y-104000000D01*
X68930000Y-104000000D02*
X68930000Y-118090000D01*
X81630000Y-98710000D02*
X81630000Y-104000000D01*
X81630000Y-104000000D02*
X81630000Y-108400000D01*
X81630000Y-108400000D02*
X81630000Y-118090000D01*
X56230000Y-104000000D02*
X56230000Y-118090000D01*
X43530000Y-104000000D02*
X56230000Y-104000000D01*
X56230000Y-104000000D02*
X68930000Y-104000000D01*
X68930000Y-104000000D02*
X81630000Y-104000000D01*
X81630000Y-108400000D02*
X86480000Y-108400000D01*
%TD*%
M02*
