%TF.GenerationSoftware,KiCad,Pcbnew,10.0.6*%
%TF.CreationDate,2026-09-19T22:41:33-04:00*%
%TF.ProjectId,alps75-zug,616c7073-3735-42d7-9a75-672e6b696361,rev?*%
%TF.SameCoordinates,Original*%
%TF.FileFunction,Paste,Bot*%
%TF.FilePolarity,Positive*%
%FSLAX46Y46*%
G04 Gerber Fmt 4.6, Leading zero omitted, Abs format (unit mm)*
G04 Created by KiCad (PCBNEW 10.0.6) date 2026-09-19 22:41:33*
%MOMM*%
%LPD*%
G01*
G04 APERTURE LIST*
G04 Aperture macros list*
%AMRoundRect*
0 Rectangle with rounded corners*
0 $1 Rounding radius*
0 $2 $3 $4 $5 $6 $7 $8 $9 X,Y pos of 4 corners*
0 Add a 4 corners polygon primitive as box body*
4,1,4,$2,$3,$4,$5,$6,$7,$8,$9,$2,$3,0*
0 Add four circle primitives for the rounded corners*
1,1,$1+$1,$2,$3*
1,1,$1+$1,$4,$5*
1,1,$1+$1,$6,$7*
1,1,$1+$1,$8,$9*
0 Add four rect primitives between the rounded corners*
20,1,$1+$1,$2,$3,$4,$5,0*
20,1,$1+$1,$4,$5,$6,$7,0*
20,1,$1+$1,$6,$7,$8,$9,0*
20,1,$1+$1,$8,$9,$2,$3,0*%
G04 Aperture macros list end*
%ADD10RoundRect,0.250000X0.300000X-0.300000X0.300000X0.300000X-0.300000X0.300000X-0.300000X-0.300000X0*%
%ADD11RoundRect,0.250000X0.300000X0.300000X-0.300000X0.300000X-0.300000X-0.300000X0.300000X-0.300000X0*%
G04 APERTURE END LIST*
D10*
%TO.C,D57*%
X207548750Y-193800000D03*
X207548750Y-191000000D03*
%TD*%
%TO.C,D83*%
X267080000Y-231900000D03*
X267080000Y-229100000D03*
%TD*%
%TO.C,D20*%
X98011250Y-155700000D03*
X98011250Y-152900000D03*
%TD*%
D11*
%TO.C,D4*%
X117381250Y-126170000D03*
X114581250Y-126170000D03*
%TD*%
D10*
%TO.C,D60*%
X264698750Y-193800000D03*
X264698750Y-191000000D03*
%TD*%
%TO.C,D84*%
X288511250Y-231900000D03*
X288511250Y-229100000D03*
%TD*%
D11*
%TO.C,D13*%
X288831250Y-126170000D03*
X286031250Y-126170000D03*
%TD*%
%TO.C,D5*%
X136431250Y-126170000D03*
X133631250Y-126170000D03*
%TD*%
D10*
%TO.C,D47*%
X321848750Y-174750000D03*
X321848750Y-171950000D03*
%TD*%
%TO.C,D74*%
X255173750Y-212850000D03*
X255173750Y-210050000D03*
%TD*%
%TO.C,D55*%
X169448750Y-193800000D03*
X169448750Y-191000000D03*
%TD*%
D11*
%TO.C,D7*%
X174531250Y-126170000D03*
X171731250Y-126170000D03*
%TD*%
D10*
%TO.C,D23*%
X155161250Y-155700000D03*
X155161250Y-152900000D03*
%TD*%
%TO.C,D88*%
X364711250Y-231900000D03*
X364711250Y-229100000D03*
%TD*%
%TO.C,D29*%
X269461250Y-155700000D03*
X269461250Y-152900000D03*
%TD*%
%TO.C,D25*%
X193261250Y-155700000D03*
X193261250Y-152900000D03*
%TD*%
D11*
%TO.C,D10*%
X231681250Y-126170000D03*
X228881250Y-126170000D03*
%TD*%
D10*
%TO.C,D71*%
X198023750Y-212850000D03*
X198023750Y-210050000D03*
%TD*%
%TO.C,D56*%
X188498750Y-193800000D03*
X188498750Y-191000000D03*
%TD*%
%TO.C,D81*%
X117061250Y-231900000D03*
X117061250Y-229100000D03*
%TD*%
%TO.C,D51*%
X93248750Y-193800000D03*
X93248750Y-191000000D03*
%TD*%
D11*
%TO.C,D15*%
X326931250Y-126170000D03*
X324131250Y-126170000D03*
%TD*%
%TO.C,D14*%
X307881250Y-126170000D03*
X305081250Y-126170000D03*
%TD*%
D10*
%TO.C,D70*%
X178973750Y-212850000D03*
X178973750Y-210050000D03*
%TD*%
D11*
%TO.C,D9*%
X212631250Y-126170000D03*
X209831250Y-126170000D03*
%TD*%
D10*
%TO.C,D58*%
X226598750Y-193800000D03*
X226598750Y-191000000D03*
%TD*%
%TO.C,D63*%
X345661250Y-193800000D03*
X345661250Y-191000000D03*
%TD*%
%TO.C,D39*%
X164686250Y-174750000D03*
X164686250Y-171950000D03*
%TD*%
%TO.C,D48*%
X345661250Y-174750000D03*
X345661250Y-171950000D03*
%TD*%
%TO.C,D78*%
X364711250Y-212850000D03*
X364711250Y-210050000D03*
%TD*%
%TO.C,D52*%
X112298750Y-193800000D03*
X112298750Y-191000000D03*
%TD*%
%TO.C,D26*%
X212311250Y-155700000D03*
X212311250Y-152900000D03*
%TD*%
%TO.C,D67*%
X121823750Y-212850000D03*
X121823750Y-210050000D03*
%TD*%
D11*
%TO.C,D17*%
X365031250Y-126170000D03*
X362231250Y-126170000D03*
%TD*%
D10*
%TO.C,D28*%
X250411250Y-155700000D03*
X250411250Y-152900000D03*
%TD*%
%TO.C,D72*%
X217073750Y-212850000D03*
X217073750Y-210050000D03*
%TD*%
D11*
%TO.C,D3*%
X98331250Y-126170000D03*
X95531250Y-126170000D03*
%TD*%
D10*
%TO.C,D27*%
X231361250Y-155700000D03*
X231361250Y-152900000D03*
%TD*%
%TO.C,D37*%
X126586250Y-174750000D03*
X126586250Y-171950000D03*
%TD*%
%TO.C,D18*%
X59911250Y-155700000D03*
X59911250Y-152900000D03*
%TD*%
%TO.C,D69*%
X159923750Y-212850000D03*
X159923750Y-210050000D03*
%TD*%
%TO.C,D45*%
X278986250Y-174750000D03*
X278986250Y-171950000D03*
%TD*%
%TO.C,D44*%
X259936250Y-174750000D03*
X259936250Y-171950000D03*
%TD*%
%TO.C,D35*%
X88486250Y-174750000D03*
X88486250Y-171950000D03*
%TD*%
%TO.C,D86*%
X326611250Y-231900000D03*
X326611250Y-229100000D03*
%TD*%
%TO.C,D30*%
X288511250Y-155700000D03*
X288511250Y-152900000D03*
%TD*%
%TO.C,D46*%
X298036250Y-174750000D03*
X298036250Y-171950000D03*
%TD*%
%TO.C,D59*%
X245648750Y-193800000D03*
X245648750Y-191000000D03*
%TD*%
%TO.C,D64*%
X364711250Y-193800000D03*
X364711250Y-191000000D03*
%TD*%
%TO.C,D21*%
X117061250Y-155700000D03*
X117061250Y-152900000D03*
%TD*%
%TO.C,D22*%
X136111250Y-155700000D03*
X136111250Y-152900000D03*
%TD*%
D11*
%TO.C,D12*%
X269781250Y-126170000D03*
X266981250Y-126170000D03*
%TD*%
D10*
%TO.C,D82*%
X193261250Y-231900000D03*
X193261250Y-229100000D03*
%TD*%
%TO.C,D53*%
X131348750Y-193800000D03*
X131348750Y-191000000D03*
%TD*%
%TO.C,D68*%
X140873750Y-212850000D03*
X140873750Y-210050000D03*
%TD*%
%TO.C,D34*%
X64673750Y-174750000D03*
X64673750Y-171950000D03*
%TD*%
%TO.C,D61*%
X283748750Y-193800000D03*
X283748750Y-191000000D03*
%TD*%
D11*
%TO.C,D1*%
X60231250Y-126170000D03*
X57431250Y-126170000D03*
%TD*%
%TO.C,D2*%
X79281250Y-126170000D03*
X76481250Y-126170000D03*
%TD*%
%TO.C,D8*%
X193581250Y-126170000D03*
X190781250Y-126170000D03*
%TD*%
D10*
%TO.C,D79*%
X64673750Y-231900000D03*
X64673750Y-229100000D03*
%TD*%
%TO.C,D85*%
X307561250Y-231900000D03*
X307561250Y-229100000D03*
%TD*%
%TO.C,D33*%
X364711250Y-155700000D03*
X364711250Y-152900000D03*
%TD*%
%TO.C,D77*%
X345661250Y-212850000D03*
X345661250Y-210050000D03*
%TD*%
%TO.C,D66*%
X102773750Y-212850000D03*
X102773750Y-210050000D03*
%TD*%
%TO.C,D38*%
X145636250Y-174750000D03*
X145636250Y-171950000D03*
%TD*%
%TO.C,D87*%
X345661250Y-231900000D03*
X345661250Y-229100000D03*
%TD*%
%TO.C,D36*%
X107536250Y-174750000D03*
X107536250Y-171950000D03*
%TD*%
%TO.C,D65*%
X71817500Y-212850000D03*
X71817500Y-210050000D03*
%TD*%
%TO.C,D75*%
X274223750Y-212850000D03*
X274223750Y-210050000D03*
%TD*%
%TO.C,D40*%
X183736250Y-174750000D03*
X183736250Y-171950000D03*
%TD*%
%TO.C,D50*%
X67055000Y-193800000D03*
X67055000Y-191000000D03*
%TD*%
%TO.C,D54*%
X150398750Y-193800000D03*
X150398750Y-191000000D03*
%TD*%
%TO.C,D62*%
X314705000Y-193800000D03*
X314705000Y-191000000D03*
%TD*%
%TO.C,D24*%
X174211250Y-155700000D03*
X174211250Y-152900000D03*
%TD*%
D11*
%TO.C,D6*%
X155481250Y-126170000D03*
X152681250Y-126170000D03*
%TD*%
D10*
%TO.C,D80*%
X90867500Y-231900000D03*
X90867500Y-229100000D03*
%TD*%
%TO.C,D31*%
X317086250Y-155700000D03*
X317086250Y-152900000D03*
%TD*%
D11*
%TO.C,D11*%
X250731250Y-126170000D03*
X247931250Y-126170000D03*
%TD*%
D10*
%TO.C,D42*%
X221836250Y-174750000D03*
X221836250Y-171950000D03*
%TD*%
%TO.C,D49*%
X364711250Y-174750000D03*
X364711250Y-171950000D03*
%TD*%
%TO.C,D43*%
X240886250Y-174750000D03*
X240886250Y-171950000D03*
%TD*%
D11*
%TO.C,D16*%
X345981250Y-126170000D03*
X343181250Y-126170000D03*
%TD*%
D10*
%TO.C,D19*%
X78961250Y-155700000D03*
X78961250Y-152900000D03*
%TD*%
%TO.C,D32*%
X345661250Y-155700000D03*
X345661250Y-152900000D03*
%TD*%
%TO.C,D73*%
X236123750Y-212850000D03*
X236123750Y-210050000D03*
%TD*%
%TO.C,D41*%
X202786250Y-174750000D03*
X202786250Y-171950000D03*
%TD*%
%TO.C,D76*%
X309942500Y-212850000D03*
X309942500Y-210050000D03*
%TD*%
M02*
