M48
; DRILL file KiCad 10.0.6 date 2026-09-26T15:48:02
; FORMAT={-:-/ absolute / metric / decimal}
; #@! TF.CreationDate,2026-09-26T15:48:02-04:00
; #@! TF.GenerationSoftware,Kicad,Pcbnew,10.0.6
; #@! TF.FileFunction,Plated,1,2,PTH
FMAT,2
METRIC
; #@! TA.AperFunction,Plated,PTH,ViaDrill
T1C0.300
; #@! TA.AperFunction,Plated,PTH,ComponentDrill
T2C1.500
%
G90
G05
T1
X52.75Y-139.445
X52.75Y-177.545
X52.75Y-196.595
X52.75Y-215.645
X52.75Y-234.695
X53.0Y-96.595
X53.25Y-120.395
X53.25Y-158.495
X71.55Y-96.595
X71.55Y-120.395
X71.8Y-139.445
X71.8Y-158.495
X71.8Y-177.545
X71.8Y-196.595
X71.8Y-215.645
X71.8Y-234.695
X72.56Y-95.245
X77.64Y-95.245
X80.18Y-95.245
X82.72Y-95.245
X85.26Y-95.245
X90.34Y-95.245
X90.85Y-139.445
X90.85Y-158.495
X90.85Y-177.545
X90.85Y-196.595
X90.85Y-215.645
X90.85Y-234.695
X95.6Y-101.345
X95.6Y-118.645
X109.9Y-139.445
X109.9Y-158.495
X109.9Y-177.545
X109.9Y-196.595
X109.9Y-215.645
X109.9Y-234.695
X110.4Y-125.895
X128.95Y-139.445
X128.95Y-158.495
X128.95Y-177.545
X128.95Y-196.595
X128.95Y-215.645
X128.95Y-234.695
X129.45Y-125.395
X148.0Y-139.445
X148.0Y-158.495
X148.0Y-177.545
X148.0Y-196.595
X148.0Y-215.645
X148.0Y-234.695
X148.5Y-124.895
X167.05Y-139.445
X167.05Y-158.495
X167.05Y-177.545
X167.05Y-196.595
X167.05Y-215.645
X167.05Y-234.695
X167.55Y-124.895
X186.1Y-139.445
X186.1Y-158.495
X186.1Y-177.545
X186.1Y-196.595
X186.1Y-215.645
X186.1Y-234.695
X186.6Y-124.895
X205.15Y-139.445
X205.15Y-158.495
X205.15Y-177.545
X205.15Y-196.595
X205.15Y-215.645
X205.15Y-234.695
X205.65Y-124.895
X224.2Y-139.445
X224.2Y-158.495
X224.2Y-177.545
X224.2Y-196.595
X224.2Y-215.645
X224.2Y-234.695
X224.7Y-122.895
X243.25Y-139.445
X243.25Y-158.495
X243.25Y-177.545
X243.25Y-196.595
X243.25Y-215.645
X243.25Y-234.695
X243.75Y-122.395
X262.3Y-139.445
X262.3Y-158.495
X262.3Y-177.545
X262.3Y-196.595
X262.3Y-215.645
X262.3Y-234.695
X262.8Y-121.895
X281.35Y-139.445
X281.35Y-158.495
X281.35Y-177.545
X281.35Y-196.595
X281.35Y-215.645
X281.35Y-234.695
X281.85Y-121.395
X300.4Y-139.445
X300.4Y-158.495
X300.4Y-177.545
X300.4Y-196.595
X300.4Y-215.645
X300.4Y-234.695
X300.9Y-120.895
X319.45Y-139.445
X319.45Y-158.495
X319.45Y-177.545
X319.45Y-196.595
X319.45Y-215.645
X319.45Y-234.695
X319.95Y-120.395
X338.5Y-139.445
X338.5Y-234.695
X339.0Y-120.395
X339.0Y-158.495
X339.0Y-177.545
X339.0Y-196.595
X339.0Y-215.645
X357.55Y-139.445
X357.55Y-234.695
X358.05Y-120.395
X358.05Y-158.495
X358.05Y-177.545
X358.05Y-196.595
X358.05Y-215.645
T2
X50.331Y-128.75
X50.831Y-133.75
X52.331Y-146.3
X57.094Y-165.35
X57.094Y-222.5
X57.331Y-145.8
X59.475Y-184.4
X62.094Y-164.85
X62.094Y-222.0
X64.237Y-203.45
X64.475Y-183.9
X69.237Y-202.95
X69.381Y-128.75
X69.881Y-133.75
X71.381Y-146.3
X76.381Y-145.8
X80.906Y-165.35
X83.287Y-222.5
X85.669Y-184.4
X85.906Y-164.85
X88.287Y-222.0
X88.431Y-128.75
X88.931Y-133.75
X90.431Y-146.3
X90.669Y-183.9
X95.194Y-203.45
X95.431Y-145.8
X99.956Y-165.35
X100.194Y-202.95
X104.719Y-184.4
X104.956Y-164.85
X107.481Y-128.75
X107.981Y-133.75
X109.481Y-146.3
X109.481Y-222.5
X109.719Y-183.9
X114.244Y-203.45
X114.481Y-145.8
X114.481Y-222.0
X119.006Y-165.35
X119.244Y-202.95
X123.769Y-184.4
X124.006Y-164.85
X126.531Y-128.75
X127.031Y-133.75
X128.531Y-146.3
X128.769Y-183.9
X133.294Y-203.45
X133.531Y-145.8
X138.056Y-165.35
X138.294Y-202.95
X142.819Y-184.4
X143.056Y-164.85
X145.581Y-128.75
X146.081Y-133.75
X147.581Y-146.3
X147.819Y-183.9
X152.344Y-203.45
X152.581Y-145.8
X157.106Y-165.35
X157.344Y-202.95
X161.869Y-184.4
X162.106Y-164.85
X164.631Y-128.75
X165.131Y-133.75
X166.631Y-146.3
X166.869Y-183.9
X171.394Y-203.45
X171.631Y-145.8
X176.156Y-165.35
X176.394Y-202.95
X180.919Y-184.4
X181.156Y-164.85
X183.681Y-128.75
X184.181Y-133.75
X185.681Y-146.3
X185.681Y-222.5
X185.919Y-183.9
X190.444Y-203.45
X190.681Y-145.8
X190.681Y-222.0
X195.206Y-165.35
X195.444Y-202.95
X199.969Y-184.4
X200.206Y-164.85
X202.731Y-128.75
X203.231Y-133.75
X204.731Y-146.3
X204.969Y-183.9
X209.494Y-203.45
X209.731Y-145.8
X214.256Y-165.35
X214.494Y-202.95
X219.019Y-184.4
X219.256Y-164.85
X221.781Y-128.75
X222.281Y-133.75
X223.781Y-146.3
X224.019Y-183.9
X228.544Y-203.45
X228.781Y-145.8
X233.306Y-165.35
X233.544Y-202.95
X238.069Y-184.4
X238.306Y-164.85
X240.831Y-128.75
X241.331Y-133.75
X242.831Y-146.3
X243.069Y-183.9
X247.594Y-203.45
X247.831Y-145.8
X252.356Y-165.35
X252.594Y-202.95
X257.119Y-184.4
X257.356Y-164.85
X259.5Y-222.5
X259.881Y-128.75
X260.381Y-133.75
X261.881Y-146.3
X262.119Y-183.9
X264.5Y-222.0
X266.644Y-203.45
X266.881Y-145.8
X271.406Y-165.35
X271.644Y-202.95
X276.169Y-184.4
X276.406Y-164.85
X278.931Y-128.75
X279.431Y-133.75
X280.931Y-146.3
X280.931Y-222.5
X281.169Y-183.9
X285.931Y-145.8
X285.931Y-222.0
X290.456Y-165.35
X295.456Y-164.85
X297.981Y-128.75
X298.481Y-133.75
X299.981Y-222.5
X302.363Y-203.45
X304.981Y-222.0
X307.125Y-184.4
X307.363Y-202.95
X309.506Y-146.3
X312.125Y-183.9
X314.269Y-165.35
X314.506Y-145.8
X317.031Y-128.75
X317.531Y-133.75
X319.031Y-222.5
X319.269Y-164.85
X324.031Y-222.0
X336.081Y-128.75
X336.581Y-133.75
X338.081Y-146.3
X338.081Y-165.35
X338.081Y-184.4
X338.081Y-203.45
X338.081Y-222.5
X343.081Y-145.8
X343.081Y-164.85
X343.081Y-183.9
X343.081Y-202.95
X343.081Y-222.0
X355.131Y-128.75
X355.631Y-133.75
X357.131Y-146.3
X357.131Y-165.35
X357.131Y-184.4
X357.131Y-203.45
X357.131Y-222.5
X362.131Y-145.8
X362.131Y-164.85
X362.131Y-183.9
X362.131Y-202.95
X362.131Y-222.0
M30
