%TF.GenerationSoftware,KiCad,Pcbnew,10.0.6*%
%TF.CreationDate,2026-09-19T22:41:33-04:00*%
%TF.ProjectId,alps75-zug,616c7073-3735-42d7-9a75-672e6b696361,rev?*%
%TF.SameCoordinates,Original*%
%TF.FileFunction,Copper,L2,Bot*%
%TF.FilePolarity,Positive*%
%FSLAX46Y46*%
G04 Gerber Fmt 4.6, Leading zero omitted, Abs format (unit mm)*
G04 Created by KiCad (PCBNEW 10.0.6) date 2026-09-19 22:41:33*
%MOMM*%
%LPD*%
G01*
G04 APERTURE LIST*
G04 Aperture macros list*
%AMRoundRect*
0 Rectangle with rounded corners*
0 $1 Rounding radius*
0 $2 $3 $4 $5 $6 $7 $8 $9 X,Y pos of 4 corners*
0 Add a 4 corners polygon primitive as box body*
4,1,4,$2,$3,$4,$5,$6,$7,$8,$9,$2,$3,0*
0 Add four circle primitives for the rounded corners*
1,1,$1+$1,$2,$3*
1,1,$1+$1,$4,$5*
1,1,$1+$1,$6,$7*
1,1,$1+$1,$8,$9*
0 Add four rect primitives between the rounded corners*
20,1,$1+$1,$2,$3,$4,$5,0*
20,1,$1+$1,$4,$5,$6,$7,0*
20,1,$1+$1,$6,$7,$8,$9,0*
20,1,$1+$1,$8,$9,$2,$3,0*%
G04 Aperture macros list end*
%TA.AperFunction,ComponentPad*%
%ADD10C,2.500000*%
%TD*%
%TA.AperFunction,SMDPad,CuDef*%
%ADD11RoundRect,0.250000X0.300000X-0.300000X0.300000X0.300000X-0.300000X0.300000X-0.300000X-0.300000X0*%
%TD*%
%TA.AperFunction,SMDPad,CuDef*%
%ADD12RoundRect,0.250000X0.300000X0.300000X-0.300000X0.300000X-0.300000X-0.300000X0.300000X-0.300000X0*%
%TD*%
%TA.AperFunction,ViaPad*%
%ADD13C,0.600000*%
%TD*%
%TA.AperFunction,Conductor*%
%ADD14C,0.200000*%
%TD*%
G04 APERTURE END LIST*
D10*
%TO.P,SW6,1,1_1*%
%TO.N,COL5*%
X146081250Y-133750000D03*
%TO.P,SW6,2,2_2*%
%TO.N,Net-(D6-A)*%
X145581250Y-128750000D03*
%TD*%
%TO.P,SW13,1,1_1*%
%TO.N,COL12*%
X279431250Y-133750000D03*
%TO.P,SW13,2,2_2*%
%TO.N,Net-(D13-A)*%
X278931250Y-128750000D03*
%TD*%
%TO.P,SW26,1,1_1*%
%TO.N,COL8*%
X204731250Y-146300000D03*
%TO.P,SW26,2,2_2*%
%TO.N,Net-(D26-A)*%
X209731250Y-145800000D03*
%TD*%
%TO.P,SW88,1,1_1*%
%TO.N,COL16*%
X357131250Y-222500000D03*
%TO.P,SW88,2,2_2*%
%TO.N,Net-(D88-A)*%
X362131250Y-222000000D03*
%TD*%
%TO.P,SW8,1,1_1*%
%TO.N,COL7*%
X184181250Y-133750000D03*
%TO.P,SW8,2,2_2*%
%TO.N,Net-(D8-A)*%
X183681250Y-128750000D03*
%TD*%
%TO.P,SW24,1,1_1*%
%TO.N,COL6*%
X166631250Y-146300000D03*
%TO.P,SW24,2,2_2*%
%TO.N,Net-(D24-A)*%
X171631250Y-145800000D03*
%TD*%
%TO.P,SW78,1,1_1*%
%TO.N,COL16*%
X357131250Y-203450000D03*
%TO.P,SW78,2,2_2*%
%TO.N,Net-(D78-A)*%
X362131250Y-202950000D03*
%TD*%
%TO.P,SW59,1,1_1*%
%TO.N,COL9*%
X238068750Y-184400000D03*
%TO.P,SW59,2,2_2*%
%TO.N,Net-(D59-A)*%
X243068750Y-183900000D03*
%TD*%
%TO.P,SW47,1,1_1*%
%TO.N,COL13*%
X314268750Y-165350000D03*
%TO.P,SW47,2,2_2*%
%TO.N,Net-(D47-A)*%
X319268750Y-164850000D03*
%TD*%
%TO.P,SW84,1,1_1*%
%TO.N,COL12*%
X280931250Y-222500000D03*
%TO.P,SW84,2,2_2*%
%TO.N,Net-(D84-A)*%
X285931250Y-222000000D03*
%TD*%
%TO.P,SW32,1,1_1*%
%TO.N,COL15*%
X338081250Y-146300000D03*
%TO.P,SW32,2,2_2*%
%TO.N,Net-(D32-A)*%
X343081250Y-145800000D03*
%TD*%
%TO.P,SW27,1,1_1*%
%TO.N,COL9*%
X223781250Y-146300000D03*
%TO.P,SW27,2,2_2*%
%TO.N,Net-(D27-A)*%
X228781250Y-145800000D03*
%TD*%
%TO.P,SW81,1,1_1*%
%TO.N,COL3*%
X109481250Y-222500000D03*
%TO.P,SW81,2,2_2*%
%TO.N,Net-(D81-A)*%
X114481250Y-222000000D03*
%TD*%
%TO.P,SW48,1,1_1*%
%TO.N,COL15*%
X338081250Y-165350000D03*
%TO.P,SW48,2,2_2*%
%TO.N,Net-(D48-A)*%
X343081250Y-164850000D03*
%TD*%
%TO.P,SW38,1,1_1*%
%TO.N,COL4*%
X138056250Y-165350000D03*
%TO.P,SW38,2,2_2*%
%TO.N,Net-(D38-A)*%
X143056250Y-164850000D03*
%TD*%
%TO.P,SW72,1,1_1*%
%TO.N,COL8*%
X209493750Y-203450000D03*
%TO.P,SW72,2,2_2*%
%TO.N,Net-(D72-A)*%
X214493750Y-202950000D03*
%TD*%
%TO.P,SW29,1,1_1*%
%TO.N,COL11*%
X261881250Y-146300000D03*
%TO.P,SW29,2,2_2*%
%TO.N,Net-(D29-A)*%
X266881250Y-145800000D03*
%TD*%
%TO.P,SW70,1,1_1*%
%TO.N,COL6*%
X171393750Y-203450000D03*
%TO.P,SW70,2,2_2*%
%TO.N,Net-(D70-A)*%
X176393750Y-202950000D03*
%TD*%
%TO.P,SW74,1,1_1*%
%TO.N,COL10*%
X247593750Y-203450000D03*
%TO.P,SW74,2,2_2*%
%TO.N,Net-(D74-A)*%
X252593750Y-202950000D03*
%TD*%
%TO.P,SW65,1,1_1*%
%TO.N,COL0*%
X64237500Y-203450000D03*
%TO.P,SW65,2,2_2*%
%TO.N,Net-(D65-A)*%
X69237500Y-202950000D03*
%TD*%
%TO.P,SW31,1,1_1*%
%TO.N,COL13*%
X309506250Y-146300000D03*
%TO.P,SW31,2,2_2*%
%TO.N,Net-(D31-A)*%
X314506250Y-145800000D03*
%TD*%
%TO.P,SW55,1,1_1*%
%TO.N,COL5*%
X161868750Y-184400000D03*
%TO.P,SW55,2,2_2*%
%TO.N,Net-(D55-A)*%
X166868750Y-183900000D03*
%TD*%
%TO.P,SW5,1,1_1*%
%TO.N,COL4*%
X127031250Y-133750000D03*
%TO.P,SW5,2,2_2*%
%TO.N,Net-(D5-A)*%
X126531250Y-128750000D03*
%TD*%
%TO.P,SW23,1,1_1*%
%TO.N,COL5*%
X147581250Y-146300000D03*
%TO.P,SW23,2,2_2*%
%TO.N,Net-(D23-A)*%
X152581250Y-145800000D03*
%TD*%
%TO.P,SW52,1,1_1*%
%TO.N,COL2*%
X104718750Y-184400000D03*
%TO.P,SW52,2,2_2*%
%TO.N,Net-(D52-A)*%
X109718750Y-183900000D03*
%TD*%
%TO.P,SW61,1,1_1*%
%TO.N,COL11*%
X276168750Y-184400000D03*
%TO.P,SW61,2,2_2*%
%TO.N,Net-(D61-A)*%
X281168750Y-183900000D03*
%TD*%
%TO.P,SW3,1,1_1*%
%TO.N,COL2*%
X88931250Y-133750000D03*
%TO.P,SW3,2,2_2*%
%TO.N,Net-(D3-A)*%
X88431250Y-128750000D03*
%TD*%
%TO.P,SW15,1,1_1*%
%TO.N,COL14*%
X317531250Y-133750000D03*
%TO.P,SW15,2,2_2*%
%TO.N,Net-(D15-A)*%
X317031250Y-128750000D03*
%TD*%
%TO.P,SW46,1,1_1*%
%TO.N,COL12*%
X290456250Y-165350000D03*
%TO.P,SW46,2,2_2*%
%TO.N,Net-(D46-A)*%
X295456250Y-164850000D03*
%TD*%
%TO.P,SW83,1,1_1*%
%TO.N,COL10*%
X259500000Y-222500000D03*
%TO.P,SW83,2,2_2*%
%TO.N,Net-(D83-A)*%
X264500000Y-222000000D03*
%TD*%
%TO.P,SW30,1,1_1*%
%TO.N,COL12*%
X280931250Y-146300000D03*
%TO.P,SW30,2,2_2*%
%TO.N,Net-(D30-A)*%
X285931250Y-145800000D03*
%TD*%
%TO.P,SW86,1,1_1*%
%TO.N,COL14*%
X319031250Y-222500000D03*
%TO.P,SW86,2,2_2*%
%TO.N,Net-(D86-A)*%
X324031250Y-222000000D03*
%TD*%
%TO.P,SW10,1,1_1*%
%TO.N,COL9*%
X222281250Y-133750000D03*
%TO.P,SW10,2,2_2*%
%TO.N,Net-(D10-A)*%
X221781250Y-128750000D03*
%TD*%
%TO.P,SW35,1,1_1*%
%TO.N,COL1*%
X80906250Y-165350000D03*
%TO.P,SW35,2,2_2*%
%TO.N,Net-(D35-A)*%
X85906250Y-164850000D03*
%TD*%
%TO.P,SW56,1,1_1*%
%TO.N,COL6*%
X180918750Y-184400000D03*
%TO.P,SW56,2,2_2*%
%TO.N,Net-(D56-A)*%
X185918750Y-183900000D03*
%TD*%
%TO.P,SW2,1,1_1*%
%TO.N,COL1*%
X69881250Y-133750000D03*
%TO.P,SW2,2,2_2*%
%TO.N,Net-(D2-A)*%
X69381250Y-128750000D03*
%TD*%
%TO.P,SW39,1,1_1*%
%TO.N,COL5*%
X157106250Y-165350000D03*
%TO.P,SW39,2,2_2*%
%TO.N,Net-(D39-A)*%
X162106250Y-164850000D03*
%TD*%
%TO.P,SW51,1,1_1*%
%TO.N,COL1*%
X85668750Y-184400000D03*
%TO.P,SW51,2,2_2*%
%TO.N,Net-(D51-A)*%
X90668750Y-183900000D03*
%TD*%
%TO.P,SW4,1,1_1*%
%TO.N,COL3*%
X107981250Y-133750000D03*
%TO.P,SW4,2,2_2*%
%TO.N,Net-(D4-A)*%
X107481250Y-128750000D03*
%TD*%
%TO.P,SW80,1,1_1*%
%TO.N,COL1*%
X83287500Y-222500000D03*
%TO.P,SW80,2,2_2*%
%TO.N,Net-(D80-A)*%
X88287500Y-222000000D03*
%TD*%
%TO.P,SW54,1,1_1*%
%TO.N,COL4*%
X142818750Y-184400000D03*
%TO.P,SW54,2,2_2*%
%TO.N,Net-(D54-A)*%
X147818750Y-183900000D03*
%TD*%
%TO.P,SW7,1,1_1*%
%TO.N,COL6*%
X165131250Y-133750000D03*
%TO.P,SW7,2,2_2*%
%TO.N,Net-(D7-A)*%
X164631250Y-128750000D03*
%TD*%
%TO.P,SW17,1,1_1*%
%TO.N,COL16*%
X355631250Y-133750000D03*
%TO.P,SW17,2,2_2*%
%TO.N,Net-(D17-A)*%
X355131250Y-128750000D03*
%TD*%
%TO.P,SW76,1,1_1*%
%TO.N,COL13*%
X302362500Y-203450000D03*
%TO.P,SW76,2,2_2*%
%TO.N,Net-(D76-A)*%
X307362500Y-202950000D03*
%TD*%
%TO.P,SW64,1,1_1*%
%TO.N,COL16*%
X357131250Y-184400000D03*
%TO.P,SW64,2,2_2*%
%TO.N,Net-(D64-A)*%
X362131250Y-183900000D03*
%TD*%
%TO.P,SW45,1,1_1*%
%TO.N,COL11*%
X271406250Y-165350000D03*
%TO.P,SW45,2,2_2*%
%TO.N,Net-(D45-A)*%
X276406250Y-164850000D03*
%TD*%
%TO.P,SW33,1,1_1*%
%TO.N,COL16*%
X357131250Y-146300000D03*
%TO.P,SW33,2,2_2*%
%TO.N,Net-(D33-A)*%
X362131250Y-145800000D03*
%TD*%
%TO.P,SW75,1,1_1*%
%TO.N,COL11*%
X266643750Y-203450000D03*
%TO.P,SW75,2,2_2*%
%TO.N,Net-(D75-A)*%
X271643750Y-202950000D03*
%TD*%
%TO.P,SW21,1,1_1*%
%TO.N,COL3*%
X109481250Y-146300000D03*
%TO.P,SW21,2,2_2*%
%TO.N,Net-(D21-A)*%
X114481250Y-145800000D03*
%TD*%
%TO.P,SW50,1,1_1*%
%TO.N,COL0*%
X59475000Y-184400000D03*
%TO.P,SW50,2,2_2*%
%TO.N,Net-(D50-A)*%
X64475000Y-183900000D03*
%TD*%
%TO.P,SW44,1,1_1*%
%TO.N,COL10*%
X252356250Y-165350000D03*
%TO.P,SW44,2,2_2*%
%TO.N,Net-(D44-A)*%
X257356250Y-164850000D03*
%TD*%
%TO.P,SW87,1,1_1*%
%TO.N,COL15*%
X338081250Y-222500000D03*
%TO.P,SW87,2,2_2*%
%TO.N,Net-(D87-A)*%
X343081250Y-222000000D03*
%TD*%
%TO.P,SW20,1,1_1*%
%TO.N,COL2*%
X90431250Y-146300000D03*
%TO.P,SW20,2,2_2*%
%TO.N,Net-(D20-A)*%
X95431250Y-145800000D03*
%TD*%
%TO.P,SW66,1,1_1*%
%TO.N,COL2*%
X95193750Y-203450000D03*
%TO.P,SW66,2,2_2*%
%TO.N,Net-(D66-A)*%
X100193750Y-202950000D03*
%TD*%
%TO.P,SW60,1,1_1*%
%TO.N,COL10*%
X257118750Y-184400000D03*
%TO.P,SW60,2,2_2*%
%TO.N,Net-(D60-A)*%
X262118750Y-183900000D03*
%TD*%
%TO.P,SW25,1,1_1*%
%TO.N,COL7*%
X185681250Y-146300000D03*
%TO.P,SW25,2,2_2*%
%TO.N,Net-(D25-A)*%
X190681250Y-145800000D03*
%TD*%
%TO.P,SW22,1,1_1*%
%TO.N,COL4*%
X128531250Y-146300000D03*
%TO.P,SW22,2,2_2*%
%TO.N,Net-(D22-A)*%
X133531250Y-145800000D03*
%TD*%
%TO.P,SW37,1,1_1*%
%TO.N,COL3*%
X119006250Y-165350000D03*
%TO.P,SW37,2,2_2*%
%TO.N,Net-(D37-A)*%
X124006250Y-164850000D03*
%TD*%
%TO.P,SW28,1,1_1*%
%TO.N,COL10*%
X242831250Y-146300000D03*
%TO.P,SW28,2,2_2*%
%TO.N,Net-(D28-A)*%
X247831250Y-145800000D03*
%TD*%
%TO.P,SW57,1,1_1*%
%TO.N,COL7*%
X199968750Y-184400000D03*
%TO.P,SW57,2,2_2*%
%TO.N,Net-(D57-A)*%
X204968750Y-183900000D03*
%TD*%
%TO.P,SW34,1,1_1*%
%TO.N,COL0*%
X57093750Y-165350000D03*
%TO.P,SW34,2,2_2*%
%TO.N,Net-(D34-A)*%
X62093750Y-164850000D03*
%TD*%
%TO.P,SW69,1,1_1*%
%TO.N,COL5*%
X152343750Y-203450000D03*
%TO.P,SW69,2,2_2*%
%TO.N,Net-(D69-A)*%
X157343750Y-202950000D03*
%TD*%
%TO.P,SW53,1,1_1*%
%TO.N,COL3*%
X123768750Y-184400000D03*
%TO.P,SW53,2,2_2*%
%TO.N,Net-(D53-A)*%
X128768750Y-183900000D03*
%TD*%
%TO.P,SW68,1,1_1*%
%TO.N,COL4*%
X133293750Y-203450000D03*
%TO.P,SW68,2,2_2*%
%TO.N,Net-(D68-A)*%
X138293750Y-202950000D03*
%TD*%
%TO.P,SW67,1,1_1*%
%TO.N,COL3*%
X114243750Y-203450000D03*
%TO.P,SW67,2,2_2*%
%TO.N,Net-(D67-A)*%
X119243750Y-202950000D03*
%TD*%
%TO.P,SW41,1,1_1*%
%TO.N,COL7*%
X195206250Y-165350000D03*
%TO.P,SW41,2,2_2*%
%TO.N,Net-(D41-A)*%
X200206250Y-164850000D03*
%TD*%
%TO.P,SW16,1,1_1*%
%TO.N,COL15*%
X336581250Y-133750000D03*
%TO.P,SW16,2,2_2*%
%TO.N,Net-(D16-A)*%
X336081250Y-128750000D03*
%TD*%
%TO.P,SW49,1,1_1*%
%TO.N,COL16*%
X357131250Y-165350000D03*
%TO.P,SW49,2,2_2*%
%TO.N,Net-(D49-A)*%
X362131250Y-164850000D03*
%TD*%
%TO.P,SW63,1,1_1*%
%TO.N,COL15*%
X338081250Y-184400000D03*
%TO.P,SW63,2,2_2*%
%TO.N,Net-(D63-A)*%
X343081250Y-183900000D03*
%TD*%
%TO.P,SW43,1,1_1*%
%TO.N,COL9*%
X233306250Y-165350000D03*
%TO.P,SW43,2,2_2*%
%TO.N,Net-(D43-A)*%
X238306250Y-164850000D03*
%TD*%
%TO.P,SW82,1,1_1*%
%TO.N,COL7*%
X185681250Y-222500000D03*
%TO.P,SW82,2,2_2*%
%TO.N,Net-(D82-A)*%
X190681250Y-222000000D03*
%TD*%
%TO.P,SW18,1,1_1*%
%TO.N,COL0*%
X52331250Y-146300000D03*
%TO.P,SW18,2,2_2*%
%TO.N,Net-(D18-A)*%
X57331250Y-145800000D03*
%TD*%
%TO.P,SW1,1,1_1*%
%TO.N,COL0*%
X50831250Y-133750000D03*
%TO.P,SW1,2,2_2*%
%TO.N,Net-(D1-A)*%
X50331250Y-128750000D03*
%TD*%
%TO.P,SW77,1,1_1*%
%TO.N,COL15*%
X338081250Y-203450000D03*
%TO.P,SW77,2,2_2*%
%TO.N,Net-(D77-A)*%
X343081250Y-202950000D03*
%TD*%
%TO.P,SW14,1,1_1*%
%TO.N,COL13*%
X298481250Y-133750000D03*
%TO.P,SW14,2,2_2*%
%TO.N,Net-(D14-A)*%
X297981250Y-128750000D03*
%TD*%
%TO.P,SW79,1,1_1*%
%TO.N,COL0*%
X57093750Y-222500000D03*
%TO.P,SW79,2,2_2*%
%TO.N,Net-(D79-A)*%
X62093750Y-222000000D03*
%TD*%
%TO.P,SW11,1,1_1*%
%TO.N,COL10*%
X241331250Y-133750000D03*
%TO.P,SW11,2,2_2*%
%TO.N,Net-(D11-A)*%
X240831250Y-128750000D03*
%TD*%
%TO.P,SW12,1,1_1*%
%TO.N,COL11*%
X260381250Y-133750000D03*
%TO.P,SW12,2,2_2*%
%TO.N,Net-(D12-A)*%
X259881250Y-128750000D03*
%TD*%
%TO.P,SW36,1,1_1*%
%TO.N,COL2*%
X99956250Y-165350000D03*
%TO.P,SW36,2,2_2*%
%TO.N,Net-(D36-A)*%
X104956250Y-164850000D03*
%TD*%
%TO.P,SW40,1,1_1*%
%TO.N,COL6*%
X176156250Y-165350000D03*
%TO.P,SW40,2,2_2*%
%TO.N,Net-(D40-A)*%
X181156250Y-164850000D03*
%TD*%
%TO.P,SW42,1,1_1*%
%TO.N,COL8*%
X214256250Y-165350000D03*
%TO.P,SW42,2,2_2*%
%TO.N,Net-(D42-A)*%
X219256250Y-164850000D03*
%TD*%
%TO.P,SW71,1,1_1*%
%TO.N,COL7*%
X190443750Y-203450000D03*
%TO.P,SW71,2,2_2*%
%TO.N,Net-(D71-A)*%
X195443750Y-202950000D03*
%TD*%
%TO.P,SW19,1,1_1*%
%TO.N,COL1*%
X71381250Y-146300000D03*
%TO.P,SW19,2,2_2*%
%TO.N,Net-(D19-A)*%
X76381250Y-145800000D03*
%TD*%
%TO.P,SW58,1,1_1*%
%TO.N,COL8*%
X219018750Y-184400000D03*
%TO.P,SW58,2,2_2*%
%TO.N,Net-(D58-A)*%
X224018750Y-183900000D03*
%TD*%
%TO.P,SW9,1,1_1*%
%TO.N,COL8*%
X203231250Y-133750000D03*
%TO.P,SW9,2,2_2*%
%TO.N,Net-(D9-A)*%
X202731250Y-128750000D03*
%TD*%
%TO.P,SW62,1,1_1*%
%TO.N,COL13*%
X307125000Y-184400000D03*
%TO.P,SW62,2,2_2*%
%TO.N,Net-(D62-A)*%
X312125000Y-183900000D03*
%TD*%
%TO.P,SW85,1,1_1*%
%TO.N,COL13*%
X299981250Y-222500000D03*
%TO.P,SW85,2,2_2*%
%TO.N,Net-(D85-A)*%
X304981250Y-222000000D03*
%TD*%
%TO.P,SW73,1,1_1*%
%TO.N,COL9*%
X228543750Y-203450000D03*
%TO.P,SW73,2,2_2*%
%TO.N,Net-(D73-A)*%
X233543750Y-202950000D03*
%TD*%
D11*
%TO.P,D57,1,K_1*%
%TO.N,ROW3*%
X207548750Y-193800000D03*
%TO.P,D57,2,A_2*%
%TO.N,Net-(D57-A)*%
X207548750Y-191000000D03*
%TD*%
%TO.P,D83,1,K_1*%
%TO.N,ROW5*%
X267080000Y-231900000D03*
%TO.P,D83,2,A_2*%
%TO.N,Net-(D83-A)*%
X267080000Y-229100000D03*
%TD*%
%TO.P,D20,1,K_1*%
%TO.N,ROW1*%
X98011250Y-155700000D03*
%TO.P,D20,2,A_2*%
%TO.N,Net-(D20-A)*%
X98011250Y-152900000D03*
%TD*%
D12*
%TO.P,D4,1,K_1*%
%TO.N,ROW0*%
X117381250Y-126170000D03*
%TO.P,D4,2,A_2*%
%TO.N,Net-(D4-A)*%
X114581250Y-126170000D03*
%TD*%
D11*
%TO.P,D60,1,K_1*%
%TO.N,ROW3*%
X264698750Y-193800000D03*
%TO.P,D60,2,A_2*%
%TO.N,Net-(D60-A)*%
X264698750Y-191000000D03*
%TD*%
%TO.P,D84,1,K_1*%
%TO.N,ROW5*%
X288511250Y-231900000D03*
%TO.P,D84,2,A_2*%
%TO.N,Net-(D84-A)*%
X288511250Y-229100000D03*
%TD*%
D12*
%TO.P,D13,1,K_1*%
%TO.N,ROW0*%
X288831250Y-126170000D03*
%TO.P,D13,2,A_2*%
%TO.N,Net-(D13-A)*%
X286031250Y-126170000D03*
%TD*%
%TO.P,D5,1,K_1*%
%TO.N,ROW0*%
X136431250Y-126170000D03*
%TO.P,D5,2,A_2*%
%TO.N,Net-(D5-A)*%
X133631250Y-126170000D03*
%TD*%
D11*
%TO.P,D47,1,K_1*%
%TO.N,ROW2*%
X321848750Y-174750000D03*
%TO.P,D47,2,A_2*%
%TO.N,Net-(D47-A)*%
X321848750Y-171950000D03*
%TD*%
%TO.P,D74,1,K_1*%
%TO.N,ROW4*%
X255173750Y-212850000D03*
%TO.P,D74,2,A_2*%
%TO.N,Net-(D74-A)*%
X255173750Y-210050000D03*
%TD*%
%TO.P,D55,1,K_1*%
%TO.N,ROW3*%
X169448750Y-193800000D03*
%TO.P,D55,2,A_2*%
%TO.N,Net-(D55-A)*%
X169448750Y-191000000D03*
%TD*%
D12*
%TO.P,D7,1,K_1*%
%TO.N,ROW0*%
X174531250Y-126170000D03*
%TO.P,D7,2,A_2*%
%TO.N,Net-(D7-A)*%
X171731250Y-126170000D03*
%TD*%
D11*
%TO.P,D23,1,K_1*%
%TO.N,ROW1*%
X155161250Y-155700000D03*
%TO.P,D23,2,A_2*%
%TO.N,Net-(D23-A)*%
X155161250Y-152900000D03*
%TD*%
%TO.P,D88,1,K_1*%
%TO.N,ROW5*%
X364711250Y-231900000D03*
%TO.P,D88,2,A_2*%
%TO.N,Net-(D88-A)*%
X364711250Y-229100000D03*
%TD*%
%TO.P,D29,1,K_1*%
%TO.N,ROW1*%
X269461250Y-155700000D03*
%TO.P,D29,2,A_2*%
%TO.N,Net-(D29-A)*%
X269461250Y-152900000D03*
%TD*%
%TO.P,D25,1,K_1*%
%TO.N,ROW1*%
X193261250Y-155700000D03*
%TO.P,D25,2,A_2*%
%TO.N,Net-(D25-A)*%
X193261250Y-152900000D03*
%TD*%
D12*
%TO.P,D10,1,K_1*%
%TO.N,ROW0*%
X231681250Y-126170000D03*
%TO.P,D10,2,A_2*%
%TO.N,Net-(D10-A)*%
X228881250Y-126170000D03*
%TD*%
D11*
%TO.P,D71,1,K_1*%
%TO.N,ROW4*%
X198023750Y-212850000D03*
%TO.P,D71,2,A_2*%
%TO.N,Net-(D71-A)*%
X198023750Y-210050000D03*
%TD*%
%TO.P,D56,1,K_1*%
%TO.N,ROW3*%
X188498750Y-193800000D03*
%TO.P,D56,2,A_2*%
%TO.N,Net-(D56-A)*%
X188498750Y-191000000D03*
%TD*%
%TO.P,D81,1,K_1*%
%TO.N,ROW5*%
X117061250Y-231900000D03*
%TO.P,D81,2,A_2*%
%TO.N,Net-(D81-A)*%
X117061250Y-229100000D03*
%TD*%
%TO.P,D51,1,K_1*%
%TO.N,ROW3*%
X93248750Y-193800000D03*
%TO.P,D51,2,A_2*%
%TO.N,Net-(D51-A)*%
X93248750Y-191000000D03*
%TD*%
D12*
%TO.P,D15,1,K_1*%
%TO.N,ROW0*%
X326931250Y-126170000D03*
%TO.P,D15,2,A_2*%
%TO.N,Net-(D15-A)*%
X324131250Y-126170000D03*
%TD*%
%TO.P,D14,1,K_1*%
%TO.N,ROW0*%
X307881250Y-126170000D03*
%TO.P,D14,2,A_2*%
%TO.N,Net-(D14-A)*%
X305081250Y-126170000D03*
%TD*%
D11*
%TO.P,D70,1,K_1*%
%TO.N,ROW4*%
X178973750Y-212850000D03*
%TO.P,D70,2,A_2*%
%TO.N,Net-(D70-A)*%
X178973750Y-210050000D03*
%TD*%
D12*
%TO.P,D9,1,K_1*%
%TO.N,ROW0*%
X212631250Y-126170000D03*
%TO.P,D9,2,A_2*%
%TO.N,Net-(D9-A)*%
X209831250Y-126170000D03*
%TD*%
D11*
%TO.P,D58,1,K_1*%
%TO.N,ROW3*%
X226598750Y-193800000D03*
%TO.P,D58,2,A_2*%
%TO.N,Net-(D58-A)*%
X226598750Y-191000000D03*
%TD*%
%TO.P,D63,1,K_1*%
%TO.N,ROW3*%
X345661250Y-193800000D03*
%TO.P,D63,2,A_2*%
%TO.N,Net-(D63-A)*%
X345661250Y-191000000D03*
%TD*%
%TO.P,D39,1,K_1*%
%TO.N,ROW2*%
X164686250Y-174750000D03*
%TO.P,D39,2,A_2*%
%TO.N,Net-(D39-A)*%
X164686250Y-171950000D03*
%TD*%
%TO.P,D48,1,K_1*%
%TO.N,ROW2*%
X345661250Y-174750000D03*
%TO.P,D48,2,A_2*%
%TO.N,Net-(D48-A)*%
X345661250Y-171950000D03*
%TD*%
%TO.P,D78,1,K_1*%
%TO.N,ROW4*%
X364711250Y-212850000D03*
%TO.P,D78,2,A_2*%
%TO.N,Net-(D78-A)*%
X364711250Y-210050000D03*
%TD*%
%TO.P,D52,1,K_1*%
%TO.N,ROW3*%
X112298750Y-193800000D03*
%TO.P,D52,2,A_2*%
%TO.N,Net-(D52-A)*%
X112298750Y-191000000D03*
%TD*%
%TO.P,D26,1,K_1*%
%TO.N,ROW1*%
X212311250Y-155700000D03*
%TO.P,D26,2,A_2*%
%TO.N,Net-(D26-A)*%
X212311250Y-152900000D03*
%TD*%
%TO.P,D67,1,K_1*%
%TO.N,ROW4*%
X121823750Y-212850000D03*
%TO.P,D67,2,A_2*%
%TO.N,Net-(D67-A)*%
X121823750Y-210050000D03*
%TD*%
D12*
%TO.P,D17,1,K_1*%
%TO.N,ROW0*%
X365031250Y-126170000D03*
%TO.P,D17,2,A_2*%
%TO.N,Net-(D17-A)*%
X362231250Y-126170000D03*
%TD*%
D11*
%TO.P,D28,1,K_1*%
%TO.N,ROW1*%
X250411250Y-155700000D03*
%TO.P,D28,2,A_2*%
%TO.N,Net-(D28-A)*%
X250411250Y-152900000D03*
%TD*%
%TO.P,D72,1,K_1*%
%TO.N,ROW4*%
X217073750Y-212850000D03*
%TO.P,D72,2,A_2*%
%TO.N,Net-(D72-A)*%
X217073750Y-210050000D03*
%TD*%
D12*
%TO.P,D3,1,K_1*%
%TO.N,ROW0*%
X98331250Y-126170000D03*
%TO.P,D3,2,A_2*%
%TO.N,Net-(D3-A)*%
X95531250Y-126170000D03*
%TD*%
D11*
%TO.P,D27,1,K_1*%
%TO.N,ROW1*%
X231361250Y-155700000D03*
%TO.P,D27,2,A_2*%
%TO.N,Net-(D27-A)*%
X231361250Y-152900000D03*
%TD*%
%TO.P,D37,1,K_1*%
%TO.N,ROW2*%
X126586250Y-174750000D03*
%TO.P,D37,2,A_2*%
%TO.N,Net-(D37-A)*%
X126586250Y-171950000D03*
%TD*%
%TO.P,D18,1,K_1*%
%TO.N,ROW1*%
X59911250Y-155700000D03*
%TO.P,D18,2,A_2*%
%TO.N,Net-(D18-A)*%
X59911250Y-152900000D03*
%TD*%
%TO.P,D69,1,K_1*%
%TO.N,ROW4*%
X159923750Y-212850000D03*
%TO.P,D69,2,A_2*%
%TO.N,Net-(D69-A)*%
X159923750Y-210050000D03*
%TD*%
%TO.P,D45,1,K_1*%
%TO.N,ROW2*%
X278986250Y-174750000D03*
%TO.P,D45,2,A_2*%
%TO.N,Net-(D45-A)*%
X278986250Y-171950000D03*
%TD*%
%TO.P,D44,1,K_1*%
%TO.N,ROW2*%
X259936250Y-174750000D03*
%TO.P,D44,2,A_2*%
%TO.N,Net-(D44-A)*%
X259936250Y-171950000D03*
%TD*%
%TO.P,D35,1,K_1*%
%TO.N,ROW2*%
X88486250Y-174750000D03*
%TO.P,D35,2,A_2*%
%TO.N,Net-(D35-A)*%
X88486250Y-171950000D03*
%TD*%
%TO.P,D86,1,K_1*%
%TO.N,ROW5*%
X326611250Y-231900000D03*
%TO.P,D86,2,A_2*%
%TO.N,Net-(D86-A)*%
X326611250Y-229100000D03*
%TD*%
%TO.P,D30,1,K_1*%
%TO.N,ROW1*%
X288511250Y-155700000D03*
%TO.P,D30,2,A_2*%
%TO.N,Net-(D30-A)*%
X288511250Y-152900000D03*
%TD*%
%TO.P,D46,1,K_1*%
%TO.N,ROW2*%
X298036250Y-174750000D03*
%TO.P,D46,2,A_2*%
%TO.N,Net-(D46-A)*%
X298036250Y-171950000D03*
%TD*%
%TO.P,D59,1,K_1*%
%TO.N,ROW3*%
X245648750Y-193800000D03*
%TO.P,D59,2,A_2*%
%TO.N,Net-(D59-A)*%
X245648750Y-191000000D03*
%TD*%
%TO.P,D64,1,K_1*%
%TO.N,ROW3*%
X364711250Y-193800000D03*
%TO.P,D64,2,A_2*%
%TO.N,Net-(D64-A)*%
X364711250Y-191000000D03*
%TD*%
%TO.P,D21,1,K_1*%
%TO.N,ROW1*%
X117061250Y-155700000D03*
%TO.P,D21,2,A_2*%
%TO.N,Net-(D21-A)*%
X117061250Y-152900000D03*
%TD*%
%TO.P,D22,1,K_1*%
%TO.N,ROW1*%
X136111250Y-155700000D03*
%TO.P,D22,2,A_2*%
%TO.N,Net-(D22-A)*%
X136111250Y-152900000D03*
%TD*%
D12*
%TO.P,D12,1,K_1*%
%TO.N,ROW0*%
X269781250Y-126170000D03*
%TO.P,D12,2,A_2*%
%TO.N,Net-(D12-A)*%
X266981250Y-126170000D03*
%TD*%
D11*
%TO.P,D82,1,K_1*%
%TO.N,ROW5*%
X193261250Y-231900000D03*
%TO.P,D82,2,A_2*%
%TO.N,Net-(D82-A)*%
X193261250Y-229100000D03*
%TD*%
%TO.P,D53,1,K_1*%
%TO.N,ROW3*%
X131348750Y-193800000D03*
%TO.P,D53,2,A_2*%
%TO.N,Net-(D53-A)*%
X131348750Y-191000000D03*
%TD*%
%TO.P,D68,1,K_1*%
%TO.N,ROW4*%
X140873750Y-212850000D03*
%TO.P,D68,2,A_2*%
%TO.N,Net-(D68-A)*%
X140873750Y-210050000D03*
%TD*%
%TO.P,D34,1,K_1*%
%TO.N,ROW2*%
X64673750Y-174750000D03*
%TO.P,D34,2,A_2*%
%TO.N,Net-(D34-A)*%
X64673750Y-171950000D03*
%TD*%
%TO.P,D61,1,K_1*%
%TO.N,ROW3*%
X283748750Y-193800000D03*
%TO.P,D61,2,A_2*%
%TO.N,Net-(D61-A)*%
X283748750Y-191000000D03*
%TD*%
D12*
%TO.P,D1,1,K_1*%
%TO.N,ROW0*%
X60231250Y-126170000D03*
%TO.P,D1,2,A_2*%
%TO.N,Net-(D1-A)*%
X57431250Y-126170000D03*
%TD*%
%TO.P,D2,1,K_1*%
%TO.N,ROW0*%
X79281250Y-126170000D03*
%TO.P,D2,2,A_2*%
%TO.N,Net-(D2-A)*%
X76481250Y-126170000D03*
%TD*%
%TO.P,D8,1,K_1*%
%TO.N,ROW0*%
X193581250Y-126170000D03*
%TO.P,D8,2,A_2*%
%TO.N,Net-(D8-A)*%
X190781250Y-126170000D03*
%TD*%
D11*
%TO.P,D79,1,K_1*%
%TO.N,ROW5*%
X64673750Y-231900000D03*
%TO.P,D79,2,A_2*%
%TO.N,Net-(D79-A)*%
X64673750Y-229100000D03*
%TD*%
%TO.P,D85,1,K_1*%
%TO.N,ROW5*%
X307561250Y-231900000D03*
%TO.P,D85,2,A_2*%
%TO.N,Net-(D85-A)*%
X307561250Y-229100000D03*
%TD*%
%TO.P,D33,1,K_1*%
%TO.N,ROW1*%
X364711250Y-155700000D03*
%TO.P,D33,2,A_2*%
%TO.N,Net-(D33-A)*%
X364711250Y-152900000D03*
%TD*%
%TO.P,D77,1,K_1*%
%TO.N,ROW4*%
X345661250Y-212850000D03*
%TO.P,D77,2,A_2*%
%TO.N,Net-(D77-A)*%
X345661250Y-210050000D03*
%TD*%
%TO.P,D66,1,K_1*%
%TO.N,ROW4*%
X102773750Y-212850000D03*
%TO.P,D66,2,A_2*%
%TO.N,Net-(D66-A)*%
X102773750Y-210050000D03*
%TD*%
%TO.P,D38,1,K_1*%
%TO.N,ROW2*%
X145636250Y-174750000D03*
%TO.P,D38,2,A_2*%
%TO.N,Net-(D38-A)*%
X145636250Y-171950000D03*
%TD*%
%TO.P,D87,1,K_1*%
%TO.N,ROW5*%
X345661250Y-231900000D03*
%TO.P,D87,2,A_2*%
%TO.N,Net-(D87-A)*%
X345661250Y-229100000D03*
%TD*%
%TO.P,D36,1,K_1*%
%TO.N,ROW2*%
X107536250Y-174750000D03*
%TO.P,D36,2,A_2*%
%TO.N,Net-(D36-A)*%
X107536250Y-171950000D03*
%TD*%
%TO.P,D65,1,K_1*%
%TO.N,ROW4*%
X71817500Y-212850000D03*
%TO.P,D65,2,A_2*%
%TO.N,Net-(D65-A)*%
X71817500Y-210050000D03*
%TD*%
%TO.P,D75,1,K_1*%
%TO.N,ROW4*%
X274223750Y-212850000D03*
%TO.P,D75,2,A_2*%
%TO.N,Net-(D75-A)*%
X274223750Y-210050000D03*
%TD*%
%TO.P,D40,1,K_1*%
%TO.N,ROW2*%
X183736250Y-174750000D03*
%TO.P,D40,2,A_2*%
%TO.N,Net-(D40-A)*%
X183736250Y-171950000D03*
%TD*%
%TO.P,D50,1,K_1*%
%TO.N,ROW3*%
X67055000Y-193800000D03*
%TO.P,D50,2,A_2*%
%TO.N,Net-(D50-A)*%
X67055000Y-191000000D03*
%TD*%
%TO.P,D54,1,K_1*%
%TO.N,ROW3*%
X150398750Y-193800000D03*
%TO.P,D54,2,A_2*%
%TO.N,Net-(D54-A)*%
X150398750Y-191000000D03*
%TD*%
%TO.P,D62,1,K_1*%
%TO.N,ROW3*%
X314705000Y-193800000D03*
%TO.P,D62,2,A_2*%
%TO.N,Net-(D62-A)*%
X314705000Y-191000000D03*
%TD*%
%TO.P,D24,1,K_1*%
%TO.N,ROW1*%
X174211250Y-155700000D03*
%TO.P,D24,2,A_2*%
%TO.N,Net-(D24-A)*%
X174211250Y-152900000D03*
%TD*%
D12*
%TO.P,D6,1,K_1*%
%TO.N,ROW0*%
X155481250Y-126170000D03*
%TO.P,D6,2,A_2*%
%TO.N,Net-(D6-A)*%
X152681250Y-126170000D03*
%TD*%
D11*
%TO.P,D80,1,K_1*%
%TO.N,ROW5*%
X90867500Y-231900000D03*
%TO.P,D80,2,A_2*%
%TO.N,Net-(D80-A)*%
X90867500Y-229100000D03*
%TD*%
%TO.P,D31,1,K_1*%
%TO.N,ROW1*%
X317086250Y-155700000D03*
%TO.P,D31,2,A_2*%
%TO.N,Net-(D31-A)*%
X317086250Y-152900000D03*
%TD*%
D12*
%TO.P,D11,1,K_1*%
%TO.N,ROW0*%
X250731250Y-126170000D03*
%TO.P,D11,2,A_2*%
%TO.N,Net-(D11-A)*%
X247931250Y-126170000D03*
%TD*%
D11*
%TO.P,D42,1,K_1*%
%TO.N,ROW2*%
X221836250Y-174750000D03*
%TO.P,D42,2,A_2*%
%TO.N,Net-(D42-A)*%
X221836250Y-171950000D03*
%TD*%
%TO.P,D49,1,K_1*%
%TO.N,ROW2*%
X364711250Y-174750000D03*
%TO.P,D49,2,A_2*%
%TO.N,Net-(D49-A)*%
X364711250Y-171950000D03*
%TD*%
%TO.P,D43,1,K_1*%
%TO.N,ROW2*%
X240886250Y-174750000D03*
%TO.P,D43,2,A_2*%
%TO.N,Net-(D43-A)*%
X240886250Y-171950000D03*
%TD*%
D12*
%TO.P,D16,1,K_1*%
%TO.N,ROW0*%
X345981250Y-126170000D03*
%TO.P,D16,2,A_2*%
%TO.N,Net-(D16-A)*%
X343181250Y-126170000D03*
%TD*%
D11*
%TO.P,D19,1,K_1*%
%TO.N,ROW1*%
X78961250Y-155700000D03*
%TO.P,D19,2,A_2*%
%TO.N,Net-(D19-A)*%
X78961250Y-152900000D03*
%TD*%
%TO.P,D32,1,K_1*%
%TO.N,ROW1*%
X345661250Y-155700000D03*
%TO.P,D32,2,A_2*%
%TO.N,Net-(D32-A)*%
X345661250Y-152900000D03*
%TD*%
%TO.P,D73,1,K_1*%
%TO.N,ROW4*%
X236123750Y-212850000D03*
%TO.P,D73,2,A_2*%
%TO.N,Net-(D73-A)*%
X236123750Y-210050000D03*
%TD*%
%TO.P,D41,1,K_1*%
%TO.N,ROW2*%
X202786250Y-174750000D03*
%TO.P,D41,2,A_2*%
%TO.N,Net-(D41-A)*%
X202786250Y-171950000D03*
%TD*%
%TO.P,D76,1,K_1*%
%TO.N,ROW4*%
X309942500Y-212850000D03*
%TO.P,D76,2,A_2*%
%TO.N,Net-(D76-A)*%
X309942500Y-210050000D03*
%TD*%
D13*
%TO.N,ROW0*%
X93000000Y-95200000D03*
%TO.N,ROW1*%
X94000000Y-94200000D03*
%TO.N,ROW2*%
X95000000Y-93200000D03*
%TO.N,ROW3*%
X96000000Y-92200000D03*
%TO.N,ROW4*%
X97000000Y-91200000D03*
%TO.N,ROW5*%
X98000000Y-90200000D03*
%TD*%
%TO.N,Net-(D6-A)*%
D14*
X150101250Y-128750000D02*
X152681250Y-126170000D01*
X145581250Y-128750000D02*
X150101250Y-128750000D01*
%TO.N,Net-(D13-A)*%
X278931250Y-128750000D02*
X283451250Y-128750000D01*
X283451250Y-128750000D02*
X286031250Y-126170000D01*
%TO.N,Net-(D26-A)*%
X209731250Y-145800000D02*
X209731250Y-150320000D01*
X209731250Y-150320000D02*
X212311250Y-152900000D01*
%TO.N,Net-(D88-A)*%
X362131250Y-222000000D02*
X362131250Y-226520000D01*
X362131250Y-226520000D02*
X364711250Y-229100000D01*
%TO.N,Net-(D8-A)*%
X188201250Y-128750000D02*
X190781250Y-126170000D01*
X183681250Y-128750000D02*
X188201250Y-128750000D01*
%TO.N,Net-(D24-A)*%
X171631250Y-150320000D02*
X174211250Y-152900000D01*
X171631250Y-145800000D02*
X171631250Y-150320000D01*
%TO.N,Net-(D78-A)*%
X362131250Y-207470000D02*
X364711250Y-210050000D01*
X362131250Y-202950000D02*
X362131250Y-207470000D01*
%TO.N,Net-(D59-A)*%
X243068750Y-183900000D02*
X243068750Y-188420000D01*
X243068750Y-188420000D02*
X245648750Y-191000000D01*
%TO.N,Net-(D47-A)*%
X319268750Y-169370000D02*
X321848750Y-171950000D01*
X319268750Y-164850000D02*
X319268750Y-169370000D01*
%TO.N,Net-(D84-A)*%
X285931250Y-226520000D02*
X288511250Y-229100000D01*
X285931250Y-222000000D02*
X285931250Y-226520000D01*
%TO.N,Net-(D32-A)*%
X343081250Y-145800000D02*
X343081250Y-150320000D01*
X343081250Y-150320000D02*
X345661250Y-152900000D01*
%TO.N,Net-(D27-A)*%
X228781250Y-150320000D02*
X231361250Y-152900000D01*
X228781250Y-145800000D02*
X228781250Y-150320000D01*
%TO.N,Net-(D81-A)*%
X114481250Y-226520000D02*
X117061250Y-229100000D01*
X114481250Y-222000000D02*
X114481250Y-226520000D01*
%TO.N,Net-(D48-A)*%
X343081250Y-169370000D02*
X345661250Y-171950000D01*
X343081250Y-164850000D02*
X343081250Y-169370000D01*
%TO.N,Net-(D38-A)*%
X143056250Y-169370000D02*
X145636250Y-171950000D01*
X143056250Y-164850000D02*
X143056250Y-169370000D01*
%TO.N,Net-(D72-A)*%
X214493750Y-202950000D02*
X214493750Y-207470000D01*
X214493750Y-207470000D02*
X217073750Y-210050000D01*
%TO.N,Net-(D29-A)*%
X266881250Y-145800000D02*
X266881250Y-150320000D01*
X266881250Y-150320000D02*
X269461250Y-152900000D01*
%TO.N,Net-(D70-A)*%
X176393750Y-207470000D02*
X178973750Y-210050000D01*
X176393750Y-202950000D02*
X176393750Y-207470000D01*
%TO.N,Net-(D74-A)*%
X252593750Y-202950000D02*
X252593750Y-207470000D01*
X252593750Y-207470000D02*
X255173750Y-210050000D01*
%TO.N,Net-(D65-A)*%
X69237500Y-207470000D02*
X71817500Y-210050000D01*
X69237500Y-202950000D02*
X69237500Y-207470000D01*
%TO.N,Net-(D31-A)*%
X314506250Y-145800000D02*
X314506250Y-150320000D01*
X314506250Y-150320000D02*
X317086250Y-152900000D01*
%TO.N,Net-(D55-A)*%
X166868750Y-183900000D02*
X166868750Y-188420000D01*
X166868750Y-188420000D02*
X169448750Y-191000000D01*
%TO.N,Net-(D5-A)*%
X131051250Y-128750000D02*
X133631250Y-126170000D01*
X126531250Y-128750000D02*
X131051250Y-128750000D01*
%TO.N,Net-(D23-A)*%
X152581250Y-150320000D02*
X155161250Y-152900000D01*
X152581250Y-145800000D02*
X152581250Y-150320000D01*
%TO.N,Net-(D52-A)*%
X109718750Y-183900000D02*
X109718750Y-188420000D01*
X109718750Y-188420000D02*
X112298750Y-191000000D01*
%TO.N,Net-(D61-A)*%
X281168750Y-188420000D02*
X283748750Y-191000000D01*
X281168750Y-183900000D02*
X281168750Y-188420000D01*
%TO.N,Net-(D3-A)*%
X88431250Y-128750000D02*
X92951250Y-128750000D01*
X92951250Y-128750000D02*
X95531250Y-126170000D01*
%TO.N,Net-(D15-A)*%
X321551250Y-128750000D02*
X324131250Y-126170000D01*
X317031250Y-128750000D02*
X321551250Y-128750000D01*
%TO.N,Net-(D46-A)*%
X295456250Y-169370000D02*
X298036250Y-171950000D01*
X295456250Y-164850000D02*
X295456250Y-169370000D01*
%TO.N,Net-(D83-A)*%
X264500000Y-222000000D02*
X264500000Y-226520000D01*
X264500000Y-226520000D02*
X267080000Y-229100000D01*
%TO.N,Net-(D30-A)*%
X285931250Y-150320000D02*
X288511250Y-152900000D01*
X285931250Y-145800000D02*
X285931250Y-150320000D01*
%TO.N,Net-(D86-A)*%
X324031250Y-226520000D02*
X326611250Y-229100000D01*
X324031250Y-222000000D02*
X324031250Y-226520000D01*
%TO.N,Net-(D10-A)*%
X221781250Y-128750000D02*
X226301250Y-128750000D01*
X226301250Y-128750000D02*
X228881250Y-126170000D01*
%TO.N,Net-(D35-A)*%
X85906250Y-164850000D02*
X85906250Y-169370000D01*
X85906250Y-169370000D02*
X88486250Y-171950000D01*
%TO.N,Net-(D56-A)*%
X185918750Y-188420000D02*
X188498750Y-191000000D01*
X185918750Y-183900000D02*
X185918750Y-188420000D01*
%TO.N,Net-(D2-A)*%
X73901250Y-128750000D02*
X76481250Y-126170000D01*
X69381250Y-128750000D02*
X73901250Y-128750000D01*
%TO.N,Net-(D39-A)*%
X162106250Y-164850000D02*
X162106250Y-169370000D01*
X162106250Y-169370000D02*
X164686250Y-171950000D01*
%TO.N,Net-(D51-A)*%
X90668750Y-183900000D02*
X90668750Y-188420000D01*
X90668750Y-188420000D02*
X93248750Y-191000000D01*
%TO.N,Net-(D4-A)*%
X107481250Y-128750000D02*
X112001250Y-128750000D01*
X112001250Y-128750000D02*
X114581250Y-126170000D01*
%TO.N,Net-(D80-A)*%
X88287500Y-226520000D02*
X90867500Y-229100000D01*
X88287500Y-222000000D02*
X88287500Y-226520000D01*
%TO.N,Net-(D54-A)*%
X147818750Y-188420000D02*
X150398750Y-191000000D01*
X147818750Y-183900000D02*
X147818750Y-188420000D01*
%TO.N,Net-(D7-A)*%
X169151250Y-128750000D02*
X171731250Y-126170000D01*
X164631250Y-128750000D02*
X169151250Y-128750000D01*
%TO.N,Net-(D17-A)*%
X355131250Y-128750000D02*
X359651250Y-128750000D01*
X359651250Y-128750000D02*
X362231250Y-126170000D01*
%TO.N,Net-(D76-A)*%
X307362500Y-207470000D02*
X309942500Y-210050000D01*
X307362500Y-202950000D02*
X307362500Y-207470000D01*
%TO.N,Net-(D64-A)*%
X362131250Y-188420000D02*
X364711250Y-191000000D01*
X362131250Y-183900000D02*
X362131250Y-188420000D01*
%TO.N,Net-(D45-A)*%
X276406250Y-169370000D02*
X278986250Y-171950000D01*
X276406250Y-164850000D02*
X276406250Y-169370000D01*
%TO.N,Net-(D33-A)*%
X362131250Y-145800000D02*
X362131250Y-150320000D01*
X362131250Y-150320000D02*
X364711250Y-152900000D01*
%TO.N,Net-(D75-A)*%
X271643750Y-207470000D02*
X274223750Y-210050000D01*
X271643750Y-202950000D02*
X271643750Y-207470000D01*
%TO.N,Net-(D21-A)*%
X114481250Y-145800000D02*
X114481250Y-150320000D01*
X114481250Y-150320000D02*
X117061250Y-152900000D01*
%TO.N,Net-(D50-A)*%
X64475000Y-183900000D02*
X64475000Y-188420000D01*
X64475000Y-188420000D02*
X67055000Y-191000000D01*
%TO.N,Net-(D44-A)*%
X257356250Y-169370000D02*
X259936250Y-171950000D01*
X257356250Y-164850000D02*
X257356250Y-169370000D01*
%TO.N,Net-(D87-A)*%
X343081250Y-222000000D02*
X343081250Y-226520000D01*
X343081250Y-226520000D02*
X345661250Y-229100000D01*
%TO.N,Net-(D20-A)*%
X95431250Y-150320000D02*
X98011250Y-152900000D01*
X95431250Y-145800000D02*
X95431250Y-150320000D01*
%TO.N,Net-(D66-A)*%
X100193750Y-207470000D02*
X102773750Y-210050000D01*
X100193750Y-202950000D02*
X100193750Y-207470000D01*
%TO.N,Net-(D60-A)*%
X262118750Y-183900000D02*
X262118750Y-188420000D01*
X262118750Y-188420000D02*
X264698750Y-191000000D01*
%TO.N,Net-(D25-A)*%
X190681250Y-150320000D02*
X193261250Y-152900000D01*
X190681250Y-145800000D02*
X190681250Y-150320000D01*
%TO.N,Net-(D22-A)*%
X133531250Y-145800000D02*
X133531250Y-150320000D01*
X133531250Y-150320000D02*
X136111250Y-152900000D01*
%TO.N,Net-(D37-A)*%
X124006250Y-169370000D02*
X126586250Y-171950000D01*
X124006250Y-164850000D02*
X124006250Y-169370000D01*
%TO.N,Net-(D28-A)*%
X247831250Y-145800000D02*
X247831250Y-150320000D01*
X247831250Y-150320000D02*
X250411250Y-152900000D01*
%TO.N,Net-(D57-A)*%
X204968750Y-188420000D02*
X207548750Y-191000000D01*
X204968750Y-183900000D02*
X204968750Y-188420000D01*
%TO.N,Net-(D34-A)*%
X62093750Y-169370000D02*
X64673750Y-171950000D01*
X62093750Y-164850000D02*
X62093750Y-169370000D01*
%TO.N,Net-(D69-A)*%
X157343750Y-207470000D02*
X159923750Y-210050000D01*
X157343750Y-202950000D02*
X157343750Y-207470000D01*
%TO.N,Net-(D53-A)*%
X128768750Y-183900000D02*
X128768750Y-188420000D01*
X128768750Y-188420000D02*
X131348750Y-191000000D01*
%TO.N,Net-(D68-A)*%
X138293750Y-202950000D02*
X138293750Y-207470000D01*
X138293750Y-207470000D02*
X140873750Y-210050000D01*
%TO.N,Net-(D67-A)*%
X119243750Y-202950000D02*
X119243750Y-207470000D01*
X119243750Y-207470000D02*
X121823750Y-210050000D01*
%TO.N,Net-(D41-A)*%
X200206250Y-169370000D02*
X202786250Y-171950000D01*
X200206250Y-164850000D02*
X200206250Y-169370000D01*
%TO.N,Net-(D16-A)*%
X336081250Y-128750000D02*
X340601250Y-128750000D01*
X340601250Y-128750000D02*
X343181250Y-126170000D01*
%TO.N,Net-(D49-A)*%
X362131250Y-169370000D02*
X364711250Y-171950000D01*
X362131250Y-164850000D02*
X362131250Y-169370000D01*
%TO.N,Net-(D63-A)*%
X343081250Y-188420000D02*
X345661250Y-191000000D01*
X343081250Y-183900000D02*
X343081250Y-188420000D01*
%TO.N,Net-(D43-A)*%
X238306250Y-164850000D02*
X238306250Y-169370000D01*
X238306250Y-169370000D02*
X240886250Y-171950000D01*
%TO.N,Net-(D82-A)*%
X190681250Y-222000000D02*
X190681250Y-226520000D01*
X190681250Y-226520000D02*
X193261250Y-229100000D01*
%TO.N,Net-(D18-A)*%
X57331250Y-150320000D02*
X59911250Y-152900000D01*
X57331250Y-145800000D02*
X57331250Y-150320000D01*
%TO.N,Net-(D1-A)*%
X54851250Y-128750000D02*
X57431250Y-126170000D01*
X50331250Y-128750000D02*
X54851250Y-128750000D01*
%TO.N,Net-(D77-A)*%
X343081250Y-202950000D02*
X343081250Y-207470000D01*
X343081250Y-207470000D02*
X345661250Y-210050000D01*
%TO.N,Net-(D14-A)*%
X297981250Y-128750000D02*
X302501250Y-128750000D01*
X302501250Y-128750000D02*
X305081250Y-126170000D01*
%TO.N,Net-(D79-A)*%
X62093750Y-222000000D02*
X62093750Y-226520000D01*
X62093750Y-226520000D02*
X64673750Y-229100000D01*
%TO.N,Net-(D11-A)*%
X245351250Y-128750000D02*
X247931250Y-126170000D01*
X240831250Y-128750000D02*
X245351250Y-128750000D01*
%TO.N,Net-(D12-A)*%
X264401250Y-128750000D02*
X266981250Y-126170000D01*
X259881250Y-128750000D02*
X264401250Y-128750000D01*
%TO.N,Net-(D36-A)*%
X104956250Y-169370000D02*
X107536250Y-171950000D01*
X104956250Y-164850000D02*
X104956250Y-169370000D01*
%TO.N,Net-(D40-A)*%
X181156250Y-164850000D02*
X181156250Y-169370000D01*
X181156250Y-169370000D02*
X183736250Y-171950000D01*
%TO.N,ROW0*%
X307881300Y-126170000D02*
X307881300Y-124000000D01*
X117381200Y-126170000D02*
X117381200Y-124000000D01*
X98331200Y-126170000D02*
X98331200Y-124000000D01*
X365031200Y-126170000D02*
X365031200Y-124000000D01*
X93000000Y-124000000D02*
X365031200Y-124000000D01*
X231681300Y-126170000D02*
X231681300Y-124000000D01*
X193581300Y-126170000D02*
X193581300Y-124000000D01*
X79281200Y-126170000D02*
X79281200Y-124000000D01*
X250731200Y-126170000D02*
X250731200Y-124000000D01*
X155481200Y-126170000D02*
X155481200Y-124000000D01*
X326931200Y-126170000D02*
X326931200Y-124000000D01*
X93000000Y-95200000D02*
X93000000Y-124000000D01*
X269781200Y-126170000D02*
X269781200Y-124000000D01*
X288831300Y-126170000D02*
X288831300Y-124000000D01*
X136431300Y-126170000D02*
X136431300Y-124000000D01*
X212631200Y-126170000D02*
X212631200Y-124000000D01*
X60231300Y-126170000D02*
X60231300Y-124000000D01*
X60231300Y-124000000D02*
X93000000Y-124000000D01*
X174531200Y-126170000D02*
X174531200Y-124000000D01*
X345981200Y-126170000D02*
X345981200Y-124000000D01*
%TO.N,ROW1*%
X155161250Y-155700000D02*
X174211250Y-155700000D01*
X345661250Y-155700000D02*
X364711250Y-155700000D01*
X366500000Y-119500000D02*
X366500000Y-155200000D01*
X94500000Y-119000000D02*
X366000000Y-119000000D01*
X269461250Y-155700000D02*
X288511250Y-155700000D01*
X317086250Y-155700000D02*
X345661250Y-155700000D01*
X212311250Y-155700000D02*
X231361250Y-155700000D01*
X366000000Y-155700000D02*
X364711300Y-155700000D01*
X78961250Y-155700000D02*
X98011250Y-155700000D01*
X136111250Y-155700000D02*
X155161250Y-155700000D01*
X193261250Y-155700000D02*
X212311250Y-155700000D01*
X94000000Y-118500000D02*
X94500000Y-119000000D01*
X366000000Y-119000000D02*
X366500000Y-119500000D01*
X98011250Y-155700000D02*
X117061250Y-155700000D01*
X59911250Y-155700000D02*
X78961250Y-155700000D01*
X117061250Y-155700000D02*
X136111250Y-155700000D01*
X250411250Y-155700000D02*
X269461250Y-155700000D01*
X288511250Y-155700000D02*
X317086250Y-155700000D01*
X231361250Y-155700000D02*
X250411250Y-155700000D01*
X174211250Y-155700000D02*
X193261250Y-155700000D01*
X94000000Y-94200000D02*
X94000000Y-118500000D01*
X366500000Y-155200000D02*
X366000000Y-155700000D01*
%TO.N,ROW2*%
X367000000Y-174250000D02*
X366500000Y-174750000D01*
X95500000Y-118500000D02*
X366500000Y-118500000D01*
X88486250Y-174750000D02*
X107536250Y-174750000D01*
X64673750Y-174750000D02*
X88486250Y-174750000D01*
X366500000Y-118500000D02*
X367000000Y-119000000D01*
X298036250Y-174750000D02*
X321848750Y-174750000D01*
X107536250Y-174750000D02*
X126586250Y-174750000D01*
X202786250Y-174750000D02*
X221836250Y-174750000D01*
X126586250Y-174750000D02*
X145636250Y-174750000D01*
X278986250Y-174750000D02*
X298036250Y-174750000D01*
X221836250Y-174750000D02*
X240886250Y-174750000D01*
X259936250Y-174750000D02*
X278986250Y-174750000D01*
X145636250Y-174750000D02*
X164686250Y-174750000D01*
X345661250Y-174750000D02*
X364711250Y-174750000D01*
X164686250Y-174750000D02*
X183736250Y-174750000D01*
X183736250Y-174750000D02*
X202786250Y-174750000D01*
X95000000Y-93200000D02*
X95000000Y-118000000D01*
X366500000Y-174750000D02*
X364711300Y-174750000D01*
X95000000Y-118000000D02*
X95500000Y-118500000D01*
X321848750Y-174750000D02*
X345661250Y-174750000D01*
X240886250Y-174750000D02*
X259936250Y-174750000D01*
X367000000Y-119000000D02*
X367000000Y-174250000D01*
%TO.N,ROW3*%
X226598750Y-193800000D02*
X245648750Y-193800000D01*
X367000000Y-118000000D02*
X367500000Y-118500000D01*
X367500000Y-193300000D02*
X367000000Y-193800000D01*
X245648750Y-193800000D02*
X264698750Y-193800000D01*
X314705000Y-193800000D02*
X345661250Y-193800000D01*
X96000000Y-117500000D02*
X96500000Y-118000000D01*
X367500000Y-118500000D02*
X367500000Y-193300000D01*
X96000000Y-92200000D02*
X96000000Y-117500000D01*
X188498750Y-193800000D02*
X207548750Y-193800000D01*
X96500000Y-118000000D02*
X367000000Y-118000000D01*
X345661250Y-193800000D02*
X364711250Y-193800000D01*
X150398750Y-193800000D02*
X169448750Y-193800000D01*
X367000000Y-193800000D02*
X364711300Y-193800000D01*
X131348750Y-193800000D02*
X150398750Y-193800000D01*
X112298750Y-193800000D02*
X131348750Y-193800000D01*
X67055000Y-193800000D02*
X93248750Y-193800000D01*
X93248750Y-193800000D02*
X112298750Y-193800000D01*
X169448750Y-193800000D02*
X188498750Y-193800000D01*
X207548750Y-193800000D02*
X226598750Y-193800000D01*
X264698750Y-193800000D02*
X283748750Y-193800000D01*
X283748750Y-193800000D02*
X314705000Y-193800000D01*
%TO.N,ROW4*%
X255173750Y-212850000D02*
X274223750Y-212850000D01*
X236123750Y-212850000D02*
X255173750Y-212850000D01*
X102773750Y-212850000D02*
X121823750Y-212850000D01*
X140873750Y-212850000D02*
X159923750Y-212850000D01*
X217073750Y-212850000D02*
X236123750Y-212850000D01*
X97000000Y-91200000D02*
X97000000Y-117000000D01*
X367500000Y-212850000D02*
X364711300Y-212850000D01*
X198023750Y-212850000D02*
X217073750Y-212850000D01*
X368000000Y-118000000D02*
X368000000Y-212350000D01*
X121823750Y-212850000D02*
X140873750Y-212850000D01*
X367500000Y-117500000D02*
X368000000Y-118000000D01*
X159923750Y-212850000D02*
X178973750Y-212850000D01*
X71817500Y-212850000D02*
X102773750Y-212850000D01*
X274223750Y-212850000D02*
X309942500Y-212850000D01*
X97500000Y-117500000D02*
X367500000Y-117500000D01*
X345661250Y-212850000D02*
X364711250Y-212850000D01*
X97000000Y-117000000D02*
X97500000Y-117500000D01*
X309942500Y-212850000D02*
X345661250Y-212850000D01*
X368000000Y-212350000D02*
X367500000Y-212850000D01*
X178973750Y-212850000D02*
X198023750Y-212850000D01*
%TO.N,ROW5*%
X193261250Y-231900000D02*
X267080000Y-231900000D01*
X368500000Y-231400000D02*
X368000000Y-231900000D01*
X326611250Y-231900000D02*
X345661250Y-231900000D01*
X117061250Y-231900000D02*
X193261250Y-231900000D01*
X64673750Y-231900000D02*
X90867500Y-231900000D01*
X98000000Y-116500000D02*
X98500000Y-117000000D01*
X98000000Y-90200000D02*
X98000000Y-116500000D01*
X267080000Y-231900000D02*
X288511250Y-231900000D01*
X368500000Y-117500000D02*
X368500000Y-231400000D01*
X98500000Y-117000000D02*
X368000000Y-117000000D01*
X90867500Y-231900000D02*
X117061250Y-231900000D01*
X307561250Y-231900000D02*
X326611250Y-231900000D01*
X368000000Y-231900000D02*
X364711300Y-231900000D01*
X368000000Y-117000000D02*
X368500000Y-117500000D01*
X288511250Y-231900000D02*
X307561250Y-231900000D01*
X345661250Y-231900000D02*
X364711250Y-231900000D01*
%TO.N,Net-(D42-A)*%
X219256250Y-169370000D02*
X221836250Y-171950000D01*
X219256250Y-164850000D02*
X219256250Y-169370000D01*
%TO.N,Net-(D71-A)*%
X195443750Y-202950000D02*
X195443750Y-207470000D01*
X195443750Y-207470000D02*
X198023750Y-210050000D01*
%TO.N,Net-(D19-A)*%
X76381250Y-145800000D02*
X76381250Y-150320000D01*
X76381250Y-150320000D02*
X78961250Y-152900000D01*
%TO.N,Net-(D58-A)*%
X224018750Y-188420000D02*
X226598750Y-191000000D01*
X224018750Y-183900000D02*
X224018750Y-188420000D01*
%TO.N,Net-(D9-A)*%
X202731250Y-128750000D02*
X207251250Y-128750000D01*
X207251250Y-128750000D02*
X209831250Y-126170000D01*
%TO.N,Net-(D62-A)*%
X312125000Y-188420000D02*
X314705000Y-191000000D01*
X312125000Y-183900000D02*
X312125000Y-188420000D01*
%TO.N,Net-(D85-A)*%
X304981250Y-222000000D02*
X304981250Y-226520000D01*
X304981250Y-226520000D02*
X307561250Y-229100000D01*
%TO.N,Net-(D73-A)*%
X233543750Y-207470000D02*
X236123750Y-210050000D01*
X233543750Y-202950000D02*
X233543750Y-207470000D01*
%TD*%
M02*
