%TF.GenerationSoftware,KiCad,Pcbnew,10.0.6*%
%TF.CreationDate,2026-09-26T13:40:46-04:00*%
%TF.ProjectId,alps75-zug,616c7073-3735-42d7-9a75-672e6b696361,rev?*%
%TF.SameCoordinates,Original*%
%TF.FileFunction,Paste,Top*%
%TF.FilePolarity,Positive*%
%FSLAX46Y46*%
G04 Gerber Fmt 4.6, Leading zero omitted, Abs format (unit mm)*
G04 Created by KiCad (PCBNEW 10.0.6) date 2026-09-26 13:40:46*
%MOMM*%
%LPD*%
G01*
G04 APERTURE LIST*
%ADD10R,2.200000X3.800000*%
%ADD11R,3.800000X2.200000*%
G04 APERTURE END LIST*
D10*
%TO.C,U1*%
X44619687Y-118090000D03*
X47159687Y-118090000D03*
X49699687Y-118090000D03*
X52239687Y-118090000D03*
X54779687Y-118090000D03*
X57319687Y-118090000D03*
X59859687Y-118090000D03*
X62399687Y-118090000D03*
X64939687Y-118090000D03*
X67479687Y-118090000D03*
X70019687Y-118090000D03*
X72559687Y-118090000D03*
X75099687Y-118090000D03*
X77639687Y-118090000D03*
X80179687Y-118090000D03*
X82719687Y-118090000D03*
X85259687Y-118090000D03*
X87799687Y-118090000D03*
X90339687Y-118090000D03*
X92879687Y-118090000D03*
D11*
X93449687Y-110940000D03*
X93449687Y-108400000D03*
X93449687Y-105860000D03*
D10*
X44619687Y-98710000D03*
X47159687Y-98710000D03*
X49699687Y-98710000D03*
X52239687Y-98710000D03*
X54779687Y-98710000D03*
X57319687Y-98710000D03*
X59859687Y-98710000D03*
X62399687Y-98710000D03*
X64939687Y-98710000D03*
X67479687Y-98710000D03*
X70019687Y-98710000D03*
X72559687Y-98710000D03*
X75099687Y-98710000D03*
X77639687Y-98710000D03*
X80179687Y-98710000D03*
X82719687Y-98710000D03*
X85259687Y-98710000D03*
X87799687Y-98710000D03*
X90339687Y-98710000D03*
X92879687Y-98710000D03*
%TD*%
M02*
