%TF.GenerationSoftware,KiCad,Pcbnew,10.0.6*%
%TF.CreationDate,2026-09-19T22:41:33-04:00*%
%TF.ProjectId,alps75-zug,616c7073-3735-42d7-9a75-672e6b696361,rev?*%
%TF.SameCoordinates,Original*%
%TF.FileFunction,Soldermask,Bot*%
%TF.FilePolarity,Negative*%
%FSLAX46Y46*%
G04 Gerber Fmt 4.6, Leading zero omitted, Abs format (unit mm)*
G04 Created by KiCad (PCBNEW 10.0.6) date 2026-09-19 22:41:33*
%MOMM*%
%LPD*%
G01*
G04 APERTURE LIST*
G04 Aperture macros list*
%AMRoundRect*
0 Rectangle with rounded corners*
0 $1 Rounding radius*
0 $2 $3 $4 $5 $6 $7 $8 $9 X,Y pos of 4 corners*
0 Add a 4 corners polygon primitive as box body*
4,1,4,$2,$3,$4,$5,$6,$7,$8,$9,$2,$3,0*
0 Add four circle primitives for the rounded corners*
1,1,$1+$1,$2,$3*
1,1,$1+$1,$4,$5*
1,1,$1+$1,$6,$7*
1,1,$1+$1,$8,$9*
0 Add four rect primitives between the rounded corners*
20,1,$1+$1,$2,$3,$4,$5,0*
20,1,$1+$1,$4,$5,$6,$7,0*
20,1,$1+$1,$6,$7,$8,$9,0*
20,1,$1+$1,$8,$9,$2,$3,0*%
G04 Aperture macros list end*
%ADD10C,2.500000*%
%ADD11C,2.200000*%
%ADD12C,1.850000*%
%ADD13RoundRect,0.250000X0.300000X-0.300000X0.300000X0.300000X-0.300000X0.300000X-0.300000X-0.300000X0*%
%ADD14RoundRect,0.250000X0.300000X0.300000X-0.300000X0.300000X-0.300000X-0.300000X0.300000X-0.300000X0*%
G04 APERTURE END LIST*
D10*
%TO.C,SW6*%
X146081250Y-133750000D03*
X145581250Y-128750000D03*
%TD*%
%TO.C,SW13*%
X279431250Y-133750000D03*
X278931250Y-128750000D03*
%TD*%
%TO.C,SW26*%
X204731250Y-146300000D03*
X209731250Y-145800000D03*
%TD*%
%TO.C,SW88*%
X357131250Y-222500000D03*
X362131250Y-222000000D03*
%TD*%
%TO.C,SW8*%
X184181250Y-133750000D03*
X183681250Y-128750000D03*
%TD*%
%TO.C,SW24*%
X166631250Y-146300000D03*
X171631250Y-145800000D03*
%TD*%
%TO.C,SW78*%
X357131250Y-203450000D03*
X362131250Y-202950000D03*
%TD*%
%TO.C,SW59*%
X238068750Y-184400000D03*
X243068750Y-183900000D03*
%TD*%
%TO.C,SW47*%
X314268750Y-165350000D03*
X319268750Y-164850000D03*
%TD*%
%TO.C,SW84*%
X280931250Y-222500000D03*
X285931250Y-222000000D03*
%TD*%
%TO.C,SW32*%
X338081250Y-146300000D03*
X343081250Y-145800000D03*
%TD*%
%TO.C,SW27*%
X223781250Y-146300000D03*
X228781250Y-145800000D03*
%TD*%
%TO.C,SW81*%
X109481250Y-222500000D03*
X114481250Y-222000000D03*
%TD*%
%TO.C,SW48*%
X338081250Y-165350000D03*
X343081250Y-164850000D03*
%TD*%
%TO.C,SW38*%
X138056250Y-165350000D03*
X143056250Y-164850000D03*
%TD*%
%TO.C,SW72*%
X209493750Y-203450000D03*
X214493750Y-202950000D03*
%TD*%
%TO.C,SW29*%
X261881250Y-146300000D03*
X266881250Y-145800000D03*
%TD*%
%TO.C,SW70*%
X171393750Y-203450000D03*
X176393750Y-202950000D03*
%TD*%
%TO.C,SW74*%
X247593750Y-203450000D03*
X252593750Y-202950000D03*
%TD*%
%TO.C,SW65*%
X64237500Y-203450000D03*
X69237500Y-202950000D03*
%TD*%
%TO.C,SW31*%
X309506250Y-146300000D03*
X314506250Y-145800000D03*
%TD*%
%TO.C,SW55*%
X161868750Y-184400000D03*
X166868750Y-183900000D03*
%TD*%
%TO.C,SW5*%
X127031250Y-133750000D03*
X126531250Y-128750000D03*
%TD*%
%TO.C,SW23*%
X147581250Y-146300000D03*
X152581250Y-145800000D03*
%TD*%
%TO.C,SW52*%
X104718750Y-184400000D03*
X109718750Y-183900000D03*
%TD*%
%TO.C,SW61*%
X276168750Y-184400000D03*
X281168750Y-183900000D03*
%TD*%
%TO.C,SW3*%
X88931250Y-133750000D03*
X88431250Y-128750000D03*
%TD*%
%TO.C,SW15*%
X317531250Y-133750000D03*
X317031250Y-128750000D03*
%TD*%
%TO.C,SW46*%
X290456250Y-165350000D03*
X295456250Y-164850000D03*
%TD*%
%TO.C,SW83*%
X259500000Y-222500000D03*
X264500000Y-222000000D03*
%TD*%
%TO.C,SW30*%
X280931250Y-146300000D03*
X285931250Y-145800000D03*
%TD*%
%TO.C,SW86*%
X319031250Y-222500000D03*
X324031250Y-222000000D03*
%TD*%
%TO.C,SW10*%
X222281250Y-133750000D03*
X221781250Y-128750000D03*
%TD*%
%TO.C,SW35*%
X80906250Y-165350000D03*
X85906250Y-164850000D03*
%TD*%
%TO.C,SW56*%
X180918750Y-184400000D03*
X185918750Y-183900000D03*
%TD*%
%TO.C,SW2*%
X69881250Y-133750000D03*
X69381250Y-128750000D03*
%TD*%
%TO.C,SW39*%
X157106250Y-165350000D03*
X162106250Y-164850000D03*
%TD*%
%TO.C,SW51*%
X85668750Y-184400000D03*
X90668750Y-183900000D03*
%TD*%
%TO.C,SW4*%
X107981250Y-133750000D03*
X107481250Y-128750000D03*
%TD*%
%TO.C,SW80*%
X83287500Y-222500000D03*
X88287500Y-222000000D03*
%TD*%
%TO.C,SW54*%
X142818750Y-184400000D03*
X147818750Y-183900000D03*
%TD*%
%TO.C,SW7*%
X165131250Y-133750000D03*
X164631250Y-128750000D03*
%TD*%
%TO.C,SW17*%
X355631250Y-133750000D03*
X355131250Y-128750000D03*
%TD*%
%TO.C,SW76*%
X302362500Y-203450000D03*
X307362500Y-202950000D03*
%TD*%
%TO.C,SW64*%
X357131250Y-184400000D03*
X362131250Y-183900000D03*
%TD*%
%TO.C,SW45*%
X271406250Y-165350000D03*
X276406250Y-164850000D03*
%TD*%
%TO.C,SW33*%
X357131250Y-146300000D03*
X362131250Y-145800000D03*
%TD*%
%TO.C,SW75*%
X266643750Y-203450000D03*
X271643750Y-202950000D03*
%TD*%
%TO.C,SW21*%
X109481250Y-146300000D03*
X114481250Y-145800000D03*
%TD*%
%TO.C,SW50*%
X59475000Y-184400000D03*
X64475000Y-183900000D03*
%TD*%
%TO.C,SW44*%
X252356250Y-165350000D03*
X257356250Y-164850000D03*
%TD*%
%TO.C,SW87*%
X338081250Y-222500000D03*
X343081250Y-222000000D03*
%TD*%
%TO.C,SW20*%
X90431250Y-146300000D03*
X95431250Y-145800000D03*
%TD*%
%TO.C,SW66*%
X95193750Y-203450000D03*
X100193750Y-202950000D03*
%TD*%
%TO.C,SW60*%
X257118750Y-184400000D03*
X262118750Y-183900000D03*
%TD*%
%TO.C,SW25*%
X185681250Y-146300000D03*
X190681250Y-145800000D03*
%TD*%
%TO.C,SW22*%
X128531250Y-146300000D03*
X133531250Y-145800000D03*
%TD*%
%TO.C,SW37*%
X119006250Y-165350000D03*
X124006250Y-164850000D03*
%TD*%
%TO.C,SW28*%
X242831250Y-146300000D03*
X247831250Y-145800000D03*
%TD*%
%TO.C,SW57*%
X199968750Y-184400000D03*
X204968750Y-183900000D03*
%TD*%
%TO.C,SW34*%
X57093750Y-165350000D03*
X62093750Y-164850000D03*
%TD*%
%TO.C,SW69*%
X152343750Y-203450000D03*
X157343750Y-202950000D03*
%TD*%
%TO.C,SW53*%
X123768750Y-184400000D03*
X128768750Y-183900000D03*
%TD*%
%TO.C,SW68*%
X133293750Y-203450000D03*
X138293750Y-202950000D03*
%TD*%
%TO.C,SW67*%
X114243750Y-203450000D03*
X119243750Y-202950000D03*
%TD*%
%TO.C,SW41*%
X195206250Y-165350000D03*
X200206250Y-164850000D03*
%TD*%
%TO.C,SW16*%
X336581250Y-133750000D03*
X336081250Y-128750000D03*
%TD*%
%TO.C,SW49*%
X357131250Y-165350000D03*
X362131250Y-164850000D03*
%TD*%
%TO.C,SW63*%
X338081250Y-184400000D03*
X343081250Y-183900000D03*
%TD*%
%TO.C,SW43*%
X233306250Y-165350000D03*
X238306250Y-164850000D03*
%TD*%
%TO.C,SW82*%
X185681250Y-222500000D03*
X190681250Y-222000000D03*
%TD*%
%TO.C,SW18*%
X52331250Y-146300000D03*
X57331250Y-145800000D03*
%TD*%
%TO.C,SW1*%
X50831250Y-133750000D03*
X50331250Y-128750000D03*
%TD*%
%TO.C,SW77*%
X338081250Y-203450000D03*
X343081250Y-202950000D03*
%TD*%
%TO.C,SW14*%
X298481250Y-133750000D03*
X297981250Y-128750000D03*
%TD*%
%TO.C,SW79*%
X57093750Y-222500000D03*
X62093750Y-222000000D03*
%TD*%
%TO.C,SW11*%
X241331250Y-133750000D03*
X240831250Y-128750000D03*
%TD*%
%TO.C,SW12*%
X260381250Y-133750000D03*
X259881250Y-128750000D03*
%TD*%
%TO.C,SW36*%
X99956250Y-165350000D03*
X104956250Y-164850000D03*
%TD*%
%TO.C,SW40*%
X176156250Y-165350000D03*
X181156250Y-164850000D03*
%TD*%
D11*
%TO.C,U1*%
X38580000Y-111125000D03*
D12*
X41610000Y-110825000D03*
X41610000Y-105975000D03*
D11*
X38580000Y-105675000D03*
%TD*%
D10*
%TO.C,SW42*%
X214256250Y-165350000D03*
X219256250Y-164850000D03*
%TD*%
%TO.C,SW71*%
X190443750Y-203450000D03*
X195443750Y-202950000D03*
%TD*%
%TO.C,SW19*%
X71381250Y-146300000D03*
X76381250Y-145800000D03*
%TD*%
%TO.C,SW58*%
X219018750Y-184400000D03*
X224018750Y-183900000D03*
%TD*%
%TO.C,SW9*%
X203231250Y-133750000D03*
X202731250Y-128750000D03*
%TD*%
%TO.C,SW62*%
X307125000Y-184400000D03*
X312125000Y-183900000D03*
%TD*%
%TO.C,SW85*%
X299981250Y-222500000D03*
X304981250Y-222000000D03*
%TD*%
%TO.C,SW73*%
X228543750Y-203450000D03*
X233543750Y-202950000D03*
%TD*%
D13*
%TO.C,D57*%
X207548750Y-193800000D03*
X207548750Y-191000000D03*
%TD*%
%TO.C,D83*%
X267080000Y-231900000D03*
X267080000Y-229100000D03*
%TD*%
%TO.C,D20*%
X98011250Y-155700000D03*
X98011250Y-152900000D03*
%TD*%
D14*
%TO.C,D4*%
X117381250Y-126170000D03*
X114581250Y-126170000D03*
%TD*%
D13*
%TO.C,D60*%
X264698750Y-193800000D03*
X264698750Y-191000000D03*
%TD*%
%TO.C,D84*%
X288511250Y-231900000D03*
X288511250Y-229100000D03*
%TD*%
D14*
%TO.C,D13*%
X288831250Y-126170000D03*
X286031250Y-126170000D03*
%TD*%
%TO.C,D5*%
X136431250Y-126170000D03*
X133631250Y-126170000D03*
%TD*%
D13*
%TO.C,D47*%
X321848750Y-174750000D03*
X321848750Y-171950000D03*
%TD*%
%TO.C,D74*%
X255173750Y-212850000D03*
X255173750Y-210050000D03*
%TD*%
%TO.C,D55*%
X169448750Y-193800000D03*
X169448750Y-191000000D03*
%TD*%
D14*
%TO.C,D7*%
X174531250Y-126170000D03*
X171731250Y-126170000D03*
%TD*%
D13*
%TO.C,D23*%
X155161250Y-155700000D03*
X155161250Y-152900000D03*
%TD*%
%TO.C,D88*%
X364711250Y-231900000D03*
X364711250Y-229100000D03*
%TD*%
%TO.C,D29*%
X269461250Y-155700000D03*
X269461250Y-152900000D03*
%TD*%
%TO.C,D25*%
X193261250Y-155700000D03*
X193261250Y-152900000D03*
%TD*%
D14*
%TO.C,D10*%
X231681250Y-126170000D03*
X228881250Y-126170000D03*
%TD*%
D13*
%TO.C,D71*%
X198023750Y-212850000D03*
X198023750Y-210050000D03*
%TD*%
%TO.C,D56*%
X188498750Y-193800000D03*
X188498750Y-191000000D03*
%TD*%
%TO.C,D81*%
X117061250Y-231900000D03*
X117061250Y-229100000D03*
%TD*%
%TO.C,D51*%
X93248750Y-193800000D03*
X93248750Y-191000000D03*
%TD*%
D14*
%TO.C,D15*%
X326931250Y-126170000D03*
X324131250Y-126170000D03*
%TD*%
%TO.C,D14*%
X307881250Y-126170000D03*
X305081250Y-126170000D03*
%TD*%
D13*
%TO.C,D70*%
X178973750Y-212850000D03*
X178973750Y-210050000D03*
%TD*%
D14*
%TO.C,D9*%
X212631250Y-126170000D03*
X209831250Y-126170000D03*
%TD*%
D13*
%TO.C,D58*%
X226598750Y-193800000D03*
X226598750Y-191000000D03*
%TD*%
%TO.C,D63*%
X345661250Y-193800000D03*
X345661250Y-191000000D03*
%TD*%
%TO.C,D39*%
X164686250Y-174750000D03*
X164686250Y-171950000D03*
%TD*%
%TO.C,D48*%
X345661250Y-174750000D03*
X345661250Y-171950000D03*
%TD*%
%TO.C,D78*%
X364711250Y-212850000D03*
X364711250Y-210050000D03*
%TD*%
%TO.C,D52*%
X112298750Y-193800000D03*
X112298750Y-191000000D03*
%TD*%
%TO.C,D26*%
X212311250Y-155700000D03*
X212311250Y-152900000D03*
%TD*%
%TO.C,D67*%
X121823750Y-212850000D03*
X121823750Y-210050000D03*
%TD*%
D14*
%TO.C,D17*%
X365031250Y-126170000D03*
X362231250Y-126170000D03*
%TD*%
D13*
%TO.C,D28*%
X250411250Y-155700000D03*
X250411250Y-152900000D03*
%TD*%
%TO.C,D72*%
X217073750Y-212850000D03*
X217073750Y-210050000D03*
%TD*%
D14*
%TO.C,D3*%
X98331250Y-126170000D03*
X95531250Y-126170000D03*
%TD*%
D13*
%TO.C,D27*%
X231361250Y-155700000D03*
X231361250Y-152900000D03*
%TD*%
%TO.C,D37*%
X126586250Y-174750000D03*
X126586250Y-171950000D03*
%TD*%
%TO.C,D18*%
X59911250Y-155700000D03*
X59911250Y-152900000D03*
%TD*%
%TO.C,D69*%
X159923750Y-212850000D03*
X159923750Y-210050000D03*
%TD*%
%TO.C,D45*%
X278986250Y-174750000D03*
X278986250Y-171950000D03*
%TD*%
%TO.C,D44*%
X259936250Y-174750000D03*
X259936250Y-171950000D03*
%TD*%
%TO.C,D35*%
X88486250Y-174750000D03*
X88486250Y-171950000D03*
%TD*%
%TO.C,D86*%
X326611250Y-231900000D03*
X326611250Y-229100000D03*
%TD*%
%TO.C,D30*%
X288511250Y-155700000D03*
X288511250Y-152900000D03*
%TD*%
%TO.C,D46*%
X298036250Y-174750000D03*
X298036250Y-171950000D03*
%TD*%
%TO.C,D59*%
X245648750Y-193800000D03*
X245648750Y-191000000D03*
%TD*%
%TO.C,D64*%
X364711250Y-193800000D03*
X364711250Y-191000000D03*
%TD*%
%TO.C,D21*%
X117061250Y-155700000D03*
X117061250Y-152900000D03*
%TD*%
%TO.C,D22*%
X136111250Y-155700000D03*
X136111250Y-152900000D03*
%TD*%
D14*
%TO.C,D12*%
X269781250Y-126170000D03*
X266981250Y-126170000D03*
%TD*%
D13*
%TO.C,D82*%
X193261250Y-231900000D03*
X193261250Y-229100000D03*
%TD*%
%TO.C,D53*%
X131348750Y-193800000D03*
X131348750Y-191000000D03*
%TD*%
%TO.C,D68*%
X140873750Y-212850000D03*
X140873750Y-210050000D03*
%TD*%
%TO.C,D34*%
X64673750Y-174750000D03*
X64673750Y-171950000D03*
%TD*%
%TO.C,D61*%
X283748750Y-193800000D03*
X283748750Y-191000000D03*
%TD*%
D14*
%TO.C,D1*%
X60231250Y-126170000D03*
X57431250Y-126170000D03*
%TD*%
%TO.C,D2*%
X79281250Y-126170000D03*
X76481250Y-126170000D03*
%TD*%
%TO.C,D8*%
X193581250Y-126170000D03*
X190781250Y-126170000D03*
%TD*%
D13*
%TO.C,D79*%
X64673750Y-231900000D03*
X64673750Y-229100000D03*
%TD*%
%TO.C,D85*%
X307561250Y-231900000D03*
X307561250Y-229100000D03*
%TD*%
%TO.C,D33*%
X364711250Y-155700000D03*
X364711250Y-152900000D03*
%TD*%
%TO.C,D77*%
X345661250Y-212850000D03*
X345661250Y-210050000D03*
%TD*%
%TO.C,D66*%
X102773750Y-212850000D03*
X102773750Y-210050000D03*
%TD*%
%TO.C,D38*%
X145636250Y-174750000D03*
X145636250Y-171950000D03*
%TD*%
%TO.C,D87*%
X345661250Y-231900000D03*
X345661250Y-229100000D03*
%TD*%
%TO.C,D36*%
X107536250Y-174750000D03*
X107536250Y-171950000D03*
%TD*%
%TO.C,D65*%
X71817500Y-212850000D03*
X71817500Y-210050000D03*
%TD*%
%TO.C,D75*%
X274223750Y-212850000D03*
X274223750Y-210050000D03*
%TD*%
%TO.C,D40*%
X183736250Y-174750000D03*
X183736250Y-171950000D03*
%TD*%
%TO.C,D50*%
X67055000Y-193800000D03*
X67055000Y-191000000D03*
%TD*%
%TO.C,D54*%
X150398750Y-193800000D03*
X150398750Y-191000000D03*
%TD*%
%TO.C,D62*%
X314705000Y-193800000D03*
X314705000Y-191000000D03*
%TD*%
%TO.C,D24*%
X174211250Y-155700000D03*
X174211250Y-152900000D03*
%TD*%
D14*
%TO.C,D6*%
X155481250Y-126170000D03*
X152681250Y-126170000D03*
%TD*%
D13*
%TO.C,D80*%
X90867500Y-231900000D03*
X90867500Y-229100000D03*
%TD*%
%TO.C,D31*%
X317086250Y-155700000D03*
X317086250Y-152900000D03*
%TD*%
D14*
%TO.C,D11*%
X250731250Y-126170000D03*
X247931250Y-126170000D03*
%TD*%
D13*
%TO.C,D42*%
X221836250Y-174750000D03*
X221836250Y-171950000D03*
%TD*%
%TO.C,D49*%
X364711250Y-174750000D03*
X364711250Y-171950000D03*
%TD*%
%TO.C,D43*%
X240886250Y-174750000D03*
X240886250Y-171950000D03*
%TD*%
D14*
%TO.C,D16*%
X345981250Y-126170000D03*
X343181250Y-126170000D03*
%TD*%
D13*
%TO.C,D19*%
X78961250Y-155700000D03*
X78961250Y-152900000D03*
%TD*%
%TO.C,D32*%
X345661250Y-155700000D03*
X345661250Y-152900000D03*
%TD*%
%TO.C,D73*%
X236123750Y-212850000D03*
X236123750Y-210050000D03*
%TD*%
%TO.C,D41*%
X202786250Y-174750000D03*
X202786250Y-171950000D03*
%TD*%
%TO.C,D76*%
X309942500Y-212850000D03*
X309942500Y-210050000D03*
%TD*%
M02*
