%TF.GenerationSoftware,KiCad,Pcbnew,10.0.6*%
%TF.CreationDate,2026-09-19T22:41:33-04:00*%
%TF.ProjectId,alps75-zug,616c7073-3735-42d7-9a75-672e6b696361,rev?*%
%TF.SameCoordinates,Original*%
%TF.FileFunction,Soldermask,Top*%
%TF.FilePolarity,Negative*%
%FSLAX46Y46*%
G04 Gerber Fmt 4.6, Leading zero omitted, Abs format (unit mm)*
G04 Created by KiCad (PCBNEW 10.0.6) date 2026-09-19 22:41:33*
%MOMM*%
%LPD*%
G01*
G04 APERTURE LIST*
G04 Aperture macros list*
%AMRoundRect*
0 Rectangle with rounded corners*
0 $1 Rounding radius*
0 $2 $3 $4 $5 $6 $7 $8 $9 X,Y pos of 4 corners*
0 Add a 4 corners polygon primitive as box body*
4,1,4,$2,$3,$4,$5,$6,$7,$8,$9,$2,$3,0*
0 Add four circle primitives for the rounded corners*
1,1,$1+$1,$2,$3*
1,1,$1+$1,$4,$5*
1,1,$1+$1,$6,$7*
1,1,$1+$1,$8,$9*
0 Add four rect primitives between the rounded corners*
20,1,$1+$1,$2,$3,$4,$5,0*
20,1,$1+$1,$4,$5,$6,$7,0*
20,1,$1+$1,$6,$7,$8,$9,0*
20,1,$1+$1,$8,$9,$2,$3,0*%
%AMFreePoly0*
4,1,37,0.800000,0.796148,0.878414,0.796148,1.032228,0.765552,1.177117,0.705537,1.307515,0.618408,1.418408,0.507515,1.505537,0.377117,1.565552,0.232228,1.596148,0.078414,1.596148,-0.078414,1.565552,-0.232228,1.505537,-0.377117,1.418408,-0.507515,1.307515,-0.618408,1.177117,-0.705537,1.032228,-0.765552,0.878414,-0.796148,0.800000,-0.796148,0.800000,-0.800000,-1.400000,-0.800000,
-1.403843,-0.796157,-1.439018,-0.796157,-1.511114,-0.766294,-1.566294,-0.711114,-1.596157,-0.639018,-1.596157,-0.603843,-1.600000,-0.600000,-1.600000,0.600000,-1.596157,0.603843,-1.596157,0.639018,-1.566294,0.711114,-1.511114,0.766294,-1.439018,0.796157,-1.403843,0.796157,-1.400000,0.800000,0.800000,0.800000,0.800000,0.796148,0.800000,0.796148,$1*%
%AMFreePoly1*
4,1,37,1.403843,0.796157,1.439018,0.796157,1.511114,0.766294,1.566294,0.711114,1.596157,0.639018,1.596157,0.603843,1.600000,0.600000,1.600000,-0.600000,1.596157,-0.603843,1.596157,-0.639018,1.566294,-0.711114,1.511114,-0.766294,1.439018,-0.796157,1.403843,-0.796157,1.400000,-0.800000,-0.800000,-0.800000,-0.800000,-0.796148,-0.878414,-0.796148,-1.032228,-0.765552,-1.177117,-0.705537,
-1.307515,-0.618408,-1.418408,-0.507515,-1.505537,-0.377117,-1.565552,-0.232228,-1.596148,-0.078414,-1.596148,0.078414,-1.565552,0.232228,-1.505537,0.377117,-1.418408,0.507515,-1.307515,0.618408,-1.177117,0.705537,-1.032228,0.765552,-0.878414,0.796148,-0.800000,0.796148,-0.800000,0.800000,1.400000,0.800000,1.403843,0.796157,1.403843,0.796157,$1*%
%AMFreePoly2*
4,1,37,1.600000,0.796148,1.678414,0.796148,1.832228,0.765552,1.977117,0.705537,2.107515,0.618408,2.218408,0.507515,2.305537,0.377117,2.365552,0.232228,2.396148,0.078414,2.396148,-0.078414,2.365552,-0.232228,2.305537,-0.377117,2.218408,-0.507515,2.107515,-0.618408,1.977117,-0.705537,1.832228,-0.765552,1.678414,-0.796148,1.600000,-0.796148,1.600000,-0.800000,-0.600000,-0.800000,
-0.603843,-0.796157,-0.639018,-0.796157,-0.711114,-0.766294,-0.766294,-0.711114,-0.796157,-0.639018,-0.796157,-0.603843,-0.800000,-0.600000,-0.800000,0.600000,-0.796157,0.603843,-0.796157,0.639018,-0.766294,0.711114,-0.711114,0.766294,-0.639018,0.796157,-0.603843,0.796157,-0.600000,0.800000,1.600000,0.800000,1.600000,0.796148,1.600000,0.796148,$1*%
G04 Aperture macros list end*
%ADD10C,2.500000*%
%ADD11C,2.200000*%
%ADD12C,1.850000*%
%ADD13FreePoly0,90.000000*%
%ADD14RoundRect,0.800000X0.000010X-0.800000X0.000010X0.800000X-0.000010X0.800000X-0.000010X-0.800000X0*%
%ADD15FreePoly1,90.000000*%
%ADD16RoundRect,0.800000X0.800000X0.000010X-0.800000X0.000010X-0.800000X-0.000010X0.800000X-0.000010X0*%
%ADD17FreePoly2,0.000000*%
G04 APERTURE END LIST*
D10*
%TO.C,SW6*%
X146081250Y-133750000D03*
X145581250Y-128750000D03*
%TD*%
%TO.C,SW13*%
X279431250Y-133750000D03*
X278931250Y-128750000D03*
%TD*%
%TO.C,SW26*%
X204731250Y-146300000D03*
X209731250Y-145800000D03*
%TD*%
%TO.C,SW88*%
X357131250Y-222500000D03*
X362131250Y-222000000D03*
%TD*%
%TO.C,SW8*%
X184181250Y-133750000D03*
X183681250Y-128750000D03*
%TD*%
%TO.C,SW24*%
X166631250Y-146300000D03*
X171631250Y-145800000D03*
%TD*%
%TO.C,SW78*%
X357131250Y-203450000D03*
X362131250Y-202950000D03*
%TD*%
%TO.C,SW59*%
X238068750Y-184400000D03*
X243068750Y-183900000D03*
%TD*%
%TO.C,SW47*%
X314268750Y-165350000D03*
X319268750Y-164850000D03*
%TD*%
%TO.C,SW84*%
X280931250Y-222500000D03*
X285931250Y-222000000D03*
%TD*%
%TO.C,SW32*%
X338081250Y-146300000D03*
X343081250Y-145800000D03*
%TD*%
%TO.C,SW27*%
X223781250Y-146300000D03*
X228781250Y-145800000D03*
%TD*%
%TO.C,SW81*%
X109481250Y-222500000D03*
X114481250Y-222000000D03*
%TD*%
%TO.C,SW48*%
X338081250Y-165350000D03*
X343081250Y-164850000D03*
%TD*%
%TO.C,SW38*%
X138056250Y-165350000D03*
X143056250Y-164850000D03*
%TD*%
%TO.C,SW72*%
X209493750Y-203450000D03*
X214493750Y-202950000D03*
%TD*%
%TO.C,SW29*%
X261881250Y-146300000D03*
X266881250Y-145800000D03*
%TD*%
%TO.C,SW70*%
X171393750Y-203450000D03*
X176393750Y-202950000D03*
%TD*%
%TO.C,SW74*%
X247593750Y-203450000D03*
X252593750Y-202950000D03*
%TD*%
%TO.C,SW65*%
X64237500Y-203450000D03*
X69237500Y-202950000D03*
%TD*%
%TO.C,SW31*%
X309506250Y-146300000D03*
X314506250Y-145800000D03*
%TD*%
%TO.C,SW55*%
X161868750Y-184400000D03*
X166868750Y-183900000D03*
%TD*%
%TO.C,SW5*%
X127031250Y-133750000D03*
X126531250Y-128750000D03*
%TD*%
%TO.C,SW23*%
X147581250Y-146300000D03*
X152581250Y-145800000D03*
%TD*%
%TO.C,SW52*%
X104718750Y-184400000D03*
X109718750Y-183900000D03*
%TD*%
%TO.C,SW61*%
X276168750Y-184400000D03*
X281168750Y-183900000D03*
%TD*%
%TO.C,SW3*%
X88931250Y-133750000D03*
X88431250Y-128750000D03*
%TD*%
%TO.C,SW15*%
X317531250Y-133750000D03*
X317031250Y-128750000D03*
%TD*%
%TO.C,SW46*%
X290456250Y-165350000D03*
X295456250Y-164850000D03*
%TD*%
%TO.C,SW83*%
X259500000Y-222500000D03*
X264500000Y-222000000D03*
%TD*%
%TO.C,SW30*%
X280931250Y-146300000D03*
X285931250Y-145800000D03*
%TD*%
%TO.C,SW86*%
X319031250Y-222500000D03*
X324031250Y-222000000D03*
%TD*%
%TO.C,SW10*%
X222281250Y-133750000D03*
X221781250Y-128750000D03*
%TD*%
%TO.C,SW35*%
X80906250Y-165350000D03*
X85906250Y-164850000D03*
%TD*%
%TO.C,SW56*%
X180918750Y-184400000D03*
X185918750Y-183900000D03*
%TD*%
%TO.C,SW2*%
X69881250Y-133750000D03*
X69381250Y-128750000D03*
%TD*%
%TO.C,SW39*%
X157106250Y-165350000D03*
X162106250Y-164850000D03*
%TD*%
%TO.C,SW51*%
X85668750Y-184400000D03*
X90668750Y-183900000D03*
%TD*%
%TO.C,SW4*%
X107981250Y-133750000D03*
X107481250Y-128750000D03*
%TD*%
%TO.C,SW80*%
X83287500Y-222500000D03*
X88287500Y-222000000D03*
%TD*%
%TO.C,SW54*%
X142818750Y-184400000D03*
X147818750Y-183900000D03*
%TD*%
%TO.C,SW7*%
X165131250Y-133750000D03*
X164631250Y-128750000D03*
%TD*%
%TO.C,SW17*%
X355631250Y-133750000D03*
X355131250Y-128750000D03*
%TD*%
%TO.C,SW76*%
X302362500Y-203450000D03*
X307362500Y-202950000D03*
%TD*%
%TO.C,SW64*%
X357131250Y-184400000D03*
X362131250Y-183900000D03*
%TD*%
%TO.C,SW45*%
X271406250Y-165350000D03*
X276406250Y-164850000D03*
%TD*%
%TO.C,SW33*%
X357131250Y-146300000D03*
X362131250Y-145800000D03*
%TD*%
%TO.C,SW75*%
X266643750Y-203450000D03*
X271643750Y-202950000D03*
%TD*%
%TO.C,SW21*%
X109481250Y-146300000D03*
X114481250Y-145800000D03*
%TD*%
%TO.C,SW50*%
X59475000Y-184400000D03*
X64475000Y-183900000D03*
%TD*%
%TO.C,SW44*%
X252356250Y-165350000D03*
X257356250Y-164850000D03*
%TD*%
%TO.C,SW87*%
X338081250Y-222500000D03*
X343081250Y-222000000D03*
%TD*%
%TO.C,SW20*%
X90431250Y-146300000D03*
X95431250Y-145800000D03*
%TD*%
%TO.C,SW66*%
X95193750Y-203450000D03*
X100193750Y-202950000D03*
%TD*%
%TO.C,SW60*%
X257118750Y-184400000D03*
X262118750Y-183900000D03*
%TD*%
%TO.C,SW25*%
X185681250Y-146300000D03*
X190681250Y-145800000D03*
%TD*%
%TO.C,SW22*%
X128531250Y-146300000D03*
X133531250Y-145800000D03*
%TD*%
%TO.C,SW37*%
X119006250Y-165350000D03*
X124006250Y-164850000D03*
%TD*%
%TO.C,SW28*%
X242831250Y-146300000D03*
X247831250Y-145800000D03*
%TD*%
%TO.C,SW57*%
X199968750Y-184400000D03*
X204968750Y-183900000D03*
%TD*%
%TO.C,SW34*%
X57093750Y-165350000D03*
X62093750Y-164850000D03*
%TD*%
%TO.C,SW69*%
X152343750Y-203450000D03*
X157343750Y-202950000D03*
%TD*%
%TO.C,SW53*%
X123768750Y-184400000D03*
X128768750Y-183900000D03*
%TD*%
%TO.C,SW68*%
X133293750Y-203450000D03*
X138293750Y-202950000D03*
%TD*%
%TO.C,SW67*%
X114243750Y-203450000D03*
X119243750Y-202950000D03*
%TD*%
%TO.C,SW41*%
X195206250Y-165350000D03*
X200206250Y-164850000D03*
%TD*%
%TO.C,SW16*%
X336581250Y-133750000D03*
X336081250Y-128750000D03*
%TD*%
%TO.C,SW49*%
X357131250Y-165350000D03*
X362131250Y-164850000D03*
%TD*%
%TO.C,SW63*%
X338081250Y-184400000D03*
X343081250Y-183900000D03*
%TD*%
%TO.C,SW43*%
X233306250Y-165350000D03*
X238306250Y-164850000D03*
%TD*%
%TO.C,SW82*%
X185681250Y-222500000D03*
X190681250Y-222000000D03*
%TD*%
%TO.C,SW18*%
X52331250Y-146300000D03*
X57331250Y-145800000D03*
%TD*%
%TO.C,SW1*%
X50831250Y-133750000D03*
X50331250Y-128750000D03*
%TD*%
%TO.C,SW77*%
X338081250Y-203450000D03*
X343081250Y-202950000D03*
%TD*%
%TO.C,SW14*%
X298481250Y-133750000D03*
X297981250Y-128750000D03*
%TD*%
%TO.C,SW79*%
X57093750Y-222500000D03*
X62093750Y-222000000D03*
%TD*%
%TO.C,SW11*%
X241331250Y-133750000D03*
X240831250Y-128750000D03*
%TD*%
%TO.C,SW12*%
X260381250Y-133750000D03*
X259881250Y-128750000D03*
%TD*%
%TO.C,SW36*%
X99956250Y-165350000D03*
X104956250Y-164850000D03*
%TD*%
%TO.C,SW40*%
X176156250Y-165350000D03*
X181156250Y-164850000D03*
%TD*%
D11*
%TO.C,U1*%
X38580000Y-111125000D03*
D12*
X41610000Y-110825000D03*
X41610000Y-105975000D03*
D11*
X38580000Y-105675000D03*
D13*
X38450000Y-118090000D03*
D14*
X40990000Y-118090000D03*
D15*
X43530000Y-118090000D03*
D14*
X46070000Y-118090000D03*
X48610000Y-118090000D03*
X51150000Y-118090000D03*
X53690000Y-118090000D03*
D15*
X56230000Y-118090000D03*
D14*
X58770000Y-118090000D03*
X61310000Y-118090000D03*
X63850000Y-118090000D03*
X66390000Y-118090000D03*
D15*
X68930000Y-118090000D03*
D14*
X71470000Y-118090000D03*
X74010000Y-118090000D03*
X76550000Y-118090000D03*
X79090000Y-118090000D03*
D15*
X81630000Y-118090000D03*
D14*
X84170000Y-118090000D03*
X86710000Y-118090000D03*
X86710000Y-98710000D03*
X84170000Y-98710000D03*
D13*
X81630000Y-98710000D03*
D14*
X79090000Y-98710000D03*
X76550000Y-98710000D03*
X74010000Y-98710000D03*
X71470000Y-98710000D03*
D13*
X68930000Y-98710000D03*
D14*
X66390000Y-98710000D03*
X63850000Y-98710000D03*
X61310000Y-98710000D03*
X58770000Y-98710000D03*
D13*
X56230000Y-98710000D03*
D14*
X53690000Y-98710000D03*
X51150000Y-98710000D03*
X48610000Y-98710000D03*
X46070000Y-98710000D03*
D13*
X43530000Y-98710000D03*
D14*
X40990000Y-98710000D03*
X38450000Y-98710000D03*
D16*
X87280000Y-110940000D03*
D17*
X86480000Y-108400000D03*
D16*
X87280000Y-105860000D03*
%TD*%
D10*
%TO.C,SW42*%
X214256250Y-165350000D03*
X219256250Y-164850000D03*
%TD*%
%TO.C,SW71*%
X190443750Y-203450000D03*
X195443750Y-202950000D03*
%TD*%
%TO.C,SW19*%
X71381250Y-146300000D03*
X76381250Y-145800000D03*
%TD*%
%TO.C,SW58*%
X219018750Y-184400000D03*
X224018750Y-183900000D03*
%TD*%
%TO.C,SW9*%
X203231250Y-133750000D03*
X202731250Y-128750000D03*
%TD*%
%TO.C,SW62*%
X307125000Y-184400000D03*
X312125000Y-183900000D03*
%TD*%
%TO.C,SW85*%
X299981250Y-222500000D03*
X304981250Y-222000000D03*
%TD*%
%TO.C,SW73*%
X228543750Y-203450000D03*
X233543750Y-202950000D03*
%TD*%
M02*
