0
SECTION
2
HEADER
9
$INSUNITS
70
4
0
ENDSEC
0
SECTION
2
TABLES
0
TABLE
2
LTYPE
0
LTYPE
72
65
70
0
2
CONTINUOUS
3
______
73
0
40
0
0
LTYPE
72
65
70
0
2
DASHED
3
_ _ _ 
73
2
40
7.5
49
5
49
-2.5
0
LTYPE
72
65
70
0
2
DOTTED
3
. . . 
73
2
40
1.5
49
0.5
49
-1
0
ENDTAB
0
TABLE
2
LAYER
0
ENDTAB
0
ENDSEC
0
SECTION
2
ENTITIES
0
POLYLINE
8
0
6
CONTINUOUS
66
1
70
1
0
VERTEX
8
0
10
-7.75
20
-5.9
42
0.4142136
0
VERTEX
8
0
10
-7.25
20
-6.4
0
VERTEX
8
0
10
7.25
20
-6.4
42
0.4142136
0
VERTEX
8
0
10
7.75
20
-5.9
0
VERTEX
8
0
10
7.75
20
5.9
42
0.4142136
0
VERTEX
8
0
10
7.25
20
6.4
0
VERTEX
8
0
10
-7.25
20
6.4
42
0.4142136
0
VERTEX
8
0
10
-7.75
20
5.9
0
SEQEND
0
POLYLINE
8
0
6
CONTINUOUS
66
1
70
1
0
VERTEX
8
0
10
11.3
20
-5.9
42
0.4142136
0
VERTEX
8
0
10
11.8
20
-6.4
0
VERTEX
8
0
10
26.3
20
-6.4
42
0.4142136
0
VERTEX
8
0
10
26.8
20
-5.9
0
VERTEX
8
0
10
26.8
20
5.9
42
0.4142136
0
VERTEX
8
0
10
26.3
20
6.4
0
VERTEX
8
0
10
11.8
20
6.4
42
0.4142136
0
VERTEX
8
0
10
11.3
20
5.9
0
SEQEND
0
POLYLINE
8
0
6
CONTINUOUS
66
1
70
1
0
VERTEX
8
0
10
30.35
20
-5.9
42
0.4142136
0
VERTEX
8
0
10
30.85
20
-6.4
0
VERTEX
8
0
10
45.35
20
-6.4
42
0.4142136
0
VERTEX
8
0
10
45.85
20
-5.9
0
VERTEX
8
0
10
45.85
20
5.9
42
0.4142136
0
VERTEX
8
0
10
45.35
20
6.4
0
VERTEX
8
0
10
30.85
20
6.4
42
0.4142136
0
VERTEX
8
0
10
30.35
20
5.9
0
SEQEND
0
POLYLINE
8
0
6
CONTINUOUS
66
1
70
1
0
VERTEX
8
0
10
49.4
20
-5.9
42
0.4142136
0
VERTEX
8
0
10
49.9
20
-6.4
0
VERTEX
8
0
10
64.4
20
-6.4
42
0.4142136
0
VERTEX
8
0
10
64.9
20
-5.9
0
VERTEX
8
0
10
64.9
20
5.9
42
0.4142136
0
VERTEX
8
0
10
64.4
20
6.4
0
VERTEX
8
0
10
49.9
20
6.4
42
0.4142136
0
VERTEX
8
0
10
49.4
20
5.9
0
SEQEND
0
POLYLINE
8
0
6
CONTINUOUS
66
1
70
1
0
VERTEX
8
0
10
68.45
20
-5.9
42
0.4142136
0
VERTEX
8
0
10
68.95
20
-6.4
0
VERTEX
8
0
10
83.45
20
-6.4
42
0.4142136
0
VERTEX
8
0
10
83.95
20
-5.9
0
VERTEX
8
0
10
83.95
20
5.9
42
0.4142136
0
VERTEX
8
0
10
83.45
20
6.4
0
VERTEX
8
0
10
68.95
20
6.4
42
0.4142136
0
VERTEX
8
0
10
68.45
20
5.9
0
SEQEND
0
POLYLINE
8
0
6
CONTINUOUS
66
1
70
1
0
VERTEX
8
0
10
87.5
20
-5.9
42
0.4142136
0
VERTEX
8
0
10
88
20
-6.4
0
VERTEX
8
0
10
102.5
20
-6.4
42
0.4142136
0
VERTEX
8
0
10
103
20
-5.9
0
VERTEX
8
0
10
103
20
5.9
42
0.4142136
0
VERTEX
8
0
10
102.5
20
6.4
0
VERTEX
8
0
10
88
20
6.4
42
0.4142136
0
VERTEX
8
0
10
87.5
20
5.9
0
SEQEND
0
POLYLINE
8
0
6
CONTINUOUS
66
1
70
1
0
VERTEX
8
0
10
106.55
20
-5.9
42
0.4142136
0
VERTEX
8
0
10
107.05
20
-6.4
0
VERTEX
8
0
10
121.55
20
-6.4
42
0.4142136
0
VERTEX
8
0
10
122.05
20
-5.9
0
VERTEX
8
0
10
122.05
20
5.9
42
0.4142136
0
VERTEX
8
0
10
121.55
20
6.4
0
VERTEX
8
0
10
107.05
20
6.4
42
0.4142136
0
VERTEX
8
0
10
106.55
20
5.9
0
SEQEND
0
POLYLINE
8
0
6
CONTINUOUS
66
1
70
1
0
VERTEX
8
0
10
125.6
20
-5.9
42
0.4142136
0
VERTEX
8
0
10
126.1
20
-6.4
0
VERTEX
8
0
10
140.6
20
-6.4
42
0.4142136
0
VERTEX
8
0
10
141.1
20
-5.9
0
VERTEX
8
0
10
141.1
20
5.9
42
0.4142136
0
VERTEX
8
0
10
140.6
20
6.4
0
VERTEX
8
0
10
126.1
20
6.4
42
0.4142136
0
VERTEX
8
0
10
125.6
20
5.9
0
SEQEND
0
POLYLINE
8
0
6
CONTINUOUS
66
1
70
1
0
VERTEX
8
0
10
144.65
20
-5.9
42
0.4142136
0
VERTEX
8
0
10
145.15
20
-6.4
0
VERTEX
8
0
10
159.65
20
-6.4
42
0.4142136
0
VERTEX
8
0
10
160.15
20
-5.9
0
VERTEX
8
0
10
160.15
20
5.9
42
0.4142136
0
VERTEX
8
0
10
159.65
20
6.4
0
VERTEX
8
0
10
145.15
20
6.4
42
0.4142136
0
VERTEX
8
0
10
144.65
20
5.9
0
SEQEND
0
POLYLINE
8
0
6
CONTINUOUS
66
1
70
1
0
VERTEX
8
0
10
163.7
20
-5.9
42
0.4142136
0
VERTEX
8
0
10
164.2
20
-6.4
0
VERTEX
8
0
10
178.7
20
-6.4
42
0.4142136
0
VERTEX
8
0
10
179.2
20
-5.9
0
VERTEX
8
0
10
179.2
20
5.9
42
0.4142136
0
VERTEX
8
0
10
178.7
20
6.4
0
VERTEX
8
0
10
164.2
20
6.4
42
0.4142136
0
VERTEX
8
0
10
163.7
20
5.9
0
SEQEND
0
POLYLINE
8
0
6
CONTINUOUS
66
1
70
1
0
VERTEX
8
0
10
182.75
20
-5.9
42
0.4142136
0
VERTEX
8
0
10
183.25
20
-6.4
0
VERTEX
8
0
10
197.75
20
-6.4
42
0.4142136
0
VERTEX
8
0
10
198.25
20
-5.9
0
VERTEX
8
0
10
198.25
20
5.9
42
0.4142136
0
VERTEX
8
0
10
197.75
20
6.4
0
VERTEX
8
0
10
183.25
20
6.4
42
0.4142136
0
VERTEX
8
0
10
182.75
20
5.9
0
SEQEND
0
POLYLINE
8
0
6
CONTINUOUS
66
1
70
1
0
VERTEX
8
0
10
201.8
20
-5.9
42
0.4142136
0
VERTEX
8
0
10
202.3
20
-6.4
0
VERTEX
8
0
10
216.8
20
-6.4
42
0.4142136
0
VERTEX
8
0
10
217.3
20
-5.9
0
VERTEX
8
0
10
217.3
20
5.9
42
0.4142136
0
VERTEX
8
0
10
216.8
20
6.4
0
VERTEX
8
0
10
202.3
20
6.4
42
0.4142136
0
VERTEX
8
0
10
201.8
20
5.9
0
SEQEND
0
POLYLINE
8
0
6
CONTINUOUS
66
1
70
1
0
VERTEX
8
0
10
220.85
20
-5.9
42
0.4142136
0
VERTEX
8
0
10
221.35
20
-6.4
0
VERTEX
8
0
10
235.85
20
-6.4
42
0.4142136
0
VERTEX
8
0
10
236.35
20
-5.9
0
VERTEX
8
0
10
236.35
20
5.9
42
0.4142136
0
VERTEX
8
0
10
235.85
20
6.4
0
VERTEX
8
0
10
221.35
20
6.4
42
0.4142136
0
VERTEX
8
0
10
220.85
20
5.9
0
SEQEND
0
POLYLINE
8
0
6
CONTINUOUS
66
1
70
1
0
VERTEX
8
0
10
239.9
20
-5.9
42
0.4142136
0
VERTEX
8
0
10
240.4
20
-6.4
0
VERTEX
8
0
10
254.9
20
-6.4
42
0.4142136
0
VERTEX
8
0
10
255.4
20
-5.9
0
VERTEX
8
0
10
255.4
20
5.9
42
0.4142136
0
VERTEX
8
0
10
254.9
20
6.4
0
VERTEX
8
0
10
240.4
20
6.4
42
0.4142136
0
VERTEX
8
0
10
239.9
20
5.9
0
SEQEND
0
POLYLINE
8
0
6
CONTINUOUS
66
1
70
1
0
VERTEX
8
0
10
258.95
20
-5.9
42
0.4142136
0
VERTEX
8
0
10
259.45
20
-6.4
0
VERTEX
8
0
10
273.95
20
-6.4
42
0.4142136
0
VERTEX
8
0
10
274.45
20
-5.9
0
VERTEX
8
0
10
274.45
20
5.9
42
0.4142136
0
VERTEX
8
0
10
273.95
20
6.4
0
VERTEX
8
0
10
259.45
20
6.4
42
0.4142136
0
VERTEX
8
0
10
258.95
20
5.9
0
SEQEND
0
POLYLINE
8
0
6
CONTINUOUS
66
1
70
1
0
VERTEX
8
0
10
278
20
-5.9
42
0.4142136
0
VERTEX
8
0
10
278.5
20
-6.4
0
VERTEX
8
0
10
293
20
-6.4
42
0.4142136
0
VERTEX
8
0
10
293.5
20
-5.9
0
VERTEX
8
0
10
293.5
20
5.9
42
0.4142136
0
VERTEX
8
0
10
293
20
6.4
0
VERTEX
8
0
10
278.5
20
6.4
42
0.4142136
0
VERTEX
8
0
10
278
20
5.9
0
SEQEND
0
POLYLINE
8
0
6
CONTINUOUS
66
1
70
1
0
VERTEX
8
0
10
297.05
20
-5.9
42
0.4142136
0
VERTEX
8
0
10
297.55
20
-6.4
0
VERTEX
8
0
10
312.05
20
-6.4
42
0.4142136
0
VERTEX
8
0
10
312.55
20
-5.9
0
VERTEX
8
0
10
312.55
20
5.9
42
0.4142136
0
VERTEX
8
0
10
312.05
20
6.4
0
VERTEX
8
0
10
297.55
20
6.4
42
0.4142136
0
VERTEX
8
0
10
297.05
20
5.9
0
SEQEND
0
POLYLINE
8
0
6
CONTINUOUS
66
1
70
1
0
VERTEX
8
0
10
-7.75
20
-24.95
42
0.4142136
0
VERTEX
8
0
10
-7.25
20
-25.45
0
VERTEX
8
0
10
7.25
20
-25.45
42
0.4142136
0
VERTEX
8
0
10
7.75
20
-24.95
0
VERTEX
8
0
10
7.75
20
-13.15
42
0.4142136
0
VERTEX
8
0
10
7.25
20
-12.65
0
VERTEX
8
0
10
-7.25
20
-12.65
42
0.4142136
0
VERTEX
8
0
10
-7.75
20
-13.15
0
SEQEND
0
POLYLINE
8
0
6
CONTINUOUS
66
1
70
1
0
VERTEX
8
0
10
11.3
20
-24.95
42
0.4142136
0
VERTEX
8
0
10
11.8
20
-25.45
0
VERTEX
8
0
10
26.3
20
-25.45
42
0.4142136
0
VERTEX
8
0
10
26.8
20
-24.95
0
VERTEX
8
0
10
26.8
20
-13.15
42
0.4142136
0
VERTEX
8
0
10
26.3
20
-12.65
0
VERTEX
8
0
10
11.8
20
-12.65
42
0.4142136
0
VERTEX
8
0
10
11.3
20
-13.15
0
SEQEND
0
POLYLINE
8
0
6
CONTINUOUS
66
1
70
1
0
VERTEX
8
0
10
30.35
20
-24.95
42
0.4142136
0
VERTEX
8
0
10
30.85
20
-25.45
0
VERTEX
8
0
10
45.35
20
-25.45
42
0.4142136
0
VERTEX
8
0
10
45.85
20
-24.95
0
VERTEX
8
0
10
45.85
20
-13.15
42
0.4142136
0
VERTEX
8
0
10
45.35
20
-12.65
0
VERTEX
8
0
10
30.85
20
-12.65
42
0.4142136
0
VERTEX
8
0
10
30.35
20
-13.15
0
SEQEND
0
POLYLINE
8
0
6
CONTINUOUS
66
1
70
1
0
VERTEX
8
0
10
49.4
20
-24.95
42
0.4142136
0
VERTEX
8
0
10
49.9
20
-25.45
0
VERTEX
8
0
10
64.4
20
-25.45
42
0.4142136
0
VERTEX
8
0
10
64.9
20
-24.95
0
VERTEX
8
0
10
64.9
20
-13.15
42
0.4142136
0
VERTEX
8
0
10
64.4
20
-12.65
0
VERTEX
8
0
10
49.9
20
-12.65
42
0.4142136
0
VERTEX
8
0
10
49.4
20
-13.15
0
SEQEND
0
POLYLINE
8
0
6
CONTINUOUS
66
1
70
1
0
VERTEX
8
0
10
68.45
20
-24.95
42
0.4142136
0
VERTEX
8
0
10
68.95
20
-25.45
0
VERTEX
8
0
10
83.45
20
-25.45
42
0.4142136
0
VERTEX
8
0
10
83.95
20
-24.95
0
VERTEX
8
0
10
83.95
20
-13.15
42
0.4142136
0
VERTEX
8
0
10
83.45
20
-12.65
0
VERTEX
8
0
10
68.95
20
-12.65
42
0.4142136
0
VERTEX
8
0
10
68.45
20
-13.15
0
SEQEND
0
POLYLINE
8
0
6
CONTINUOUS
66
1
70
1
0
VERTEX
8
0
10
87.5
20
-24.95
42
0.4142136
0
VERTEX
8
0
10
88
20
-25.45
0
VERTEX
8
0
10
102.5
20
-25.45
42
0.4142136
0
VERTEX
8
0
10
103
20
-24.95
0
VERTEX
8
0
10
103
20
-13.15
42
0.4142136
0
VERTEX
8
0
10
102.5
20
-12.65
0
VERTEX
8
0
10
88
20
-12.65
42
0.4142136
0
VERTEX
8
0
10
87.5
20
-13.15
0
SEQEND
0
POLYLINE
8
0
6
CONTINUOUS
66
1
70
1
0
VERTEX
8
0
10
106.55
20
-24.95
42
0.4142136
0
VERTEX
8
0
10
107.05
20
-25.45
0
VERTEX
8
0
10
121.55
20
-25.45
42
0.4142136
0
VERTEX
8
0
10
122.05
20
-24.95
0
VERTEX
8
0
10
122.05
20
-13.15
42
0.4142136
0
VERTEX
8
0
10
121.55
20
-12.65
0
VERTEX
8
0
10
107.05
20
-12.65
42
0.4142136
0
VERTEX
8
0
10
106.55
20
-13.15
0
SEQEND
0
POLYLINE
8
0
6
CONTINUOUS
66
1
70
1
0
VERTEX
8
0
10
125.6
20
-24.95
42
0.4142136
0
VERTEX
8
0
10
126.1
20
-25.45
0
VERTEX
8
0
10
140.6
20
-25.45
42
0.4142136
0
VERTEX
8
0
10
141.1
20
-24.95
0
VERTEX
8
0
10
141.1
20
-13.15
42
0.4142136
0
VERTEX
8
0
10
140.6
20
-12.65
0
VERTEX
8
0
10
126.1
20
-12.65
42
0.4142136
0
VERTEX
8
0
10
125.6
20
-13.15
0
SEQEND
0
POLYLINE
8
0
6
CONTINUOUS
66
1
70
1
0
VERTEX
8
0
10
144.65
20
-24.95
42
0.4142136
0
VERTEX
8
0
10
145.15
20
-25.45
0
VERTEX
8
0
10
159.65
20
-25.45
42
0.4142136
0
VERTEX
8
0
10
160.15
20
-24.95
0
VERTEX
8
0
10
160.15
20
-13.15
42
0.4142136
0
VERTEX
8
0
10
159.65
20
-12.65
0
VERTEX
8
0
10
145.15
20
-12.65
42
0.4142136
0
VERTEX
8
0
10
144.65
20
-13.15
0
SEQEND
0
POLYLINE
8
0
6
CONTINUOUS
66
1
70
1
0
VERTEX
8
0
10
163.7
20
-24.95
42
0.4142136
0
VERTEX
8
0
10
164.2
20
-25.45
0
VERTEX
8
0
10
178.7
20
-25.45
42
0.4142136
0
VERTEX
8
0
10
179.2
20
-24.95
0
VERTEX
8
0
10
179.2
20
-13.15
42
0.4142136
0
VERTEX
8
0
10
178.7
20
-12.65
0
VERTEX
8
0
10
164.2
20
-12.65
42
0.4142136
0
VERTEX
8
0
10
163.7
20
-13.15
0
SEQEND
0
POLYLINE
8
0
6
CONTINUOUS
66
1
70
1
0
VERTEX
8
0
10
182.75
20
-24.95
42
0.4142136
0
VERTEX
8
0
10
183.25
20
-25.45
0
VERTEX
8
0
10
197.75
20
-25.45
42
0.4142136
0
VERTEX
8
0
10
198.25
20
-24.95
0
VERTEX
8
0
10
198.25
20
-13.15
42
0.4142136
0
VERTEX
8
0
10
197.75
20
-12.65
0
VERTEX
8
0
10
183.25
20
-12.65
42
0.4142136
0
VERTEX
8
0
10
182.75
20
-13.15
0
SEQEND
0
POLYLINE
8
0
6
CONTINUOUS
66
1
70
1
0
VERTEX
8
0
10
201.8
20
-24.95
42
0.4142136
0
VERTEX
8
0
10
202.3
20
-25.45
0
VERTEX
8
0
10
216.8
20
-25.45
42
0.4142136
0
VERTEX
8
0
10
217.3
20
-24.95
0
VERTEX
8
0
10
217.3
20
-13.15
42
0.4142136
0
VERTEX
8
0
10
216.8
20
-12.65
0
VERTEX
8
0
10
202.3
20
-12.65
42
0.4142136
0
VERTEX
8
0
10
201.8
20
-13.15
0
SEQEND
0
POLYLINE
8
0
6
CONTINUOUS
66
1
70
1
0
VERTEX
8
0
10
220.85
20
-24.95
42
0.4142136
0
VERTEX
8
0
10
221.35
20
-25.45
0
VERTEX
8
0
10
235.85
20
-25.45
42
0.4142136
0
VERTEX
8
0
10
236.35
20
-24.95
0
VERTEX
8
0
10
236.35
20
-13.15
42
0.4142136
0
VERTEX
8
0
10
235.85
20
-12.65
0
VERTEX
8
0
10
221.35
20
-12.65
42
0.4142136
0
VERTEX
8
0
10
220.85
20
-13.15
0
SEQEND
0
POLYLINE
8
0
6
CONTINUOUS
66
1
70
1
0
VERTEX
8
0
10
249.425
20
-24.95
42
0.4142136
0
VERTEX
8
0
10
249.925
20
-25.45
0
VERTEX
8
0
10
264.425
20
-25.45
42
0.4142136
0
VERTEX
8
0
10
264.925
20
-24.95
0
VERTEX
8
0
10
264.925
20
-13.15
42
0.4142136
0
VERTEX
8
0
10
264.425
20
-12.65
0
VERTEX
8
0
10
249.925
20
-12.65
42
0.4142136
0
VERTEX
8
0
10
249.425
20
-13.15
0
SEQEND
0
POLYLINE
8
0
6
CONTINUOUS
66
1
70
1
0
VERTEX
8
0
10
278
20
-24.95
42
0.4142136
0
VERTEX
8
0
10
278.5
20
-25.45
0
VERTEX
8
0
10
293
20
-25.45
42
0.4142136
0
VERTEX
8
0
10
293.5
20
-24.95
0
VERTEX
8
0
10
293.5
20
-13.15
42
0.4142136
0
VERTEX
8
0
10
293
20
-12.65
0
VERTEX
8
0
10
278.5
20
-12.65
42
0.4142136
0
VERTEX
8
0
10
278
20
-13.15
0
SEQEND
0
POLYLINE
8
0
6
CONTINUOUS
66
1
70
1
0
VERTEX
8
0
10
297.05
20
-24.95
42
0.4142136
0
VERTEX
8
0
10
297.55
20
-25.45
0
VERTEX
8
0
10
312.05
20
-25.45
42
0.4142136
0
VERTEX
8
0
10
312.55
20
-24.95
0
VERTEX
8
0
10
312.55
20
-13.15
42
0.4142136
0
VERTEX
8
0
10
312.05
20
-12.65
0
VERTEX
8
0
10
297.55
20
-12.65
42
0.4142136
0
VERTEX
8
0
10
297.05
20
-13.15
0
SEQEND
0
POLYLINE
8
0
6
CONTINUOUS
66
1
70
1
0
VERTEX
8
0
10
-2.9875
20
-44
42
0.4142136
0
VERTEX
8
0
10
-2.4875
20
-44.5
0
VERTEX
8
0
10
12.0125
20
-44.5
42
0.4142136
0
VERTEX
8
0
10
12.5125
20
-44
0
VERTEX
8
0
10
12.5125
20
-32.2
42
0.4142136
0
VERTEX
8
0
10
12.0125
20
-31.7
0
VERTEX
8
0
10
-2.4875
20
-31.7
42
0.4142136
0
VERTEX
8
0
10
-2.9875
20
-32.2
0
SEQEND
0
POLYLINE
8
0
6
CONTINUOUS
66
1
70
1
0
VERTEX
8
0
10
20.825
20
-44
42
0.4142136
0
VERTEX
8
0
10
21.325
20
-44.5
0
VERTEX
8
0
10
35.825
20
-44.5
42
0.4142136
0
VERTEX
8
0
10
36.325
20
-44
0
VERTEX
8
0
10
36.325
20
-32.2
42
0.4142136
0
VERTEX
8
0
10
35.825
20
-31.7
0
VERTEX
8
0
10
21.325
20
-31.7
42
0.4142136
0
VERTEX
8
0
10
20.825
20
-32.2
0
SEQEND
0
POLYLINE
8
0
6
CONTINUOUS
66
1
70
1
0
VERTEX
8
0
10
39.875
20
-44
42
0.4142136
0
VERTEX
8
0
10
40.375
20
-44.5
0
VERTEX
8
0
10
54.875
20
-44.5
42
0.4142136
0
VERTEX
8
0
10
55.375
20
-44
0
VERTEX
8
0
10
55.375
20
-32.2
42
0.4142136
0
VERTEX
8
0
10
54.875
20
-31.7
0
VERTEX
8
0
10
40.375
20
-31.7
42
0.4142136
0
VERTEX
8
0
10
39.875
20
-32.2
0
SEQEND
0
POLYLINE
8
0
6
CONTINUOUS
66
1
70
1
0
VERTEX
8
0
10
58.925
20
-44
42
0.4142136
0
VERTEX
8
0
10
59.425
20
-44.5
0
VERTEX
8
0
10
73.925
20
-44.5
42
0.4142136
0
VERTEX
8
0
10
74.425
20
-44
0
VERTEX
8
0
10
74.425
20
-32.2
42
0.4142136
0
VERTEX
8
0
10
73.925
20
-31.7
0
VERTEX
8
0
10
59.425
20
-31.7
42
0.4142136
0
VERTEX
8
0
10
58.925
20
-32.2
0
SEQEND
0
POLYLINE
8
0
6
CONTINUOUS
66
1
70
1
0
VERTEX
8
0
10
77.975
20
-44
42
0.4142136
0
VERTEX
8
0
10
78.475
20
-44.5
0
VERTEX
8
0
10
92.975
20
-44.5
42
0.4142136
0
VERTEX
8
0
10
93.475
20
-44
0
VERTEX
8
0
10
93.475
20
-32.2
42
0.4142136
0
VERTEX
8
0
10
92.975
20
-31.7
0
VERTEX
8
0
10
78.475
20
-31.7
42
0.4142136
0
VERTEX
8
0
10
77.975
20
-32.2
0
SEQEND
0
POLYLINE
8
0
6
CONTINUOUS
66
1
70
1
0
VERTEX
8
0
10
97.025
20
-44
42
0.4142136
0
VERTEX
8
0
10
97.525
20
-44.5
0
VERTEX
8
0
10
112.025
20
-44.5
42
0.4142136
0
VERTEX
8
0
10
112.525
20
-44
0
VERTEX
8
0
10
112.525
20
-32.2
42
0.4142136
0
VERTEX
8
0
10
112.025
20
-31.7
0
VERTEX
8
0
10
97.525
20
-31.7
42
0.4142136
0
VERTEX
8
0
10
97.025
20
-32.2
0
SEQEND
0
POLYLINE
8
0
6
CONTINUOUS
66
1
70
1
0
VERTEX
8
0
10
116.075
20
-44
42
0.4142136
0
VERTEX
8
0
10
116.575
20
-44.5
0
VERTEX
8
0
10
131.075
20
-44.5
42
0.4142136
0
VERTEX
8
0
10
131.575
20
-44
0
VERTEX
8
0
10
131.575
20
-32.2
42
0.4142136
0
VERTEX
8
0
10
131.075
20
-31.7
0
VERTEX
8
0
10
116.575
20
-31.7
42
0.4142136
0
VERTEX
8
0
10
116.075
20
-32.2
0
SEQEND
0
POLYLINE
8
0
6
CONTINUOUS
66
1
70
1
0
VERTEX
8
0
10
135.125
20
-44
42
0.4142136
0
VERTEX
8
0
10
135.625
20
-44.5
0
VERTEX
8
0
10
150.125
20
-44.5
42
0.4142136
0
VERTEX
8
0
10
150.625
20
-44
0
VERTEX
8
0
10
150.625
20
-32.2
42
0.4142136
0
VERTEX
8
0
10
150.125
20
-31.7
0
VERTEX
8
0
10
135.625
20
-31.7
42
0.4142136
0
VERTEX
8
0
10
135.125
20
-32.2
0
SEQEND
0
POLYLINE
8
0
6
CONTINUOUS
66
1
70
1
0
VERTEX
8
0
10
154.175
20
-44
42
0.4142136
0
VERTEX
8
0
10
154.675
20
-44.5
0
VERTEX
8
0
10
169.175
20
-44.5
42
0.4142136
0
VERTEX
8
0
10
169.675
20
-44
0
VERTEX
8
0
10
169.675
20
-32.2
42
0.4142136
0
VERTEX
8
0
10
169.175
20
-31.7
0
VERTEX
8
0
10
154.675
20
-31.7
42
0.4142136
0
VERTEX
8
0
10
154.175
20
-32.2
0
SEQEND
0
POLYLINE
8
0
6
CONTINUOUS
66
1
70
1
0
VERTEX
8
0
10
173.225
20
-44
42
0.4142136
0
VERTEX
8
0
10
173.725
20
-44.5
0
VERTEX
8
0
10
188.225
20
-44.5
42
0.4142136
0
VERTEX
8
0
10
188.725
20
-44
0
VERTEX
8
0
10
188.725
20
-32.2
42
0.4142136
0
VERTEX
8
0
10
188.225
20
-31.7
0
VERTEX
8
0
10
173.725
20
-31.7
42
0.4142136
0
VERTEX
8
0
10
173.225
20
-32.2
0
SEQEND
0
POLYLINE
8
0
6
CONTINUOUS
66
1
70
1
0
VERTEX
8
0
10
192.275
20
-44
42
0.4142136
0
VERTEX
8
0
10
192.775
20
-44.5
0
VERTEX
8
0
10
207.275
20
-44.5
42
0.4142136
0
VERTEX
8
0
10
207.775
20
-44
0
VERTEX
8
0
10
207.775
20
-32.2
42
0.4142136
0
VERTEX
8
0
10
207.275
20
-31.7
0
VERTEX
8
0
10
192.775
20
-31.7
42
0.4142136
0
VERTEX
8
0
10
192.275
20
-32.2
0
SEQEND
0
POLYLINE
8
0
6
CONTINUOUS
66
1
70
1
0
VERTEX
8
0
10
211.325
20
-44
42
0.4142136
0
VERTEX
8
0
10
211.825
20
-44.5
0
VERTEX
8
0
10
226.325
20
-44.5
42
0.4142136
0
VERTEX
8
0
10
226.825
20
-44
0
VERTEX
8
0
10
226.825
20
-32.2
42
0.4142136
0
VERTEX
8
0
10
226.325
20
-31.7
0
VERTEX
8
0
10
211.825
20
-31.7
42
0.4142136
0
VERTEX
8
0
10
211.325
20
-32.2
0
SEQEND
0
POLYLINE
8
0
6
CONTINUOUS
66
1
70
1
0
VERTEX
8
0
10
230.375
20
-44
42
0.4142136
0
VERTEX
8
0
10
230.875
20
-44.5
0
VERTEX
8
0
10
245.375
20
-44.5
42
0.4142136
0
VERTEX
8
0
10
245.875
20
-44
0
VERTEX
8
0
10
245.875
20
-32.2
42
0.4142136
0
VERTEX
8
0
10
245.375
20
-31.7
0
VERTEX
8
0
10
230.875
20
-31.7
42
0.4142136
0
VERTEX
8
0
10
230.375
20
-32.2
0
SEQEND
0
POLYLINE
8
0
6
CONTINUOUS
66
1
70
1
0
VERTEX
8
0
10
254.1875
20
-44
42
0.4142136
0
VERTEX
8
0
10
254.6875
20
-44.5
0
VERTEX
8
0
10
269.1875
20
-44.5
42
0.4142136
0
VERTEX
8
0
10
269.6875
20
-44
0
VERTEX
8
0
10
269.6875
20
-32.2
42
0.4142136
0
VERTEX
8
0
10
269.1875
20
-31.7
0
VERTEX
8
0
10
254.6875
20
-31.7
42
0.4142136
0
VERTEX
8
0
10
254.1875
20
-32.2
0
SEQEND
0
POLYLINE
8
0
6
CONTINUOUS
66
1
70
1
0
VERTEX
8
0
10
278
20
-44
42
0.4142136
0
VERTEX
8
0
10
278.5
20
-44.5
0
VERTEX
8
0
10
293
20
-44.5
42
0.4142136
0
VERTEX
8
0
10
293.5
20
-44
0
VERTEX
8
0
10
293.5
20
-32.2
42
0.4142136
0
VERTEX
8
0
10
293
20
-31.7
0
VERTEX
8
0
10
278.5
20
-31.7
42
0.4142136
0
VERTEX
8
0
10
278
20
-32.2
0
SEQEND
0
POLYLINE
8
0
6
CONTINUOUS
66
1
70
1
0
VERTEX
8
0
10
297.05
20
-44
42
0.4142136
0
VERTEX
8
0
10
297.55
20
-44.5
0
VERTEX
8
0
10
312.05
20
-44.5
42
0.4142136
0
VERTEX
8
0
10
312.55
20
-44
0
VERTEX
8
0
10
312.55
20
-32.2
42
0.4142136
0
VERTEX
8
0
10
312.05
20
-31.7
0
VERTEX
8
0
10
297.55
20
-31.7
42
0.4142136
0
VERTEX
8
0
10
297.05
20
-32.2
0
SEQEND
0
POLYLINE
8
0
6
CONTINUOUS
66
1
70
1
0
VERTEX
8
0
10
-0.60625
20
-63.05
42
0.4142136
0
VERTEX
8
0
10
-0.10625
20
-63.55
0
VERTEX
8
0
10
14.39375
20
-63.55
42
0.4142136
0
VERTEX
8
0
10
14.89375
20
-63.05
0
VERTEX
8
0
10
14.89375
20
-51.25
42
0.4142136
0
VERTEX
8
0
10
14.39375
20
-50.75
0
VERTEX
8
0
10
-0.10625
20
-50.75
42
0.4142136
0
VERTEX
8
0
10
-0.60625
20
-51.25
0
SEQEND
0
POLYLINE
8
0
6
CONTINUOUS
66
1
70
1
0
VERTEX
8
0
10
25.5875
20
-63.05
42
0.4142136
0
VERTEX
8
0
10
26.0875
20
-63.55
0
VERTEX
8
0
10
40.5875
20
-63.55
42
0.4142136
0
VERTEX
8
0
10
41.0875
20
-63.05
0
VERTEX
8
0
10
41.0875
20
-51.25
42
0.4142136
0
VERTEX
8
0
10
40.5875
20
-50.75
0
VERTEX
8
0
10
26.0875
20
-50.75
42
0.4142136
0
VERTEX
8
0
10
25.5875
20
-51.25
0
SEQEND
0
POLYLINE
8
0
6
CONTINUOUS
66
1
70
1
0
VERTEX
8
0
10
44.6375
20
-63.05
42
0.4142136
0
VERTEX
8
0
10
45.1375
20
-63.55
0
VERTEX
8
0
10
59.6375
20
-63.55
42
0.4142136
0
VERTEX
8
0
10
60.1375
20
-63.05
0
VERTEX
8
0
10
60.1375
20
-51.25
42
0.4142136
0
VERTEX
8
0
10
59.6375
20
-50.75
0
VERTEX
8
0
10
45.1375
20
-50.75
42
0.4142136
0
VERTEX
8
0
10
44.6375
20
-51.25
0
SEQEND
0
POLYLINE
8
0
6
CONTINUOUS
66
1
70
1
0
VERTEX
8
0
10
63.6875
20
-63.05
42
0.4142136
0
VERTEX
8
0
10
64.1875
20
-63.55
0
VERTEX
8
0
10
78.6875
20
-63.55
42
0.4142136
0
VERTEX
8
0
10
79.1875
20
-63.05
0
VERTEX
8
0
10
79.1875
20
-51.25
42
0.4142136
0
VERTEX
8
0
10
78.6875
20
-50.75
0
VERTEX
8
0
10
64.1875
20
-50.75
42
0.4142136
0
VERTEX
8
0
10
63.6875
20
-51.25
0
SEQEND
0
POLYLINE
8
0
6
CONTINUOUS
66
1
70
1
0
VERTEX
8
0
10
82.7375
20
-63.05
42
0.4142136
0
VERTEX
8
0
10
83.2375
20
-63.55
0
VERTEX
8
0
10
97.7375
20
-63.55
42
0.4142136
0
VERTEX
8
0
10
98.2375
20
-63.05
0
VERTEX
8
0
10
98.2375
20
-51.25
42
0.4142136
0
VERTEX
8
0
10
97.7375
20
-50.75
0
VERTEX
8
0
10
83.2375
20
-50.75
42
0.4142136
0
VERTEX
8
0
10
82.7375
20
-51.25
0
SEQEND
0
POLYLINE
8
0
6
CONTINUOUS
66
1
70
1
0
VERTEX
8
0
10
101.7875
20
-63.05
42
0.4142136
0
VERTEX
8
0
10
102.2875
20
-63.55
0
VERTEX
8
0
10
116.7875
20
-63.55
42
0.4142136
0
VERTEX
8
0
10
117.2875
20
-63.05
0
VERTEX
8
0
10
117.2875
20
-51.25
42
0.4142136
0
VERTEX
8
0
10
116.7875
20
-50.75
0
VERTEX
8
0
10
102.2875
20
-50.75
42
0.4142136
0
VERTEX
8
0
10
101.7875
20
-51.25
0
SEQEND
0
POLYLINE
8
0
6
CONTINUOUS
66
1
70
1
0
VERTEX
8
0
10
120.8375
20
-63.05
42
0.4142136
0
VERTEX
8
0
10
121.3375
20
-63.55
0
VERTEX
8
0
10
135.8375
20
-63.55
42
0.4142136
0
VERTEX
8
0
10
136.3375
20
-63.05
0
VERTEX
8
0
10
136.3375
20
-51.25
42
0.4142136
0
VERTEX
8
0
10
135.8375
20
-50.75
0
VERTEX
8
0
10
121.3375
20
-50.75
42
0.4142136
0
VERTEX
8
0
10
120.8375
20
-51.25
0
SEQEND
0
POLYLINE
8
0
6
CONTINUOUS
66
1
70
1
0
VERTEX
8
0
10
139.8875
20
-63.05
42
0.4142136
0
VERTEX
8
0
10
140.3875
20
-63.55
0
VERTEX
8
0
10
154.8875
20
-63.55
42
0.4142136
0
VERTEX
8
0
10
155.3875
20
-63.05
0
VERTEX
8
0
10
155.3875
20
-51.25
42
0.4142136
0
VERTEX
8
0
10
154.8875
20
-50.75
0
VERTEX
8
0
10
140.3875
20
-50.75
42
0.4142136
0
VERTEX
8
0
10
139.8875
20
-51.25
0
SEQEND
0
POLYLINE
8
0
6
CONTINUOUS
66
1
70
1
0
VERTEX
8
0
10
158.9375
20
-63.05
42
0.4142136
0
VERTEX
8
0
10
159.4375
20
-63.55
0
VERTEX
8
0
10
173.9375
20
-63.55
42
0.4142136
0
VERTEX
8
0
10
174.4375
20
-63.05
0
VERTEX
8
0
10
174.4375
20
-51.25
42
0.4142136
0
VERTEX
8
0
10
173.9375
20
-50.75
0
VERTEX
8
0
10
159.4375
20
-50.75
42
0.4142136
0
VERTEX
8
0
10
158.9375
20
-51.25
0
SEQEND
0
POLYLINE
8
0
6
CONTINUOUS
66
1
70
1
0
VERTEX
8
0
10
177.9875
20
-63.05
42
0.4142136
0
VERTEX
8
0
10
178.4875
20
-63.55
0
VERTEX
8
0
10
192.9875
20
-63.55
42
0.4142136
0
VERTEX
8
0
10
193.4875
20
-63.05
0
VERTEX
8
0
10
193.4875
20
-51.25
42
0.4142136
0
VERTEX
8
0
10
192.9875
20
-50.75
0
VERTEX
8
0
10
178.4875
20
-50.75
42
0.4142136
0
VERTEX
8
0
10
177.9875
20
-51.25
0
SEQEND
0
POLYLINE
8
0
6
CONTINUOUS
66
1
70
1
0
VERTEX
8
0
10
197.0375
20
-63.05
42
0.4142136
0
VERTEX
8
0
10
197.5375
20
-63.55
0
VERTEX
8
0
10
212.0375
20
-63.55
42
0.4142136
0
VERTEX
8
0
10
212.5375
20
-63.05
0
VERTEX
8
0
10
212.5375
20
-51.25
42
0.4142136
0
VERTEX
8
0
10
212.0375
20
-50.75
0
VERTEX
8
0
10
197.5375
20
-50.75
42
0.4142136
0
VERTEX
8
0
10
197.0375
20
-51.25
0
SEQEND
0
POLYLINE
8
0
6
CONTINUOUS
66
1
70
1
0
VERTEX
8
0
10
216.0875
20
-63.05
42
0.4142136
0
VERTEX
8
0
10
216.5875
20
-63.55
0
VERTEX
8
0
10
231.0875
20
-63.55
42
0.4142136
0
VERTEX
8
0
10
231.5875
20
-63.05
0
VERTEX
8
0
10
231.5875
20
-51.25
42
0.4142136
0
VERTEX
8
0
10
231.0875
20
-50.75
0
VERTEX
8
0
10
216.5875
20
-50.75
42
0.4142136
0
VERTEX
8
0
10
216.0875
20
-51.25
0
SEQEND
0
POLYLINE
8
0
6
CONTINUOUS
66
1
70
1
0
VERTEX
8
0
10
247.04375
20
-63.05
42
0.4142136
0
VERTEX
8
0
10
247.54375
20
-63.55
0
VERTEX
8
0
10
262.04375
20
-63.55
42
0.4142136
0
VERTEX
8
0
10
262.54375
20
-63.05
0
VERTEX
8
0
10
262.54375
20
-51.25
42
0.4142136
0
VERTEX
8
0
10
262.04375
20
-50.75
0
VERTEX
8
0
10
247.54375
20
-50.75
42
0.4142136
0
VERTEX
8
0
10
247.04375
20
-51.25
0
SEQEND
0
POLYLINE
8
0
6
CONTINUOUS
66
1
70
1
0
VERTEX
8
0
10
278
20
-63.05
42
0.4142136
0
VERTEX
8
0
10
278.5
20
-63.55
0
VERTEX
8
0
10
293
20
-63.55
42
0.4142136
0
VERTEX
8
0
10
293.5
20
-63.05
0
VERTEX
8
0
10
293.5
20
-51.25
42
0.4142136
0
VERTEX
8
0
10
293
20
-50.75
0
VERTEX
8
0
10
278.5
20
-50.75
42
0.4142136
0
VERTEX
8
0
10
278
20
-51.25
0
SEQEND
0
POLYLINE
8
0
6
CONTINUOUS
66
1
70
1
0
VERTEX
8
0
10
297.05
20
-63.05
42
0.4142136
0
VERTEX
8
0
10
297.55
20
-63.55
0
VERTEX
8
0
10
312.05
20
-63.55
42
0.4142136
0
VERTEX
8
0
10
312.55
20
-63.05
0
VERTEX
8
0
10
312.55
20
-51.25
42
0.4142136
0
VERTEX
8
0
10
312.05
20
-50.75
0
VERTEX
8
0
10
297.55
20
-50.75
42
0.4142136
0
VERTEX
8
0
10
297.05
20
-51.25
0
SEQEND
0
POLYLINE
8
0
6
CONTINUOUS
66
1
70
1
0
VERTEX
8
0
10
4.15625
20
-82.1
42
0.4142136
0
VERTEX
8
0
10
4.65625
20
-82.6
0
VERTEX
8
0
10
19.15625
20
-82.6
42
0.4142136
0
VERTEX
8
0
10
19.65625
20
-82.1
0
VERTEX
8
0
10
19.65625
20
-70.3
42
0.4142136
0
VERTEX
8
0
10
19.15625
20
-69.8
0
VERTEX
8
0
10
4.65625
20
-69.8
42
0.4142136
0
VERTEX
8
0
10
4.15625
20
-70.3
0
SEQEND
0
POLYLINE
8
0
6
CONTINUOUS
66
1
70
1
0
VERTEX
8
0
10
35.1125
20
-82.1
42
0.4142136
0
VERTEX
8
0
10
35.6125
20
-82.6
0
VERTEX
8
0
10
50.1125
20
-82.6
42
0.4142136
0
VERTEX
8
0
10
50.6125
20
-82.1
0
VERTEX
8
0
10
50.6125
20
-70.3
42
0.4142136
0
VERTEX
8
0
10
50.1125
20
-69.8
0
VERTEX
8
0
10
35.6125
20
-69.8
42
0.4142136
0
VERTEX
8
0
10
35.1125
20
-70.3
0
SEQEND
0
POLYLINE
8
0
6
CONTINUOUS
66
1
70
1
0
VERTEX
8
0
10
54.1625
20
-82.1
42
0.4142136
0
VERTEX
8
0
10
54.6625
20
-82.6
0
VERTEX
8
0
10
69.1625
20
-82.6
42
0.4142136
0
VERTEX
8
0
10
69.6625
20
-82.1
0
VERTEX
8
0
10
69.6625
20
-70.3
42
0.4142136
0
VERTEX
8
0
10
69.1625
20
-69.8
0
VERTEX
8
0
10
54.6625
20
-69.8
42
0.4142136
0
VERTEX
8
0
10
54.1625
20
-70.3
0
SEQEND
0
POLYLINE
8
0
6
CONTINUOUS
66
1
70
1
0
VERTEX
8
0
10
73.2125
20
-82.1
42
0.4142136
0
VERTEX
8
0
10
73.7125
20
-82.6
0
VERTEX
8
0
10
88.2125
20
-82.6
42
0.4142136
0
VERTEX
8
0
10
88.7125
20
-82.1
0
VERTEX
8
0
10
88.7125
20
-70.3
42
0.4142136
0
VERTEX
8
0
10
88.2125
20
-69.8
0
VERTEX
8
0
10
73.7125
20
-69.8
42
0.4142136
0
VERTEX
8
0
10
73.2125
20
-70.3
0
SEQEND
0
POLYLINE
8
0
6
CONTINUOUS
66
1
70
1
0
VERTEX
8
0
10
92.2625
20
-82.1
42
0.4142136
0
VERTEX
8
0
10
92.7625
20
-82.6
0
VERTEX
8
0
10
107.2625
20
-82.6
42
0.4142136
0
VERTEX
8
0
10
107.7625
20
-82.1
0
VERTEX
8
0
10
107.7625
20
-70.3
42
0.4142136
0
VERTEX
8
0
10
107.2625
20
-69.8
0
VERTEX
8
0
10
92.7625
20
-69.8
42
0.4142136
0
VERTEX
8
0
10
92.2625
20
-70.3
0
SEQEND
0
POLYLINE
8
0
6
CONTINUOUS
66
1
70
1
0
VERTEX
8
0
10
111.3125
20
-82.1
42
0.4142136
0
VERTEX
8
0
10
111.8125
20
-82.6
0
VERTEX
8
0
10
126.3125
20
-82.6
42
0.4142136
0
VERTEX
8
0
10
126.8125
20
-82.1
0
VERTEX
8
0
10
126.8125
20
-70.3
42
0.4142136
0
VERTEX
8
0
10
126.3125
20
-69.8
0
VERTEX
8
0
10
111.8125
20
-69.8
42
0.4142136
0
VERTEX
8
0
10
111.3125
20
-70.3
0
SEQEND
0
POLYLINE
8
0
6
CONTINUOUS
66
1
70
1
0
VERTEX
8
0
10
130.3625
20
-82.1
42
0.4142136
0
VERTEX
8
0
10
130.8625
20
-82.6
0
VERTEX
8
0
10
145.3625
20
-82.6
42
0.4142136
0
VERTEX
8
0
10
145.8625
20
-82.1
0
VERTEX
8
0
10
145.8625
20
-70.3
42
0.4142136
0
VERTEX
8
0
10
145.3625
20
-69.8
0
VERTEX
8
0
10
130.8625
20
-69.8
42
0.4142136
0
VERTEX
8
0
10
130.3625
20
-70.3
0
SEQEND
0
POLYLINE
8
0
6
CONTINUOUS
66
1
70
1
0
VERTEX
8
0
10
149.4125
20
-82.1
42
0.4142136
0
VERTEX
8
0
10
149.9125
20
-82.6
0
VERTEX
8
0
10
164.4125
20
-82.6
42
0.4142136
0
VERTEX
8
0
10
164.9125
20
-82.1
0
VERTEX
8
0
10
164.9125
20
-70.3
42
0.4142136
0
VERTEX
8
0
10
164.4125
20
-69.8
0
VERTEX
8
0
10
149.9125
20
-69.8
42
0.4142136
0
VERTEX
8
0
10
149.4125
20
-70.3
0
SEQEND
0
POLYLINE
8
0
6
CONTINUOUS
66
1
70
1
0
VERTEX
8
0
10
168.4625
20
-82.1
42
0.4142136
0
VERTEX
8
0
10
168.9625
20
-82.6
0
VERTEX
8
0
10
183.4625
20
-82.6
42
0.4142136
0
VERTEX
8
0
10
183.9625
20
-82.1
0
VERTEX
8
0
10
183.9625
20
-70.3
42
0.4142136
0
VERTEX
8
0
10
183.4625
20
-69.8
0
VERTEX
8
0
10
168.9625
20
-69.8
42
0.4142136
0
VERTEX
8
0
10
168.4625
20
-70.3
0
SEQEND
0
POLYLINE
8
0
6
CONTINUOUS
66
1
70
1
0
VERTEX
8
0
10
187.5125
20
-82.1
42
0.4142136
0
VERTEX
8
0
10
188.0125
20
-82.6
0
VERTEX
8
0
10
202.5125
20
-82.6
42
0.4142136
0
VERTEX
8
0
10
203.0125
20
-82.1
0
VERTEX
8
0
10
203.0125
20
-70.3
42
0.4142136
0
VERTEX
8
0
10
202.5125
20
-69.8
0
VERTEX
8
0
10
188.0125
20
-69.8
42
0.4142136
0
VERTEX
8
0
10
187.5125
20
-70.3
0
SEQEND
0
POLYLINE
8
0
6
CONTINUOUS
66
1
70
1
0
VERTEX
8
0
10
206.5625
20
-82.1
42
0.4142136
0
VERTEX
8
0
10
207.0625
20
-82.6
0
VERTEX
8
0
10
221.5625
20
-82.6
42
0.4142136
0
VERTEX
8
0
10
222.0625
20
-82.1
0
VERTEX
8
0
10
222.0625
20
-70.3
42
0.4142136
0
VERTEX
8
0
10
221.5625
20
-69.8
0
VERTEX
8
0
10
207.0625
20
-69.8
42
0.4142136
0
VERTEX
8
0
10
206.5625
20
-70.3
0
SEQEND
0
POLYLINE
8
0
6
CONTINUOUS
66
1
70
1
0
VERTEX
8
0
10
242.28125
20
-82.1
42
0.4142136
0
VERTEX
8
0
10
242.78125
20
-82.6
0
VERTEX
8
0
10
257.28125
20
-82.6
42
0.4142136
0
VERTEX
8
0
10
257.78125
20
-82.1
0
VERTEX
8
0
10
257.78125
20
-70.3
42
0.4142136
0
VERTEX
8
0
10
257.28125
20
-69.8
0
VERTEX
8
0
10
242.78125
20
-69.8
42
0.4142136
0
VERTEX
8
0
10
242.28125
20
-70.3
0
SEQEND
0
POLYLINE
8
0
6
CONTINUOUS
66
1
70
1
0
VERTEX
8
0
10
278
20
-82.1
42
0.4142136
0
VERTEX
8
0
10
278.5
20
-82.6
0
VERTEX
8
0
10
293
20
-82.6
42
0.4142136
0
VERTEX
8
0
10
293.5
20
-82.1
0
VERTEX
8
0
10
293.5
20
-70.3
42
0.4142136
0
VERTEX
8
0
10
293
20
-69.8
0
VERTEX
8
0
10
278.5
20
-69.8
42
0.4142136
0
VERTEX
8
0
10
278
20
-70.3
0
SEQEND
0
POLYLINE
8
0
6
CONTINUOUS
66
1
70
1
0
VERTEX
8
0
10
297.05
20
-82.1
42
0.4142136
0
VERTEX
8
0
10
297.55
20
-82.6
0
VERTEX
8
0
10
312.05
20
-82.6
42
0.4142136
0
VERTEX
8
0
10
312.55
20
-82.1
0
VERTEX
8
0
10
312.55
20
-70.3
42
0.4142136
0
VERTEX
8
0
10
312.05
20
-69.8
0
VERTEX
8
0
10
297.55
20
-69.8
42
0.4142136
0
VERTEX
8
0
10
297.05
20
-70.3
0
SEQEND
0
POLYLINE
8
0
6
CONTINUOUS
66
1
70
1
0
VERTEX
8
0
10
-2.9875
20
-101.15
42
0.4142136
0
VERTEX
8
0
10
-2.4875
20
-101.65
0
VERTEX
8
0
10
12.0125
20
-101.65
42
0.4142136
0
VERTEX
8
0
10
12.5125
20
-101.15
0
VERTEX
8
0
10
12.5125
20
-89.35
42
0.4142136
0
VERTEX
8
0
10
12.0125
20
-88.85
0
VERTEX
8
0
10
-2.4875
20
-88.85
42
0.4142136
0
VERTEX
8
0
10
-2.9875
20
-89.35
0
SEQEND
0
POLYLINE
8
0
6
CONTINUOUS
66
1
70
1
0
VERTEX
8
0
10
23.20625
20
-101.15
42
0.4142136
0
VERTEX
8
0
10
23.70625
20
-101.65
0
VERTEX
8
0
10
38.20625
20
-101.65
42
0.4142136
0
VERTEX
8
0
10
38.70625
20
-101.15
0
VERTEX
8
0
10
38.70625
20
-89.35
42
0.4142136
0
VERTEX
8
0
10
38.20625
20
-88.85
0
VERTEX
8
0
10
23.70625
20
-88.85
42
0.4142136
0
VERTEX
8
0
10
23.20625
20
-89.35
0
SEQEND
0
POLYLINE
8
0
6
CONTINUOUS
66
1
70
1
0
VERTEX
8
0
10
49.4
20
-101.15
42
0.4142136
0
VERTEX
8
0
10
49.9
20
-101.65
0
VERTEX
8
0
10
64.4
20
-101.65
42
0.4142136
0
VERTEX
8
0
10
64.9
20
-101.15
0
VERTEX
8
0
10
64.9
20
-89.35
42
0.4142136
0
VERTEX
8
0
10
64.4
20
-88.85
0
VERTEX
8
0
10
49.9
20
-88.85
42
0.4142136
0
VERTEX
8
0
10
49.4
20
-89.35
0
SEQEND
0
POLYLINE
8
0
6
CONTINUOUS
66
1
70
1
0
VERTEX
8
0
10
125.6
20
-101.15
42
0.4142136
0
VERTEX
8
0
10
126.1
20
-101.65
0
VERTEX
8
0
10
140.6
20
-101.65
42
0.4142136
0
VERTEX
8
0
10
141.1
20
-101.15
0
VERTEX
8
0
10
141.1
20
-89.35
42
0.4142136
0
VERTEX
8
0
10
140.6
20
-88.85
0
VERTEX
8
0
10
126.1
20
-88.85
42
0.4142136
0
VERTEX
8
0
10
125.6
20
-89.35
0
SEQEND
0
POLYLINE
8
0
6
CONTINUOUS
66
1
70
1
0
VERTEX
8
0
10
199.41875
20
-101.15
42
0.4142136
0
VERTEX
8
0
10
199.91875
20
-101.65
0
VERTEX
8
0
10
214.41875
20
-101.65
42
0.4142136
0
VERTEX
8
0
10
214.91875
20
-101.15
0
VERTEX
8
0
10
214.91875
20
-89.35
42
0.4142136
0
VERTEX
8
0
10
214.41875
20
-88.85
0
VERTEX
8
0
10
199.91875
20
-88.85
42
0.4142136
0
VERTEX
8
0
10
199.41875
20
-89.35
0
SEQEND
0
POLYLINE
8
0
6
CONTINUOUS
66
1
70
1
0
VERTEX
8
0
10
220.85
20
-101.15
42
0.4142136
0
VERTEX
8
0
10
221.35
20
-101.65
0
VERTEX
8
0
10
235.85
20
-101.65
42
0.4142136
0
VERTEX
8
0
10
236.35
20
-101.15
0
VERTEX
8
0
10
236.35
20
-89.35
42
0.4142136
0
VERTEX
8
0
10
235.85
20
-88.85
0
VERTEX
8
0
10
221.35
20
-88.85
42
0.4142136
0
VERTEX
8
0
10
220.85
20
-89.35
0
SEQEND
0
POLYLINE
8
0
6
CONTINUOUS
66
1
70
1
0
VERTEX
8
0
10
239.9
20
-101.15
42
0.4142136
0
VERTEX
8
0
10
240.4
20
-101.65
0
VERTEX
8
0
10
254.9
20
-101.65
42
0.4142136
0
VERTEX
8
0
10
255.4
20
-101.15
0
VERTEX
8
0
10
255.4
20
-89.35
42
0.4142136
0
VERTEX
8
0
10
254.9
20
-88.85
0
VERTEX
8
0
10
240.4
20
-88.85
42
0.4142136
0
VERTEX
8
0
10
239.9
20
-89.35
0
SEQEND
0
POLYLINE
8
0
6
CONTINUOUS
66
1
70
1
0
VERTEX
8
0
10
258.95
20
-101.15
42
0.4142136
0
VERTEX
8
0
10
259.45
20
-101.65
0
VERTEX
8
0
10
273.95
20
-101.65
42
0.4142136
0
VERTEX
8
0
10
274.45
20
-101.15
0
VERTEX
8
0
10
274.45
20
-89.35
42
0.4142136
0
VERTEX
8
0
10
273.95
20
-88.85
0
VERTEX
8
0
10
259.45
20
-88.85
42
0.4142136
0
VERTEX
8
0
10
258.95
20
-89.35
0
SEQEND
0
POLYLINE
8
0
6
CONTINUOUS
66
1
70
1
0
VERTEX
8
0
10
278
20
-101.15
42
0.4142136
0
VERTEX
8
0
10
278.5
20
-101.65
0
VERTEX
8
0
10
293
20
-101.65
42
0.4142136
0
VERTEX
8
0
10
293.5
20
-101.15
0
VERTEX
8
0
10
293.5
20
-89.35
42
0.4142136
0
VERTEX
8
0
10
293
20
-88.85
0
VERTEX
8
0
10
278.5
20
-88.85
42
0.4142136
0
VERTEX
8
0
10
278
20
-89.35
0
SEQEND
0
POLYLINE
8
0
6
CONTINUOUS
66
1
70
1
0
VERTEX
8
0
10
297.05
20
-101.15
42
0.4142136
0
VERTEX
8
0
10
297.55
20
-101.65
0
VERTEX
8
0
10
312.05
20
-101.65
42
0.4142136
0
VERTEX
8
0
10
312.55
20
-101.15
0
VERTEX
8
0
10
312.55
20
-89.35
42
0.4142136
0
VERTEX
8
0
10
312.05
20
-88.85
0
VERTEX
8
0
10
297.55
20
-88.85
42
0.4142136
0
VERTEX
8
0
10
297.05
20
-89.35
0
SEQEND
0
POLYLINE
8
0
6
CONTINUOUS
66
1
70
1
0
VERTEX
8
0
10
241.84
20
-27.635
42
0.4142136
0
VERTEX
8
0
10
242.34
20
-28.135
0
VERTEX
8
0
10
244.01
20
-28.135
42
0.4142136
0
VERTEX
8
0
10
244.51
20
-27.635
0
VERTEX
8
0
10
244.51
20
-23.425
42
0.4142136
0
VERTEX
8
0
10
244.01
20
-22.925
0
VERTEX
8
0
10
242.34
20
-22.925
42
0.4142136
0
VERTEX
8
0
10
241.84
20
-23.425
0
SEQEND
0
POLYLINE
8
0
6
CONTINUOUS
66
1
70
1
0
VERTEX
8
0
10
269.84
20
-27.635
42
0.4142136
0
VERTEX
8
0
10
270.34
20
-28.135
0
VERTEX
8
0
10
272.01
20
-28.135
42
0.4142136
0
VERTEX
8
0
10
272.51
20
-27.635
0
VERTEX
8
0
10
272.51
20
-23.425
42
0.4142136
0
VERTEX
8
0
10
272.01
20
-22.925
0
VERTEX
8
0
10
270.34
20
-22.925
42
0.4142136
0
VERTEX
8
0
10
269.84
20
-23.425
0
SEQEND
0
POLYLINE
8
0
6
CONTINUOUS
66
1
70
1
0
VERTEX
8
0
10
-6.19125
20
-65.735
42
0.4142136
0
VERTEX
8
0
10
-5.69125
20
-66.235
0
VERTEX
8
0
10
-4.02125
20
-66.235
42
0.4142136
0
VERTEX
8
0
10
-3.52125
20
-65.735
0
VERTEX
8
0
10
-3.52125
20
-61.525
42
0.4142136
0
VERTEX
8
0
10
-4.02125
20
-61.025
0
VERTEX
8
0
10
-5.69125
20
-61.025
42
0.4142136
0
VERTEX
8
0
10
-6.19125
20
-61.525
0
SEQEND
0
POLYLINE
8
0
6
CONTINUOUS
66
1
70
1
0
VERTEX
8
0
10
17.80875
20
-65.735
42
0.4142136
0
VERTEX
8
0
10
18.30875
20
-66.235
0
VERTEX
8
0
10
19.97875
20
-66.235
42
0.4142136
0
VERTEX
8
0
10
20.47875
20
-65.735
0
VERTEX
8
0
10
20.47875
20
-61.525
42
0.4142136
0
VERTEX
8
0
10
19.97875
20
-61.025
0
VERTEX
8
0
10
18.30875
20
-61.025
42
0.4142136
0
VERTEX
8
0
10
17.80875
20
-61.525
0
SEQEND
0
POLYLINE
8
0
6
CONTINUOUS
66
1
70
1
0
VERTEX
8
0
10
239.45875
20
-65.735
42
0.4142136
0
VERTEX
8
0
10
239.95875
20
-66.235
0
VERTEX
8
0
10
241.62875
20
-66.235
42
0.4142136
0
VERTEX
8
0
10
242.12875
20
-65.735
0
VERTEX
8
0
10
242.12875
20
-61.525
42
0.4142136
0
VERTEX
8
0
10
241.62875
20
-61.025
0
VERTEX
8
0
10
239.95875
20
-61.025
42
0.4142136
0
VERTEX
8
0
10
239.45875
20
-61.525
0
SEQEND
0
POLYLINE
8
0
6
CONTINUOUS
66
1
70
1
0
VERTEX
8
0
10
267.45875
20
-65.735
42
0.4142136
0
VERTEX
8
0
10
267.95875
20
-66.235
0
VERTEX
8
0
10
269.62875
20
-66.235
42
0.4142136
0
VERTEX
8
0
10
270.12875
20
-65.735
0
VERTEX
8
0
10
270.12875
20
-61.525
42
0.4142136
0
VERTEX
8
0
10
269.62875
20
-61.025
0
VERTEX
8
0
10
267.95875
20
-61.025
42
0.4142136
0
VERTEX
8
0
10
267.45875
20
-61.525
0
SEQEND
0
POLYLINE
8
0
6
CONTINUOUS
66
1
70
1
0
VERTEX
8
0
10
-3.42875
20
-84.785
42
0.4142136
0
VERTEX
8
0
10
-2.92875
20
-85.285
0
VERTEX
8
0
10
-1.25875
20
-85.285
42
0.4142136
0
VERTEX
8
0
10
-0.75875
20
-84.785
0
VERTEX
8
0
10
-0.75875
20
-80.575
42
0.4142136
0
VERTEX
8
0
10
-1.25875
20
-80.075
0
VERTEX
8
0
10
-2.92875
20
-80.075
42
0.4142136
0
VERTEX
8
0
10
-3.42875
20
-80.575
0
SEQEND
0
POLYLINE
8
0
6
CONTINUOUS
66
1
70
1
0
VERTEX
8
0
10
24.57125
20
-84.785
42
0.4142136
0
VERTEX
8
0
10
25.07125
20
-85.285
0
VERTEX
8
0
10
26.74125
20
-85.285
42
0.4142136
0
VERTEX
8
0
10
27.24125
20
-84.785
0
VERTEX
8
0
10
27.24125
20
-80.575
42
0.4142136
0
VERTEX
8
0
10
26.74125
20
-80.075
0
VERTEX
8
0
10
25.07125
20
-80.075
42
0.4142136
0
VERTEX
8
0
10
24.57125
20
-80.575
0
SEQEND
0
POLYLINE
8
0
6
CONTINUOUS
66
1
70
1
0
VERTEX
8
0
10
234.69625
20
-84.785
42
0.4142136
0
VERTEX
8
0
10
235.19625
20
-85.285
0
VERTEX
8
0
10
236.86625
20
-85.285
42
0.4142136
0
VERTEX
8
0
10
237.36625
20
-84.785
0
VERTEX
8
0
10
237.36625
20
-80.575
42
0.4142136
0
VERTEX
8
0
10
236.86625
20
-80.075
0
VERTEX
8
0
10
235.19625
20
-80.075
42
0.4142136
0
VERTEX
8
0
10
234.69625
20
-80.575
0
SEQEND
0
POLYLINE
8
0
6
CONTINUOUS
66
1
70
1
0
VERTEX
8
0
10
262.69625
20
-84.785
42
0.4142136
0
VERTEX
8
0
10
263.19625
20
-85.285
0
VERTEX
8
0
10
264.86625
20
-85.285
42
0.4142136
0
VERTEX
8
0
10
265.36625
20
-84.785
0
VERTEX
8
0
10
265.36625
20
-80.575
42
0.4142136
0
VERTEX
8
0
10
264.86625
20
-80.075
0
VERTEX
8
0
10
263.19625
20
-80.075
42
0.4142136
0
VERTEX
8
0
10
262.69625
20
-80.575
0
SEQEND
0
POLYLINE
8
0
6
CONTINUOUS
66
1
70
1
0
VERTEX
8
0
10
86.715
20
-103.835
42
0.4142136
0
VERTEX
8
0
10
87.215
20
-104.335
0
VERTEX
8
0
10
88.885
20
-104.335
42
0.4142136
0
VERTEX
8
0
10
89.385
20
-103.835
0
VERTEX
8
0
10
89.385
20
-99.625
42
0.4142136
0
VERTEX
8
0
10
88.885
20
-99.125
0
VERTEX
8
0
10
87.215
20
-99.125
42
0.4142136
0
VERTEX
8
0
10
86.715
20
-99.625
0
SEQEND
0
POLYLINE
8
0
6
CONTINUOUS
66
1
70
1
0
VERTEX
8
0
10
177.315
20
-103.835
42
0.4142136
0
VERTEX
8
0
10
177.815
20
-104.335
0
VERTEX
8
0
10
179.485
20
-104.335
42
0.4142136
0
VERTEX
8
0
10
179.985
20
-103.835
0
VERTEX
8
0
10
179.985
20
-99.625
42
0.4142136
0
VERTEX
8
0
10
179.485
20
-99.125
0
VERTEX
8
0
10
177.815
20
-99.125
42
0.4142136
0
VERTEX
8
0
10
177.315
20
-99.625
0
SEQEND
0
POLYLINE
8
0
6
CONTINUOUS
66
1
70
1
0
VERTEX
8
0
10
-12.25
20
-110.335
42
0.1989125
0
VERTEX
8
0
10
-12.6893398
20
-109.2743398
42
0.1989125
0
VERTEX
8
0
10
-13.75
20
-108.835
42
0.1989125
0
VERTEX
8
0
10
-14.8106602
20
-109.2743398
42
0.1989125
0
VERTEX
8
0
10
-15.25
20
-110.335
42
0.1989125
0
VERTEX
8
0
10
-14.8106602
20
-111.3956602
42
0.1989125
0
VERTEX
8
0
10
-13.75
20
-111.835
42
0.1989125
0
VERTEX
8
0
10
-12.6893398
20
-111.3956602
42
0.1989125
0
SEQEND
0
POLYLINE
8
0
6
CONTINUOUS
66
1
70
1
0
VERTEX
8
0
10
320.05
20
-110.335
42
0.1989125
0
VERTEX
8
0
10
319.6106602
20
-109.2743398
42
0.1989125
0
VERTEX
8
0
10
318.55
20
-108.835
42
0.1989125
0
VERTEX
8
0
10
317.4893398
20
-109.2743398
42
0.1989125
0
VERTEX
8
0
10
317.05
20
-110.335
42
0.1989125
0
VERTEX
8
0
10
317.4893398
20
-111.3956602
42
0.1989125
0
VERTEX
8
0
10
318.55
20
-111.835
42
0.1989125
0
VERTEX
8
0
10
319.6106602
20
-111.3956602
42
0.1989125
0
SEQEND
0
POLYLINE
8
0
6
CONTINUOUS
66
1
70
1
0
VERTEX
8
0
10
-12.25
20
12.4
42
0.1989125
0
VERTEX
8
0
10
-12.6893398
20
13.4606602
42
0.1989125
0
VERTEX
8
0
10
-13.75
20
13.9
42
0.1989125
0
VERTEX
8
0
10
-14.8106602
20
13.4606602
42
0.1989125
0
VERTEX
8
0
10
-15.25
20
12.4
42
0.1989125
0
VERTEX
8
0
10
-14.8106602
20
11.3393398
42
0.1989125
0
VERTEX
8
0
10
-13.75
20
10.9
42
0.1989125
0
VERTEX
8
0
10
-12.6893398
20
11.3393398
42
0.1989125
0
SEQEND
0
POLYLINE
8
0
6
CONTINUOUS
66
1
70
1
0
VERTEX
8
0
10
320.05
20
12.4
42
0.1989125
0
VERTEX
8
0
10
319.6106602
20
13.4606602
42
0.1989125
0
VERTEX
8
0
10
318.55
20
13.9
42
0.1989125
0
VERTEX
8
0
10
317.4893398
20
13.4606602
42
0.1989125
0
VERTEX
8
0
10
317.05
20
12.4
42
0.1989125
0
VERTEX
8
0
10
317.4893398
20
11.3393398
42
0.1989125
0
VERTEX
8
0
10
318.55
20
10.9
42
0.1989125
0
VERTEX
8
0
10
319.6106602
20
11.3393398
42
0.1989125
0
SEQEND
0
POLYLINE
8
0
6
CONTINUOUS
66
1
70
1
0
VERTEX
8
0
10
153.9
20
12.3825
42
0.1989125
0
VERTEX
8
0
10
153.4606602
20
13.4431602
42
0.1989125
0
VERTEX
8
0
10
152.4
20
13.8825
42
0.1989125
0
VERTEX
8
0
10
151.3393398
20
13.4431602
42
0.1989125
0
VERTEX
8
0
10
150.9
20
12.3825
42
0.1989125
0
VERTEX
8
0
10
151.3393398
20
11.3218398
42
0.1989125
0
VERTEX
8
0
10
152.4
20
10.8825
42
0.1989125
0
VERTEX
8
0
10
153.4606602
20
11.3218398
42
0.1989125
0
SEQEND
0
POLYLINE
8
0
6
CONTINUOUS
66
1
70
1
0
VERTEX
8
0
10
153.9
20
-110.20425
42
0.1989125
0
VERTEX
8
0
10
153.4606602
20
-109.1435898
42
0.1989125
0
VERTEX
8
0
10
152.4
20
-108.70425
42
0.1989125
0
VERTEX
8
0
10
151.3393398
20
-109.1435898
42
0.1989125
0
VERTEX
8
0
10
150.9
20
-110.20425
42
0.1989125
0
VERTEX
8
0
10
151.3393398
20
-111.2649102
42
0.1989125
0
VERTEX
8
0
10
152.4
20
-111.70425
42
0.1989125
0
VERTEX
8
0
10
153.4606602
20
-111.2649102
42
0.1989125
0
SEQEND
0
POLYLINE
8
outline
6
CONTINUOUS
66
1
70
1
0
VERTEX
8
outline
10
-17.75
20
-110.335
42
0.4142136
0
VERTEX
8
outline
10
-13.75
20
-114.335
0
VERTEX
8
outline
10
318.55
20
-114.335
42
0.4142136
0
VERTEX
8
outline
10
322.55
20
-110.335
0
VERTEX
8
outline
10
322.55
20
12.4
42
0.4142136
0
VERTEX
8
outline
10
318.55
20
16.4
0
VERTEX
8
outline
10
-13.75
20
16.4
42
0.4142136
0
VERTEX
8
outline
10
-17.75
20
12.4
0
SEQEND
0
ENDSEC
0
EOF